<?xml version="1.0" encoding="utf-8"?>
<!-- Generator: Adobe Illustrator 19.1.1, SVG Export Plug-In . SVG Version: 6.00 Build 0)  -->
<svg version="1.1" id="Layer_1" xmlns="http://www.w3.org/2000/svg" xmlns:xlink="http://www.w3.org/1999/xlink" x="0px" y="0px"
	 viewBox="-361 167.9 468.7 507" style="enable-background:new -361 167.9 468.7 507;" xml:space="preserve">
<style type="text/css">
	.st0{fill:#1D2D52;}
</style>
<path class="st0" d="M84.7,446.9h-364c-12.7,0-23,10.3-23,23v181.3c0,12.7,10.3,23,23,23h364c12.7,0,23-10.3,23-23V469.9
	C107.7,457.2,97.4,446.9,84.7,446.9z M-258.2,571.2c-5.9,5.9-15.4,5.9-21.3,0c-5.9-5.9-5.9-15.4,0-21.3c5.9-5.9,15.4-5.9,21.3,0
	C-252.3,555.8-252.3,565.3-258.2,571.2z M55.2,659.5h-286v-198h286V659.5z M88.8,636.5c0,2.9-2.4,5.3-5.3,5.3s-5.3-2.4-5.3-5.3
	V484.6c0-2.9,2.4-5.3,5.3-5.3s5.3,2.4,5.3,5.3V636.5z"/>
<path class="st0" d="M-129.2,176.9c0,0,188.8-56.1,193.3,111.5h36.4c3.9,0,6.1,4.5,3.8,7.6l-59.1,78c-1.9,2.5-5.7,2.5-7.6,0
	l-59.1-78c-2.4-3.1-0.1-7.6,3.8-7.6h33C18,257,13.1,169.8-129.2,176.9z"/>
<path class="st0" d="M-346.3,557.1v-286h198v162h14.7V241.5c0-12.7-10.3-23-23-23H-338c-12.7,0-23,10.3-23,23v364
	c0,12.7,10.3,23,23,23h23.6V557h-31.9V557.1z M-323.2,237.4h151.8c2.9,0,5.3,2.4,5.3,5.3c0,2.9-2.4,5.3-5.3,5.3h-151.8
	c-2.9,0-5.3-2.4-5.3-5.3C-328.5,239.8-326.2,237.4-323.2,237.4z"/>
</svg>
