<?xml version="1.0" encoding="utf-8"?>
<!-- Generator: Adobe Illustrator 19.1.1, SVG Export Plug-In . SVG Version: 6.00 Build 0)  -->
<svg version="1.1" id="Camada_1" xmlns="http://www.w3.org/2000/svg" xmlns:xlink="http://www.w3.org/1999/xlink" x="0px" y="0px"
	 viewBox="0 0 612 133" style="enable-background:new 0 0 612 133;" xml:space="preserve">
<style type="text/css">
	.st0{opacity:0.29;}
	.st1{fill:#1D2D52;}
</style>
<g class="st0">
	<path class="st1" d="M306.3,13.1c-3.2,3.2-7,7-9,8.7c-2,1.7-3.3,3.2-5.7,1.5c-1.7-1.2-1.9-3-0.3-6.4c1.5-3.3,2.9-6.2,4.3-9.6
		c1.5-3.8,5.6-6.1,9.1-4C308.2,5.4,309.2,10.2,306.3,13.1z"/>
	<g>
		<path class="st1" d="M497.3,95.9l-15.8-40.2l-16.9,40.2H497.3z M490.1,36.4c1.4,5.1,3.2,9.7,5.1,14.4l23.1,59.2
			c6.1,15.8,8.7,16.2,12.8,16.2h1.6v3.8h-35.5v-3.8h2.9c5.8,0,7-0.8,7-3.2c0-1.4-0.4-3.2-1.4-6l-6.8-17.4H463l-4.5,10.9
			c-2.7,6.5-3.5,9.5-3.5,11.5c0,4.1,3.9,4.1,8.6,4.1h1.7v3.8h-26.7v-3.8h1.4c3.9,0,7.1-1.3,10.2-8.9l28.3-67.8
			c1.8-4.3,3.5-8.7,4.7-13.1H490.1z"/>
		<path class="st1" d="M594.5,57.4h-4.5c-0.3-11.5-8.7-20.1-20.2-20.1c-11,0-20.1,5.8-20.1,17.8c0,21,49.4,13.5,49.4,47
			c0,17.9-14.6,27.9-31.6,27.9c-5.4,0-10-0.9-13.3-1.7c-3.5-0.8-5.8-1.6-7-1.6c-2.2,0-3.4,1.2-3.8,2.5h-4.5v-25.8h4.5
			c2.7,13.6,9.3,22.8,24.2,22.8c11.9,0,20.5-6.6,20.5-19.2c0-22.9-49.4-17.2-49.4-45.6c0-17.8,13.5-27.9,30.7-27.9
			c6.9,0,14,3.7,18.3,3.7c1.9,0,2.4-1,3-3h3.9V57.4z"/>
		<path class="st1" d="M208.8,126.2h6.1c5.3,0,5.3-2.4,5.3-13.6V41.4h-7c-11.5,0-19.8,6.6-20.1,18.8h-4.6V37.7h77.8v22.5h-4.5
			c-0.3-12.1-8.5-18.8-20.1-18.8h-7v71.1c0,11.2,0,13.6,5.3,13.6h6.1v3.8h-37.3V126.2z"/>
		<path class="st1" d="M146.3,126.2c21.5,0,23.1-29.2,23.1-44.5c0-15.3-1.6-44.4-23.1-44.4c-21.5,0-23.1,29.2-23.1,44.4
			C123.2,97,124.8,126.2,146.3,126.2 M146.3,33.5c26.8,0,39.1,24,39.1,48.2c0,24.3-12.3,48.2-39.1,48.2c-26.9,0-39.1-24-39.1-48.2
			C107.2,57.5,119.5,33.5,146.3,33.5"/>
		<path class="st1" d="M272.3,126.2h4c5.3,0,6.6-2,6.6-6.5V49.1c0-6.8-1.8-7.6-7.1-7.6h-3.5v-3.8h35.8v3.8h-3.5
			c-5.3,0-7.2,0.9-7.2,7.6v70.6c0,4.5,1.3,6.5,6.6,6.5h4v3.8h-35.8V126.2z"/>
		<path class="st1" d="M393.7,126.2h4c5.3,0,6.6-2,6.6-6.5V49.1c0-6.8-1.8-7.6-7.1-7.6h-3.5v-3.8h35.8v3.8H426
			c-5.3,0-7.2,0.9-7.2,7.6v70.6c0,4.5,1.3,6.5,6.6,6.5h4v3.8h-35.8V126.2z"/>
		<path class="st1" d="M13.4,125.2H18c5.6,0,5.7-5.6,5.7-15.2V58c0-16.5-0.9-17.6-5.6-17.6h-4.7v-3.8h25.3l46.5,71.5h0.3V54.5
			c0-11.7-0.4-14.1-7.4-14.1h-4.3v-3.8h27.3v3.8h-3.1c-6.6,0-7.2,3.2-7.2,14.1v75.4h-8.3l-53.3-81H29V110c0,9.6,0.1,15.2,5.3,15.2
			h5.3v3.8H13.4V125.2z"/>
		<path class="st1" d="M358.9,37.8c13,0,22,9.1,23.1,21.8h4.5V34.8H382c-0.1,2-0.8,3.4-2.2,3.4c-2.1,0-4.4-1-7.8-2.1
			c-3.2-1-7.6-2.1-14.1-2.1c-27,0-42.4,21.9-42.4,47.3c0,0.3,0,0.6,0,0.9c0,0.3,0,0.6,0,0.9c0,25.4,15.4,47.3,42.4,47.3
			c6.5,0,10.9-1,14.1-2.1c3.4-1,5.7-2.1,7.8-2.1c1.4,0,2.1,1.4,2.2,3.4h4.5V105H382c-1.1,12.7-10.1,21.8-23.1,21.8
			c-23.3,0-27.2-26.1-27.3-44.5C331.7,63.9,335.6,37.8,358.9,37.8z"/>
	</g>
</g>
</svg>
