<?xml version="1.0" encoding="utf-8"?>
<!-- Generator: Adobe Illustrator 19.1.1, SVG Export Plug-In . SVG Version: 6.00 Build 0)  -->
<svg version="1.1" id="Camada_1" xmlns="http://www.w3.org/2000/svg" xmlns:xlink="http://www.w3.org/1999/xlink" x="0px" y="0px"
	 viewBox="0 0 612 659" style="enable-background:new 0 0 612 659;" xml:space="preserve">
<style type="text/css">
	.st0{fill:#FFFFFF;}
</style>
<g>
	<path class="st0" d="M70.5,541.7l-61.2,0.5c-2.6,0-5.3,1.6-5.3,5.9c0,4.3,2.8,5.8,5.4,5.8l24.9-0.2l0.7,83.1c0,1.8,0.7,3.4,2,4.6
		c1.2,1,2.7,1.6,4.4,1.6c1.6,0,3-0.6,4.2-1.7c1.3-1.2,2-2.8,2-4.7l-0.7-83.2l23.7-0.2c1.9,0,3.5-0.7,4.6-1.8
		c1.2-1.1,1.9-2.6,1.9-4.2c0-1.7-0.7-3.1-2-4.3C73.9,542.2,72.4,541.7,70.5,541.7"/>
	<path class="st0" d="M164.1,542c-0.8-1.4-2-2.5-3.7-3c-1.7-0.5-3.2-0.5-4.8,0.3c-1.7,0.9-2.8,2.5-3.2,4.3l-25.8,78L99.5,544
		c-0.7-1.9-1.8-3.2-3.5-4.2c-1.6-0.8-3.2-0.9-4.8-0.3c-1.6,0.5-2.8,1.6-3.7,3.2c-0.8,1.7-0.8,3.5,0,5.4l30.9,86.7
		c1.8,6.2,5.6,7.5,8.4,7.5c2.7,0,6.4-1.3,8.4-7.5l29.3-87.4C165.1,545.5,165,543.7,164.1,542"/>
	<path class="st0" d="M201.3,606.7l-10.9,30.6c-0.5,1.3-1.3,2.3-2.5,2.9c-0.9,0.5-2,0.6-3,0.3c-1.1-0.3-1.8-1-2.4-2.1
		c-0.5-1-0.5-2.3,0.1-3.7l31.6-89.2c0.7-2,1.7-3.6,3.1-4.6c1.3-1,2.8-1.5,4.5-1.5c1.5,0,2.9,0.5,4.2,1.4c1.4,1,2.5,2.6,3.2,4.6
		l33.3,88.6c0.4,1.3,0.4,2.6-0.1,3.7c-0.4,1-1.2,1.6-2.2,2c-1,0.4-2.1,0.3-3.2-0.1c-1.1-0.6-1.8-1.6-2.4-2.8l-11.3-30.5l-2.8-7.2
		l-18.5-49.7h-0.4l-17.8,50"/>
	<path class="st0" d="M285.6,539.8c0.8-0.7,1.7-1.1,2.9-1.1c1.1,0,2,0.3,2.8,1c0.9,0.8,1.3,1.9,1.3,3.3l0.7,81.3
		c0,1.6,0.5,2.9,1.3,3.9c1.1,1.2,2.6,1.8,4.5,1.8l40.4-0.4c1.3,0,2.4,0.3,3.2,1c0.7,0.7,1.1,1.6,1.1,2.6c0,1-0.3,1.8-1,2.5
		c-0.8,0.8-1.8,1.2-3.1,1.2l-41.8,0.4c-4,0-7.2-1.2-9.5-3.9c-2-2.3-3.1-5.2-3.1-8.6l-0.7-81.8C284.5,541.7,284.8,540.6,285.6,539.8"
		/>
	<path class="st0" d="M427.4,540.8c0.7,0.7,1.1,1.6,1.1,2.6c0,1-0.3,1.8-1,2.5c-0.8,0.8-1.8,1.2-3,1.2l-46.4,0.4
		c-1.9,0-3.4,0.6-4.4,1.9c-0.9,1.1-1.3,2.4-1.3,4.1l0.3,29.6l47.6-0.4c1.3,0,2.4,0.3,3.2,1c0.7,0.7,1.1,1.6,1.1,2.6
		c0,1-0.3,1.8-1,2.5c-0.8,0.8-1.8,1.2-3.1,1.2l-47.6,0.4l0.3,33.2c0,1.6,0.5,2.9,1.3,3.9c1.1,1.2,2.6,1.8,4.5,1.8l48.1-0.4
		c1.3,0,2.4,0.3,3.2,1c0.7,0.7,1.1,1.6,1.1,2.6c0,1-0.3,1.8-1,2.5c-0.8,0.8-1.8,1.2-3.1,1.2l-49.6,0.4c-4,0-7.2-1.2-9.5-3.8
		c-2-2.3-3.1-5.2-3.1-8.6l-0.6-71.2c0-3.5,0.9-6.4,2.9-8.8c2.3-2.6,5.4-4,9.4-4l47.9-0.4C425.6,539.8,426.6,540.1,427.4,540.8"/>
	<path class="st0" d="M511,578.5c3.3-3.7,4.9-8,4.9-13c0-5.1-1.7-9.4-5.1-13.1c-3.8-4-8.7-6-14.9-5.9l-27.3,0.2
		c-1.9,0-3.4,0.6-4.4,1.9c-0.9,1.1-1.3,2.4-1.3,4.1l0.3,32.4l33-0.3C502.4,584.8,507.3,582.7,511,578.5 M496.8,539.2
		c8.5-0.1,15.3,2.6,20.4,8.1c4.6,5,6.9,11.1,7,18.2c0,5.3-1.3,10.1-4.1,14.2c-2.8,4.1-6.5,6.9-11.2,8.6c3,0.2,5.6,1.5,7.9,3.7
		c2.7,2.6,4.1,6,4.2,10.3c0.1,6.8,0.4,12.7,1.1,17.7c0.6,4.5,1.6,8.4,2.7,11.5c0.5,1.4,0.5,2.7,0,3.8c-0.5,1-1.3,1.7-2.5,2.1
		c-1,0.4-2.1,0.4-3.1,0c-1.1-0.4-1.9-1.2-2.4-2.3c-1.3-3.5-2.4-8.2-3.1-14c-0.6-5.2-0.9-11-1-17.6c0-3.7-1.6-6.5-4.8-8.6
		c-2.9-2-6.5-2.9-10.7-2.9l-33.9,0.3l0.4,41.4c0,1.4-0.4,2.5-1.3,3.3c-0.8,0.8-1.7,1.2-2.7,1.2c-1.1,0-2.1-0.4-2.9-1.2
		c-0.8-0.8-1.2-1.9-1.2-3.3l-0.7-81.6c0-3.5,0.9-6.4,2.9-8.8c2.3-2.6,5.4-4,9.4-4L496.8,539.2z"/>
	<path class="st0" d="M585.7,537.2c0.8-0.7,1.7-1.1,2.9-1.1c1.1,0,2.1,0.3,2.9,1c0.9,0.8,1.3,1.9,1.3,3.3l0.6,70.5
		c0.1,7.2-2.1,13.2-6.4,18c-4.7,5.5-11.2,8.2-19.5,8.3c-8.3,0.1-14.9-2.5-19.7-7.8c-4.2-4.6-6.4-10.3-6.4-17c0-1.4,0.4-2.5,1.1-3.3
		c0.8-0.7,1.7-1.1,2.9-1.1c1-0.1,2,0.2,2.8,0.8c0.9,0.6,1.3,1.5,1.4,2.7c0,5.3,1.5,9.6,4.4,13c3.3,3.6,7.8,5.4,13.5,5.4
		c5.8,0,10.2-1.9,13.3-5.6c2.9-3.4,4.4-8.2,4.3-14.2l-0.6-69.6C584.5,539.1,584.9,538,585.7,537.2"/>
	<polygon class="st0" points="319.9,81.8 320.2,110.6 347.2,110.3 346.9,81.5 	"/>
	<path class="st0" d="M369.5,441.8L234.6,443l-0.1-12.4l134.9-1.2L369.5,441.8z M369.7,464.7l-134.9,1.2l-0.1-12.5l134.9-1.2
		L369.7,464.7z"/>
	<path class="st0" d="M486,440.4l-88.6,0.8l-0.1-12.5l88.6-0.8L486,440.4z M486.3,464.1l-88.6,0.8l-0.1-12.5l88.6-0.8L486.3,464.1z"
		/>
	<path class="st0" d="M564.8,439.7l-51.4,0.4l-0.1-12.5l51.4-0.4L564.8,439.7z M565,463.4l-51.4,0.5l-0.1-12.5l51.4-0.4L565,463.4z"
		/>
	<path class="st0" d="M89.1,443.9l-51.5,0.4l-0.1-12.5l51.5-0.4L89.1,443.9z M89.3,467.6L37.8,468l-0.1-12.5l51.5-0.5L89.3,467.6z"
		/>
	
		<rect x="0" y="477.6" transform="matrix(1 -8.726378e-003 8.726378e-003 1 -4.2176 2.6502)" class="st0" width="603.1" height="14.1"/>
	<polygon class="st0" points="239.4,82.5 214.1,82.7 214.4,111.5 239.7,111.3 	"/>
	<polygon class="st0" points="248.4,82.4 248.6,111.2 274.4,111 274.1,82.1 	"/>
	<polygon class="st0" points="357.2,81.4 357.5,110.2 381.7,110 381.4,81.2 	"/>
	<polygon class="st0" points="284.1,82.1 284.4,110.9 310.5,110.6 310.3,81.8 	"/>
	<path class="st0" d="M269.1,70.9l56.8-0.5l-0.2-27.7c-1.4-14.7-13.7-26.2-28.5-26c-15.7,0.1-28.3,13.2-28.1,29.1L269.1,70.9z"/>
	<path class="st0" d="M348.2,56.9c-0.1-9.6,7.4-16.4,16.3-16.4c9.1-0.1,16.6,7.4,16.7,16.7l0.1,12.7l-33,0.3L348.2,56.9z"/>
	<path class="st0" d="M213.9,58.1c-0.1-9.6,7.4-16.4,16.3-16.4c9.1-0.1,16.6,7.4,16.7,16.7L247,71l-33,0.3L213.9,58.1z"/>
	<path class="st0" d="M314.8,128.7l-2.6-8.1l-29.1,0.3c-0.5,1.9-1.2,4.7-2,8L314.8,128.7z"/>
	<path class="st0" d="M319.8,145.9c-0.9-2.7-1.8-5.6-2.6-8.1l-38,0.3c-0.8,2.7-1.6,5.5-2.4,8.2L319.8,145.9z"/>
	<path class="st0" d="M356.8,128.4c-4.6-4.8-7.8-8-7.8-8l-25.8,0.2l4.1,8.1L356.8,128.4z"/>
	<path class="st0" d="M371.4,145.4c-2.5-2.7-5.1-5.5-7.6-8.1l-32.8,0.3l4.1,8.1L371.4,145.4z"/>
	<path class="st0" d="M393.4,128c-6-4.9-9.7-8-9.7-8l-24,0.2c2.9,2.9,5.5,5.4,8,8L393.4,128z"/>
	<path class="st0" d="M382.8,145.3c-2.4-2.5-5.4-5.5-8-8.1l27.6-0.2c2.8,2.3,6.7,5.4,10,8.1L382.8,145.3z"/>
	<path class="st0" d="M206.5,442.8l-88.6,0.8l-0.1-12.5l88.6-0.8L206.5,442.8z M206.7,466.6l-88.6,0.8l-0.1-12.5l88.6-0.8
		L206.7,466.6z"/>
	<path class="st0" d="M262.2,146.4l4-8.2l-32.8,0.3c-2.4,2.6-5,5.5-7.5,8.3L262.2,146.4z"/>
	<path class="st0" d="M269.8,129.1l3.9-8.1l-26.4,0.2c0,0-2.5,3.3-7,8.2L269.8,129.1z"/>
	<path class="st0" d="M214.5,146.8c2.5-2.6,5.1-5.3,7.8-8.2l-27.6,0.2c-3.1,2.6-6.3,5.4-9.8,8.3L214.5,146.8z"/>
	<path class="st0" d="M229.3,129.5c0,0,5.3-5.4,7.8-8.2l-23.9,0.2c0,0-3.7,3.2-9.6,8.2L229.3,129.5z"/>
	<path class="st0" d="M508,371.7c2.5,14.1,4.2,28.3,5.1,42.8l0.1,1.4l20-0.2c0-4.1-0.2-20.4-4.7-44.2L508,371.7z"/>
	<path class="st0" d="M493.5,251.1c10.1,16.8,18.3,33.3,24.8,48.8l16.5-0.1c-7.5-17-16.2-33.3-26.1-48.8L493.5,251.1z"/>
	<path class="st0" d="M522.8,311.2c6.8,17.9,11.5,34.5,14.7,48.9l17.8-0.2c-4.1-16.8-9.4-33.1-15.8-48.9L522.8,311.2z"/>
	<path class="st0" d="M557.9,371.2l-18,0.2c4.3,23.2,4.6,39.3,4.6,44.2l20.3-0.2l-0.2-1.7C563.1,399.3,560.8,385.2,557.9,371.2"/>
	<path class="st0" d="M438.6,179.9l10.7-0.1c-8.8-8.2-18.1-16-27.8-23.4l-7.3,0.1C422.9,164.2,431,172,438.6,179.9"/>
	<path class="st0" d="M449,191.1c14.6,16.3,27,32.6,37.5,48.7l14.8-0.1c-11.9-17.3-25.5-33.6-40.4-48.7L449,191.1z"/>
	<path class="st0" d="M413.1,180.1l9.7-0.1c-8-7.9-16.5-15.7-25.7-23.4l-7.3,0.1C397.9,164.1,405.7,172,413.1,180.1"/>
	<path class="st0" d="M423,191.3c13,15.4,24.9,31.7,35.3,48.8l14.7-0.1c-11-16.1-23.9-32.5-39.2-48.7L423,191.3z"/>
	<path class="st0" d="M464.8,251.3c8.9,15.7,16.7,32,23.3,48.9l18-0.2c-6.8-15.6-15.3-32-25.8-48.8L464.8,251.3z"/>
	<path class="st0" d="M492.3,311.5c5.6,15.9,10.2,32.2,13.7,48.9l20.1-0.2c-3.3-14.4-8.1-31-15.2-48.9L492.3,311.5z"/>
	<path class="st0" d="M397.9,180.2c-6.3-8-12.8-15.9-19.7-23.5l-13.3,0.1c5.2,7.8,10,15.7,14.6,23.5L397.9,180.2z"/>
	<path class="st0" d="M413,251.8c6.3,16.9,11.4,33.4,15.6,48.9l33.4-0.3c-5.7-16.8-12.3-33.1-19.9-48.9L413,251.8z"/>
	<path class="st0" d="M385.8,191.6c8.9,16.4,16.5,32.8,22.9,48.9l27.8-0.2c-8.9-17-19-33.3-30.2-48.8L385.8,191.6z"/>
	<path class="st0" d="M479.5,371.9l-37,0.3c2.6,21.1,3.3,36.7,3.4,44.2l38.5-0.3l-0.1-2C483.4,399.8,481.7,385.8,479.5,371.9"/>
	<path class="st0" d="M477.6,360.6c-3.1-16.7-7.1-33-12-49l-34.2,0.3c4.3,17.9,7.4,34.5,9.5,49L477.6,360.6z"/>
	<path class="st0" d="M376.1,252.1c4.4,15.9,8.2,32.3,11.2,49l29.7-0.3c-4.2-15.6-9.5-32-16-48.9L376.1,252.1z"/>
	<path class="st0" d="M366.5,180.5c-4.7-7.9-9.7-15.7-15.1-23.5l-12.4,0.1c4,7.7,7.8,15.6,11.4,23.6L366.5,180.5z"/>
	<path class="st0" d="M429.6,361.1c-2.2-14.5-5.3-31.1-9.7-49l-30.7,0.3c2.6,16,4.5,32.4,5.7,49L429.6,361.1z"/>
	<path class="st0" d="M355.2,191.9c6.6,15.8,12.6,32.1,17.6,48.9l23.7-0.2c-6.6-16.1-14.5-32.5-23.6-48.9L355.2,191.9z"/>
	<path class="st0" d="M395.7,372.7c0.6,9.8,0.9,19.6,1,29.6c0,4.1,0,8.7,0,13.1l0,1.5l37.9-0.3c-0.1-7.4-0.7-23-3.4-44.2
		L395.7,372.7z"/>
	<path class="st0" d="M366.9,361.6c-1.1-16.1-2.8-32.4-5.2-49l-56.8,0.5l0.4,49.1L366.9,361.6z"/>
	<path class="st0" d="M304.4,252.7l0.4,49.1l55.1-0.5c-2.6-16-5.9-32.3-9.8-49L304.4,252.7z"/>
	<path class="st0" d="M330,180.8c-2.5-7.8-5.1-15.6-7.9-23.6l-18.6,0.2l0.2,23.6L330,180.8z"/>
	<path class="st0" d="M305.4,373.4l0.4,44.2l62.2-0.5l0-1.4c0.2-7.2,0.2-14.5,0.1-21.8c-0.1-7-0.3-14-0.6-21L305.4,373.4z"/>
	<path class="st0" d="M303.8,192.4l0.4,49.1l43.1-0.4c-4-15.9-8.6-32.2-13.8-48.9L303.8,192.4z"/>
	<path class="st0" d="M292.4,181.1l-0.2-23.7l-17.9,0.2c-2.6,8-5.1,15.9-7.4,23.7L292.4,181.1z"/>
	<path class="st0" d="M248.6,253.2c-3.5,16.6-6.3,33-8.5,49.1l53.4-0.5l-0.4-49.1L248.6,253.2z"/>
	<path class="st0" d="M234,374.1c-0.2,7.1-0.3,14.1-0.2,21.1c0.1,7,0.2,13.9,0.5,21.6l0,1.5l60.2-0.5l-0.4-44.2L234,374.1z"/>
	<path class="st0" d="M263.6,192.7c-4.8,16.6-8.9,33-12.6,49.2l41.9-0.4l-0.4-49.1L263.6,192.7z"/>
	<path class="st0" d="M294,362.2l-0.4-49.1l-55,0.5c-2,16.6-3.4,32.9-4.1,49.1L294,362.2z"/>
	<path class="st0" d="M194.1,253.7c-6.2,17-11.1,33.5-15.1,49.2l33.7-0.3c2.7-16.7,6.2-33.1,10.4-49.1L194.1,253.7z"/>
	<path class="st0" d="M247.6,181.5c3.5-8.1,7.1-16,10.9-23.8l-16.4,0.1c-5.2,7.9-10.1,15.8-14.7,23.8L247.6,181.5z"/>
	<path class="st0" d="M205.1,403.9c-0.1-9.9,0.1-19.8,0.5-29.6l-39.5,0.3c-2.3,21.2-2.7,36.9-2.7,44.3l42-0.4l-0.1-1.5
		C205.3,412.6,205.2,408,205.1,403.9"/>
	<path class="st0" d="M206.2,363c1-16.6,2.6-33,4.9-49.1l-34.7,0.3c-4.1,18-6.9,34.6-8.8,49.1L206.2,363z"/>
	<path class="st0" d="M221.2,193.1c-8.9,16.5-16.4,33.1-22.8,49.3l27.7-0.2c4.8-16.9,10.4-33.3,16.8-49.2L221.2,193.1z"/>
	<path class="st0" d="M156.1,363.4c1.9-14.6,4.6-31.2,8.7-49.1l-30.2,0.3c-4.6,16-8.3,32.4-11.1,49.2L156.1,363.4z"/>
	<path class="st0" d="M157.1,254c-7.4,15.9-13.7,32.3-19.1,49.2l29.4-0.3c3.9-15.6,8.7-32.2,14.7-49.2L157.1,254z"/>
	<path class="st0" d="M214.4,181.8c4.4-8,9.1-15.9,14.1-23.8l-9.3,0.1c-6.7,7.7-13.1,15.7-19.2,23.8L214.4,181.8z"/>
	<path class="st0" d="M121.8,375.1c-1.9,13.9-3.4,27.9-4.1,42.2l-0.1,2l34.5-0.3c0-7.5,0.4-23.2,2.6-44.3L121.8,375.1z"/>
	<path class="st0" d="M191.9,193.3c-10.9,15.7-20.7,32.2-29.3,49.3l23.8-0.2c6.2-16.2,13.5-32.7,22-49.3L191.9,193.3z"/>
	<path class="st0" d="M184.8,182.1c7.3-8.2,14.9-16.2,23-23.9l-9.1,0.1c-9.1,7.9-17.5,15.9-25.3,23.9L184.8,182.1z"/>
	<path class="st0" d="M95.2,364c3.2-16.8,7.5-33.2,12.8-49.2L87.7,315C81,333,76.4,349.7,73.4,364.2L95.2,364z"/>
	<path class="st0" d="M117.1,254.3c-10.3,17-18.4,33.6-24.9,49.3l19.8-0.2c6.2-17,13.7-33.4,22.3-49.3L117.1,254.3z"/>
	<path class="st0" d="M162.6,193.6c-15,16.5-27.7,33.1-38.3,49.4l16.3-0.1c10.2-17.3,21.7-33.8,34.5-49.4L162.6,193.6z"/>
	<path class="st0" d="M71.2,375.5c-4.1,24-4,40.2-3.9,44.3l21.6-0.2l0.1-1.4c0.6-14.5,2.1-28.8,4.3-42.8L71.2,375.5z"/>
	<path class="st0" d="M61.9,364.3c2.9-14.5,7.3-31.1,13.8-49.2l-15,0.1c-6.1,15.9-11.1,32.3-14.9,49.2L61.9,364.3z"/>
	<path class="st0" d="M90.4,254.6c-9.6,15.7-18.1,32.2-25.2,49.3l14.8-0.1c6.2-15.7,14.1-32.2,23.9-49.3L90.4,254.6z"/>
	<path class="st0" d="M157.6,182.3c7.5-8,15.4-16,24-23.9l-5.5,0c-9.6,7.6-18.7,15.5-27.4,23.9L157.6,182.3z"/>
	<path class="st0" d="M137.3,193.8c-14.7,15.4-27.9,31.9-39.6,49.4l13.1-0.1c10.2-16.3,22.3-32.8,36.6-49.4L137.3,193.8z"/>
	<path class="st0" d="M59.8,375.6l-16.4,0.1c-2.7,14-4.8,28.2-6,42.7l-0.1,1.6l18.6-0.2C55.9,414.9,56,398.8,59.8,375.6"/>
</g>
</svg>
