<?xml version="1.0" encoding="utf-8"?>
<!-- Generator: Adobe Illustrator 19.1.1, SVG Export Plug-In . SVG Version: 6.00 Build 0)  -->
<svg version="1.1" id="Camada_1" xmlns="http://www.w3.org/2000/svg" xmlns:xlink="http://www.w3.org/1999/xlink" x="0px" y="0px"
	 viewBox="0 0 340 105.7" style="enable-background:new 0 0 340 105.7;" xml:space="preserve">
<style type="text/css">
	.st0{fill:#172C53;}
</style>
<g>
	<path class="st0" d="M59.9,93.7L57,77.6c-0.1-0.7-0.8-1.2-1.5-1.2H21.7c-0.6,0-1.1,0.3-1.3,0.8l-9,17c-0.3,0.5-0.8,0.8-1.3,0.8H4.1
		c-1.1,0-1.9-1.2-1.3-2.2L46,13.4c0.3-0.5,0.8-0.8,1.3-0.8h5.3c0.7,0,1.3,0.5,1.5,1.2l15.1,79.3c0.2,0.9-0.5,1.8-1.5,1.8h-6.3
		C60.6,95,60,94.4,59.9,93.7z M46,29.1L26,66.5c-0.5,1,0.2,2.2,1.3,2.2h26.5c0.9,0,1.6-0.8,1.5-1.8l-6.5-37.4
		C48.5,28.1,46.6,27.8,46,29.1z"/>
	<path class="st0" d="M87.9,95c-5,0-8.4-1.4-10.2-4.3c-1.8-2.9-2.3-6.5-1.6-10.8l11.7-66.1c0.1-0.6,0.7-1.1,1.3-1.1h5.6
		c0.8,0,1.5,0.8,1.3,1.6L84.5,79.5c-0.5,2.8-0.3,4.9,0.5,6.2c0.8,1.4,2.7,2.1,5.6,2.1h2.9c0.8,0,1.5,0.8,1.3,1.6l-0.8,4.5
		C94,94.5,93.4,95,92.8,95H87.9z"/>
	<path class="st0" d="M144,79c-1.6,3.9-4,7.3-7.4,10.2c-2.4,2-5,3.6-7.9,4.7c-2.9,1.2-6.1,1.7-9.6,1.7c-3.5,0-6.4-0.6-8.9-1.7
		c-2.5-1.2-4.6-2.7-6.2-4.7c-1.2-1.5-2.1-3.1-2.7-4.8c-0.6-1.7-1-3.5-1.1-5.4c-0.2-1.9-0.2-3.9,0-6c0.2-2.1,0.5-4.2,0.9-6.5
		c0.4-2.2,0.9-4.3,1.4-6.4c0.6-2.1,1.3-4.1,2.1-6c0.8-1.9,1.8-3.7,3-5.4c1.2-1.7,2.6-3.3,4.4-4.8c2.4-2,5-3.6,7.9-4.7
		c2.9-1.2,6.1-1.7,9.6-1.7c3.5,0,6.4,0.6,8.9,1.7c2.5,1.2,4.6,2.7,6.2,4.7c2.3,2.9,3.6,6.3,3.8,10.2c0.2,3.9-0.1,8-0.9,12.4
		C146.8,70.9,145.6,75.1,144,79z M140,61.7c0.2-1.6,0.3-3.2,0.3-4.7c0-1.5-0.2-3-0.6-4.3c-0.4-1.3-1-2.6-1.8-3.6
		c-2.3-2.8-5.5-4.2-9.7-4.2c-4.1,0-7.8,1.4-11,4.2c-1.3,1.1-2.3,2.3-3.1,3.6c-0.8,1.3-1.5,2.8-2.2,4.3c-0.6,1.5-1.1,3.1-1.5,4.7
		c-0.4,1.6-0.7,3.2-1,4.9c-0.3,1.6-0.5,3.2-0.7,4.9c-0.2,1.6-0.3,3.2-0.2,4.7c0.1,1.5,0.3,3,0.6,4.4c0.3,1.4,1,2.6,1.9,3.6
		c2.3,2.8,5.5,4.2,9.6,4.2c4.2,0,7.9-1.4,11.1-4.2c1.2-1,2.2-2.2,3.1-3.6c0.9-1.4,1.6-2.9,2.2-4.4c0.6-1.5,1.1-3.1,1.4-4.7
		c0.4-1.6,0.7-3.2,1-4.9C139.5,64.9,139.8,63.3,140,61.7z"/>
	<path class="st0" d="M185.2,94.5l-1.5-8.5c-0.1-0.5-0.5-0.8-1-0.8h-16c-0.4,0-0.7,0.2-0.9,0.5l-4.8,9.1c-0.2,0.3-0.5,0.5-0.9,0.5
		h-5.6c-0.8,0-1.2-0.8-0.9-1.5l24.4-45.3c0.2-0.3,0.5-0.5,0.9-0.5h4.3c0.5,0,0.9,0.3,1,0.8l8.4,45.3c0.1,0.6-0.4,1.2-1,1.2h-5.6
		C185.7,95.3,185.3,95,185.2,94.5z M182.4,77.4l-2.5-14.5c-0.2-0.9-1.4-1.1-1.9-0.3l-7.6,14.5c-0.3,0.7,0.1,1.5,0.9,1.5h10.1
		C182,78.5,182.5,78,182.4,77.4z"/>
	<path class="st0" d="M195.5,94.2l8-45.3c0.1-0.5,0.5-0.8,1-0.8h5.2c0.6,0,1.1,0.6,1,1.2L204,87.4c-0.1,0.6,0.4,1.2,1,1.2h20.2
		c0.6,0,1.1,0.6,1,1.2l-0.8,4.8c-0.1,0.5-0.5,0.8-1,0.8h-27.8C195.9,95.3,195.4,94.8,195.5,94.2z"/>
	<path class="st0" d="M228.5,94.2l8-45.3c0.1-0.5,0.5-0.8,1-0.8h27.9c0.6,0,1.1,0.6,1,1.2l-0.8,4.8c-0.1,0.5-0.5,0.8-1,0.8h-21
		c-0.5,0-0.9,0.3-1,0.8l-2,11.3c-0.1,0.6,0.4,1.2,1,1.2h17c0.6,0,1.1,0.6,1,1.2l-0.8,4.8c-0.1,0.5-0.5,0.8-1,0.8H240
		c-0.5,0-0.9,0.3-1,0.8L237,87.4c-0.1,0.6,0.4,1.2,1,1.2h20.3c0.6,0,1.1,0.6,1,1.2l-0.8,4.8c-0.1,0.5-0.5,0.8-1,0.8h-27.9
		C228.9,95.3,228.4,94.8,228.5,94.2z"/>
	<path class="st0" d="M287.1,94.7L281,76.1c-0.1-0.4-0.5-0.7-0.9-0.7H273c-0.5,0-0.9,0.3-1,0.8l-3.2,18.2c-0.1,0.5-0.5,0.8-1,0.8
		h-5.2c-0.6,0-1.1-0.6-1-1.2l8-45.3c0.1-0.5,0.5-0.8,1-0.8h17.1c2,0,3.9,0.3,5.6,0.9c1.7,0.6,3.1,1.6,4.2,2.8
		c1.1,1.2,1.9,2.7,2.3,4.5c0.4,1.7,0.4,3.6,0.1,5.7c-0.6,3.5-2.1,6.4-4.4,8.7c-1.7,1.7-3.7,2.9-5.9,3.7c-0.5,0.2-0.8,0.7-0.6,1.3
		L295,94c0.2,0.6-0.3,1.3-0.9,1.3H288C287.6,95.3,287.2,95.1,287.1,94.7z M283.6,68.7c2.4,0,4.3-0.6,6-1.8c1.6-1.2,2.6-2.9,3-5.4
		c0.4-2.4,0.1-4-1-5.1c-1.1-1.1-2.9-1.7-5.1-1.7h-9.9c-0.5,0-0.9,0.3-1,0.8l-2.1,11.9c-0.1,0.6,0.4,1.2,1,1.2H283.6z"/>
	<path class="st0" d="M308.2,95.7c-2.3,0-4.3-0.4-5.9-1.1c-1.7-0.7-3.2-1.9-4.4-3.4l-0.8-0.9l5.7-4.9l0.8,1.1c0.5,0.7,1.2,1.3,2,1.8
		c0.5,0.3,1.5,0.7,3.4,0.7c2.6,0,4.6-0.8,6.3-2.3c1.7-1.6,2.8-3.9,3.3-6.9l5.4-30.8c0.1-0.5,0.5-0.8,1-0.8h5.2c0.6,0,1.1,0.6,1,1.2
		l-5.6,31.5c-0.4,2.3-1.1,4.4-2.2,6.2c-1.1,1.9-2.4,3.5-3.9,4.7c-1.5,1.3-3.3,2.3-5.2,3C312.4,95.4,310.3,95.7,308.2,95.7z"/>
	<path class="st0" d="M171.5,22.3c-4.9-5.9-11-10.6-18.1-13.9c-6-2.8-12.6-4.4-19.6-4.8c-0.6,0-1.7-0.1-2.6-0.1
		c-1,0-1.8,0.8-1.8,1.8v2.8c0,1,0.8,1.7,1.7,1.8c1.1,0,2.3,0.1,3.1,0.1c6,0.4,11.5,1.8,16.6,4.2c6.3,2.9,11.6,7,15.9,12.2
		c2.3,2.9,4.2,6,5.7,9.2c0.4,0.8,1.3,1.2,2.2,0.9l2.6-1c0.9-0.4,1.4-1.4,1-2.4C176.4,29.3,174.2,25.7,171.5,22.3z"/>
	<path class="st0" d="M162.8,29.5c-3.8-4.6-8.6-8.3-14.1-10.9c-4.3-2-9-3.2-14-3.6c-0.8-0.1-2.3-0.1-3.5-0.1c-1,0-1.8,0.8-1.8,1.8
		v2.8c0,1,0.8,1.7,1.7,1.8c1,0,2.3,0.1,3,0.1c4.3,0.4,8.3,1.4,11.9,3.1c4.7,2.2,8.7,5.3,11.9,9.2c1.5,1.9,2.8,3.9,3.8,6
		c0.4,0.8,1.3,1.1,2.2,0.8l2.6-1c1-0.4,1.4-1.5,0.9-2.4C166.2,34.3,164.6,31.9,162.8,29.5z"/>
	<path class="st0" d="M154,36.7c-2.7-3.3-6.2-5.9-10.2-7.8c-2.9-1.3-6.1-2.2-9.6-2.6c-0.7-0.1-2-0.1-3.1-0.2c-1,0-1.8,0.8-1.8,1.8
		v2.8c0,0.9,0.8,1.7,1.7,1.8c1,0,2.2,0.1,2.8,0.1c2.7,0.3,5.1,1,7.3,2c3.2,1.5,5.8,3.5,8,6.1c0.7,0.9,1.4,1.9,2,2.9
		c0.4,0.7,1.3,1.1,2.1,0.8l2.6-1c1-0.4,1.4-1.5,0.9-2.5C156,39.4,155.1,38,154,36.7z"/>
</g>
<g>
	<path class="st0" d="M59.9,94.7L57,78.6c-0.1-0.7-0.8-1.2-1.5-1.2H21.7c-0.6,0-1.1,0.3-1.3,0.8l-9,17c-0.3,0.5-0.8,0.8-1.3,0.8H4.1
		c-1.1,0-1.9-1.2-1.3-2.2L46,14.4c0.3-0.5,0.8-0.8,1.3-0.8h5.3c0.7,0,1.3,0.5,1.5,1.2l15.1,79.3c0.2,0.9-0.5,1.8-1.5,1.8h-6.3
		C60.6,96,60,95.4,59.9,94.7z M46,30.1L26,67.5c-0.5,1,0.2,2.2,1.3,2.2h26.5c0.9,0,1.6-0.8,1.5-1.8l-6.5-37.4
		C48.5,29.1,46.6,28.8,46,30.1z"/>
	<path class="st0" d="M87.9,96c-5,0-8.4-1.4-10.2-4.3c-1.8-2.9-2.3-6.5-1.6-10.8l11.7-66.1c0.1-0.6,0.7-1.1,1.3-1.1h5.6
		c0.8,0,1.5,0.8,1.3,1.6L84.5,80.5c-0.5,2.8-0.3,4.9,0.5,6.2c0.8,1.4,2.7,2.1,5.6,2.1h2.9c0.8,0,1.5,0.8,1.3,1.6l-0.8,4.5
		C94,95.5,93.4,96,92.8,96H87.9z"/>
	<path class="st0" d="M144,80c-1.6,3.9-4,7.3-7.4,10.2c-2.4,2-5,3.6-7.9,4.7c-2.9,1.2-6.1,1.7-9.6,1.7c-3.5,0-6.4-0.6-8.9-1.7
		c-2.5-1.2-4.6-2.7-6.2-4.7c-1.2-1.5-2.1-3.1-2.7-4.8c-0.6-1.7-1-3.5-1.1-5.4c-0.2-1.9-0.2-3.9,0-6c0.2-2.1,0.5-4.2,0.9-6.5
		c0.4-2.2,0.9-4.3,1.4-6.4c0.6-2.1,1.3-4.1,2.1-6c0.8-1.9,1.8-3.7,3-5.4c1.2-1.7,2.6-3.3,4.4-4.8c2.4-2,5-3.6,7.9-4.7
		c2.9-1.2,6.1-1.7,9.6-1.7c3.5,0,6.4,0.6,8.9,1.7c2.5,1.2,4.6,2.7,6.2,4.7c2.3,2.9,3.6,6.3,3.8,10.2c0.2,3.9-0.1,8-0.9,12.4
		C146.8,71.9,145.6,76.1,144,80z M140,62.7c0.2-1.6,0.3-3.2,0.3-4.7c0-1.5-0.2-3-0.6-4.3c-0.4-1.3-1-2.6-1.8-3.6
		c-2.3-2.8-5.5-4.2-9.7-4.2c-4.1,0-7.8,1.4-11,4.2c-1.3,1.1-2.3,2.3-3.1,3.6c-0.8,1.3-1.5,2.8-2.2,4.3c-0.6,1.5-1.1,3.1-1.5,4.7
		c-0.4,1.6-0.7,3.2-1,4.9c-0.3,1.6-0.5,3.2-0.7,4.9c-0.2,1.6-0.3,3.2-0.2,4.7c0.1,1.5,0.3,3,0.6,4.4c0.3,1.4,1,2.6,1.9,3.6
		c2.3,2.8,5.5,4.2,9.6,4.2c4.2,0,7.9-1.4,11.1-4.2c1.2-1,2.2-2.2,3.1-3.6c0.9-1.4,1.6-2.9,2.2-4.4c0.6-1.5,1.1-3.1,1.4-4.7
		c0.4-1.6,0.7-3.2,1-4.9C139.5,65.9,139.8,64.3,140,62.7z"/>
	<path class="st0" d="M185.2,95.5l-1.5-8.5c-0.1-0.5-0.5-0.8-1-0.8h-16c-0.4,0-0.7,0.2-0.9,0.5l-4.8,9.1c-0.2,0.3-0.5,0.5-0.9,0.5
		h-5.6c-0.8,0-1.2-0.8-0.9-1.5l24.4-45.3c0.2-0.3,0.5-0.5,0.9-0.5h4.3c0.5,0,0.9,0.3,1,0.8l8.4,45.3c0.1,0.6-0.4,1.2-1,1.2h-5.6
		C185.7,96.3,185.3,96,185.2,95.5z M182.4,78.4l-2.5-14.5c-0.2-0.9-1.4-1.1-1.9-0.3l-7.6,14.5c-0.3,0.7,0.1,1.5,0.9,1.5h10.1
		C182,79.5,182.5,79,182.4,78.4z"/>
	<path class="st0" d="M195.5,95.2l8-45.3c0.1-0.5,0.5-0.8,1-0.8h5.2c0.6,0,1.1,0.6,1,1.2L204,88.4c-0.1,0.6,0.4,1.2,1,1.2h20.2
		c0.6,0,1.1,0.6,1,1.2l-0.8,4.8c-0.1,0.5-0.5,0.8-1,0.8h-27.8C195.9,96.3,195.4,95.8,195.5,95.2z"/>
	<path class="st0" d="M228.5,95.2l8-45.3c0.1-0.5,0.5-0.8,1-0.8h27.9c0.6,0,1.1,0.6,1,1.2l-0.8,4.8c-0.1,0.5-0.5,0.8-1,0.8h-21
		c-0.5,0-0.9,0.3-1,0.8l-2,11.3c-0.1,0.6,0.4,1.2,1,1.2h17c0.6,0,1.1,0.6,1,1.2l-0.8,4.8c-0.1,0.5-0.5,0.8-1,0.8H240
		c-0.5,0-0.9,0.3-1,0.8L237,88.4c-0.1,0.6,0.4,1.2,1,1.2h20.3c0.6,0,1.1,0.6,1,1.2l-0.8,4.8c-0.1,0.5-0.5,0.8-1,0.8h-27.9
		C228.9,96.3,228.4,95.8,228.5,95.2z"/>
	<path class="st0" d="M287.1,95.7L281,77.1c-0.1-0.4-0.5-0.7-0.9-0.7H273c-0.5,0-0.9,0.3-1,0.8l-3.2,18.2c-0.1,0.5-0.5,0.8-1,0.8
		h-5.2c-0.6,0-1.1-0.6-1-1.2l8-45.3c0.1-0.5,0.5-0.8,1-0.8h17.1c2,0,3.9,0.3,5.6,0.9c1.7,0.6,3.1,1.6,4.2,2.8
		c1.1,1.2,1.9,2.7,2.3,4.5c0.4,1.7,0.4,3.6,0.1,5.7c-0.6,3.5-2.1,6.4-4.4,8.7c-1.7,1.7-3.7,2.9-5.9,3.7c-0.5,0.2-0.8,0.7-0.6,1.3
		L295,95c0.2,0.6-0.3,1.3-0.9,1.3H288C287.6,96.3,287.2,96.1,287.1,95.7z M283.6,69.7c2.4,0,4.3-0.6,6-1.8c1.6-1.2,2.6-2.9,3-5.4
		c0.4-2.4,0.1-4-1-5.1c-1.1-1.1-2.9-1.7-5.1-1.7h-9.9c-0.5,0-0.9,0.3-1,0.8l-2.1,11.9c-0.1,0.6,0.4,1.2,1,1.2H283.6z"/>
	<path class="st0" d="M308.2,96.7c-2.3,0-4.3-0.4-5.9-1.1c-1.7-0.7-3.2-1.9-4.4-3.4l-0.8-0.9l5.7-4.9l0.8,1.1c0.5,0.7,1.2,1.3,2,1.8
		c0.5,0.3,1.5,0.7,3.4,0.7c2.6,0,4.6-0.8,6.3-2.3c1.7-1.6,2.8-3.9,3.3-6.9l5.4-30.8c0.1-0.5,0.5-0.8,1-0.8h5.2c0.6,0,1.1,0.6,1,1.2
		l-5.6,31.5c-0.4,2.3-1.1,4.4-2.2,6.2c-1.1,1.9-2.4,3.5-3.9,4.7c-1.5,1.3-3.3,2.3-5.2,3C312.4,96.4,310.3,96.7,308.2,96.7z"/>
	<path class="st0" d="M171.5,23.3c-4.9-5.9-11-10.6-18.1-13.9c-6-2.8-12.6-4.4-19.6-4.8c-0.6,0-1.7-0.1-2.6-0.1
		c-1,0-1.8,0.8-1.8,1.8v2.8c0,1,0.8,1.7,1.7,1.8c1.1,0,2.3,0.1,3.1,0.1c6,0.4,11.5,1.8,16.6,4.2c6.3,2.9,11.6,7,15.9,12.2
		c2.3,2.9,4.2,6,5.7,9.2c0.4,0.8,1.3,1.2,2.2,0.9l2.6-1c0.9-0.4,1.4-1.4,1-2.4C176.4,30.3,174.2,26.7,171.5,23.3z"/>
	<path class="st0" d="M162.8,30.5c-3.8-4.6-8.6-8.3-14.1-10.9c-4.3-2-9-3.2-14-3.6c-0.8-0.1-2.3-0.1-3.5-0.1c-1,0-1.8,0.8-1.8,1.8
		v2.8c0,1,0.8,1.7,1.7,1.8c1,0,2.3,0.1,3,0.1c4.3,0.4,8.3,1.4,11.9,3.1c4.7,2.2,8.7,5.3,11.9,9.2c1.5,1.9,2.8,3.9,3.8,6
		c0.4,0.8,1.3,1.1,2.2,0.8l2.6-1c1-0.4,1.4-1.5,0.9-2.4C166.2,35.3,164.6,32.9,162.8,30.5z"/>
	<path class="st0" d="M154,37.7c-2.7-3.3-6.2-5.9-10.2-7.8c-2.9-1.3-6.1-2.2-9.6-2.6c-0.7-0.1-2-0.1-3.1-0.2c-1,0-1.8,0.8-1.8,1.8
		v2.8c0,0.9,0.8,1.7,1.7,1.8c1,0,2.2,0.1,2.8,0.1c2.7,0.3,5.1,1,7.3,2c3.2,1.5,5.8,3.5,8,6.1c0.7,0.9,1.4,1.9,2,2.9
		c0.4,0.7,1.3,1.1,2.1,0.8l2.6-1c1-0.4,1.4-1.5,0.9-2.5C156,40.4,155.1,39,154,37.7z"/>
</g>
</svg>
