<?xml version="1.0" encoding="utf-8"?>
<!-- Generator: Adobe Illustrator 19.1.1, SVG Export Plug-In . SVG Version: 6.00 Build 0)  -->
<svg version="1.1" id="Camada_1" xmlns="http://www.w3.org/2000/svg" xmlns:xlink="http://www.w3.org/1999/xlink" x="0px" y="0px"
	 viewBox="0 0 612 149" style="enable-background:new 0 0 612 149;" xml:space="preserve">
<style type="text/css">
	.st0{fill:#FFFFFF;}
</style>
<g>
	<path class="st0" d="M306.3,18.9c-3.2,3.3-7.1,7.1-9.1,8.8c-2,1.7-3.3,3.3-5.8,1.5c-1.7-1.2-1.9-3.1-0.3-6.4
		c1.5-3.4,2.9-6.3,4.3-9.7c1.6-3.8,5.6-6.2,9.2-4.1S309.2,16,306.3,18.9z"/>
	<g>
		<path class="st0" d="M499.2,102.6l-16-40.6l-17,40.6H499.2z M492,42.4c1.4,5.1,3.3,9.8,5.1,14.6l23.3,59.8
			c6.2,16,8.8,16.4,13,16.4h1.6v3.8h-35.9v-3.8h2.9c5.9,0,7.1-0.8,7.1-3.3c0-1.4-0.4-3.3-1.4-6l-6.8-17.6h-36.2l-4.6,11
			c-2.7,6.6-3.5,9.6-3.5,11.7c0,4.2,3.9,4.2,8.7,4.2h1.7v3.8h-27v-3.8h1.5c3.9,0,7.2-1.3,10.3-9l28.6-68.5c1.8-4.3,3.5-8.8,4.7-13.2
			H492z"/>
		<path class="st0" d="M597.5,63.7h-4.6c-0.3-11.6-8.8-20.3-20.4-20.3c-11.1,0-20.3,5.9-20.3,18c0,21.2,49.9,13.6,49.9,47.5
			c0,18.1-14.8,28.2-32,28.2c-5.5,0-10.1-0.9-13.5-1.7c-3.5-0.8-5.9-1.6-7.1-1.6c-2.2,0-3.4,1.2-3.8,2.5h-4.6v-26.1h4.6
			c2.8,13.7,9.4,23.1,24.5,23.1c12,0,20.7-6.7,20.7-19.4c0-23.2-49.9-17.4-49.9-46.1c0-18,13.6-28.2,31-28.2
			c6.9,0,14.1,3.8,18.5,3.8c1.9,0,2.5-1,3-3h3.9V63.7z"/>
		<path class="st0" d="M207.7,133.2h6.2c5.4,0,5.4-2.5,5.4-13.8V47.6h-7.1c-11.6,0-20,6.7-20.3,19h-4.6V43.8h78.6v22.8h-4.6
			c-0.3-12.3-8.6-19-20.3-19h-7.1v71.9c0,11.3,0,13.8,5.4,13.8h6.2v3.8h-37.7V133.2z"/>
		<path class="st0" d="M144.6,133.2c21.8,0,23.3-29.5,23.3-45c0-15.4-1.6-44.9-23.3-44.9c-21.7,0-23.3,29.5-23.3,44.9
			C121.2,103.8,122.8,133.2,144.6,133.2 M144.6,39.6c27.1,0,39.6,24.3,39.6,48.7c0,24.5-12.4,48.7-39.6,48.7
			c-27.1,0-39.5-24.2-39.5-48.7C105,63.8,117.4,39.6,144.6,39.6"/>
		<path class="st0" d="M271.9,133.2h4.1c5.4,0,6.7-2,6.7-6.6V55.3c0-6.8-1.8-7.7-7.2-7.7h-3.5v-3.8H308v3.8h-3.5
			c-5.4,0-7.2,0.9-7.2,7.7v71.4c0,4.6,1.3,6.6,6.7,6.6h4.1v3.8h-36.2V133.2z"/>
		<path class="st0" d="M394.6,133.2h4.1c5.4,0,6.7-2,6.7-6.6V55.3c0-6.8-1.8-7.7-7.2-7.7h-3.5v-3.8h36.2v3.8h-3.5
			c-5.4,0-7.2,0.9-7.2,7.7v71.4c0,4.6,1.3,6.6,6.7,6.6h4.1v3.8h-36.2V133.2z"/>
		<path class="st0" d="M10.3,132.2h4.6c5.6,0,5.8-5.6,5.8-15.3V64.3c0-16.6-0.9-17.8-5.6-17.8h-4.7v-3.8h25.6l47,72.3h0.3V60.8
			c0-11.8-0.4-14.3-7.5-14.3h-4.3v-3.8h27.6v3.8h-3.1c-6.7,0-7.3,3.3-7.3,14.3V137h-8.4L26.3,55.1H26v61.7c0,9.7,0.1,15.3,5.4,15.3
			h5.4v3.8H10.3V132.2z"/>
		<path class="st0" d="M359.4,43.9c13.1,0,22.3,9.2,23.3,22h4.6v-25h-4.6c-0.1,2-0.8,3.4-2.2,3.4c-2.1,0-4.5-1-7.9-2.1
			c-3.3-1.1-7.7-2.1-14.3-2.1c-27.3,0-42.8,22.1-42.8,47.8c0,0.3,0,0.6,0,0.9c0,0.3,0,0.6,0,0.9c0,25.7,15.6,47.8,42.8,47.8
			c6.6,0,11-1,14.3-2.1c3.4-1,5.8-2.1,7.9-2.1c1.4,0,2.1,1.4,2.2,3.4h4.6v-25h-4.6c-1.1,12.8-10.2,22-23.3,22
			c-23.5,0-27.5-26.4-27.6-44.9C331.9,70.3,335.9,43.9,359.4,43.9z"/>
	</g>
</g>
</svg>
