<?xml version="1.0" encoding="utf-8"?>
<!-- Generator: Adobe Illustrator 19.0.1, SVG Export Plug-In . SVG Version: 6.00 Build 0)  -->
<svg version="1.1" id="Layer_1" xmlns="http://www.w3.org/2000/svg" xmlns:xlink="http://www.w3.org/1999/xlink" x="0px" y="0px"
	 viewBox="0 0 392.2 136.6" style="enable-background:new 0 0 392.2 136.6;" xml:space="preserve">
<style type="text/css">
	.st0{fill:#172B53;}
</style>
<g>
	<path class="st0" d="M162.1,109.3l-2.2-5.5l-2.3,5.5H162.1z M161.1,101.1c0.2,0.7,0.4,1.3,0.7,2l3.2,8.1c0.8,2.2,1.2,2.2,1.8,2.2
		h0.2v0.5h-4.9v-0.5h0.4c0.8,0,1-0.1,1-0.4c0-0.2-0.1-0.4-0.2-0.8l-0.9-2.4h-4.9l-0.6,1.5c-0.4,0.9-0.5,1.3-0.5,1.6
		c0,0.6,0.5,0.6,1.2,0.6h0.2v0.5H154v-0.5h0.2c0.5,0,1-0.2,1.4-1.2l3.9-9.3c0.3-0.6,0.5-1.2,0.6-1.8H161.1z"/>
	<path class="st0" d="M175.4,104.3h-0.6c0-1.6-1.2-2.8-2.8-2.8c-1.5,0-2.8,0.8-2.8,2.4c0,2.9,6.8,1.8,6.8,6.4c0,2.4-2,3.8-4.3,3.8
		c-0.7,0-1.4-0.1-1.8-0.2c-0.5-0.1-0.8-0.2-1-0.2c-0.3,0-0.5,0.2-0.5,0.3h-0.6v-3.5h0.6c0.4,1.9,1.3,3.1,3.3,3.1
		c1.6,0,2.8-0.9,2.8-2.6c0-3.1-6.8-2.4-6.8-6.2c0-2.4,1.8-3.8,4.2-3.8c0.9,0,1.9,0.5,2.5,0.5c0.3,0,0.3-0.1,0.4-0.4h0.5V104.3z"/>
	<path class="st0" d="M185.6,104.3H185c0-1.6-1.2-2.8-2.8-2.8c-1.5,0-2.7,0.8-2.7,2.4c0,2.9,6.8,1.8,6.8,6.4c0,2.4-2,3.8-4.3,3.8
		c-0.7,0-1.4-0.1-1.8-0.2c-0.5-0.1-0.8-0.2-1-0.2c-0.3,0-0.5,0.2-0.5,0.3H178v-3.5h0.6c0.4,1.9,1.3,3.1,3.3,3.1
		c1.6,0,2.8-0.9,2.8-2.6c0-3.1-6.8-2.4-6.8-6.2c0-2.4,1.8-3.8,4.2-3.8c0.9,0,1.9,0.5,2.5,0.5c0.3,0,0.3-0.1,0.4-0.4h0.5V104.3z"/>
	<path class="st0" d="M188,113.4h0.7c0.4,0,0.7-0.1,0.7-1.1V103c0-1-0.1-1.2-0.8-1.2H188v-0.5h9.7v2.9h-0.6c0-1.7-0.9-2.4-2.6-2.4
		h-3.1v5.4h2.6c1.2,0,1.7-0.8,1.7-1.9h0.6v4.4h-0.6c0-1.2-0.4-2-1.7-2h-2.6v5.6h3.2c1.7,0,2.6-0.8,2.6-2.5h0.6v3H188V113.4z"/>
	<path class="st0" d="M199.7,113.4h0.6c0.8,0,0.8-0.5,0.8-2v-8.6c0-0.7-0.1-0.9-0.7-0.9h-0.6v-0.5h3.5c0.1,0.4,0.4,1.2,0.7,1.8
		l3.2,7.4l3.2-7.6c0.3-0.7,0.5-1.3,0.6-1.7h3.5v0.5h-0.8c-0.6,0-0.6,0.4-0.6,1.1v8.8c0,1.3,0,1.7,0.8,1.7h0.6v0.5h-4.8v-0.5h0.6
		c0.7,0,0.8-0.1,0.8-1.7v-8.5h0l-4.3,10H206l-4.3-10h0v8.2c0,1.5,0.1,2,0.9,2h0.7v0.5h-3.7V113.4z"/>
	<path class="st0" d="M219.2,113.4h1.3c2.1,0,3.3-1,3.3-3.1c0-2.2-1.7-2.8-3.6-2.8h-1V113.4z M219.2,107h0.9c2.2,0,3.2-0.7,3.2-2.9
		c0-1.6-1.3-2.4-2.6-2.4h-1.5V107z M215.8,113.4h0.8c0.6,0,0.7-0.3,0.7-1.8v-8c0-1.7-0.1-1.8-0.7-1.8h-0.8v-0.5h5.7
		c2.1,0,4.1,0.8,4.1,3c0,1.7-1.7,2.6-3.2,2.9v0c1.7,0.1,3.7,1.2,3.7,3.1c0,2.1-2.4,3.5-4.1,3.5h-6.1V113.4z"/>
	<path class="st0" d="M227.8,113.4h0.6c0.7,0,0.9-0.3,0.9-0.9v-9.7c0-0.9-0.2-1-1-1h-0.5v-0.5h4.9v0.5h-0.6c-0.8,0-0.9,0.3-0.9,1
		v10.6h2.7c1.4,0,2.6-0.9,2.6-2.7h0.6v3.2h-9.4V113.4z"/>
	<path class="st0" d="M238.5,113.4h0.7c0.4,0,0.7-0.1,0.7-1.1V103c0-1-0.1-1.2-0.8-1.2h-0.6v-0.5h9.7v2.9h-0.6
		c0-1.7-0.9-2.4-2.6-2.4H242v5.4h2.6c1.2,0,1.7-0.8,1.7-1.9h0.6v4.4h-0.6c0-1.2-0.4-2-1.7-2H242v5.6h3.2c1.7,0,2.6-0.8,2.6-2.5h0.6
		v3h-9.9V113.4z"/>
	<path class="st0" d="M250.3,113.4h0.6c0.7,0,0.9-0.3,0.9-0.9v-9.7c0-0.9-0.2-1-1-1h-0.5v-0.5h4.9v0.5h-0.5c-0.7,0-1,0.1-1,1v9.7
		c0,0.6,0.2,0.9,0.9,0.9h0.5v0.5h-4.9V113.4z"/>
	<path class="st0" d="M263.8,109.3l-2.2-5.5l-2.3,5.5H263.8z M262.8,101.1c0.2,0.7,0.4,1.3,0.7,2l3.2,8.1c0.8,2.2,1.2,2.2,1.8,2.2
		h0.2v0.5h-4.9v-0.5h0.4c0.8,0,1-0.1,1-0.4c0-0.2-0.1-0.4-0.2-0.8l-0.9-2.4h-4.9l-0.6,1.5c-0.4,0.9-0.5,1.3-0.5,1.6
		c0,0.6,0.5,0.6,1.2,0.6h0.2v0.5h-3.7v-0.5h0.2c0.5,0,1-0.2,1.4-1.2l3.9-9.3c0.2-0.6,0.5-1.2,0.6-1.8H262.8z"/>
	<path class="st0" d="M274.5,113.4h0.6c0.7,0,0.9-0.3,0.9-0.9v-9.7c0-0.9-0.2-1-1-1h-0.5v-0.5h4.9v0.5h-0.6c-0.8,0-0.9,0.3-0.9,1
		v10.6h2.7c1.4,0,2.6-0.9,2.6-2.7h0.6v3.2h-9.4V113.4z"/>
	<path class="st0" d="M285.2,113.4h0.7c0.4,0,0.7-0.1,0.7-1.1V103c0-1-0.1-1.2-0.8-1.2h-0.6v-0.5h9.7v2.9h-0.6
		c0-1.7-0.9-2.4-2.6-2.4h-3.1v5.4h2.6c1.2,0,1.7-0.8,1.7-1.9h0.6v4.4h-0.6c0-1.2-0.4-2-1.7-2h-2.6v5.6h3.2c1.7,0,2.6-0.8,2.6-2.5
		h0.6v3h-9.9V113.4z"/>
	<path class="st0" d="M306.9,104.5h-0.6c-0.1-1.7-1.4-3-3.2-3c-3.2,0-3.7,3.7-3.7,6.2c0,2.7,0.5,5.9,3.5,6c1.3,0,2.5-0.7,2.5-2.5
		v-1.4c0-0.7-0.2-0.9-0.6-0.9H304v-0.5h4.4v0.5h-0.5c-0.6,0-0.7,0.2-0.7,1.1v4.1h-0.5c-0.1-0.2-0.1-0.4-0.6-0.4
		c-0.6,0-1.4,0.5-3.3,0.5c-4.3,0-5.7-2.9-5.7-6.7c0-3.5,2.1-6.5,5.8-6.5c0.9,0,1.5,0.1,1.9,0.3c0.5,0.1,0.8,0.3,1.1,0.3
		c0.2,0,0.3-0.2,0.3-0.5h0.6V104.5z"/>
	<path class="st0" d="M309.5,113.4h0.6c0.7,0,0.9-0.3,0.9-0.9v-9.7c0-0.9-0.3-1-1-1h-0.5v-0.5h4.9v0.5h-0.5c-0.7,0-1,0.1-1,1v9.7
		c0,0.6,0.2,0.9,0.9,0.9h0.5v0.5h-4.9V113.4z"/>
	<path class="st0" d="M323.7,104.3h-0.6c0-1.6-1.2-2.8-2.8-2.8c-1.5,0-2.8,0.8-2.8,2.4c0,2.9,6.8,1.8,6.8,6.4c0,2.4-2,3.8-4.3,3.8
		c-0.7,0-1.4-0.1-1.8-0.2c-0.5-0.1-0.8-0.2-1-0.2c-0.3,0-0.5,0.2-0.5,0.3h-0.6v-3.5h0.6c0.4,1.9,1.3,3.1,3.3,3.1
		c1.6,0,2.8-0.9,2.8-2.6c0-3.1-6.8-2.4-6.8-6.2c0-2.4,1.8-3.8,4.2-3.8c0.9,0,1.9,0.5,2.5,0.5c0.3,0,0.3-0.1,0.4-0.4h0.5V104.3z"/>
	<path class="st0" d="M326,113.4h0.6c0.7,0,0.9-0.3,0.9-0.9v-9.7c0-0.9-0.2-1-1-1H326v-0.5h4.9v0.5h-0.6c-0.8,0-0.9,0.3-0.9,1v10.6
		h2.7c1.4,0,2.6-0.9,2.6-2.7h0.6v3.2H326V113.4z"/>
	<path class="st0" d="M343.7,109.3l-2.2-5.5l-2.3,5.5H343.7z M342.8,101.1c0.2,0.7,0.4,1.3,0.7,2l3.2,8.1c0.8,2.2,1.2,2.2,1.8,2.2
		h0.2v0.5h-4.9v-0.5h0.4c0.8,0,1-0.1,1-0.4c0-0.2-0.1-0.4-0.2-0.8l-0.9-2.4h-4.9l-0.6,1.5c-0.4,0.9-0.5,1.3-0.5,1.6
		c0,0.6,0.5,0.6,1.2,0.6h0.2v0.5h-3.7v-0.5h0.2c0.5,0,1-0.2,1.4-1.2l3.9-9.3c0.2-0.6,0.5-1.2,0.6-1.8H342.8z"/>
	<path class="st0" d="M350.5,113.4h0.8c0.7,0,0.7-0.3,0.7-1.9v-9.7h-1c-1.6,0-2.7,0.9-2.7,2.6h-0.6v-3.1h10.6v3.1h-0.6
		c0-1.7-1.2-2.6-2.7-2.6h-1v9.7c0,1.5,0,1.9,0.7,1.9h0.8v0.5h-5.1V113.4z"/>
	<path class="st0" d="M359.7,113.4h0.5c0.7,0,0.9-0.3,0.9-0.9v-9.7c0-0.9-0.2-1-1-1h-0.5v-0.5h4.9v0.5h-0.5c-0.7,0-1,0.1-1,1v9.7
		c0,0.6,0.2,0.9,0.9,0.9h0.6v0.5h-4.9V113.4z"/>
	<path class="st0" d="M377.6,101.8h-0.3c-0.7,0-0.9,0.4-1.6,2.3l-3.4,9c-0.1,0.3-0.2,0.7-0.4,1h-1c-0.3-0.9-0.6-1.8-1-2.7l-3-7.8
		c-0.5-1.5-0.7-1.8-1.3-1.8h-0.5v-0.5h4.9v0.5h-0.7c-0.4,0-0.7,0.2-0.7,0.5c0,0.3,0.1,0.6,0.6,1.9l2.8,7.4l2.9-7.9
		c0.2-0.5,0.3-1,0.3-1.3c0-0.4-0.2-0.5-0.7-0.5H374v-0.5h3.6V101.8z"/>
	<path class="st0" d="M383.8,109.3l-2.2-5.5l-2.3,5.5H383.8z M382.8,101.1c0.2,0.7,0.4,1.3,0.7,2l3.2,8.1c0.8,2.2,1.2,2.2,1.8,2.2
		h0.2v0.5h-4.9v-0.5h0.4c0.8,0,1-0.1,1-0.4c0-0.2-0.1-0.4-0.2-0.8l-0.9-2.4h-4.9l-0.6,1.5c-0.4,0.9-0.5,1.3-0.5,1.6
		c0,0.6,0.5,0.6,1.2,0.6h0.2v0.5h-3.7v-0.5h0.2c0.5,0,1-0.2,1.4-1.2l3.9-9.3c0.2-0.6,0.5-1.2,0.6-1.8H382.8z"/>
	<path class="st0" d="M158.1,135.8h1.5c3.4,0,4.3-2.9,4.3-5.8c0-3-0.9-5.8-4.4-5.8h-1.4V135.8z M154.7,123.7h5
		c4.1,0,6.4,2.4,6.4,6.4c0,4.4-3.3,6.2-6.2,6.2h-5.2v-0.5h0.7c0.6,0,0.7-0.2,0.7-1.9v-8c0-1.2-0.1-1.6-0.7-1.6h-0.8V123.7z"/>
	<path class="st0" d="M173.3,136.1c2.9,0,3.2-4,3.2-6.1c0-2.1-0.2-6.1-3.2-6.1c-2.9,0-3.2,4-3.2,6.1
		C170.2,132.1,170.4,136.1,173.3,136.1 M173.3,123.4c3.7,0,5.4,3.3,5.4,6.6c0,3.3-1.7,6.6-5.4,6.6c-3.7,0-5.4-3.3-5.4-6.6
		C168,126.7,169.7,123.4,173.3,123.4"/>
	<path class="st0" d="M189.1,129.4h1.4c1.5,0,2.8-0.7,2.8-2.6c0-1.9-1-2.6-2.8-2.6h-1.3V129.4z M185.6,135.8h0.6
		c0.7,0,0.9-0.3,0.9-0.9v-9.7c0-0.9-0.2-1-1-1h-0.5v-0.5h5.8c2.1,0,4,0.7,4,2.8c0,1.6-1.5,2.9-3.1,3.2v0c2.2,0.4,2.5,0.9,2.6,3.3
		l0.1,2.2c0,0.3,0.1,0.6,0.4,0.6c0.4,0,0.7-0.4,0.9-0.9l0.5,0.2c-0.4,0.9-1,1.5-2,1.5c-1.5,0-1.9-1.2-1.9-2.4l-0.1-2.4
		c-0.1-1.4-0.8-1.9-2.5-1.9h-1.2v4.8c0,0.8,0.1,1.1,0.9,1.1h0.6v0.5h-4.9V135.8z"/>
	<path class="st0" d="M197.8,135.8h0.6c0.7,0,0.9-0.3,0.9-0.9v-9.7c0-0.9-0.2-1-1-1h-0.5v-0.5h4.9v0.5h-0.5c-0.7,0-1,0.1-1,1v9.7
		c0,0.6,0.2,0.9,0.9,0.9h0.6v0.5h-4.9V135.8z"/>
	<path class="st0" d="M209.7,136.1c2.9,0,3.2-4,3.2-6.1c0-2.1-0.2-6.1-3.2-6.1c-2.9,0-3.2,4-3.2,6.1
		C206.5,132.1,206.7,136.1,209.7,136.1 M209.7,123.4c3.7,0,5.4,3.3,5.4,6.6c0,3.3-1.7,6.6-5.4,6.6c-3.7,0-5.4-3.3-5.4-6.6
		C204.3,126.7,206,123.4,209.7,123.4"/>
	<path class="st0" d="M225.2,135.8h1.5c3.4,0,4.3-2.9,4.3-5.8c0-3-0.9-5.8-4.4-5.8h-1.4V135.8z M221.8,123.7h5
		c4.1,0,6.4,2.4,6.4,6.4c0,4.4-3.3,6.2-6.2,6.2h-5.2v-0.5h0.7c0.6,0,0.7-0.2,0.7-1.9v-8c0-1.2-0.1-1.6-0.7-1.6h-0.8V123.7z"/>
	<path class="st0" d="M235,135.8h0.7c0.4,0,0.7-0.1,0.7-1.1v-9.3c0-1-0.1-1.2-0.8-1.2H235v-0.5h9.7v2.9H244c0-1.7-0.9-2.4-2.6-2.4
		h-3.1v5.4h2.6c1.2,0,1.7-0.8,1.7-1.9h0.6v4.4h-0.6c0-1.2-0.4-2-1.7-2h-2.6v5.6h3.2c1.7,0,2.6-0.8,2.6-2.5h0.6v3H235V135.8z"/>
	<path class="st0" d="M254.7,123.7h5v0.5h-0.7c-0.6,0-0.7,0.2-0.7,2.1v7c0,1.8-1.1,3.4-3.8,3.4c-0.9,0-2-0.2-2.6-0.4v-3h0.6
		c0,1.3,0.5,2.9,2,2.9c1.5,0,1.7-1.3,1.7-3v-6.8c0-1.8-0.1-2.1-0.9-2.1h-0.7V123.7z"/>
	<path class="st0" d="M267.8,131.6l-2.2-5.5l-2.3,5.5H267.8z M266.8,123.5c0.2,0.7,0.4,1.3,0.7,2l3.2,8.1c0.8,2.2,1.2,2.2,1.8,2.2
		h0.2v0.5h-4.9v-0.5h0.4c0.8,0,1-0.1,1-0.4c0-0.2-0.1-0.4-0.2-0.8l-0.9-2.4h-4.9l-0.6,1.5c-0.4,0.9-0.5,1.3-0.5,1.6
		c0,0.6,0.5,0.6,1.2,0.6h0.2v0.5h-3.7v-0.5h0.2c0.5,0,1-0.2,1.4-1.2l3.9-9.3c0.2-0.6,0.5-1.2,0.6-1.8H266.8z"/>
	<path class="st0" d="M273.1,135.8h0.6c0.8,0,0.8-0.8,0.8-2.1v-7.1c0-2.3-0.1-2.4-0.8-2.4h-0.6v-0.5h3.5l6.4,9.8h0v-7.3
		c0-1.6-0.1-1.9-1-1.9h-0.6v-0.5h3.7v0.5h-0.4c-0.9,0-1,0.4-1,1.9v10.3h-1.1l-7.3-11.1h0v8.4c0,1.3,0,2.1,0.7,2.1h0.7v0.5h-3.6
		V135.8z"/>
	<path class="st0" d="M286.5,135.8h0.7c0.4,0,0.7-0.1,0.7-1.1v-9.3c0-1-0.1-1.2-0.8-1.2h-0.6v-0.5h9.7v2.9h-0.6
		c0-1.7-0.9-2.4-2.6-2.4h-3.1v5.4h2.6c1.2,0,1.7-0.8,1.7-1.9h0.6v4.4h-0.6c0-1.2-0.4-2-1.7-2h-2.6v5.6h3.2c1.7,0,2.6-0.8,2.6-2.5
		h0.6v3h-9.9V135.8z"/>
	<path class="st0" d="M298.3,135.8h0.6c0.7,0,0.9-0.3,0.9-0.9v-9.7c0-0.9-0.2-1-1-1h-0.5v-0.5h4.9v0.5h-0.5c-0.7,0-1,0.1-1,1v9.7
		c0,0.6,0.2,0.9,0.9,0.9h0.5v0.5h-4.9V135.8z"/>
	<path class="st0" d="M308,129.4h1.4c1.5,0,2.8-0.7,2.8-2.6c0-1.9-1-2.6-2.8-2.6H308V129.4z M304.6,135.8h0.6c0.7,0,0.9-0.3,0.9-0.9
		v-9.7c0-0.9-0.2-1-1-1h-0.5v-0.5h5.8c2.1,0,4,0.7,4,2.8c0,1.6-1.5,2.9-3.1,3.2v0c2.2,0.4,2.5,0.9,2.6,3.3l0.1,2.2
		c0,0.3,0.1,0.6,0.4,0.6c0.4,0,0.7-0.4,0.8-0.9l0.5,0.2c-0.4,0.9-1,1.5-2,1.5c-1.5,0-1.9-1.2-1.9-2.4l-0.1-2.4
		c-0.1-1.4-0.8-1.9-2.5-1.9H308v4.8c0,0.8,0.1,1.1,0.9,1.1h0.6v0.5h-4.9V135.8z"/>
	<path class="st0" d="M322.3,136.1c2.9,0,3.2-4,3.2-6.1c0-2.1-0.2-6.1-3.2-6.1c-2.9,0-3.2,4-3.2,6.1
		C319.2,132.1,319.4,136.1,322.3,136.1 M322.3,123.4c3.7,0,5.4,3.3,5.4,6.6c0,3.3-1.7,6.6-5.4,6.6c-3.7,0-5.4-3.3-5.4-6.6
		C317,126.7,318.7,123.4,322.3,123.4"/>
	<path class="st0" d="M199.2,52.4L192.3,35L185,52.4L199.2,52.4z M184.4,54l-3.3,8.3c-0.2,0.5-0.3,1-0.3,1.4c0,1.4,1.9,1.5,3.7,1.5
		h0.5v1.6l-11,0v-1.6c3.1,0,4.2-1.8,5.3-4.4L193,27.2h2l13.7,34.5c0.8,2.1,1.8,3.4,3.8,3.5h0.8v1.6l-14.1,0v-1.6h0.7
		c1.4,0,3.6-0.1,3.6-1.4c0-0.7-0.3-1.4-0.8-2.6l-3-7.2L184.4,54z"/>
	<path class="st0" d="M237,27.8v1.6l-1.6,0c-3.4,0-3.4,1.3-3.4,3.8l0,32.1l8,0c5.9,0,8.9-2.9,9-8.2h1.9v9.8l-28.4,0v-1.6h2.1
		c2,0,2.4-0.9,2.4-4l0-26c0-5.4-0.1-5.9-3.2-5.9h-1.4v-1.6L237,27.8z"/>
	<path class="st0" d="M261.6,65.3h2.1c2,0,2.4-0.9,2.4-4l0-26c0-5.4-0.1-5.9-3.2-5.9h-1.4v-1.6l29.6,0l0,9.1h-1.9
		c0-5.3-2.9-7.5-8-7.5l-10.2,0v17l6.9,0c4.6,0,7.1-1,7.1-6h1.9v13.5h-1.9c0-5.2-3.3-5.9-5.9-5.9h-8l0,17.4l9.6,0
		c5.6,0,9-1.2,9.3-7.5h1.9v9.1l-30.3,0V65.3z"/>
	<path class="st0" d="M315,45.5h5.3c4.9,0,8.5-3.5,8.5-8.4c0-5.5-3.3-7.7-8.6-7.7H315L315,45.5z M305.5,65.3h2.1c2,0,2.4-0.9,2.4-4
		l0-26c0-5.4-0.1-5.9-3.2-5.9h-1.4v-1.6l14.4,0c6.4,0,14.8,1.2,14.8,9.3c0,5.4-5.2,8.3-9.9,9.2v0.1c3.8,0.7,7.7,2.7,7.7,7.1v7.7
		c0,1.2,0,3.8,1.8,3.8c1.7,0,2.1-1.6,2.7-2.7l1.6,0.6c-1.2,2.5-3,4.9-6,4.9c-4.2,0-5.2-2.5-5.2-6.7v-5.7c0-6.2-1.8-8.2-7.8-8.2
		l-4.6,0l0,13.4c0,4,0.2,4.8,2.9,4.8l1.7,0v1.6l-14.1,0V65.3z"/>
	<path class="st0" d="M345.8,57.1h1.9c0.2,5.2,1.6,9.1,6.2,9.1c5.1,0,5.5-4.6,5.5-8.6l0-23.9c0-3,0-4.3-2.9-4.3h-2.1v-1.6l14.7,0
		v1.6h-2c-2.6,0-2.6,1.2-2.6,4.3l0,20.1c0,7.7-1.5,13.9-10.7,14c-2.7,0-5.4-0.3-8-1.5L345.8,57.1z"/>
	<path class="st0" d="M388.9,50.9c-1.8,0-3.3-1.5-3.3-3.3c0-1.8,1.5-3.3,3.3-3.3c1.8,0,3.3,1.5,3.3,3.3
		C392.2,49.4,390.7,50.9,388.9,50.9L388.9,50.9z"/>
	<path class="st0" d="M154.3,51c-1.8,0-3.3-1.5-3.3-3.3c0-1.8,1.5-3.3,3.3-3.3c1.8,0,3.3,1.5,3.3,3.3C157.6,49.5,156.1,51,154.3,51"
		/>
	<rect x="131.9" y="114.4" class="st0" width="3.5" height="8.9"/>
	<rect x="5.4" y="114.4" class="st0" width="3.5" height="8.9"/>
	<polygon class="st0" points="75.4,15.2 75.4,21.9 81.7,21.9 81.7,15.2 	"/>
	<rect y="133" class="st0" width="140.6" height="3.3"/>
	<rect x="122.6" y="114.4" class="st0" width="4.8" height="8.9"/>
	<rect x="112" y="114.4" class="st0" width="6" height="8.9"/>
	<rect x="101.5" y="114.4" class="st0" width="5.9" height="8.9"/>
	<rect x="90.4" y="114.4" class="st0" width="6.5" height="8.9"/>
	<rect x="78.9" y="114.4" class="st0" width="7" height="8.9"/>
	<rect x="66.4" y="114.4" class="st0" width="7.9" height="8.9"/>
	<rect x="54.8" y="114.4" class="st0" width="7" height="8.9"/>
	<rect x="43.8" y="114.4" class="st0" width="6.5" height="8.9"/>
	<rect x="33.3" y="114.4" class="st0" width="6" height="8.9"/>
	<rect x="22.7" y="114.4" class="st0" width="6" height="8.9"/>
	<rect x="13.4" y="114.4" class="st0" width="4.8" height="8.9"/>
	<path class="st0" d="M86.2,99.3H54.8v-2.9h31.4V99.3z M86.2,104.6H54.8v-2.9h31.4V104.6z"/>
	<path class="st0" d="M113.4,99.2H92.7v-2.9h20.6V99.2z M113.4,104.7H92.7v-2.9h20.6V104.7z"/>
	<path class="st0" d="M131.7,99.2h-12v-2.9h12V99.2z M131.7,104.7h-12v-2.9l12,0V104.7z"/>
	<path class="st0" d="M20.8,99.2h-12v-2.9h12V99.2z M20.8,104.7h-12v-2.9h12V104.7z"/>
	<path class="st0" d="M75.7,32.8C82.7,53.5,86,71.1,86,88.1c0,1.7,0,3.4-0.1,5.1l0,0.3H54.7v-0.3c-0.1-1.8-0.1-3.4-0.1-5
		c0-17.4,3.3-35.7,9.9-55.3H75.7z"/>
	<path class="st0" d="M88.8,32.8C103.3,49,111.7,69.9,113,93l0,0.5H92.6l0-0.4c0-1,0-2.1,0-3.1c0-21.1-4.5-40.7-13-57.3H88.8z"/>
	<path class="st0" d="M98.9,32.8c18.9,14.6,30.7,36.1,32.8,60.3l0,0.4h-12l0-0.3c-1.2-23.3-11.4-44.7-28.2-60.3L98.9,32.8z"/>
	<rect y="127" class="st0" width="140.6" height="3.3"/>
	<rect x="0" y="107.5" class="st0" width="140.6" height="3.3"/>
	<rect x="50.7" y="15.2" class="st0" width="5.9" height="6.7"/>
	<rect x="58.7" y="15.2" class="st0" width="6" height="6.7"/>
	<rect x="84.1" y="15.2" class="st0" width="5.6" height="6.7"/>
	<polygon class="st0" points="67,15.2 67,21.9 73.1,21.9 73.1,15.2 	"/>
	<path class="st0" d="M63.6,12.6l13.2,0l0-6.5C76.5,2.7,73.6,0,70.2,0c-3.7,0-6.6,3-6.6,6.7L63.6,12.6z"/>
	<path class="st0" d="M82,9.5c0-2.2,1.8-3.8,3.8-3.8c2.1,0,3.9,1.8,3.9,3.9v3H82V9.5z"/>
	<path class="st0" d="M50.7,9.5c0-2.2,1.8-3.8,3.8-3.8c2.1,0,3.9,1.8,3.9,3.9v3h-7.7L50.7,9.5z"/>
	<path class="st0" d="M74.1,26.2l-0.6-1.9l-6.8,0c-0.1,0.4-0.3,1.1-0.5,1.9H74.1z"/>
	<path class="st0" d="M75.2,30.2c-0.2-0.6-0.4-1.3-0.6-1.9l-8.9,0c-0.2,0.6-0.4,1.3-0.6,1.9L75.2,30.2z"/>
	<path class="st0" d="M83.9,26.2c-1.1-1.1-1.8-1.9-1.8-1.9h-6l0.9,1.9H83.9z"/>
	<path class="st0" d="M87.3,30.2c-0.6-0.6-1.2-1.3-1.8-1.9h-7.6l0.9,1.9H87.3z"/>
	<path class="st0" d="M92.4,26.2c-1.4-1.2-2.2-1.9-2.2-1.9h-5.6c0.7,0.7,1.3,1.3,1.9,1.9L92.4,26.2z"/>
	<path class="st0" d="M89.9,30.2c-0.6-0.6-1.2-1.3-1.8-1.9l6.4,0c0.7,0.5,1.5,1.3,2.3,1.9L89.9,30.2z"/>
	<path class="st0" d="M49.1,32.8c-16.8,15.7-27,37-28.2,60.3l0,0.3h-12l0-0.4C11,68.9,22.8,47.5,41.7,32.8L49.1,32.8z"/>
	<path class="st0" d="M48.2,99.2H27.6v-2.9h20.7V99.2z M48.2,104.7H27.6v-2.9h20.7V104.7z"/>
	<path class="st0" d="M60.9,32.8C52.5,49.4,48,69,48,90.1c0,1,0,2,0,3.1l0,0.4H27.5l0-0.5c1.4-23.2,9.8-44,24.2-60.2H60.9z"/>
	<path class="st0" d="M61.8,30.2l0.9-1.9h-7.6c-0.6,0.6-1.2,1.3-1.8,1.9L61.8,30.2z"/>
	<path class="st0" d="M63.6,26.2l0.9-1.9h-6.2c0,0-0.6,0.8-1.6,1.9H63.6z"/>
	<path class="st0" d="M50.7,30.2c0.6-0.6,1.2-1.2,1.8-1.9h-6.4c-0.7,0.6-1.5,1.2-2.3,1.9H50.7z"/>
	<path class="st0" d="M54.2,26.2c0,0,1.2-1.2,1.8-1.9h-5.6c0,0-0.9,0.7-2.2,1.9H54.2z"/>
	<rect x="154.3" y="81.9" class="st0" width="234.6" height="2.6"/>
</g>
</svg>
