<?xml version="1.0" encoding="utf-8"?>
<!-- Generator: Adobe Illustrator 19.1.1, SVG Export Plug-In . SVG Version: 6.00 Build 0)  -->
<svg version="1.1" id="Camada_1" xmlns="http://www.w3.org/2000/svg" xmlns:xlink="http://www.w3.org/1999/xlink" x="0px" y="0px"
	 viewBox="0 0 612 259" style="enable-background:new 0 0 612 259;" xml:space="preserve">
<style type="text/css">
	.st0{fill:#FFFFFF;}
</style>
<g>
	<g>
		<path class="st0" d="M97.3,192.6l-23.2-59l-24.7,59L97.3,192.6z M47.2,198l-11.1,28.2c-0.7,1.9-0.9,3.5-0.9,4.8
			c0,4.6,6.5,5,12.6,5h1.9v5.4l-37.3,0V236c10.4,0,14.3-5.9,18-14.8l46.2-113.7h6.7l46.4,116.6c2.8,7,5.9,11.5,12.8,11.8h2.8v5.4
			l-47.5,0V236h2.2c4.6,0,12.2-0.2,12.2-4.8c0-2.4-0.9-4.6-2.6-8.7l-10-24.5L47.2,198z"/>
		<path class="st0" d="M202.2,109.3v5.4l-5.6,0c-11.3,0-11.3,4.4-11.3,12.8l0,108.5l26.9,0c19.8,0,30.2-9.6,30.4-27.6h6.5v33
			l-96.1,0V236h7.2c6.7,0,8.2-3.2,8.2-13.5l0-87.7c0-18.2-0.2-20-10.7-20h-4.6v-5.4L202.2,109.3z"/>
		<path class="st0" d="M262.5,236h7.2c6.7,0,8.2-3.2,8.2-13.5l0-87.7c0-18.2-0.2-20-10.8-20h-4.6v-5.4l100.1,0l0,30.6h-6.5
			c0-17.8-9.6-25.2-27.1-25.2l-34.3,0V172l23.2,0c15.4,0,23.9-3.5,23.9-20.4h6.5v45.6h-6.5c0-17.6-11.1-19.8-20-19.8h-27.1l0,58.6
			l32.3,0c18.9,0,30.4-4.1,31.3-25.4h6.5v30.8l-102.4,0V236z"/>
		<path class="st0" d="M420.5,169.2h18c16.7,0,28.7-11.7,28.7-28.4c0-18.6-11.3-26.1-28.9-26.1h-17.8L420.5,169.2z M388.2,235.9h7.2
			c6.7,0,8.2-3.2,8.2-13.5l0-87.7c0-18.2-0.2-20-10.7-20h-4.6v-5.4l48.6,0c21.5,0,50.1,4.1,50.1,31.3c0,18.4-17.4,28-33.4,31v0.4
			c13,2.2,26,9.1,26,24.1v26.1c0,4.1,0,12.8,6.1,12.8c5.7,0,7-5.4,9.3-9.3l5.6,2c-3.9,8.5-10,16.5-20.4,16.5
			c-14.1,0-17.4-8.5-17.4-22.6v-19.3c0-21-5.9-27.8-26.5-27.8l-15.6,0l0,45.2c0,13.4,0.6,16.1,9.6,16.1l5.7,0v5.4l-47.6,0V235.9z"/>
		<path class="st0" d="M562.2,123.5c-7.4,0-14.3-2.1-20.2-5.6c6.6,18.3,16.5,51.4,16.2,83.3c-0.2,18.8-2.2,32.6-19.2,32.6
			c-15.6,0-18.3-8.2-18.9-25.7h-6.5l0,30.8c8.7,4.1,17.8,5.2,26.9,5.2c31.2,0,42.2-39.4,46.1-54.6c7-27.2,6.6-64.3,6.1-80.4
			C585.4,118,574.5,123.5,562.2,123.5z"/>
		<path class="st0" d="M549.9,120.4c2.5,0.9,5.1,1.5,7.9,1.9l-4.8-4.8L549.9,120.4z"/>
		<path class="st0" d="M543.2,107.8l-5.6,5.4c2.1,1.8,4.4,3.5,6.9,4.8l4.5-4.4L543.2,107.8z"/>
		<polygon class="st0" points="547,84.9 552.9,90.7 558.6,85.1 552.8,79.3 		"/>
		<path class="st0" d="M567.7,122.2c2.5-0.4,5-0.9,7.3-1.8l-2.7-2.7L567.7,122.2z"/>
		<path class="st0" d="M585.9,104.5l5.1,5.1c1.8-2.1,3.4-4.3,4.7-6.7l-4-4L585.9,104.5z"/>
		<polygon class="st0" points="581.9,81.5 587.7,75.9 581.8,70.1 576.1,75.7 		"/>
		<path class="st0" d="M525.1,89.8c0.3,2.5,0.9,4.9,1.7,7.3l2.8-2.8L525.1,89.8z"/>
		<path class="st0" d="M576.2,113.9l4.2,4.2c2.4-1.3,4.7-2.9,6.7-4.6l-5.2-5.1L576.2,113.9z"/>
		<path class="st0" d="M533.5,98.1l-4.4,4.3c1.3,2.5,2.9,4.8,4.7,6.9l5.5-5.4L533.5,98.1z"/>
		<path class="st0" d="M581.9,62.4l5.8-5.7c-2.1-1.9-4.4-3.5-6.8-4.9l-4.9,4.8L581.9,62.4z"/>
		<path class="st0" d="M591.6,72.1l4.5-4.4c-1.3-2.5-2.8-4.9-4.6-7l-5.8,5.6L591.6,72.1z"/>
		<path class="st0" d="M600,80.5c-0.3-2.5-0.8-5-1.6-7.4l-2.9,2.9L600,80.5z"/>
		<path class="st0" d="M558,47.3c-2.9,0.3-5.8,1-8.4,2l3.2,3.1L558,47.3z"/>
		<path class="st0" d="M548.8,56.3l-4.6-4.6c-2.4,1.3-4.6,2.9-6.6,4.7l5.5,5.5L548.8,56.3z"/>
		<path class="st0" d="M575.5,49.4c-2.8-1-5.8-1.8-8.9-2.1l5.5,5.4L575.5,49.4z"/>
		<path class="st0" d="M539.2,65.7l-5.4-5.4c-1.8,2.1-3.3,4.3-4.6,6.7l4.3,4.3L539.2,65.7z"/>
		<path class="st0" d="M526.8,72.5c-0.8,2.2-1.3,4.6-1.7,7l4.4-4.3L526.8,72.5z"/>
		<polygon class="st0" points="556.8,113.6 562.7,119.5 568.4,113.9 562.6,108 		"/>
		<polygon class="st0" points="543.1,88.7 537.4,94.3 543.2,100.1 549,94.5 		"/>
		<polygon class="st0" points="552.9,98.4 547.1,104 553,109.8 558.7,104.2 		"/>
		<polygon class="st0" points="533.4,79 527.7,84.6 533.5,90.4 539.3,84.8 		"/>
		<polygon class="st0" points="591.5,79.8 585.8,85.4 591.7,91.2 597.4,85.6 		"/>
		<polygon class="st0" points="566.5,104.2 572.4,110 578.1,104.4 572.2,98.6 		"/>
		<path class="st0" d="M595.5,95l2.5,2.5c0.8-2.1,1.3-4.3,1.7-6.6L595.5,95z"/>
		<polygon class="st0" points="548.9,75.4 543.1,69.6 537.3,75.2 543.2,81 		"/>
		<polygon class="st0" points="576.1,94.8 582,100.6 587.7,95 581.9,89.2 		"/>
		<polygon class="st0" points="568.2,56.6 562.4,50.7 556.6,56.4 562.5,62.2 		"/>
		<polygon class="st0" points="572.2,71.8 578,66.2 572.1,60.4 566.4,66 		"/>
		<polygon class="st0" points="578,85.3 572.2,79.5 566.4,85.1 572.3,90.9 		"/>
		<polygon class="st0" points="568.4,94.8 562.5,88.9 556.8,94.5 562.6,100.4 		"/>
		<polygon class="st0" points="558.6,66 552.7,60.2 547,65.8 552.8,71.6 		"/>
		<polygon class="st0" points="568.3,75.7 562.4,69.8 556.7,75.4 562.6,81.3 		"/>
	</g>
	<g>
		<path class="st0" d="M115.3,73.2h5.9c13,0,16.2-11.2,16.2-22c0-11.4-3.4-22.2-16.6-22.2h-5.5V73.2z M102.2,27.1h19.1
			c15.7,0,24.5,9.1,24.5,24.5c0,16.8-12.5,23.6-23.8,23.6h-19.8v-2h2.8c2.4,0,2.7-0.7,2.7-7.4V35.3c0-4.6-0.3-6.3-2.5-6.3h-3V27.1z"
			/>
		<path class="st0" d="M192.3,74.3c11.2,0,12-15.2,12-23.2c0-8-0.8-23.2-12-23.2c-11.2,0-12,15.2-12,23.2
			C180.2,59.1,181,74.3,192.3,74.3 M192.3,26c14,0,20.4,12.5,20.4,25.1c0,12.7-6.4,25.2-20.4,25.2c-14,0-20.4-12.5-20.4-25.2
			C171.8,38.5,178.3,26,192.3,26"/>
		<path class="st0" d="M150.5,73.2h2.1c2.8,0,3.4-1,3.4-3.4V33c0-3.5-0.9-4-3.7-4h-1.8v-2h18.7v2h-1.8c-2.8,0-3.7,0.5-3.7,4v36.8
			c0,2.4,0.7,3.4,3.4,3.4h2.1v2h-18.7V73.2z"/>
		<path class="st0" d="M84.9,57.4l-8.2-21l-8.8,21H84.9z M81.2,26.4c0.8,2.6,1.7,5.1,2.6,7.5l12,30.9c3.2,8.3,4.5,8.5,6.7,8.5h0.8v2
			H84.9v-2h1.5c3,0,3.7-0.4,3.7-1.7c0-0.7-0.2-1.7-0.7-3.1l-3.5-9.1H67.1l-2.4,5.7c-1.4,3.4-1.8,4.9-1.8,6c0,2.2,2,2.2,4.5,2.2h0.9
			v2H54.3v-2H55c2,0,3.7-0.7,5.3-4.7l14.7-35.4c0.9-2.2,1.8-4.5,2.4-6.8H81.2z"/>
		<path class="st0" d="M25.5,48.9h5.3c5.7,0,10.5-2.6,10.5-9.9c0-7.4-4-9.9-10.7-9.9h-5.1V48.9z M12.3,73.2h2.1c2.8,0,3.4-1,3.4-3.4
			V33c0-3.5-0.9-4-3.7-4h-1.8v-2h22c8,0,15.2,2.8,15.2,10.7c0,5.9-5.9,11-11.8,12v0.1c8.3,1.6,9.7,3.4,10,12.4l0.3,8.4
			c0.1,1.1,0.3,2.4,1.6,2.4c1.7,0,2.6-1.6,3.2-3.5l2,0.9c-1.7,3.5-3.9,5.8-7.6,5.8c-5.9,0-7.1-4.7-7.3-9.1l-0.5-9.1
			c-0.3-5.3-3.1-7.2-9.6-7.2h-4.5v18.3c0,3,0.3,4.1,3.3,4.1h2.2v2H12.3V73.2z"/>
		<path class="st0" d="M87.5,17c-1.6,1.6-3.5,3.5-4.6,4.4c-1,0.9-1.6,1.6-2.9,0.7c-0.9-0.6-0.9-1.5-0.2-3.2c0.8-1.7,1.5-3.1,2.2-4.8
			c0.8-1.9,2.8-3.1,4.6-2S89,15.5,87.5,17z"/>
	</g>
</g>
</svg>
