<?xml version="1.0" encoding="utf-8"?>
<!-- Generator: Adobe Illustrator 21.0.0, SVG Export Plug-In . SVG Version: 6.00 Build 0)  -->
<svg version="1.1" id="Layer_1" xmlns="http://www.w3.org/2000/svg" xmlns:xlink="http://www.w3.org/1999/xlink" x="0px" y="0px"
	 viewBox="0 0 165 165" style="enable-background:new 0 0 165 165;" xml:space="preserve">
<style type="text/css">
	.st0{fill:#B6B98E;}
	.st1{fill:#7D8051;}
	.st2{clip-path:url(#SVGID_2_);}
	.st3{fill:none;}
	.st4{fill:#FFFFFF;}
</style>
<g>
	<g>
		<path class="st0" d="M82.5,163.6c-1.5,0-3,0-4.7-0.1c-0.1,0-0.8-0.1-0.8-0.1c-0.1,0-0.3,0-0.4,0l-0.3,0c-1.1-0.1-2.2-0.2-3.2-0.3
			l-1.3-0.2c-0.2,0-0.3,0-0.4,0l-0.1,0c-0.1,0-0.1,0-0.2,0l-0.4-0.1c-0.3,0-0.5-0.1-0.8-0.1l-1.8-0.3v-0.1l-0.8-0.2
			c-1.4-0.3-2.8-0.6-4.1-0.9c-0.1,0-0.1,0-0.2,0c-0.1,0-0.2,0-0.2-0.1c-3-0.7-6-1.7-8.9-2.8l-0.9-0.4c-1.1-0.4-2.2-0.9-3.2-1.3
			l-0.6-0.3c-0.2-0.1-0.5-0.2-0.8-0.3c-0.9-0.4-1.8-0.9-2.7-1.3c-0.5-0.2-1-0.5-1.5-0.8c-0.8-0.5-1.6-0.9-2.5-1.4
			c-1.2-0.7-2.3-1.4-3.4-2.1l-0.2-0.1c-0.4-0.2-0.8-0.5-1.2-0.8c-0.7-0.4-1.3-0.9-2-1.4l-0.4-0.3l-1-0.8c-0.8-0.6-1.6-1.2-2.5-1.9
			c-0.2-0.2-0.5-0.4-0.7-0.6c-3.7-3-7.1-6.5-10.3-10.3c-0.2-0.2-0.4-0.5-0.6-0.7c-0.7-0.8-1.3-1.7-2-2.5c-0.2-0.3-0.4-0.6-0.6-0.9
			l-0.2-0.2c-0.5-0.6-0.9-1.2-1.3-1.8l-0.7-1l0-0.1C6,114,1.4,98.5,1.4,82.5c0-44.7,36.4-81.1,81.1-81.1c44.7,0,81.1,36.4,81.1,81.1
			c0,16-4.7,31.4-13.5,44.8l-0.1,0.2l-0.6,0.8c-0.3,0.5-0.7,1-1.1,1.5l-0.5,0.6c-0.2,0.3-0.4,0.6-0.6,0.8c-0.7,0.9-1.4,1.8-2,2.5
			l-0.6,0.7c-3.1,3.7-6.5,7.2-10.3,10.3l-0.7,0.6c-0.7,0.6-1.5,1.2-2.3,1.8l-0.2,0.1l-0.4,0.3c-0.2,0.2-0.4,0.3-0.7,0.5
			c-0.8,0.6-1.6,1.2-2.4,1.7c-0.3,0.2-0.5,0.3-0.8,0.5c-0.2,0.1-0.4,0.2-0.5,0.3c-1.3,0.9-2.4,1.5-3.4,2.1l-0.3,0.2
			c-0.7,0.4-1.4,0.8-2.1,1.2c-0.3,0.1-0.6,0.3-0.9,0.4l-0.6,0.3c-1,0.5-1.8,0.9-2.7,1.3l-0.2,0.1c-0.4,0.2-0.8,0.4-1.2,0.5
			c-1,0.5-2,0.9-3.1,1.3l-1,0.4c-3,1.1-6,2.1-9,2.8l-0.4,0.1c-1.6,0.4-2.8,0.7-4.1,0.9c-0.2,0-0.4,0.1-0.7,0.1l0,0l-0.5,0.1
			l-1.5,0.2c-0.1,0-0.3,0-0.5,0.1c-0.1,0-0.3,0-0.4,0.1l-0.3,0l-0.1,0l-0.3,0c-0.1,0-0.2,0-0.3,0l-1.3,0.2c-0.9,0.1-1.9,0.2-2.8,0.3
			l-0.7,0.1c-0.1,0-0.3,0-0.4,0l-0.8,0.1C85.5,163.6,84,163.6,82.5,163.6z"/>
		<path class="st1" d="M82.5,1.9c44.5,0,80.6,36.2,80.6,80.6c0,16.5-5,31.9-13.5,44.7l0,0.1l-0.6,0.8c-0.5,0.7-1,1.4-1.5,2.1
			c-0.2,0.3-0.4,0.6-0.6,0.8c-0.6,0.9-1.3,1.7-2,2.5c-0.2,0.2-0.4,0.5-0.6,0.7c-3.1,3.7-6.5,7.1-10.2,10.2c-0.2,0.2-0.4,0.4-0.7,0.6
			c-0.8,0.7-1.6,1.3-2.4,1.9c-0.3,0.2-0.7,0.5-1,0.7c-0.8,0.6-1.6,1.2-2.4,1.7c-0.4,0.3-0.9,0.6-1.3,0.9c-1.1,0.7-2.2,1.4-3.4,2.1
			c-0.8,0.5-1.6,0.9-2.4,1.4c-0.5,0.3-1,0.5-1.5,0.8c-0.9,0.4-1.7,0.9-2.6,1.3c-0.4,0.2-0.9,0.4-1.4,0.6c-1,0.5-2.1,0.9-3.1,1.3
			c-0.3,0.1-0.6,0.3-1,0.4c-2.9,1.1-5.9,2-8.9,2.8c-0.1,0-0.2,0.1-0.4,0.1c-1.3,0.3-2.7,0.6-4.1,0.9c-0.4,0.1-0.7,0.1-1.1,0.2
			c0,0-0.1,0-0.1,0l0,0.1l-1.5,0.2c-0.3,0.1-0.6,0.1-0.9,0.1l-0.3,0c-0.1,0-0.1,0-0.2,0c-0.2,0-0.4,0-0.5,0.1
			c-0.4,0.1-0.9,0.1-1.3,0.2c-1.1,0.1-2.1,0.2-3.2,0.3c-0.2,0-0.5,0-0.7,0.1c-0.3,0-0.5,0-0.8,0.1c-1.5,0.1-3.1,0.1-4.6,0.1
			s-3.1-0.1-4.6-0.1c-0.3,0-0.5,0-0.8-0.1c-0.2,0-0.5,0-0.7-0.1c-1.1-0.1-2.2-0.2-3.2-0.3c-0.4-0.1-0.9-0.1-1.3-0.2
			c-0.1,0-0.3,0-0.4-0.1c-0.1,0-0.1,0-0.2,0l-0.3,0c-0.3,0-0.7-0.1-1-0.1l-1.4-0.2v-0.1c-0.1,0-0.1,0-0.2,0
			c-0.4-0.1-0.7-0.1-1.1-0.2c-1.4-0.3-2.7-0.6-4.1-0.9c-0.1,0-0.2-0.1-0.4-0.1c-3-0.8-6-1.7-8.9-2.8c-0.3-0.1-0.7-0.3-1-0.4
			c-1-0.4-2.1-0.8-3.1-1.3c-0.4-0.2-0.9-0.4-1.4-0.6c-0.9-0.4-1.8-0.9-2.6-1.3c-0.5-0.2-1-0.5-1.5-0.8c-0.8-0.4-1.6-0.9-2.4-1.4
			c-1.1-0.7-2.3-1.4-3.4-2.1c-0.4-0.3-0.9-0.6-1.3-0.9c-0.8-0.5-1.6-1.1-2.4-1.7c-0.3-0.2-0.7-0.5-1-0.7c-0.8-0.6-1.6-1.3-2.4-1.9
			c-0.2-0.2-0.4-0.4-0.7-0.6c-3.7-3.1-7.1-6.5-10.2-10.2c-0.2-0.2-0.4-0.5-0.6-0.7c-0.7-0.8-1.3-1.7-2-2.5c-0.2-0.3-0.4-0.6-0.6-0.8
			c-0.5-0.7-1-1.4-1.5-2.1l-0.6-0.8l0-0.1C6.9,114.4,1.9,99,1.9,82.5C1.9,38,38,1.9,82.5,1.9 M82.5,0.9c-45,0-81.6,36.6-81.6,81.6
			c0,16,4.7,31.5,13.5,44.9l0,0.1l0.2,0.4l0.6,0.8c0.4,0.6,0.9,1.3,1.4,1.9l0.2,0.2c0.2,0.3,0.4,0.6,0.6,0.8c0.6,0.8,1.2,1.6,2,2.5
			c0.2,0.2,0.4,0.5,0.6,0.7c3.1,3.7,6.6,7.2,10.3,10.3c0.2,0.2,0.4,0.4,0.7,0.6c0.9,0.7,1.7,1.3,2.5,1.9l0.5,0.4l0.5,0.4l0.4,0.3
			c0.6,0.5,1.3,0.9,2,1.4c0.4,0.3,0.8,0.5,1.1,0.8l0.2,0.1c1.1,0.7,2.2,1.4,3.4,2.1c0.9,0.5,1.8,1,2.5,1.4c0.5,0.3,1,0.5,1.5,0.8
			c0.9,0.4,1.8,0.9,2.7,1.3c0.3,0.1,0.6,0.2,0.8,0.4c0.2,0.1,0.4,0.2,0.6,0.3c1.1,0.5,2.1,0.9,3.2,1.3l1,0.4c2.9,1.1,6,2.1,9,2.8
			c0.1,0,0.2,0,0.2,0.1c0,0,0.1,0,0.1,0l0,0l0.1,0c1.3,0.3,2.6,0.6,4.1,0.9l0.4,0.1c0,0,0.1,0,0.1,0v0.1l0.9,0.1l1.4,0.2
			c0.2,0,0.5,0.1,0.8,0.1l0.2,0l0.2,0c0,0,0.1,0,0.1,0l0,0l0.1,0c0.1,0,0.2,0,0.3,0l0,0l0,0c0.2,0,0.4,0.1,0.7,0.1
			c0.2,0,0.4,0.1,0.7,0.1c1.2,0.1,2.2,0.2,3.3,0.3c0.1,0,0.2,0,0.3,0c0.1,0,0.3,0,0.4,0c0.1,0,0.2,0,0.3,0c0.1,0,0.3,0,0.4,0
			c1.7,0.1,3.2,0.1,4.7,0.1c1.5,0,3,0,4.7-0.1c0.1,0,0.3,0,0.4,0c0.1,0,0.3,0,0.4,0c0.1,0,0.3,0,0.4,0c0.1,0,0.2,0,0.3,0l0.4,0
			c0.9-0.1,1.9-0.2,2.8-0.3c0.2,0,0.4-0.1,0.7-0.1c0.2,0,0.4-0.1,0.7-0.1c0.1,0,0.2,0,0.3,0l0.2,0l0,0l0,0l0.1,0l0.3,0
			c0.2,0,0.3,0,0.4-0.1c0.2,0,0.3,0,0.5-0.1l1.5-0.2l1.1-0.1l0-0.1c0.1,0,0.1,0,0.2,0c1.2-0.2,2.5-0.5,4.1-0.9l0.2,0l0.2,0
			c3-0.8,6.1-1.7,9-2.8l0.4-0.2l0.5-0.2l0.1,0c1-0.4,2.1-0.8,3.1-1.3c0.4-0.2,0.8-0.4,1.2-0.5l0.2-0.1c0.8-0.4,1.7-0.8,2.7-1.3
			c0.2-0.1,0.4-0.2,0.6-0.3c0.3-0.2,0.6-0.3,0.9-0.5c0.7-0.4,1.4-0.8,2.1-1.2l0.3-0.2c1-0.6,2.1-1.3,3.4-2.1
			c0.2-0.1,0.4-0.2,0.5-0.3c0.3-0.2,0.5-0.3,0.8-0.5c0.8-0.5,1.6-1.1,2.4-1.7c0.2-0.1,0.5-0.3,0.7-0.5l0.3-0.2l0.2-0.2
			c0.7-0.6,1.5-1.2,2.3-1.8c0.1-0.1,0.2-0.2,0.4-0.3c0.1-0.1,0.2-0.2,0.3-0.3c3.7-3.1,7.2-6.6,10.3-10.3l0.3-0.3l0.3-0.4
			c0.6-0.7,1.3-1.6,2-2.6c0.2-0.3,0.4-0.6,0.6-0.9c0.1-0.2,0.3-0.4,0.4-0.6c0.4-0.5,0.7-1,1.1-1.5l0.6-0.8l0.3-0.4l0-0.1
			c8.8-13.4,13.5-28.9,13.5-44.9C164.1,37.5,127.5,0.9,82.5,0.9L82.5,0.9z"/>
	</g>
	<g>
		<defs>
			<path id="SVGID_1_" d="M163.1,82.5C163.1,38,127,1.9,82.5,1.9C38,1.9,1.9,38,1.9,82.5c0,16.5,5,31.9,13.5,44.7l0,0.1l0.6,0.8
				c0.5,0.7,1,1.4,1.5,2.1c0.2,0.3,0.4,0.6,0.6,0.8c0.6,0.9,1.3,1.7,2,2.5c0.2,0.2,0.4,0.5,0.6,0.7c3.1,3.7,6.5,7.1,10.2,10.2
				c0.2,0.2,0.4,0.4,0.7,0.6c0.8,0.7,1.6,1.3,2.4,1.9c0.3,0.2,0.7,0.5,1,0.7c0.8,0.6,1.6,1.1,2.4,1.7c0.4,0.3,0.9,0.6,1.3,0.9
				c1.1,0.7,2.3,1.4,3.4,2.1c0.8,0.5,1.6,0.9,2.4,1.4c0.5,0.3,1,0.5,1.5,0.8c0.9,0.4,1.8,0.9,2.6,1.3c0.5,0.2,0.9,0.4,1.4,0.6
				c1,0.5,2.1,0.9,3.1,1.3c0.3,0.1,0.7,0.3,1,0.4c2.9,1.1,5.8,2,8.9,2.8c0.1,0,0.2,0.1,0.4,0.1c1.3,0.3,2.7,0.6,4.1,0.9
				c0.4,0.1,0.7,0.1,1.1,0.2c0.1,0,0.1,0,0.2,0v0.1l1.4,0.2c0.3,0.1,0.6,0.1,1,0.1l0.3,0c0.1,0,0.1,0,0.2,0c0.1,0,0.3,0,0.4,0.1
				c0.4,0.1,0.9,0.1,1.3,0.2c1.1,0.1,2.1,0.2,3.2,0.3c0.2,0,0.5,0,0.7,0.1c0.2,0,0.5,0,0.8,0.1c1.5,0.1,3.1,0.1,4.6,0.1
				s3.1-0.1,4.6-0.1c0.3,0,0.5,0,0.8-0.1c0.2,0,0.4,0,0.7-0.1c1.1-0.1,2.1-0.2,3.2-0.3c0.4-0.1,0.9-0.1,1.3-0.2c0.2,0,0.3,0,0.5-0.1
				c0.1,0,0.1,0,0.2,0l0.3,0c0.3-0.1,0.6-0.1,0.9-0.1l1.5-0.2l0-0.1c0,0,0.1,0,0.1,0c0.4-0.1,0.7-0.1,1.1-0.2
				c1.4-0.2,2.7-0.6,4.1-0.9c0.1,0,0.2-0.1,0.4-0.1c3-0.8,6-1.7,8.9-2.8c0.3-0.1,0.6-0.3,1-0.4c1-0.4,2.1-0.8,3.1-1.3
				c0.5-0.2,0.9-0.4,1.4-0.6c0.9-0.4,1.8-0.8,2.6-1.3c0.5-0.3,1-0.5,1.5-0.8c0.8-0.4,1.6-0.9,2.4-1.4c1.2-0.7,2.3-1.4,3.4-2.1
				c0.4-0.3,0.9-0.6,1.3-0.9c0.8-0.5,1.6-1.1,2.4-1.7c0.3-0.2,0.7-0.5,1-0.7c0.8-0.6,1.6-1.3,2.4-1.9c0.2-0.2,0.4-0.4,0.7-0.6
				c3.7-3.1,7.1-6.5,10.2-10.2c0.2-0.2,0.4-0.5,0.6-0.7c0.7-0.8,1.3-1.7,2-2.5c0.2-0.3,0.4-0.6,0.6-0.8c0.5-0.7,1-1.4,1.5-2.1
				l0.6-0.8l0-0.1C158.1,114.4,163.1,99,163.1,82.5L163.1,82.5z"/>
		</defs>
		<clipPath id="SVGID_2_">
			<use xlink:href="#SVGID_1_"  style="overflow:visible;"/>
		</clipPath>
		<g class="st2">
			<path class="st1" d="M57.6,116l-0.6,1.3l0.4,0.9c0.4-1.1,0.8-2.4,1.3-3.7c2-5.7,5.8-13.5,5.9-13.9c0.4-0.9,1.3-1.4,2.2-1.4
				c0.1,0,0.1,0,0.2,0c10.3,0.8,24.9,10.4,28.6,18.7c0.4,1,0.8,2,0.9,3l0.2,0.7c0,0,0.7,0.2,1.2,0.2s1.3,0.2,1.3,0.2l-0.1-1.1
				c-0.2-1.3-0.6-2.6-1.2-4c-4-9.2-19.5-19.4-30.7-20.2c-0.1,0-0.3,0-0.4,0c-1.9,0-3.7,1.1-4.5,2.8c-0.1,0.2-1.6,3.3-3.2,7
				c-0.2-0.2-0.4-0.4-0.6-0.6c-1.7-1.5-3.4-0.7-4.8,0c0.9,0.3,2,0.8,3.2,1.9C59.8,110.4,58.7,114.2,57.6,116z"/>
			<path class="st3" d="M106.2,86.7c1.7,2.6,4.7,4.8,6.2,6.3c1.1,1.1,3.8,3.9,5,3.9l2.7,1.7c1.2,0,5.1-2.4,6.2-3.5
				c1.5-1.5,7.4-5.9,9-8.5c0,0,2.6-18.8,2.5-20.3c0,0-2.4-5.2-2.4-5.2c-4.2,0-10.5-4.3-12.4-5.9c-1.4,1.2-17.9,6-18.4,5.9
				c0,0.7,0,11.6,0.1,12.6c0.2,1.1-0.6,3.5-0.5,4.7C104.5,80.6,105.4,85.4,106.2,86.7z"/>
			<path class="st1" d="M103.5,88.7c0.1,0,0.2,0,0.2,0c0,0,0.1,0,0.1,0c2.7,0.1,4.9,2.3,4.9,5c0,1.1-0.4,2.1-1,3
				c-0.5,0.8-1.7,2.5-2.4,3.8c-0.3,0.5-0.6,1.2-0.8,1.9c1.1,0.7,1.9,1.9,2.2,3.3c0.3,1.7-0.3,3.5-1.6,4.6l-0.5,0.5
				c2,2.3,4.9,5.7,7.7,8.5c1,1,1.5,2.2,1.5,3.5c2,0.1,4.1,0.2,6.4,0.2c1.9,0.1,3.7,0.1,5.4,0.1c-0.1-1.4,0.4-2.8,1.5-3.8
				c2.8-2.7,5.8-6.2,7.7-8.5l-0.5-0.5c-1.3-1.2-1.9-2.9-1.6-4.6c0.2-1.4,1-2.5,2.2-3.3c-0.3-0.7-0.6-1.4-0.8-1.9
				c-0.5-1-1.5-2.4-2.5-3.9c-1.1-1.6-1.2-3.8-0.2-5.5c0.9-1.5,2.5-2.4,4.3-2.4c0.2,0,0.5,0,0.7,0c0.9,0.1,4.7,0.7,9.3,2.4
				c0-0.1,0-0.3,0-0.4c-0.1-1.3-0.2-12.3-0.1-16c0.2-4-0.1-17.1-3.5-24.4c-3.1-6.7-8.2-9.9-15.4-9.9c-1.2,0-2.5,0.1-3.9,0.3
				c-1.7-1.1-4.2-2.2-7.2-2.2c-2.4,0-5.9,0.7-9.5,4c-7.3,6.8-11.2,12.9-11.1,25.8c0,5.5,0.1,10.6,0.1,14.6c0,4.2,0.1,7.1,0.1,7.5
				c0,0.1,0,0.2,0,0.4c3.9-1.3,7-1.8,8-2C103.1,88.7,103.3,88.7,103.5,88.7z M104.8,73.7c-0.1-0.9-0.1-11.9-0.1-12.6
				c0.6,0,17-4.7,18.4-5.9c1.8,1.6,8.2,5.9,12.4,5.9c0,0,2.4,5.2,2.4,5.2c0.1,1.5-2.5,20.3-2.5,20.3c-1.7,2.6-7.5,7-9,8.5
				c-1.1,1.1-5,3.5-6.2,3.5l-2.7-1.7c-1.2,0-4-2.8-5-3.9c-1.5-1.5-4.6-3.8-6.2-6.3c-0.8-1.3-1.7-6.1-1.9-8.3
				C104.2,77.2,105,74.8,104.8,73.7z"/>
			<path class="st4" d="M147.4,120.4c5.5-1.6,10.9-3.9,12.7-4.8c0.2-0.1,0.4-0.2,0.7-0.3c-0.4-11.6-10.2-17.2-17.5-19.7
				c-0.9,0.7-2,1-3,1.1c0,0,0.1,0.1,0.1,0.1c0.7,1.2,1.4,3,2.1,5.2c0.5,1.7,0.1,3.5-1,4.8c1.9,1.8,2,4.8,0.4,6.8
				c-1.5,1.8-4.6,5.5-7.8,8.9c2.1-0.2,4.2-0.4,6.3-0.6C142.8,121.5,145.2,121,147.4,120.4z"/>
			<path class="st4" d="M141.4,106.9c1.1-1.3,1.6-3.1,1-4.8c-0.7-2.2-1.4-3.9-2.1-5.2c0,0-0.1-0.1-0.1-0.1c1-0.1,2.1-0.5,3-1.1
				c-3.9-1.4-7.1-1.9-7.7-1.9c0.6,0.9,1.9,2.8,2.8,4.3c1.2,2.2,2.2,5.9,2.3,6l0.3,1.2l-3.4,1.3l4.1,3.7l-0.8,1
				c-0.3,0.3-5.5,6.8-10.3,11.5c1.1-0.1,2.2-0.1,3.4-0.2c3.2-3.4,6.3-7,7.8-8.9C143.4,111.7,143.2,108.7,141.4,106.9z"/>
			<path class="st1" d="M145,93.6c8.4,3.2,17.1,9.5,18.1,20.5c0.9-0.6,1.6-1.1,2.3-1.7c-1.2-8-6.2-14.5-14.6-18.9
				c-1.8-0.9-3.6-1.7-5.3-2.3C145.5,92,145.4,92.8,145,93.6z"/>
			<path class="st1" d="M135.6,88.7c-1.7,0-3.3,0.9-4.3,2.4c-1,1.7-1,3.8,0.2,5.5c1.1,1.5,2,2.9,2.5,3.9c0.3,0.5,0.6,1.2,0.8,1.9
				c-1.1,0.7-1.9,1.9-2.2,3.3c-0.3,1.7,0.3,3.5,1.6,4.6l0.5,0.5c-2,2.3-5,5.7-7.7,8.5c-1,1-1.5,2.4-1.5,3.8c0.8,0,1.7,0,2.5,0
				c-0.1-0.7,0.2-1.5,0.7-2c3.8-3.7,7.9-8.6,9.5-10.5l-2.3-2.1c-0.6-0.6-0.9-1.5-0.8-2.3c0.2-0.9,0.7-1.6,1.6-1.9l1.2-0.5
				c-0.4-1.4-1.1-3.3-1.8-4.5c-0.8-1.4-2-3.2-2.6-4.1c-0.6-0.8-0.6-1.9-0.1-2.7c0.5-0.7,1.3-1.2,2.1-1.2c0.1,0,0.2,0,0.3,0
				c2.7,0.4,5.8,1.1,9.1,2.4c0.4-0.8,0.5-1.6,0.5-2.4c-4.5-1.7-8.3-2.3-9.3-2.4C136.1,88.7,135.8,88.7,135.6,88.7z"/>
			<path class="st1" d="M160.1,115.7c-1.8,0.8-7.2,3.2-12.7,4.8C152.5,119.1,156.5,117.3,160.1,115.7z"/>
			<path class="st1" d="M133.9,122.6c0,0-0.1,0.1-0.1,0.1c2.3-0.2,4.4-0.4,6.4-0.8C138.1,122.2,136,122.4,133.9,122.6z"/>
			<path class="st1" d="M143.3,95.7c7.2,2.5,17,8.1,17.5,19.7c0.9-0.4,1.7-0.9,2.4-1.3c-1-10.9-9.8-17.3-18.1-20.5
				c-0.2,0.5-0.5,0.9-0.9,1.3C143.9,95.2,143.6,95.4,143.3,95.7z"/>
			<path class="st1" d="M133.9,122.6c-1.2,0.1-2.3,0.2-3.4,0.2c4.8-4.7,10-11.2,10.3-11.5l0.8-1l-4.1-3.7l3.4-1.3l-0.3-1.2
				c0-0.2-1.1-3.9-2.3-6c-0.9-1.5-2.1-3.4-2.8-4.3c0.6,0.1,3.8,0.6,7.7,1.9c0.3-0.2,0.6-0.5,0.9-0.8c0.4-0.4,0.6-0.8,0.9-1.3
				c-3.2-1.2-6.4-2-9.1-2.4c-0.1,0-0.2,0-0.3,0c-0.9,0-1.7,0.4-2.1,1.2c-0.5,0.8-0.5,1.9,0.1,2.7c0.6,0.9,1.8,2.7,2.6,4.1
				c0.7,1.2,1.3,3.1,1.8,4.5l-1.2,0.5c-0.8,0.3-1.4,1-1.6,1.9c-0.2,0.9,0.1,1.7,0.8,2.3l2.3,2.1c-1.6,1.9-5.7,6.8-9.5,10.5
				c-0.5,0.5-0.8,1.3-0.7,2c2-0.1,3.9-0.2,5.7-0.3C133.8,122.7,133.9,122.6,133.9,122.6z"/>
			<path class="st4" d="M97.6,113.7c-1.7-2-1.5-5,0.4-6.8c-1.1-1.3-1.6-3.1-1-4.8c0.7-2.2,1.4-3.9,2.1-5.2c0.1-0.1,0.2-0.3,0.2-0.4
				c-0.8-0.3-1.6-0.7-2.2-1.2c-7.3,2.4-18,7.9-18.5,20.1c0,0,7.5,3.6,14.8,5.4c3.4,0.7,7.2,1.2,11.8,1.5
				C102.1,119,99.1,115.5,97.6,113.7z"/>
			<path class="st4" d="M97.7,110.2l4.1-3.7l-3.4-1.3l0.3-1.2c0-0.2,1.1-3.9,2.3-6c0.9-1.5,2.1-3.4,2.8-4.3
				c-0.5,0.1-3.2,0.5-6.7,1.6c0.6,0.5,1.3,0.9,2.2,1.2c-0.1,0.1-0.2,0.3-0.2,0.4c-0.7,1.2-1.4,3-2.1,5.2c-0.5,1.7-0.1,3.5,1,4.8
				c-1.9,1.8-2,4.8-0.4,6.8c1.5,1.8,4.5,5.3,7.6,8.6c1.1,0.1,2.2,0.1,3.4,0.2c-4.7-4.7-9.8-11-10.1-11.3L97.7,110.2z"/>
			<path class="st1" d="M95.5,93.2c-0.3-0.7-0.5-1.5-0.5-2.4c-2,0.7-4.2,1.6-6.4,2.7c-8.6,4.5-13.7,11.2-14.7,19.5
				c0.8,0.4,1.6,0.8,2.4,1.2C77.2,102.6,86.7,96.2,95.5,93.2z"/>
			<path class="st1" d="M103.4,91.2c0.1,0,0.2,0,0.3,0c0.9,0,1.7,0.4,2.1,1.2c0.5,0.8,0.5,1.9-0.1,2.7c-0.5,0.7-1.8,2.6-2.6,4.1
				c-0.7,1.2-1.4,3.2-1.8,4.5l1.2,0.5c0.8,0.3,1.4,1,1.6,1.9c0.2,0.9-0.1,1.7-0.8,2.3l-2.3,2.1c1.6,1.9,5.7,6.8,9.5,10.5
				c0.5,0.4,0.7,1,0.7,1.7c0.8,0,1.6,0.1,2.5,0.1c0-1.3-0.5-2.6-1.5-3.5c-2.8-2.8-5.8-6.2-7.7-8.5l0.5-0.5c1.3-1.2,1.9-2.9,1.6-4.6
				c-0.2-1.4-1-2.5-2.2-3.3c0.3-0.7,0.6-1.4,0.8-1.9c0.7-1.3,1.9-3,2.4-3.8c0.6-0.8,1-1.9,1-3c0-2.7-2.2-4.9-4.9-5c0,0-0.1,0-0.1,0
				c-0.1,0-0.2,0-0.2,0c-0.2,0-0.4,0-0.6,0.1c-1,0.1-4.1,0.7-8,2c0,0.9,0.2,1.7,0.5,2.4C98.3,92.2,101,91.6,103.4,91.2z M103.7,98.7
				L103.7,98.7L103.7,98.7z"/>
			<path class="st1" d="M97.1,95.3c-0.7-0.6-1.2-1.3-1.6-2.1c-8.7,3-18.3,9.5-19.3,20.9c0.8,0.4,1.6,0.8,2.4,1.3
				C79.1,103.2,89.8,97.7,97.1,95.3z"/>
			<path class="st1" d="M97.1,95.3c3.5-1.1,6.2-1.5,6.7-1.6h0h0c-0.6,0.9-1.9,2.8-2.8,4.3c-1.2,2.2-2.2,5.9-2.3,6l-0.3,1.2l3.4,1.3
				l-4.1,3.7l0.8,1c0.3,0.3,5.3,6.6,10.1,11.3c0.9,0,1.8,0.1,2.8,0.1c0-0.6-0.3-1.2-0.7-1.7c-3.8-3.7-7.9-8.6-9.5-10.5l2.3-2.1
				c0.6-0.6,0.9-1.5,0.8-2.3c-0.2-0.9-0.7-1.6-1.6-1.9l-1.2-0.5c0.4-1.3,1.1-3.3,1.8-4.5c0.8-1.5,2.1-3.4,2.6-4.1
				c0.6-0.8,0.6-1.9,0.1-2.7c-0.5-0.7-1.3-1.2-2.1-1.2c-0.1,0-0.2,0-0.3,0c-2.3,0.3-5.1,1-7.9,1.9C95.8,94,96.4,94.7,97.1,95.3z"/>
			<path class="st4" d="M160.7,115.4c-0.2,0.1-0.4,0.2-0.7,0.3C160.5,115.5,160.7,115.4,160.7,115.4z"/>
			<path class="st4" d="M143.8,121.3c1.2-0.2,2.4-0.6,3.5-0.9c-2.2,0.6-4.6,1.1-7.2,1.5C141.5,121.8,142.7,121.6,143.8,121.3z"/>
			<path class="st4" d="M93.4,120.8c0.7,0.2,1.4,0.4,2.1,0.5c2.9,0.6,6.5,1,9.9,1.3c-0.1-0.1-0.2-0.2-0.3-0.3
				C100.6,122,96.8,121.5,93.4,120.8z"/>
			<path class="st4" d="M105.4,122.6c1.2,0.1,2.3,0.2,3.4,0.2c-0.1-0.1-0.2-0.2-0.3-0.3c-1.2-0.1-2.3-0.1-3.4-0.2
				C105.3,122.4,105.4,122.5,105.4,122.6z"/>
			<g>
				<path class="st4" d="M131.1,91.4c1.7,0.2,5,0.6,6.7,0.6c2.2,0,2.8-0.2,2.7-0.8c-0.1-0.6-0.3-12.5-0.1-16.6
					c0.2-4.1-0.3-16-3.1-22.1c-2.8-6.1-7.1-8.1-16.1-6.5c0,0-5.7-5.7-12,0.3c-6.3,5.9-9.6,10.8-9.5,22.1c0.1,11.3,0.2,21.3,0.2,22.1
					c0,0.8,0.1,1.5,2,1.6c1.6,0.1,5.8,0.2,7.9,0c1.1,1.2,2.1,2.2,2.9,3c1.8,1.8,4.2,4.2,7.4,4.2h0.3c3.1,0,5.6-2.4,7.4-4.2
					C128.6,94.1,129.9,92.8,131.1,91.4z M135.5,62.6c0,0,0.3,4.6,0.3,7.2c0,2.6-0.6,5.5-0.8,7.4c0,0.1,0,0.2,0,0.4
					c-0.1,0.6-0.2,1.1-0.4,1.7c-0.5,2.7-1.1,5.3-2.4,7.4c-1.8,2.8-4.2,5.2-5.9,6.9c-1.5,1.5-3.6,3.6-5.9,3.6h-0.3
					c-2.3,0-4.4-2.1-5.9-3.6c-1.6-1.6-4.1-4.1-5.9-6.9c-1.2-1.8-1.4-4.7-1.7-7.3c-0.1-1.2-0.2-2.3-0.4-3.3c-0.1-1-0.1-1.9-0.2-2.6
					c-0.2-2.7-0.3-9.9-0.4-10.8c0,0,3.6,1.1,10.7-0.1c7.1-1.2,7.4-4.5,7.4-4.5"/>
				<path class="st4" d="M132.5,105.6l5.2-2c-0.4-1.2-1-3-1.7-4.2c-0.4-0.8-1-1.7-1.5-2.5c-0.9,2.7-2.4,6.8-3.9,10.4
					c-2.6,6.2-7.4,15.7-7.4,15.7s1.3,0,3.2-0.1c4.1-3.6,9.5-10,11.5-12.4L132.5,105.6z"/>
				<path class="st4" d="M135.6,93.7c0.6,0.9,1.9,2.8,2.8,4.3c1.2,2.2,2.2,5.9,2.3,6l0.3,1.2l-3.4,1.3l4.1,3.7l-0.8,1
					c-0.3,0.3-5.5,6.8-10.3,11.5c4.2-0.2,9.4-0.6,13.3-1.5c7.9-1.7,16.9-6,16.9-6C160.1,97.4,137.2,93.9,135.6,93.7z"/>
				<path class="st4" d="M104.9,96.9c-0.5,0.8-1.1,1.7-1.5,2.5c-0.7,1.2-1.3,3-1.7,4.2l5.2,2l-5.4,4.9c2,2.5,7.5,8.9,11.5,12.4
					c2,0.1,3.2,0.1,3.2,0.1s-4.8-9.5-7.4-15.7C107.3,103.6,105.8,99.6,104.9,96.9z"/>
				<path class="st4" d="M97.7,110.2l4.1-3.7l-3.4-1.3l0.3-1.2c0-0.2,1.1-3.9,2.3-6c0.9-1.5,2.1-3.4,2.8-4.3
					c-1.6,0.2-24.5,3.7-25.1,21.7c0,0,9,4.3,16.9,6c3.9,0.8,9.1,1.2,13.3,1.5c-4.8-4.7-10-11.2-10.3-11.5L97.7,110.2z"/>
			</g>
			<path class="st4" d="M170.6,114.6"/>
			<path class="st1" d="M93.4,120.8c-7.3-1.9-14.8-5.4-14.8-5.4C83.6,118.1,88.1,119.7,93.4,120.8z"/>
			<path class="st1" d="M7.8,117.9c3.6-8.3,18.3-18,28.6-18.7c0.1,0,0.1,0,0.2,0c1,0,1.8,0.5,2.2,1.4c0.2,0.3,4,8.2,5.9,13.9
				c0.5,1.3,0.9,2.6,1.3,3.7l0.4-0.9l-0.6-1.3c-1-1.8-2.1-5.6,0.8-8.2c0.9-0.8,1.8-1.3,2.5-1.6c-1.4-0.2-3.1-0.4-4.2-0.2
				c-0.2,0.2-0.4,0.4-0.6,0.6c-1.6-3.7-3.1-6.8-3.2-7c-0.8-1.7-2.6-2.8-4.5-2.8c-0.1,0-0.2,0-0.4,0c-11.2,0.8-26.7,11-30.7,20.2
				c-1,2.3-1.4,4.4-1.3,6.4l2.6,0.7C6.5,122.2,6.8,120.1,7.8,117.9z"/>
			<path class="st1" d="M45.8,116l0.6,1.3l-0.4,0.9c-0.4-1.1-0.8-2.4-1.3-3.7c-2-5.7-5.8-13.5-5.9-13.9c-0.4-0.9-1.3-1.4-2.2-1.4
				c-0.1,0-0.1,0-0.2,0c-10.3,0.8-24.9,10.4-28.6,18.7c-1,2.2-1.3,4.3-1,6.1l2.7,0.7c-0.5-1.5-0.5-3.4,0.6-5.8
				c3.2-7.3,16.7-16.5,26.4-17.2c0,0,3.9,8,5.8,13.6c1.3,3.7,1.2,8,1.7,9.7l2.5,2.4l2.5-10.2l-1.2-2.4c0,0-1.9-3.2,0.2-5.1
				c1.5-1.3,2.7-1.5,3.4-1.5c0.1,0,0.1,0,0.1,0c0,0,0.1,0,0.1,0c0.7,0,1.9,0.2,3.4,1.5c2.2,1.9,0.2,5.1,0.2,5.1l-1.2,2.4l2,7.5
				l2.3,2c0.5-1.8,1.4-8.2,2.5-11.4c1.9-5.6,5.8-13.6,5.8-13.6c9.7,0.7,23.3,9.9,26.5,17.2c0.3,0.7,0.5,1.4,0.7,2l0,0.1
				c0,0,1,0.2,1.3,0.3c0.4,0.1,1.3,0.3,1.3,0.3l-0.2-0.7c-0.2-1-0.5-2-0.9-3c-3.6-8.3-18.3-18-28.6-18.7c-0.1,0-0.1,0-0.2,0
				c-1,0-1.8,0.5-2.2,1.4c-0.2,0.3-4,8.2-5.9,13.9c-0.5,1.3-0.9,2.6-1.3,3.7l-0.4-0.9l0.6-1.3c1-1.8,2.1-5.6-0.8-8.2
				c-1.1-1-2.2-1.6-3.2-1.9c-0.8,0.4-1.4,0.7-2,0.7c0,0-1.2-0.3-2.6-0.5c-0.8,0.3-1.6,0.8-2.5,1.6C43.6,110.4,44.7,114.2,45.8,116z"
				/>
			<g>
				<path class="st1" d="M51.1,48.2c2.6,0,5.4,0.2,8.3,0.4c9.6,0.5,11.8,11,11.9,15.3c0.1,3.4-0.2,7.4-0.3,9c0,0,0.1,0,0.1,0
					c1,0,1.9,0.5,2.6,1.3c1.3,1.6,1.6,4.6,0.7,7.9c-0.9,3.6-2.7,6.5-4.6,7.4c-0.4,0.2-0.8,0.3-1.2,0.3c-0.6,1.2-1.9,3.8-3,5.8
					c-2.7,4.7-6.7,11-11,11.2c-1.1,0.1-1.3,0.1-1.3,0.1l-3.3,0c0,0-0.2,0-1.4-0.1c-4.3-0.3-8.3-6.5-11-11.2c-1.1-2-2.4-4.5-3-5.8
					c-0.3,0-0.7-0.1-1.2-0.3c-1.9-0.9-3.7-3.8-4.6-7.4c-0.8-3.3-0.6-6.3,0.7-7.9c0.7-0.8,1.6-1.3,2.6-1.3c0.2,0,0.4,0,0.6,0.1
					c-1.2-2.3-3.1-5.7-2.2-11.6c1-6.9,5.6-7.3,6.6-7.3c0.1,0,0.2,0,0.2,0C40.6,49.2,45.3,48.2,51.1,48.2 M51.1,43.2L51.1,43.2
					c-5.3,0-11.7,0.7-16.4,6.1c-4,0.9-8,4.2-9,11.3c-0.6,4.1-0.1,7.3,0.6,9.8c-0.2,0.2-0.4,0.5-0.6,0.7c-2.3,2.9-2.8,7.3-1.6,12.2
					c1.3,5.1,3.9,9,7.1,10.6c0.7,1.3,1.4,2.8,2.2,4.1c3.7,6.6,8.4,13.4,15,13.7c1.2,0.1,1.4,0.1,1.5,0.1c0.1,0,0.1,0,0.2,0
					c0,0,0,0,0,0l3.3,0c0.1,0,0.2,0,0.2,0c0,0,0.2,0,1.4-0.1c6.7-0.4,11.5-7.5,15-13.7c0.7-1.3,1.5-2.8,2.2-4.1
					c3.2-1.6,5.9-5.6,7.1-10.6c1.2-4.9,0.6-9.3-1.6-12.2c-0.4-0.5-0.9-1-1.4-1.4c0.1-1.8,0.1-3.9,0.1-5.9
					c-0.3-9.3-5.6-19.6-16.7-20.1c-0.7,0-1.3-0.1-2-0.1C55.4,43.3,53.2,43.2,51.1,43.2L51.1,43.2L51.1,43.2z"/>
			</g>
			<g>
				<path class="st4" d="M33.5,89.4c0.4,0.2,0.8,0.3,1.2,0.3c0.6,1.2,1.9,3.8,3,5.8c2.7,4.7,6.7,11,11,11.2c1.1,0.1,1.3,0.1,1.4,0.1
					l3.3,0c0,0,0.2,0,1.3-0.1c4.3-0.3,8.3-6.5,11-11.2c1.1-2,2.4-4.5,3-5.8c0.3,0,0.7-0.1,1.2-0.3c1.9-0.9,3.7-3.8,4.6-7.4
					c0.8-3.3,0.6-6.3-0.7-7.9c-0.7-0.8-1.6-1.3-2.6-1.3c0,0-0.1,0-0.1,0c0.1-1.5,0.4-5.5,0.3-9c-0.1-4.3-2.3-14.8-11.9-15.3
					C49.8,48,42,47,37.4,53.9c0,0-5.7-0.5-6.8,7.3c-0.8,5.9,1,9.3,2.2,11.6c-0.2,0-0.4-0.1-0.6-0.1c-1,0-1.9,0.5-2.6,1.3
					c-1.3,1.6-1.6,4.6-0.7,7.9C29.8,85.6,31.6,88.5,33.5,89.4z M31.4,75.4c0.3-0.4,0.6-0.5,0.9-0.5c1,0,1.1,1,1.2,1.4
					c0,0.6,0.5,1.1,1.1,1.1c0.6,0,1.1-0.5,1.1-1.1c0-0.5-0.1-1.1-0.4-1.7c0.1-0.8,0.1-1.9,0.1-3.2c0-2.5-0.4-3.8,0.9-5.8
					c1.2-2,2.3-5,2.5-7.6c0,0,3.4,2.8,12.4,2.8c9,0,11.3-1.8,12.9-0.1c1.6,1.7,1.6,5.3,3.4,7c1.6,1.5,1.2,4.3,1,6.4
					c-0.4,0.7-0.6,1.5-0.6,2.2c0,0.6,0.5,1.1,1.1,1.1c0,0,0,0,0,0c0.6,0,1.1-0.5,1.1-1.1c0-0.4,0.1-1.4,1.2-1.4c0.2,0,0.5,0,0.9,0.5
					c0.6,0.8,1.1,2.9,0.3,6c-0.8,3.2-2.4,5.5-3.4,6c-0.3,0.1-0.4,0.1-0.4,0.1l-1-0.5l-0.5,1c0,0-1.9,3.8-3.3,6.4
					c-3.7,6.6-6.8,10-9.2,10.1c-1,0.1-1.3,0.1-1.2,0.1l-3.2,0c0,0-0.2,0-1.3-0.1c-2.4-0.1-5.5-3.5-9.2-10.1
					c-1.5-2.6-3.3-6.4-3.3-6.4l-0.5-1l-1,0.5c0,0-0.1,0.1-0.4-0.1c-1-0.5-2.6-2.7-3.4-6C30.3,78.3,30.7,76.2,31.4,75.4z"/>
				<path class="st4" d="M93.3,118.9c-3.2-7.3-16.7-16.5-26.5-17.2c0,0-3.9,8-5.8,13.6c-1.9,5.6-3.2,10-3.2,10l-3.6-8l1.2-2.4
					c0,0,1.9-3.2-0.2-5.1c-1.6-1.4-2.9-1.5-3.5-1.5c-0.6,0-1.9,0.1-3.5,1.5c-2.2,1.9-0.2,5.1-0.2,5.1l1.2,2.4l-3.6,8
					c0,0-1.2-4.4-3.2-10c-1.9-5.6-5.8-13.6-5.8-13.6c-9.7,0.7-23.3,9.9-26.4,17.2c-3.2,7.3,2.5,9.6,5.6,10.4
					c12.6,3.6,29,3.6,35.9,3.6c6.9,0,23.5,0,36.1-3.6C90.8,128.5,96.5,126.2,93.3,118.9z"/>
			</g>
		</g>
	</g>
</g>
</svg>
