<?xml version="1.0" encoding="utf-8"?>
<!-- Generator: Adobe Illustrator 21.0.0, SVG Export Plug-In . SVG Version: 6.00 Build 0)  -->
<svg version="1.1" id="Layer_1" xmlns="http://www.w3.org/2000/svg" xmlns:xlink="http://www.w3.org/1999/xlink" x="0px" y="0px"
	 viewBox="0 0 230 230" style="enable-background:new 0 0 230 230;" xml:space="preserve">
<style type="text/css">
	.st0{fill:#7D8051;}
	.st1{fill:none;}
	.st2{fill:#FFFFFF;}
</style>
<g>
	<path class="st0" d="M79.3,154.7l-0.8,1.7l0.5,1.2c0.5-1.5,1-3.1,1.6-4.9c2.6-7.4,7.6-17.8,7.8-18.2c0.6-1.1,1.7-1.9,3-1.9
		c0.1,0,0.2,0,0.2,0c13.5,1,32.8,13.7,37.5,24.6c0.6,1.4,1,2.7,1.2,3.9l0.2,0.9c0,0,1,0.2,1.6,0.3c0.7,0.1,1.7,0.2,1.7,0.2l-0.2-1.4
		c-0.3-1.7-0.8-3.4-1.6-5.2c-5.1-12-25.4-25.5-40.1-26.6c-0.2,0-0.3,0-0.5,0c-2.5,0-4.8,1.4-5.9,3.7c-0.1,0.3-2.1,4.4-4.2,9.3
		c-0.2-0.3-0.5-0.5-0.8-0.8c-2.2-2-4.5-0.9-6.4,0c1.2,0.4,2.7,1.1,4.2,2.4C82.1,147.3,80.6,152.4,79.3,154.7z"/>
	<path class="st1" d="M143,116.2c2.2,3.4,6.2,6.3,8.2,8.3c1.4,1.4,5,5.1,6.6,5.1l3.5,2.2c1.6,0,6.8-3.1,8.2-4.6
		c2-2,9.7-7.8,11.8-11.2c0,0,3.4-24.7,3.3-26.6l-3.1-6.8c-5.6,0-13.8-5.7-16.3-7.8c-1.8,1.6-23.5,7.8-24.2,7.8
		c0,0.9,0,15.3,0.1,16.5c0.2,1.4-0.8,4.6-0.7,6.1C140.8,108.2,142,114.5,143,116.2z"/>
	<path class="st0" d="M139.5,118.9c0.1,0,0.2,0,0.3,0s0.1,0,0.2,0c3.5,0.1,6.4,3,6.4,6.6c0,1.5-0.5,2.8-1.3,3.9
		c-0.7,1-2.2,3.2-3.2,5c-0.4,0.6-0.7,1.6-1.1,2.5c1.5,1,2.5,2.5,2.8,4.3c0.4,2.2-0.4,4.5-2.1,6.1l-0.7,0.6c2.6,3,6.5,7.5,10.2,11.2
		c1.3,1.3,1.9,2.9,1.9,4.7c2.6,0.1,5.4,0.2,8.3,0.3c2.5,0.1,4.8,0.1,7.1,0.1c-0.1-1.8,0.6-3.7,1.9-5c3.7-3.6,7.6-8.1,10.2-11.2
		l-0.7-0.6c-1.7-1.5-2.5-3.8-2.1-6.1c0.3-1.8,1.4-3.3,2.8-4.3c-0.4-1-0.7-1.9-1.1-2.5c-0.7-1.3-1.9-3.1-3.3-5.1
		c-1.5-2.1-1.6-5-0.2-7.2c1.2-2,3.3-3.1,5.6-3.1c0.3,0,0.6,0,0.9,0.1c1.2,0.2,6.2,1,12.1,3.1c0-0.2,0-0.4,0-0.5
		c-0.1-1.7-0.3-16.1-0.1-21c0.2-5.3-0.2-22.4-4.7-32.1c-4.1-8.8-10.7-13-20.3-13c-1.6,0-3.3,0.1-5.1,0.3c-2.2-1.4-5.5-2.9-9.5-2.9
		c-3.1,0-7.8,0.9-12.5,5.3c-9.6,8.9-14.7,16.9-14.6,33.9c0.1,7.2,0.1,13.9,0.1,19.2c0,5.6,0.1,9.3,0.1,9.8c0,0.2,0,0.3,0,0.5
		c5.1-1.7,9.2-2.4,10.5-2.6C139,118.9,139.3,118.9,139.5,118.9z M141.2,99.2c-0.1-1.2-0.1-15.6-0.1-16.5c0.7,0,22.4-6.2,24.2-7.8
		c2.4,2.1,10.7,7.8,16.3,7.8l3.1,6.8c0.1,1.9-3.3,26.6-3.3,26.6c-2.2,3.4-9.8,9.2-11.8,11.2c-1.4,1.4-6.6,4.6-8.2,4.6l-3.5-2.2
		c-1.6,0-5.2-3.6-6.6-5.1c-2-2-6-4.9-8.2-8.3c-1.1-1.7-2.2-8.1-2.5-10.9C140.4,103.8,141.5,100.6,141.2,99.2z"/>
	<path class="st2" d="M197.2,160.5c7.3-2.1,14.3-5.2,16.7-6.2c0.3-0.1,0.6-0.3,0.9-0.4c-0.6-15.3-13.4-22.6-22.9-25.9
		c-1.2,0.9-2.6,1.3-4,1.5c0,0.1,0.1,0.1,0.1,0.2c0.9,1.6,1.8,3.9,2.7,6.8c0.7,2.3,0.1,4.7-1.4,6.3c2.5,2.4,2.7,6.3,0.5,8.9
		c-2,2.4-6.1,7.2-10.3,11.7c2.7-0.2,5.6-0.5,8.3-0.8C191.2,162,194.3,161.3,197.2,160.5z"/>
	<path class="st2" d="M189.3,142.8c1.5-1.7,2.1-4.1,1.4-6.3c-0.9-2.9-1.8-5.2-2.7-6.8c0-0.1-0.1-0.1-0.1-0.2c1.3-0.2,2.7-0.6,4-1.5
		c-5.2-1.8-9.4-2.4-10.1-2.6c0.8,1.2,2.5,3.7,3.6,5.7c1.6,2.8,2.9,7.7,3,7.9l0.4,1.6l-4.4,1.7l5.4,4.8l-1.1,1.3
		c-0.4,0.4-7.3,8.9-13.6,15.2c1.4-0.1,2.9-0.2,4.4-0.3c4.2-4.4,8.3-9.3,10.3-11.7C191.9,149.1,191.7,145.2,189.3,142.8z"/>
	<path class="st0" d="M194,125.3c11,4.2,22.5,12.5,23.8,26.9c1.2-0.7,3.1-2.2,2.7-4c-1.4-9.1-7.9-17.3-18.9-23
		c-2.4-1.2-4.7-2.2-6.9-3C194.7,123.2,194.5,124.3,194,125.3z"/>
	<path class="st0" d="M181.7,118.9c-2.3,0-4.4,1.2-5.6,3.1c-1.4,2.2-1.3,5.1,0.2,7.2c1.4,2,2.6,3.8,3.3,5.1c0.4,0.6,0.7,1.6,1.1,2.5
		c-1.5,1-2.5,2.5-2.8,4.3c-0.4,2.2,0.4,4.5,2.1,6.1l0.7,0.6c-2.6,3-6.5,7.5-10.2,11.2c-1.4,1.3-2,3.2-1.9,5c1.1,0,2.2,0,3.3-0.1
		c-0.1-1,0.2-1.9,1-2.6c5-4.9,10.3-11.3,12.4-13.8l-3-2.7c-0.8-0.8-1.2-1.9-1-3c0.2-1.1,1-2.1,2-2.5l1.6-0.6
		c-0.6-1.8-1.4-4.3-2.3-5.9c-1-1.9-2.6-4.2-3.5-5.4c-0.7-1.1-0.8-2.5-0.1-3.6c0.6-1,1.7-1.6,2.8-1.6c0.2,0,0.3,0,0.5,0
		c3.5,0.5,7.7,1.5,11.9,3.1c0.5-1,0.7-2.1,0.7-3.2c-6-2.2-10.9-3-12.1-3.1C182.3,118.9,182,118.9,181.7,118.9z"/>
	<path class="st0" d="M213.8,154.3c-2.4,1.1-9.4,4.2-16.7,6.2C203.9,158.7,209.1,156.5,213.8,154.3z"/>
	<path class="st0" d="M179.4,163.4c-0.1,0.1-0.1,0.1-0.2,0.2c3-0.2,5.8-0.6,8.4-1C185,162.9,182.2,163.2,179.4,163.4z"/>
	<path class="st0" d="M191.8,128c9.5,3.3,22.3,10.6,22.9,25.9c1.2-0.5,2.2-1.1,3.2-1.7c-1.3-14.4-12.8-22.7-23.8-26.9
		c-0.3,0.6-0.7,1.2-1.1,1.7C192.5,127.4,192.2,127.7,191.8,128z"/>
	<path class="st0" d="M179.4,163.4c-1.5,0.1-3,0.2-4.4,0.3c6.3-6.2,13.2-14.7,13.6-15.2l1.1-1.3l-5.4-4.8l4.4-1.7l-0.4-1.6
		c-0.1-0.2-1.4-5.1-3-7.9c-1.1-2-2.8-4.5-3.6-5.7c0.7,0.1,4.9,0.7,10.1,2.6c0.4-0.3,0.8-0.6,1.1-1c0.5-0.5,0.8-1.1,1.1-1.7
		c-4.2-1.6-8.4-2.6-11.9-3.1c-0.2,0-0.3,0-0.5,0c-1.1,0-2.2,0.6-2.8,1.6c-0.7,1.1-0.6,2.5,0.1,3.6c0.8,1.2,2.4,3.5,3.5,5.4
		c0.9,1.6,1.8,4.1,2.3,5.9l-1.6,0.6c-1.1,0.4-1.8,1.3-2,2.5c-0.2,1.1,0.2,2.3,1,3l3,2.7c-2.1,2.5-7.5,8.9-12.4,13.8
		c-0.7,0.7-1,1.7-1,2.6c2.7-0.1,5.2-0.2,7.5-0.4C179.3,163.5,179.4,163.4,179.4,163.4z"/>
	<path class="st2" d="M131.8,151.7c-2.2-2.7-2-6.5,0.5-8.9c-1.5-1.7-2.1-4.1-1.4-6.3c0.9-2.9,1.8-5.2,2.7-6.8
		c0.1-0.2,0.2-0.4,0.3-0.5c-1.1-0.4-2-0.9-2.8-1.6c-9.6,3.1-23.7,10.3-24.3,26.3c0,0,9.9,4.7,19.4,7.2c4.5,0.9,9.5,1.5,15.5,2
		C137.6,158.7,133.7,154,131.8,151.7z"/>
	<path class="st2" d="M131.8,147.1l5.4-4.8l-4.4-1.7l0.4-1.6c0.1-0.2,1.4-5.1,3-7.9c1.1-2,2.8-4.5,3.6-5.7c-0.7,0.1-4.2,0.6-8.8,2.1
		c0.8,0.7,1.7,1.2,2.8,1.6c-0.1,0.2-0.2,0.4-0.3,0.5c-0.9,1.6-1.8,3.9-2.7,6.8c-0.7,2.3-0.1,4.7,1.4,6.3c-2.5,2.4-2.7,6.3-0.5,8.9
		c1.9,2.3,5.9,7,10,11.3c1.4,0.1,2.9,0.2,4.4,0.3c-6.2-6.2-12.9-14.4-13.2-14.8L131.8,147.1z"/>
	<path class="st0" d="M129,124.7c-0.4-1-0.6-2-0.7-3.2c-2.6,0.9-5.5,2.1-8.4,3.6c-11.3,5.9-18,14.7-19.3,25.6c1,0.5,2,1,3.1,1.6
		C105,137.2,117.5,128.7,129,124.7z"/>
	<path class="st0" d="M139.4,122.2c0.2,0,0.3,0,0.5,0c1.1,0,2.2,0.6,2.8,1.6c0.7,1.1,0.6,2.5-0.1,3.6c-0.7,1-2.4,3.4-3.5,5.4
		c-0.9,1.6-1.8,4.2-2.3,5.9l1.6,0.6c1.1,0.4,1.8,1.3,2,2.5c0.2,1.1-0.2,2.3-1,3l-3,2.7c2.1,2.5,7.5,8.9,12.4,13.8
		c0.6,0.6,0.9,1.4,1,2.2c1.1,0,2.2,0.1,3.3,0.1c0-1.7-0.7-3.4-1.9-4.7c-3.7-3.6-7.6-8.1-10.2-11.2l0.7-0.6c1.7-1.5,2.5-3.8,2.1-6.1
		c-0.3-1.8-1.4-3.3-2.8-4.3c0.4-1,0.7-1.9,1.1-2.5c1-1.7,2.5-4,3.2-5c0.8-1.1,1.3-2.4,1.3-3.9c0-3.6-2.8-6.5-6.4-6.6
		c-0.1,0-0.1,0-0.2,0c-0.1,0-0.2,0-0.3,0c-0.3,0-0.5,0-0.7,0.1c-1.3,0.2-5.4,0.9-10.5,2.6c0.1,1.2,0.3,2.2,0.7,3.2
		C132.7,123.5,136.3,122.6,139.4,122.2z M139.8,132L139.8,132L139.8,132z"/>
	<path class="st0" d="M131.1,127.5c-0.9-0.8-1.6-1.7-2.1-2.8c-11.5,4-24,12.4-25.3,27.5c1,0.5,2.1,1.1,3.2,1.7
		C107.4,137.9,121.5,130.6,131.1,127.5z"/>
	<path class="st0" d="M131.1,127.5c4.5-1.5,8.1-2,8.8-2.1l0,0l0,0c-0.8,1.2-2.5,3.7-3.6,5.7c-1.6,2.8-2.9,7.7-3,7.9l-0.4,1.6
		l4.4,1.7l-5.4,4.8l1.1,1.3c0.3,0.4,7,8.6,13.2,14.8c1.2,0.1,2.4,0.1,3.6,0.2c0-0.8-0.4-1.6-1-2.2c-4.9-4.9-10.3-11.3-12.4-13.8
		l3-2.7c0.8-0.8,1.2-1.9,1-3c-0.2-1.1-1-2.1-2-2.5l-1.6-0.6c0.5-1.7,1.4-4.3,2.3-5.9c1.1-2,2.8-4.4,3.5-5.4c0.7-1.1,0.8-2.5,0.1-3.6
		c-0.6-1-1.7-1.6-2.8-1.6c-0.2,0-0.3,0-0.5,0c-3.1,0.4-6.7,1.3-10.4,2.5C129.4,125.8,130.2,126.8,131.1,127.5z"/>
	<path class="st2" d="M214.7,153.9c-0.3,0.1-0.6,0.3-0.9,0.4C214.4,154,214.7,153.9,214.7,153.9z"/>
	<path class="st2" d="M192.5,161.7c1.5-0.3,3.1-0.7,4.7-1.2c-2.9,0.8-6,1.4-9.5,2C189.4,162.3,191,162,192.5,161.7z"/>
	<path class="st2" d="M126.2,161c0.9,0.2,1.9,0.5,2.8,0.7c3.8,0.8,8.6,1.3,13.1,1.6c-0.1-0.1-0.2-0.2-0.3-0.4
		C135.7,162.6,130.7,162,126.2,161z"/>
	<path class="st2" d="M142.1,163.4c1.5,0.1,3,0.2,4.4,0.3c-0.1-0.1-0.2-0.2-0.3-0.3c-1.5-0.1-3-0.2-4.4-0.3
		C141.8,163.1,141.9,163.2,142.1,163.4z"/>
	<g>
		<path class="st2" d="M175.8,122.4c2.2,0.3,6.6,0.7,8.7,0.7c2.9,0,3.7-0.2,3.6-1c-0.1-0.8-0.3-16.4-0.1-21.8c0.2-5.4-0.3-21-4.1-29
			c-3.7-8-9.3-10.6-21.2-8.6c0,0-7.4-7.4-15.8,0.3c-8.3,7.8-12.6,14.2-12.5,29c0.1,14.9,0.2,28,0.2,29s0.1,1.9,2.6,2.1
			c2.1,0.2,7.6,0.2,10.4,0c1.4,1.5,2.7,2.9,3.8,4c2.3,2.3,5.6,5.6,9.7,5.6h0.3c4.1,0,7.3-3.2,9.7-5.6
			C172.5,125.9,174.2,124.3,175.8,122.4z M181.5,84.6c0,0,0.3,6.1,0.3,9.5s-0.7,7.2-1.1,9.8c0,0.2,0,0.3-0.1,0.5
			c-0.2,0.7-0.3,1.5-0.5,2.2c-0.7,3.6-1.4,7-3.2,9.7c-2.4,3.7-5.6,6.9-7.7,9c-2,2-4.8,4.8-7.7,4.8h-0.3c-3,0-5.7-2.8-7.8-4.8
			c-2.1-2.1-5.3-5.3-7.7-9c-1.5-2.4-1.9-6.2-2.2-9.6c-0.1-1.6-0.3-3-0.5-4.3c-0.1-1.3-0.2-2.5-0.2-3.4c-0.2-3.6-0.3-13.1-0.6-14.2
			c0,0,4.7,1.5,14.1-0.1c9.3-1.6,9.7-6,9.7-6"/>
		<path class="st2" d="M177.5,141.1l6.8-2.6c-0.5-1.6-1.3-4-2.2-5.6c-0.6-1-1.3-2.2-2-3.3c-1.2,3.6-3.1,8.9-5.2,13.6
			c-3.4,8.1-9.7,20.6-9.7,20.6s1.7,0,4.3-0.1c5.3-4.7,12.5-13.1,15.2-16.3L177.5,141.1z"/>
		<path class="st2" d="M181.7,125.4c0.8,1.2,2.5,3.7,3.6,5.7c1.6,2.8,2.9,7.7,3,7.9l0.4,1.6l-4.4,1.7l5.4,4.8l-1.1,1.3
			c-0.4,0.4-7.3,8.9-13.6,15.2c5.5-0.3,12.3-0.8,17.5-1.9c10.3-2.2,22.2-7.8,22.2-7.8C213.8,130.3,183.7,125.7,181.7,125.4z"/>
		<path class="st2" d="M141.4,129.6c-0.7,1-1.4,2.2-2,3.3c-0.9,1.6-1.7,4-2.2,5.6l6.8,2.6l-7.1,6.4c2.7,3.2,9.8,11.7,15.2,16.3
			c2.6,0.1,4.3,0.1,4.3,0.1s-6.3-12.5-9.7-20.6C144.5,138.5,142.6,133.2,141.4,129.6z"/>
		<path class="st2" d="M131.8,147.1l5.4-4.8l-4.4-1.7l0.4-1.6c0.1-0.2,1.4-5.1,3-7.9c1.1-2,2.8-4.5,3.6-5.7
			c-2.1,0.3-32.1,4.9-33,28.4c0,0,11.9,5.6,22.2,7.8c5.2,1.1,12,1.6,17.5,1.9c-6.3-6.2-13.2-14.7-13.6-15.2L131.8,147.1z"/>
	</g>
	<path class="st0" d="M126.2,161c-9.6-2.5-19.4-7.2-19.4-7.2C113.4,157.4,119.2,159.6,126.2,161z"/>
	<path class="st0" d="M13.8,157.2c4.7-10.9,24-23.6,37.5-24.6c0.1,0,0.2,0,0.2,0c1.3,0,2.4,0.7,3,1.9c0.2,0.4,5.2,10.8,7.8,18.2
		c0.6,1.7,1.2,3.4,1.6,4.9l0.5-1.2l-0.8-1.7c-1.4-2.3-2.8-7.3,1-10.7c1.2-1,2.3-1.7,3.3-2.1c-1.9-0.3-4.1-0.6-5.5-0.3
		c-0.3,0.3-0.5,0.5-0.8,0.8c-2.1-4.9-4.1-9-4.2-9.3c-1.1-2.3-3.4-3.7-5.9-3.7c-0.2,0-0.3,0-0.5,0c-14.6,1-35,14.5-40.2,26.5
		c-1.3,3-1.5,4.8-1.1,6.6c0.7,3,3.1,4.5,3.1,4.5C12.4,164.6,12.6,160.1,13.8,157.2z"/>
	<path class="st0" d="M63.7,154.7l0.8,1.7l-0.5,1.2c-0.5-1.5-1-3.1-1.6-4.9c-2.6-7.4-7.6-17.8-7.8-18.2c-0.6-1.1-1.7-1.9-3-1.9
		c-0.1,0-0.2,0-0.2,0c-13.5,1-32.8,13.7-37.5,24.6c-1.3,2.9-1.4,7.4-1.1,9.8c0,0,4.6,2.9,8.8,4.3c4.2,1.3-6.1-9.5-4.7-12.8
		c4.1-9.6,22-21.7,34.7-22.6c0,0,5.1,10.5,7.6,17.8c1.7,4.8,1.6,10.5,2.3,12.8l3.3,3.2l3.3-13.4l-1.6-3.2c0,0-2.6-4.1,0.3-6.7
		c1.9-1.7,3.5-2,4.4-2c0.1,0,0.1,0,0.2,0s0.1,0,0.2,0c0.9,0,2.5,0.3,4.4,2c2.9,2.5,0.3,6.7,0.3,6.7l-1.6,3.2l2.6,9.8l3,2.6
		c0.7-2.4,1.8-10.8,3.3-14.9c2.6-7.3,7.6-17.8,7.6-17.8c12.7,1,30.6,13.1,34.7,22.6c0.4,0.9,0.7,1.8,0.9,2.6v0.1
		c0,0,1.3,0.3,1.8,0.4s1.8,0.3,1.8,0.3l-0.2-0.9c-0.2-1.3-0.6-2.6-1.2-3.9c-4.7-10.9-24-23.6-37.5-24.6c-0.1,0-0.2,0-0.2,0
		c-1.3,0-2.4,0.7-3,1.9c-0.2,0.4-5.2,10.8-7.8,18.2c-0.6,1.7-1.2,3.4-1.6,4.9l-0.5-1.2l0.8-1.7c1.4-2.3,2.8-7.3-1-10.7
		c-1.5-1.3-2.9-2.1-4.2-2.4c-1,0.5-1.9,1-2.6,1c0,0-1.6-0.4-3.4-0.7c-1,0.4-2.2,1.1-3.3,2.1C60.9,147.3,62.3,152.4,63.7,154.7z"/>
	<g>
		<path class="st0" d="M70.7,65.6c3.4,0,7.1,0.3,11,0.5c12.6,0.6,15.5,14.4,15.7,20.1c0.1,4.4-0.3,9.7-0.5,11.7H97
			c1.3,0,2.5,0.6,3.4,1.7c1.7,2.2,2,6,1,10.4c-1.2,4.8-3.6,8.6-6,9.7c-0.6,0.3-1.1,0.4-1.5,0.4c-0.8,1.6-2.5,5-4,7.6
			c-3.5,6.2-8.8,14.4-14.4,14.7c-1.5,0.1-1.7,0.1-1.7,0.1h-4.3c-0.1,0-0.3,0-1.8-0.1c-5.7-0.3-10.9-8.6-14.4-14.7
			c-1.5-2.6-3.2-5.9-4-7.6c-0.5,0-1-0.1-1.5-0.4c-2.5-1.1-4.9-5-6-9.7c-1.1-4.3-0.7-8.2,1-10.4c0.9-1.1,2.1-1.7,3.4-1.7
			c0.3,0,0.6,0,0.8,0.1c-1.6-3.1-4.1-7.5-2.9-15.2c1.3-9,7.3-9.6,8.6-9.6c0.2,0,0.3,0,0.3,0C56.8,66.9,63.1,65.6,70.7,65.6
			 M70.7,59.1L70.7,59.1c-6.9,0-15.4,1-21.5,8c-5.2,1.2-10.6,5.6-11.9,14.8c-0.8,5.4-0.2,9.6,0.8,12.8c-0.3,0.3-0.6,0.6-0.8,0.9
			c-3,3.8-3.7,9.6-2.1,16c1.7,6.7,5.2,11.9,9.4,14c0.9,1.7,1.9,3.6,2.9,5.3c4.9,8.6,11.1,17.5,19.8,18c1.6,0.1,1.9,0.1,2,0.1
			s0.1,0,0.2,0l0,0h4.3c0.1,0,0.2,0,0.3,0c0,0,0.2,0,1.8-0.1c8.8-0.5,15.2-9.9,19.8-18c1-1.7,2-3.7,2.9-5.3c4.2-2.1,7.7-7.3,9.4-14
			c1.6-6.4,0.8-12.2-2.1-16c-0.5-0.7-1.2-1.3-1.8-1.9c0.1-2.4,0.2-5.2,0.1-7.8c-0.3-12.2-7.4-25.7-21.9-26.4c-0.9,0-1.8-0.1-2.6-0.1
			C76.3,59.2,73.5,59.1,70.7,59.1L70.7,59.1L70.7,59.1z"/>
	</g>
	<g>
		<path class="st2" d="M47.6,119.7c0.6,0.3,1.1,0.4,1.5,0.4c0.8,1.6,2.5,5,4,7.6c3.5,6.2,8.8,14.4,14.4,14.7
			c1.5,0.1,1.7,0.1,1.8,0.1h4.3c0,0,0.2,0,1.7-0.1c5.7-0.3,10.9-8.6,14.4-14.7c1.5-2.6,3.2-5.9,4-7.6c0.5,0,1-0.1,1.5-0.4
			c2.5-1.1,4.9-5,6-9.7c1.1-4.3,0.7-8.2-1-10.4c-0.9-1.1-2.1-1.7-3.4-1.7h-0.1c0.2-2,0.5-7.3,0.4-11.8C96.9,80.4,94,66.7,81.4,66
			c-12.6-0.6-23-1.9-29,7.1c0,0-7.4-0.6-8.9,9.5c-1.1,7.8,1.3,12.2,2.9,15.2c0.1,0.1-0.2,0.1-0.5,0.1c-1.3,0-2.5,0.6-3.4,1.7
			c-1.7,2.2-2,6-1,10.4C42.8,114.8,45.1,118.6,47.6,119.7z M44.8,101.4c0.4-0.5,0.8-0.6,1.1-0.6c1.3,0,1.5,1.3,1.5,1.9
			c0,0.8,0.6,1.4,1.4,1.4c0.8,0,1.4-0.6,1.4-1.4c0-0.7-0.2-1.5-0.5-2.3c0.1-1.1,0.2-2.5,0.2-4.2c0-3.2-0.5-5,1.1-7.6s3.1-6.6,3.2-10
			c0,0,4.5,3.7,16.3,3.7s14.9-2.4,17-0.2c2.1,2.3,2.1,7,4.5,9.2c2.1,1.9,1.5,5.7,1.3,8.4c-0.6,0.9-0.8,2-0.8,2.9
			c0,0.8,0.6,1.4,1.4,1.4l0,0c0.8,0,1.4-0.6,1.4-1.4c0-0.6,0.2-1.9,1.5-1.9c0.3,0,0.7,0.1,1.1,0.6c0.8,1.1,1.5,3.8,0.4,7.9
			c-1.1,4.2-3.1,7.2-4.5,7.8c-0.3,0.2-0.5,0.1-0.5,0.1l-1.3-0.6l-0.3,1.4c0,0-2.5,5-4.4,8.4c-4.9,8.6-8.9,13.1-12.1,13.3
			c-1.3,0.1-1.6,0.1-1.6,0.1h-4.2c0,0-0.3,0-1.7-0.1c-3.2-0.2-7.2-4.6-12.1-13.3c-1.9-3.4-4.4-8.3-4.4-8.4l-0.6-1.3l-1.3,0.6
			c0,0-0.2,0.1-0.5-0.1c-1.4-0.6-3.4-3.6-4.5-7.8C43.3,105.2,43.9,102.5,44.8,101.4z"/>
		<path class="st2" d="M126.1,158.5c-4.1-9.6-22-21.7-34.7-22.6c0,0-5.1,10.5-7.6,17.8c-2.6,7.3-4.1,13.1-4.1,13.1l-4.8-10.5
			l1.6-3.2c0,0,2.5-4.1-0.3-6.7c-2.1-1.8-3.8-2-4.6-2c-0.8,0-2.5,0.1-4.6,2c-2.9,2.5-0.3,6.7-0.3,6.7l1.6,3.2l-4.8,10.5
			c0,0-1.6-5.7-4.1-13.1c-2.7-7.3-7.8-17.8-7.8-17.8c-12.7,1-30.6,13.1-34.7,22.6c-4.1,9.6,3.3,12.6,7.3,13.7
			c16.5,4.7,38.1,4.7,47.2,4.7s30.9,0.1,47.4-4.7C122.8,171.1,130.3,168.1,126.1,158.5z"/>
	</g>
</g>
</svg>
