<?xml version="1.0" encoding="utf-8"?>
<!-- Generator: Adobe Illustrator 21.0.0, SVG Export Plug-In . SVG Version: 6.00 Build 0)  -->
<svg version="1.1" id="Layer_1" xmlns="http://www.w3.org/2000/svg" xmlns:xlink="http://www.w3.org/1999/xlink" x="0px" y="0px"
	 viewBox="0 0 230 230" style="enable-background:new 0 0 230 230;" xml:space="preserve">
<style type="text/css">
	.st0{fill:#FFFFFF;stroke:#7D8051;stroke-width:5;stroke-linecap:round;stroke-linejoin:round;stroke-miterlimit:10;}
	.st1{fill:#7D8051;}
	.st2{fill:none;stroke:#7D8051;stroke-width:4;stroke-linecap:round;stroke-linejoin:round;stroke-miterlimit:10;}
</style>
<g>
	<polygon class="st0" points="171.8,177.1 78.7,177.1 78.7,63.1 78.7,52.8 171.8,52.8 	"/>
	<polygon class="st0" points="61.6,63.1 78.7,63.1 78.7,177.1 	"/>
	<polygon class="st0" points="62.8,71.2 46.4,71.2 78.7,177.1 	"/>
	<path class="st1" d="M161,117.2h-27.5c-1.7,0-3-1.3-3-3V86.7c0-1.7,1.3-3,3-3H161c1.7,0,3,1.3,3,3v27.5
		C164,115.8,162.7,117.2,161,117.2z"/>
	<g>
		<g>
			<path class="st1" d="M115.5,69.6H87.8c-0.7,0-1.3-0.6-1.3-1.3v-4.8c0-0.7,0.6-1.3,1.3-1.3h27.7c0.7,0,1.3,0.6,1.3,1.3v4.8
				C116.8,69.1,116.2,69.6,115.5,69.6z"/>
			<path class="st1" d="M162.7,69.6H135c-0.7,0-1.3-0.6-1.3-1.3v-4.8c0-0.7,0.6-1.3,1.3-1.3h27.7c0.7,0,1.3,0.6,1.3,1.3v4.8
				C164,69.1,163.4,69.6,162.7,69.6z"/>
		</g>
		<circle class="st1" cx="125.3" cy="65.9" r="5.2"/>
	</g>
	<line class="st2" x1="89.1" y1="86.2" x2="121.4" y2="86.2"/>
	<line class="st2" x1="89.1" y1="100.5" x2="121.4" y2="100.5"/>
	<line class="st2" x1="89.1" y1="114.7" x2="121.4" y2="114.7"/>
	<line class="st2" x1="89.1" y1="128.8" x2="162.1" y2="128.8"/>
	<line class="st2" x1="89.1" y1="143.1" x2="162.1" y2="143.1"/>
	<line class="st2" x1="89.1" y1="157.2" x2="162.1" y2="157.2"/>
</g>
</svg>
