<?xml version="1.0" encoding="utf-8"?>
<!-- Generator: Adobe Illustrator 21.0.0, SVG Export Plug-In . SVG Version: 6.00 Build 0)  -->
<svg version="1.1" id="Layer_1" xmlns="http://www.w3.org/2000/svg" xmlns:xlink="http://www.w3.org/1999/xlink" x="0px" y="0px"
	 viewBox="0 0 230 230" style="enable-background:new 0 0 230 230;" xml:space="preserve">
<style type="text/css">
	.st0{fill:#FFFFFF;}
	.st1{fill:#7D8051;}
	.st2{fill:#B6B98E;}
</style>
<path class="st0" d="M177.1,155.2c0-0.5,0.4-1,1-1l0,0c0.5,0,1,0.4,1,0.9l0,0l0.1,11.1h9.6l-0.1-11.1c0-6.2-5.1-11.3-18-11.3h-25
	c7.7,2.1,3,4.4,3,6.9c0,2.7-6.2,8.1-7.7,10.6c5.6,0.2,14.7,0.5,17.5,4.9h18.6L177.1,155.2L177.1,155.2z"/>
<path class="st1" d="M141.1,163.3h-0.2c-0.7,0-1.3-0.4-1.7-1.1c-0.3-0.6-0.3-1.4,0.1-2c0.6-1,1.8-2.3,3.1-3.8
	c1.4-1.5,4.2-4.7,4.3-5.7c0-1.2,0.5-2.2,1-3c0.1-0.3,0.3-0.6,0.4-0.8c-0.2-0.2-1-0.6-2.9-1.2c-1-0.3-1.6-1.2-1.5-2.2s1-1.7,2-1.7h25
	c18,0,20,9.3,20,13.3l0.1,11.1l0,0h2l0,0l-0.1-11.1c0-3.6-1.7-15.3-22-15.3h-25c-2,0-3.7,1.5-4,3.5s1,3.9,2.9,4.4
	c0.3,0.1,0.5,0.1,0.7,0.2c-0.3,0.7-0.6,1.5-0.6,2.5c-0.5,1-2.6,3.4-3.8,4.7c-1.4,1.6-2.6,2.9-3.4,4.1c-0.7,1.2-0.8,2.7-0.1,4
	c0.7,1.2,1.9,2.1,3.4,2.1h0.2c2.2,0.1,6.3,0.3,9.5,0.9h5.2C152.6,163.7,145.3,163.4,141.1,163.3z"/>
<path class="st1" d="M179.1,155.1c0-0.5-0.5-0.9-1-0.9l0,0c-0.5,0-1,0.5-1,1v11h2.1L179.1,155.1L179.1,155.1z"/>
<path class="st1" d="M190.7,155.1c0-4-2-13.3-20-13.3h-25c-1,0-1.9,0.7-2,1.7s0.5,1.9,1.5,2.2c1.9,0.5,2.7,1,2.9,1.2
	c-0.1,0.2-0.3,0.6-0.4,0.8c-0.4,0.8-1,1.8-1,3c-0.1,1.1-3,4.2-4.3,5.7s-2.5,2.8-3.1,3.8c-0.4,0.6-0.4,1.4-0.1,2s1,1,1.7,1.1h0.2
	c4.2,0.2,11.5,0.5,14.7,2.9h2.7c-2.8-4.4-11.9-4.7-17.5-4.9c1.5-2.5,7.7-7.9,7.7-10.6c0-2.5,4.7-4.9-3-6.9h25
	c12.8,0,17.9,5.1,18,11.3l0.1,11.1h2l0,0L190.7,155.1z"/>
<path class="st0" d="M47.9,155c0-0.6,0.5-1,1-1l0,0c0.6,0,1,0.5,1,1v11.2h26.8c2.9-4.6,7.9-7.6,13.3-7.8c-1.5-2.4-2.3-5.1-2.3-8
	c0-2.4,0.6-4.7,1.6-6.8c-0.3,0-4.6,0-14,0c-6.2,0-14.7,0-25.7,0c-6.2,0-11.3,5-11.4,11.3l-0.1,11.2h9.6L47.9,155z"/>
<path class="st1" d="M36.2,166.2l0.1-11.2c0-7.3,6-13.3,13.4-13.3H75c12.1,0,14.2,0,14.5,0c0.7,0,1.3,0.4,1.6,1
	c0.3,0.6,0.4,1.3,0.1,1.9c-0.9,1.8-1.4,3.8-1.4,5.9c0,2.5,0.7,4.9,2,6.9c0.4,0.6,0.4,1.4,0.1,2s-1,1-1.7,1.1
	c-4.3,0.2-8.3,2.3-11,5.8h2.6c2.2-2.3,5.2-3.6,8.4-3.8c1.4-0.1,2.7-0.9,3.4-2.1c0.7-1.3,0.6-2.8-0.1-4c-1.1-1.8-1.7-3.8-1.7-5.9
	c0-1.7,0.4-3.4,1.2-5c0.6-1.2,0.6-2.6-0.1-3.8c-0.7-1.2-1.9-1.9-3.3-2c-0.3,0-1.5,0-14.2,0h-9.3H49.7c-8.4,0-15.3,6.9-15.4,15.3
	l-0.1,11.2l0,0L36.2,166.2L36.2,166.2z"/>
<path class="st1" d="M90.1,160.4c0.7,0,1.4-0.4,1.7-1.1c0.3-0.6,0.3-1.4-0.1-2c-1.3-2.1-2-4.5-2-6.9c0-2.1,0.5-4,1.4-5.9
	c0.3-0.6,0.3-1.3-0.1-1.9c-0.3-0.6-1-1-1.6-1c-0.3,0-2.4,0-14.5,0H49.6c-7.3,0-13.3,6-13.4,13.3l-0.1,11.2l0,0h2l0.1-11.2
	c0-6.3,5.2-11.3,11.4-11.3c11,0,19.4,0,25.7,0c9.5,0,13.8,0,14,0c-1,2-1.6,4.3-1.6,6.8c0,2.9,0.8,5.6,2.3,8
	c-5.4,0.2-10.4,3.1-13.3,7.8h2.5C81.7,162.7,85.7,160.6,90.1,160.4z"/>
<path class="st1" d="M48.9,154L48.9,154c-0.6,0-1,0.4-1,1l-0.1,11.2h2.1V155C49.9,154.5,49.4,154,48.9,154z"/>
<polygon class="st0" points="106.6,65.8 106.6,94.2 172.4,94.2 172.4,47.1 106.6,47.1 "/>
<path class="st1" d="M175.7,40.5h-72.4c-1.8,0-3.3,1.5-3.3,3.3v25.5l3.6-2.2c0.9-0.6,1.9-1,2.9-1.2V47.1h65.9v47.1h-65.8v-7.6
	l-6.6,4v6.8c0,1.8,1.5,3.3,3.3,3.3h72.4c1.8,0,3.3-1.5,3.3-3.3V43.8C178.9,42,177.5,40.5,175.7,40.5L175.7,40.5z"/>
<g>
	<path class="st0" d="M79.6,140.9c-0.2,0-0.3,0-0.5-0.1c-1.2-0.3-2.4-0.5-3.6-0.5c-0.7,0-1.4-0.4-1.7-1c-0.4-0.6-0.3-1.4,0-2
		c1.2-2.1,1.9-4.4,1.9-6.8c0-2.7-0.8-5.2-2.3-7.4c-0.2-0.3-0.3-0.7-0.3-1.1v-0.7c-0.1,0-0.2,0-0.4,0c-0.5,0-1-0.2-1.3-0.5
		c-2.4-2.2-5.6-3.4-8.9-3.4c-0.2,0-0.4,0-0.6,0h-0.1c-0.5,0-1-0.2-1.4-0.6s-0.6-0.9-0.6-1.4v-9.2c-1.2,1.1-2.8,1.8-4.5,1.8
		c-3.6,0-6.6-3-6.5-6.6L49,68.1c0-7,5.7-12.7,12.7-12.7h4.6c0.8,0,1.6,0.5,1.9,1.3l2,5.3l0.3-0.6l-1.1-2c-0.5-0.8-0.4-1.8,0-2.6
		s1.4-1.3,2.3-1.3h4.5c0.9,0,1.8,0.5,2.3,1.3s0.5,1.8,0,2.6l-1.1,2l0.3,0.5c0.5-1.2,1.1-2.8,2.1-5.3c0.3-0.8,1-1.3,1.9-1.3h4.5
		c7,0,12.7,5.7,12.7,12.7v4.9l6.2-3.8c1-0.6,2.2-1,3.4-1c2.3,0,4.4,1.2,5.6,3.1c0.9,1.5,1.2,3.2,0.8,4.9c-0.4,1.7-1.4,3.1-2.9,4.1
		l-16.1,10c-1,0.6-2.2,1-3.4,1c-1.1,0-2.2-0.3-3.2-0.8c-0.5-0.3-0.9-0.6-1.3-0.9c0,5.9,0,18.6,0,46.2c0,0.9-0.6,1.7-1.5,1.9
		c-2,0.5-3.9,1.5-5.5,2.8C80.6,140.8,80.1,140.9,79.6,140.9z"/>
	<path class="st1" d="M86.1,57.4c5.9,0,10.7,4.8,10.7,10.7c0,4.9,0,0.9,0,8.5l9.2-5.7c0.7-0.5,1.6-0.7,2.4-0.7c1.5,0,3,0.8,3.9,2.1
		c1.3,2.1,0.7,4.9-1.5,6.2l-16.1,10c-0.7,0.5-1.6,0.7-2.4,0.7s-1.5-0.2-2.2-0.6c-1.4-0.8-2.3-2.3-2.3-3.9c0-3.5-0.1-13.4-0.1-16.6
		c0-0.5-0.4-0.9-0.9-0.9l0,0c-0.5,0-0.9,0.4-0.9,0.9c0,36.2,0.1-14.7,0.1,67.5c-2.4,0.6-4.5,1.7-6.3,3.3c-1.3-0.4-2.7-0.5-4.2-0.5
		c1.4-2.3,2.2-5,2.2-7.9c0-3.2-1-6.1-2.6-8.5v-21.1h-2.4v18.4c-2.7-2.5-6.3-4-10.2-4c-0.2,0-0.4,0-0.7,0V68.1c0-0.5-0.4-0.9-0.9-0.9
		l0,0c-0.5,0-0.9,0.4-0.9,0.9l0,0l-0.2,33.3c0,2.5-2,4.5-4.5,4.5l0,0c-2.5,0-4.5-2.1-4.5-4.6L51,68c0-5.9,4.8-10.7,10.7-10.7h4.6
		c0.6,1.6,5,13,5.6,14.6L70.7,66c-0.1-0.4,0-0.9,0.2-1.3l1.8-3.4l-1.6-3c-0.2-0.4,0.1-1,0.6-1h4.5c0.5,0,0.8,0.5,0.6,1l-1.6,3
		l1.8,3.4c0.2,0.4,0.3,0.9,0.2,1.3l-1.4,6c3.2-8.4,2-4.7,5.8-14.6H86.1 M86.1,53.4h-4.5c-1,0-1.9,0.4-2.6,1
		c-0.8-0.6-1.8-0.9-2.8-0.9h-4.5c-1,0-2,0.3-2.8,0.9c-0.7-0.6-1.6-1-2.6-1h-4.6C53.6,53.4,47,60,46.9,68l-0.2,33.3
		c0,4.7,3.8,8.6,8.5,8.6c0.9,0,1.7-0.1,2.5-0.4v5.8c0,1.1,0.4,2.1,1.2,2.9c0.7,0.7,1.7,1.1,2.8,1.1c0.1,0,0.1,0,0.2,0
		c0.2,0,0.3,0,0.5,0c2.8,0,5.5,1,7.5,2.9c0.3,0.3,0.7,0.6,1.2,0.7c0.1,0.4,0.3,0.9,0.6,1.3c1.3,1.9,1.9,4,1.9,6.3c0,2-0.6,4-1.6,5.8
		c-0.7,1.2-0.8,2.8-0.1,4c0.7,1.3,2,2,3.5,2c1.1,0,2.1,0.1,3.1,0.4c0.3,0.1,0.7,0.1,1,0.1c1,0,1.9-0.3,2.6-1c1.3-1.2,2.9-2,4.6-2.4
		c1.8-0.4,3-2,3-3.9c0-23.2,0-35.8,0-42.8c0.8,0.2,1.6,0.4,2.4,0.4c1.6,0,3.2-0.4,4.5-1.3l16.1-10c1.9-1.2,3.3-3.1,3.8-5.3
		c0.5-2.2,0.1-4.5-1.1-6.4c-1.6-2.5-4.3-4-7.3-4c-1.6,0-3.1,0.4-4.5,1.3l-3.1,1.9V68C100.8,60,94.2,53.4,86.1,53.4L86.1,53.4z"/>
</g>
<g>
	<path class="st0" d="M114.4,170.4c-0.5,0-1-0.2-1.4-0.6c-2.7-2.8-11.5-6.5-15.4-6.5c-0.7,0-1.4-0.4-1.7-1c-0.4-0.6-0.3-1.4,0-2
		c1.2-2,2.9-7.3,2.9-9.8c0-1.4-0.9-3-1.7-4.6c-0.2-0.5-0.5-0.9-0.7-1.3c-0.3-0.6-0.3-1.4,0.1-1.9c0.4-0.6,1-0.9,1.7-0.9h32.4
		c0.7,0,1.3,0.4,1.7,1c0.4,0.6,0.4,1.3,0.1,2l-0.3,0.6c-1,1.8-2,3.7-2,5.6c0,0.7,2,2.5,3.1,3.4c1.4,1.2,2.7,2.3,3.4,3.5
		c0.4,0.6,0.4,1.4,0,2c-0.3,0.6-1,1-1.7,1c-3.8,0-16.4,6.6-19.1,9.2C115.5,170.2,115,170.4,114.4,170.4L114.4,170.4z"/>
	<path class="st1" d="M130.6,143.6L130.6,143.6 M130.6,143.6c-1.1,2.1-2.5,4.5-2.5,7c0,2.7,5.3,5.5,6.8,8c-4.4,0-17.5,6.9-20.5,9.7
		c-3.1-3.2-12.3-7.1-16.9-7.1c1.4-2.3,3.2-8,3.2-10.9c0-2.4-1.6-4.7-2.6-6.8h32.5 M130.6,139.6L130.6,139.6H98.2
		c-1.4,0-2.7,0.7-3.4,1.9c-0.7,1.2-0.8,2.7-0.2,3.9c0.2,0.4,0.5,0.9,0.7,1.4c0.7,1.3,1.5,2.7,1.5,3.6c0,2.1-1.6,7.1-2.6,8.8
		c-0.7,1.2-0.8,2.8-0.1,4c0.7,1.3,2,2,3.5,2c3.4,0,11.7,3.5,14,5.9c0.7,0.8,1.8,1.2,2.8,1.2c0,0,0,0,0.1,0c1,0,2-0.4,2.8-1.1
		c2.5-2.5,14.6-8.6,17.7-8.6c1.4,0,2.8-0.8,3.5-2.1s0.7-2.8-0.1-4c-0.9-1.5-2.4-2.8-3.8-4c-0.7-0.6-1.9-1.7-2.4-2.3
		c0.1-1.3,0.9-2.8,1.7-4.2l0.2-0.4c0.3-0.6,0.5-1.3,0.5-2C134.6,141.4,132.8,139.6,130.6,139.6L130.6,139.6z M130.6,147.6
		L130.6,147.6L130.6,147.6L130.6,147.6z"/>
</g>
<g>
	<path class="st0" d="M73.9,55.1c-6.3,0-11.4-5.1-11.4-11.4s5.1-11.4,11.4-11.4s11.4,5.1,11.4,11.4C85.3,50,80.2,55.1,73.9,55.1z"/>
	<path class="st1" d="M73.9,34.3c5.2,0,9.4,4.2,9.4,9.4s-4.2,9.4-9.4,9.4s-9.4-4.2-9.4-9.4S68.7,34.3,73.9,34.3 M73.9,30.3
		c-7.4,0-13.4,6-13.4,13.4s6,13.4,13.4,13.4s13.4-6,13.4-13.4S81.3,30.3,73.9,30.3L73.9,30.3z"/>
</g>
<g>
	<path class="st0" d="M164.5,141.3c-6.6,0-12-5.4-12-12c0-6.6,5.4-12,12-12s12,5.4,12,12C176.5,135.9,171.1,141.3,164.5,141.3z"/>
	<path class="st1" d="M164.5,119.4c5.5,0,10,4.5,10,10c0,5.5-4.5,10-10,10s-10-4.5-10-10C154.5,123.8,159,119.4,164.5,119.4
		 M164.5,115.4c-7.7,0-14,6.3-14,14c0,7.7,6.3,14,14,14s14-6.3,14-14C178.4,121.6,172.2,115.4,164.5,115.4L164.5,115.4z"/>
</g>
<g>
	<path class="st0" d="M116.1,141.2c-6.6,0-12-5.4-12-12c0-6.6,5.4-12,12-12s12,5.4,12,12C128,135.8,122.6,141.2,116.1,141.2z"/>
	<path class="st1" d="M116.1,119.3c5.5,0,10,4.5,10,10s-4.5,10-10,10s-10-4.5-10-10C106.1,123.7,110.6,119.3,116.1,119.3
		 M116.1,115.3c-7.7,0-14,6.3-14,14s6.3,14,14,14s14-6.3,14-14C130,121.5,123.8,115.3,116.1,115.3L116.1,115.3z"/>
</g>
<g>
	<path class="st0" d="M62.5,141.2c-6.6,0-12-5.4-12-12c0-6.6,5.4-12,12-12s12,5.4,12,12C74.4,135.8,69.1,141.2,62.5,141.2z"/>
	<path class="st1" d="M62.5,119.3c5.5,0,10,4.5,10,10s-4.5,10-10,10s-10-4.5-10-10C52.5,123.7,57,119.3,62.5,119.3 M62.5,115.3
		c-7.7,0-14,6.3-14,14s6.3,14,14,14s14-6.3,14-14C76.4,121.5,70.2,115.3,62.5,115.3L62.5,115.3z"/>
</g>
<g>
	<path class="st0" d="M118,72.9c-0.2,0-0.3,0-0.5-0.1c-0.6-0.1-1.1-0.6-1.3-1.1c-0.1-0.3-0.3-0.5-0.4-0.8c-0.5-0.9-1.3-1.6-2.1-2.2
		c-0.5-0.4-0.9-0.9-0.9-1.6c0-0.6,0.3-1.3,0.8-1.7l11.3-8.9c0.8-0.6,1.8-1,2.8-1c1.4,0,2.7,0.6,3.5,1.7c1.5,2,1.2,4.8-0.7,6.3
		l-11.1,8.7C118.9,72.8,118.4,72.9,118,72.9z"/>
	<path class="st1" d="M127.5,57.7c0.7,0,1.5,0.3,2,1c0.9,1.1,0.7,2.7-0.4,3.5L118,70.9c-0.2-0.3-0.3-0.7-0.5-1
		c-0.7-1.2-1.7-2.1-2.7-2.8l11.3-8.9C126.4,57.9,127,57.7,127.5,57.7 M127.5,53.7c-1.5,0-2.9,0.5-4,1.4L112.2,64
		c-1,0.8-1.6,2-1.5,3.3c0.1,1.3,0.7,2.5,1.8,3.2c0.6,0.4,1.1,0.9,1.5,1.6c0.1,0.2,0.2,0.4,0.3,0.6c0.5,1.1,1.5,1.9,2.7,2.2
		c0.3,0.1,0.6,0.1,0.9,0.1c0.9,0,1.8-0.3,2.5-0.9l11.1-8.7c2.8-2.2,3.3-6.3,1.1-9.1C131.4,54.6,129.5,53.7,127.5,53.7L127.5,53.7z"
		/>
</g>
<g>
	<path class="st0" d="M89.9,161.2c-6.7,0-12.1-5.4-12.1-12.1S83.2,137,89.9,137c6.7,0,12.1,5.4,12.1,12.1S96.5,161.2,89.9,161.2z"/>
	<path class="st1" d="M89.9,139c5.6,0,10.1,4.5,10.1,10.1s-4.5,10.1-10.1,10.1s-10.1-4.5-10.1-10.1S84.3,139,89.9,139 M89.9,135
		c-7.8,0-14.1,6.3-14.1,14.1s6.3,14.1,14.1,14.1s14.1-6.3,14.1-14.1S97.6,135,89.9,135L89.9,135z"/>
</g>
<g>
	<path class="st0" d="M138.8,161.4c-6.7,0-12.1-5.4-12.1-12.1c0-6.7,5.4-12.1,12.1-12.1s12.1,5.4,12.1,12.1
		C150.9,156,145.5,161.4,138.8,161.4z"/>
	<path class="st1" d="M138.8,139.3c5.6,0,10.1,4.5,10.1,10.1s-4.5,10.1-10.1,10.1c-5.6,0-10.1-4.5-10.1-10.1
		C128.7,143.8,133.2,139.3,138.8,139.3 M138.8,135.3c-7.8,0-14.1,6.3-14.1,14.1s6.3,14.1,14.1,14.1s14.1-6.3,14.1-14.1
		C152.9,141.6,146.6,135.3,138.8,135.3L138.8,135.3z"/>
</g>
<path class="st0" d="M75.6,174.9c0-0.5,0.4-0.9,0.9-0.9l0,0c0.5,0,0.9,0.4,0.9,0.9v11.5h25.4v-11.5c0-0.5,0.4-0.9,0.9-0.9l0,0
	c0.5,0,0.9,0.4,0.9,0.9l0.1,11.5h19.2l0.1-11.2l0,0c0-0.5,0.4-0.9,0.9-0.9l0,0c0.5,0,0.9,0.4,0.9,0.9v11.2H151v-11.2
	c0-0.5,0.4-0.9,0.9-0.9l0,0c0.5,0,0.9,0.4,0.9,0.9l0.1,11.2h9.6l-0.1-11.2c0-6.2-5.1-11.3-11.4-11.3h-25c-6.2,0-11.7,5.1-11.7,11.3
	l-0.1-0.3c0-6.2-5.1-11.3-11.4-11.3H77.6c-6.2,0-11.7,5.1-11.7,11.3l-0.1,11.5h9.6L75.6,174.9z"/>
<path class="st1" d="M63.9,186.3l0.1-11.5c0-7.2,6.3-13.3,13.7-13.3h25.2c4.9,0,9.2,2.7,11.5,6.6c2.4-3.8,6.8-6.4,11.6-6.4h25.2
	c7.3,0,13.3,6,13.4,13.3l0.1,11.2l0,0h2l0,0l-0.1-11.2c0-8.4-6.9-15.3-15.4-15.3H126c-4.5,0-8.6,2-11.5,5.1c-2.8-3.3-7-5.3-11.6-5.3
	H77.6c-8.5,0-15.6,7-15.7,15.3l-0.1,11.5l0,0L63.9,186.3L63.9,186.3z"/>
<path class="st1" d="M124.7,174.3L124.7,174.3c-0.5,0-0.9,0.4-0.9,0.9l0,0l-0.1,11.2h1.8v-11.2C125.6,174.7,125.2,174.3,124.7,174.3
	z"/>
<path class="st1" d="M76.4,174L76.4,174c-0.5,0-0.9,0.4-0.9,0.9l-0.1,11.5h1.8v-11.5C77.3,174.4,76.9,174,76.4,174z"/>
<path class="st1" d="M103.6,173.9L103.6,173.9c-0.5,0-0.9,0.4-0.9,0.9v11.5h1.9l-0.1-11.5C104.6,174.4,104.2,173.9,103.6,173.9z"/>
<path class="st1" d="M164.5,175.1c0-7.3-6-13.3-13.4-13.3H126c-4.8,0-9.1,2.6-11.6,6.4c-2.3-4-6.6-6.6-11.5-6.6H77.6
	c-7.4,0-13.7,6.1-13.7,13.3l-0.1,11.5l0,0h2l0.1-11.5c0-6.2,5.5-11.3,11.7-11.3h25.2c6.3,0,11.3,5.1,11.4,11.3l0.1,0.3
	c0-6.2,5.5-11.3,11.7-11.3h25.2c6.2,0,11.3,5.1,11.4,11.3l0.1,11.2h-9.6l-0.1-11.2c0-0.5-0.4-0.9-0.9-0.9l0,0
	c-0.5,0-0.9,0.4-0.9,0.9v11.2h13.5l0,0L164.5,175.1z"/>
<polygon class="st2" points="77.3,186.3 102.7,186.3 102.7,186.3 "/>
<polygon class="st2" points="65.9,186.3 75.5,186.3 75.5,186.3 "/>
<polygon class="st2" points="104.6,186.3 123.8,186.3 123.8,186.3 "/>
</svg>
