<?xml version="1.0" encoding="utf-8"?>
<!-- Generator: Adobe Illustrator 21.0.0, SVG Export Plug-In . SVG Version: 6.00 Build 0)  -->
<svg version="1.1" id="Layer_1" xmlns="http://www.w3.org/2000/svg" xmlns:xlink="http://www.w3.org/1999/xlink" x="0px" y="0px"
	 viewBox="0 0 165 165" style="enable-background:new 0 0 165 165;" xml:space="preserve">
<style type="text/css">
	.st0{fill:#B6B98E;}
	.st1{fill:#7D8051;}
	.st2{fill:#FFFFFF;}
</style>
<g>
	<g>
		<path class="st0" d="M82.5,163.6c-1.5,0-3,0-4.7-0.1c-0.1,0-0.8-0.1-0.8-0.1c-0.1,0-0.3,0-0.4,0l-0.3,0c-1.1-0.1-2.2-0.2-3.2-0.3
			l-1.3-0.2c-0.2,0-0.3,0-0.4,0l-0.1,0c-0.1,0-0.1,0-0.2,0l-0.4-0.1c-0.3,0-0.5-0.1-0.8-0.1l-1.8-0.3v-0.1l-0.8-0.2
			c-1.4-0.3-2.8-0.6-4.1-0.9c-0.1,0-0.1,0-0.2,0c-0.1,0-0.2,0-0.2-0.1c-3-0.7-6-1.7-8.9-2.8l-0.9-0.4c-1.1-0.4-2.2-0.9-3.2-1.3
			l-0.6-0.3c-0.2-0.1-0.5-0.2-0.8-0.3c-0.9-0.4-1.8-0.9-2.7-1.3c-0.5-0.2-1-0.5-1.5-0.8c-0.8-0.5-1.6-0.9-2.5-1.4
			c-1.2-0.7-2.3-1.4-3.4-2.1l-0.2-0.1c-0.4-0.2-0.8-0.5-1.2-0.8c-0.7-0.4-1.3-0.9-2-1.4l-0.4-0.3l-1-0.8c-0.8-0.6-1.6-1.2-2.5-1.9
			c-0.2-0.2-0.5-0.4-0.7-0.6c-3.7-3-7.1-6.5-10.3-10.3c-0.2-0.2-0.4-0.5-0.6-0.7c-0.7-0.8-1.3-1.7-2-2.5c-0.2-0.3-0.4-0.6-0.6-0.9
			l-0.2-0.2c-0.5-0.6-0.9-1.2-1.3-1.8l-0.7-1l0-0.1C6,114,1.4,98.5,1.4,82.5c0-44.7,36.4-81.1,81.1-81.1c44.7,0,81.1,36.4,81.1,81.1
			c0,16-4.7,31.4-13.5,44.8l-0.1,0.2l-0.6,0.8c-0.3,0.5-0.7,1-1.1,1.5l-0.5,0.6c-0.2,0.3-0.4,0.6-0.6,0.8c-0.7,0.9-1.4,1.8-2,2.5
			l-0.6,0.7c-3.1,3.7-6.5,7.2-10.3,10.3l-0.7,0.6c-0.7,0.6-1.5,1.2-2.3,1.8l-0.2,0.1l-0.4,0.3c-0.2,0.2-0.4,0.3-0.7,0.5
			c-0.8,0.6-1.6,1.2-2.4,1.7c-0.3,0.2-0.5,0.3-0.8,0.5c-0.2,0.1-0.4,0.2-0.5,0.3c-1.3,0.9-2.4,1.5-3.4,2.1l-0.3,0.2
			c-0.7,0.4-1.4,0.8-2.1,1.2c-0.3,0.1-0.6,0.3-0.9,0.4l-0.6,0.3c-1,0.5-1.8,0.9-2.7,1.3l-0.2,0.1c-0.4,0.2-0.8,0.4-1.2,0.5
			c-1,0.5-2,0.9-3.1,1.3l-1,0.4c-3,1.1-6,2.1-9,2.8l-0.4,0.1c-1.6,0.4-2.8,0.7-4.1,0.9c-0.2,0-0.4,0.1-0.7,0.1l0,0l-0.5,0.1
			l-1.5,0.2c-0.1,0-0.3,0-0.5,0.1c-0.1,0-0.3,0-0.4,0.1l-0.3,0l-0.1,0l-0.3,0c-0.1,0-0.2,0-0.3,0l-1.3,0.2c-0.9,0.1-1.9,0.2-2.8,0.3
			l-0.7,0.1c-0.1,0-0.3,0-0.4,0l-0.8,0.1C85.5,163.6,84,163.6,82.5,163.6z"/>
		<path class="st1" d="M82.5,1.9c44.5,0,80.6,36.2,80.6,80.6c0,16.5-5,31.9-13.5,44.7l0,0.1l-0.6,0.8c-0.5,0.7-1,1.4-1.5,2.1
			c-0.2,0.3-0.4,0.6-0.6,0.8c-0.6,0.9-1.3,1.7-2,2.5c-0.2,0.2-0.4,0.5-0.6,0.7c-3.1,3.7-6.5,7.1-10.2,10.2c-0.2,0.2-0.4,0.4-0.7,0.6
			c-0.8,0.7-1.6,1.3-2.4,1.9c-0.3,0.2-0.7,0.5-1,0.7c-0.8,0.6-1.6,1.2-2.4,1.7c-0.4,0.3-0.9,0.6-1.3,0.9c-1.1,0.7-2.2,1.4-3.4,2.1
			c-0.8,0.5-1.6,0.9-2.4,1.4c-0.5,0.3-1,0.5-1.5,0.8c-0.9,0.4-1.7,0.9-2.6,1.3c-0.4,0.2-0.9,0.4-1.4,0.6c-1,0.5-2.1,0.9-3.1,1.3
			c-0.3,0.1-0.6,0.3-1,0.4c-2.9,1.1-5.9,2-8.9,2.8c-0.1,0-0.2,0.1-0.4,0.1c-1.3,0.3-2.7,0.6-4.1,0.9c-0.4,0.1-0.7,0.1-1.1,0.2
			c0,0-0.1,0-0.1,0l0,0.1l-1.5,0.2c-0.3,0.1-0.6,0.1-0.9,0.1l-0.3,0c-0.1,0-0.1,0-0.2,0c-0.2,0-0.4,0-0.5,0.1
			c-0.4,0.1-0.9,0.1-1.3,0.2c-1.1,0.1-2.1,0.2-3.2,0.3c-0.2,0-0.5,0-0.7,0.1c-0.3,0-0.5,0-0.8,0.1c-1.5,0.1-3.1,0.1-4.6,0.1
			s-3.1-0.1-4.6-0.1c-0.3,0-0.5,0-0.8-0.1c-0.2,0-0.5,0-0.7-0.1c-1.1-0.1-2.2-0.2-3.2-0.3c-0.4-0.1-0.9-0.1-1.3-0.2
			c-0.1,0-0.3,0-0.4-0.1c-0.1,0-0.1,0-0.2,0l-0.3,0c-0.3,0-0.7-0.1-1-0.1l-1.4-0.2v-0.1c-0.1,0-0.1,0-0.2,0
			c-0.4-0.1-0.7-0.1-1.1-0.2c-1.4-0.3-2.7-0.6-4.1-0.9c-0.1,0-0.2-0.1-0.4-0.1c-3-0.8-6-1.7-8.9-2.8c-0.3-0.1-0.7-0.3-1-0.4
			c-1-0.4-2.1-0.8-3.1-1.3c-0.4-0.2-0.9-0.4-1.4-0.6c-0.9-0.4-1.8-0.9-2.6-1.3c-0.5-0.2-1-0.5-1.5-0.8c-0.8-0.4-1.6-0.9-2.4-1.4
			c-1.1-0.7-2.3-1.4-3.4-2.1c-0.4-0.3-0.9-0.6-1.3-0.9c-0.8-0.5-1.6-1.1-2.4-1.7c-0.3-0.2-0.7-0.5-1-0.7c-0.8-0.6-1.6-1.3-2.4-1.9
			c-0.2-0.2-0.4-0.4-0.7-0.6c-3.7-3.1-7.1-6.5-10.2-10.2c-0.2-0.2-0.4-0.5-0.6-0.7c-0.7-0.8-1.3-1.7-2-2.5c-0.2-0.3-0.4-0.6-0.6-0.8
			c-0.5-0.7-1-1.4-1.5-2.1l-0.6-0.8l0-0.1C6.9,114.4,1.9,99,1.9,82.5C1.9,38,38,1.9,82.5,1.9 M82.5,0.9c-45,0-81.6,36.6-81.6,81.6
			c0,16,4.7,31.5,13.5,44.9l0,0.1l0.2,0.4l0.6,0.8c0.4,0.6,0.9,1.3,1.4,1.9l0.2,0.2c0.2,0.3,0.4,0.6,0.6,0.8c0.6,0.8,1.2,1.6,2,2.5
			c0.2,0.2,0.4,0.5,0.6,0.7c3.1,3.7,6.6,7.2,10.3,10.3c0.2,0.2,0.4,0.4,0.7,0.6c0.9,0.7,1.7,1.3,2.5,1.9l0.5,0.4l0.5,0.4l0.4,0.3
			c0.6,0.5,1.3,0.9,2,1.4c0.4,0.3,0.8,0.5,1.1,0.8l0.2,0.1c1.1,0.7,2.2,1.4,3.4,2.1c0.9,0.5,1.8,1,2.5,1.4c0.5,0.3,1,0.5,1.5,0.8
			c0.9,0.4,1.8,0.9,2.7,1.3c0.3,0.1,0.6,0.2,0.8,0.4c0.2,0.1,0.4,0.2,0.6,0.3c1.1,0.5,2.1,0.9,3.2,1.3l1,0.4c2.9,1.1,6,2.1,9,2.8
			c0.1,0,0.2,0,0.2,0.1c0,0,0.1,0,0.1,0l0,0l0.1,0c1.3,0.3,2.6,0.6,4.1,0.9l0.4,0.1c0,0,0.1,0,0.1,0v0.1l0.9,0.1l1.4,0.2
			c0.2,0,0.5,0.1,0.8,0.1l0.2,0l0.2,0c0,0,0.1,0,0.1,0l0,0l0.1,0c0.1,0,0.2,0,0.3,0l0,0l0,0c0.2,0,0.4,0.1,0.7,0.1
			c0.2,0,0.4,0.1,0.7,0.1c1.2,0.1,2.2,0.2,3.3,0.3c0.1,0,0.2,0,0.3,0c0.1,0,0.3,0,0.4,0c0.1,0,0.2,0,0.3,0c0.1,0,0.3,0,0.4,0
			c1.7,0.1,3.2,0.1,4.7,0.1c1.5,0,3,0,4.7-0.1c0.1,0,0.3,0,0.4,0c0.1,0,0.3,0,0.4,0c0.1,0,0.3,0,0.4,0c0.1,0,0.2,0,0.3,0l0.4,0
			c0.9-0.1,1.9-0.2,2.8-0.3c0.2,0,0.4-0.1,0.7-0.1c0.2,0,0.4-0.1,0.7-0.1c0.1,0,0.2,0,0.3,0l0.2,0l0,0l0,0l0.1,0l0.3,0
			c0.2,0,0.3,0,0.4-0.1c0.2,0,0.3,0,0.5-0.1l1.5-0.2l1.1-0.1l0-0.1c0.1,0,0.1,0,0.2,0c1.2-0.2,2.5-0.5,4.1-0.9l0.2,0l0.2,0
			c3-0.8,6.1-1.7,9-2.8l0.4-0.2l0.5-0.2l0.1,0c1-0.4,2.1-0.8,3.1-1.3c0.4-0.2,0.8-0.4,1.2-0.5l0.2-0.1c0.8-0.4,1.7-0.8,2.7-1.3
			c0.2-0.1,0.4-0.2,0.6-0.3c0.3-0.2,0.6-0.3,0.9-0.5c0.7-0.4,1.4-0.8,2.1-1.2l0.3-0.2c1-0.6,2.1-1.3,3.4-2.1
			c0.2-0.1,0.4-0.2,0.5-0.3c0.3-0.2,0.5-0.3,0.8-0.5c0.8-0.5,1.6-1.1,2.4-1.7c0.2-0.1,0.5-0.3,0.7-0.5l0.3-0.2l0.2-0.2
			c0.7-0.6,1.5-1.2,2.3-1.8c0.1-0.1,0.2-0.2,0.4-0.3c0.1-0.1,0.2-0.2,0.3-0.3c3.7-3.1,7.2-6.6,10.3-10.3l0.3-0.3l0.3-0.4
			c0.6-0.7,1.3-1.6,2-2.6c0.2-0.3,0.4-0.6,0.6-0.9c0.1-0.2,0.3-0.4,0.4-0.6c0.4-0.5,0.7-1,1.1-1.5l0.6-0.8l0.3-0.4l0-0.1
			c8.8-13.4,13.5-28.9,13.5-44.9C164.1,37.5,127.5,0.9,82.5,0.9L82.5,0.9z"/>
	</g>
	<polygon class="st2" points="78.4,50.4 78.4,70.9 125.9,70.9 125.9,36.9 78.4,36.9 	"/>
	<path class="st1" d="M128.2,32.2H76.1c-1.3,0-2.4,1.1-2.4,2.4v18.4l2.6-1.6c0.7-0.4,1.4-0.7,2.1-0.8V36.9h47.5v34H78.4v-5.5
		l-4.7,2.9v4.9c0,1.3,1.1,2.4,2.4,2.4h52.2c1.3,0,2.4-1.1,2.4-2.4V34.5C130.6,33.2,129.5,32.2,128.2,32.2L128.2,32.2z M128.2,32.2"
		/>
	<g>
		<path class="st2" d="M59,105.1c-0.2,0-0.3,0-0.5-0.1c-0.8-0.2-1.6-0.3-2.5-0.3c-0.7,0-1.4-0.4-1.7-1s-0.3-1.4,0-2
			c0.8-1.4,1.3-3,1.3-4.6c0-1.8-0.5-3.5-1.5-5c-0.2-0.3-0.3-0.7-0.3-1.1c-0.4-0.1-0.7-0.2-1-0.5c-1.7-1.5-3.8-2.3-6-2.3
			c-0.1,0-0.3,0-0.4,0c0,0-0.1,0-0.1,0c-0.5,0-1-0.2-1.4-0.6c-0.4-0.4-0.6-0.9-0.6-1.4v-5.5c-0.8,0.5-1.7,0.7-2.7,0.7
			c-2.9,0-5.3-2.4-5.3-5.3l0.1-24c0-5.3,4.4-9.7,9.7-9.7h3.3c0.8,0,1.5,0.5,1.8,1.2c0.5-0.7,1.2-1.2,2.1-1.2h3.2
			c0.8,0,1.6,0.4,2.1,1.2c0.3-0.7,1-1.2,1.8-1.2h3.2c5.3,0,9.7,4.3,9.7,9.7l0,2.5l3.6-2.2c0.8-0.5,1.8-0.8,2.8-0.8
			c1.8,0,3.5,0.9,4.5,2.5c0.7,1.2,1,2.6,0.7,4c-0.3,1.4-1.2,2.5-2.4,3.3L71,68.5c-0.8,0.5-1.8,0.8-2.8,0.8c-0.9,0-1.8-0.2-2.6-0.7
			c0,0-0.1,0-0.1-0.1c0,4.7,0,13.9,0,32.2c0,0.9-0.6,1.7-1.5,1.9c-1.4,0.3-2.6,1-3.7,1.9C59.9,105,59.5,105.1,59,105.1z"/>
		<path class="st1" d="M63.6,44.3c4.2,0,7.7,3.5,7.7,7.7c0,3.5,0,0.6,0,6.1l6.6-4.1c0.5-0.3,1.1-0.5,1.7-0.5c1.1,0,2.2,0.5,2.8,1.5
			c1,1.5,0.5,3.6-1.1,4.5l-11.6,7.2c-0.5,0.3-1.1,0.5-1.7,0.5c-0.5,0-1.1-0.1-1.6-0.4c-1-0.6-1.7-1.7-1.7-2.8c0-2.5,0-9.7-0.1-12
			c0-0.4-0.3-0.7-0.7-0.7c0,0,0,0,0,0c-0.4,0-0.7,0.3-0.7,0.7c0,26.1,0.1-10.6,0.1,48.7c-1.7,0.4-3.3,1.2-4.6,2.4
			c-1-0.3-2-0.4-3-0.4c1-1.7,1.6-3.6,1.6-5.7c0-2.3-0.7-4.4-1.9-6.2V75.7H54V89c-2-1.8-4.6-2.9-7.4-2.9c-0.2,0-0.3,0-0.5,0l0-34
			c0-0.4-0.3-0.6-0.6-0.6c0,0,0,0,0,0c-0.4,0-0.6,0.3-0.7,0.6v0l-0.1,24c0,1.8-1.5,3.3-3.3,3.3h0c-1.8,0-3.3-1.5-3.3-3.3l0.1-24
			c0-4.2,3.5-7.7,7.7-7.7h3.3c0.4,1.1,3.6,9.3,4.1,10.5l-0.8-4.3c-0.1-0.3,0-0.6,0.1-0.9l1.3-2.4l-1.2-2.1c-0.2-0.3,0.1-0.7,0.4-0.7
			h3.2c0.4,0,0.6,0.4,0.4,0.7l-1.2,2.1l1.3,2.4c0.2,0.3,0.2,0.6,0.1,0.9l-1,4.3c2.3-6.1,1.4-3.4,4.2-10.5H63.6 M63.6,40.3h-3.2
			c-0.7,0-1.4,0.2-1.9,0.5c-0.6-0.3-1.3-0.5-2-0.5h-3.2c-0.7,0-1.4,0.2-2,0.5c-0.6-0.3-1.3-0.5-1.9-0.5h-3.3
			c-6.4,0-11.7,5.2-11.7,11.7l-0.1,24c0,4,3.2,7.3,7.2,7.3c0.2,0,0.5,0,0.7,0l0,2.8c0,1.1,0.4,2.1,1.2,2.9c0.7,0.7,1.7,1.1,2.8,1.1
			c0.1,0,0.1,0,0.2,0c0.1,0,0.2,0,0.3,0c1.7,0,3.4,0.6,4.7,1.8c0.2,0.2,0.4,0.4,0.7,0.5c0.1,0.3,0.2,0.5,0.4,0.7
			c0.8,1.2,1.2,2.5,1.2,3.9c0,1.3-0.3,2.5-1,3.6c-0.7,1.2-0.8,2.8-0.1,4c0.7,1.3,2,2,3.5,2c0.7,0,1.3,0.1,2,0.3
			c0.3,0.1,0.7,0.1,1,0.1c1,0,1.9-0.3,2.6-1c0.8-0.7,1.8-1.2,2.9-1.5c1.8-0.4,3-2,3-3.9c0-15.3,0-24.3,0-29.5c0.2,0,0.4,0,0.6,0
			c1.4,0,2.7-0.4,3.8-1.1L83.6,63c1.6-1,2.8-2.6,3.2-4.5c0.4-1.9,0.1-3.8-0.9-5.5c-1.3-2.2-3.6-3.4-6.2-3.4c-1.4,0-2.7,0.4-3.8,1.1
			L75.3,51C74.8,45,69.8,40.3,63.6,40.3L63.6,40.3z"/>
	</g>
	<g>
		<path class="st2" d="M130.7,124.8c-0.3,0-0.5-0.1-0.7-0.1c-0.2,0.1-0.5,0.1-0.7,0.1h-8.6c-0.7,0-1.3-0.3-1.7-0.9
			c-1.8-2.7-4.8-4.5-8-4.6c-0.7,0-1.3-0.4-1.7-1.1c-0.3-0.6-0.3-1.4,0.1-2c0.9-1.4,1.3-3,1.3-4.6c0-1.4-0.3-2.8-1-4.1
			c-0.3-0.6-0.3-1.4,0.1-2c0.4-0.6,1-1,1.7-1h18c5.6,0,10.2,4.5,10.2,10.1l0,8c0,0.5-0.2,1-0.6,1.4c-0.4,0.4-0.9,0.6-1.4,0.6H130.7z
			"/>
		<path class="st1" d="M129.4,106.6c4.5,0,8.2,3.7,8.2,8.2l0,8h-6.9l0-8v0c0-0.4-0.3-0.7-0.7-0.7c0,0,0,0,0,0
			c-0.4,0-0.7,0.3-0.7,0.7v7.9h-8.6c-2.1-3.2-5.6-5.3-9.6-5.5c1.1-1.8,1.6-3.8,1.6-5.7c0-1.8-0.4-3.5-1.2-5H129.4 M129.4,102.6h-18
			c-1.4,0-2.7,0.7-3.4,1.9c-0.7,1.2-0.8,2.7-0.1,3.9c0.5,1,0.8,2.1,0.8,3.2c0,1.3-0.3,2.5-1,3.6c-0.7,1.2-0.8,2.7-0.1,4
			c0.7,1.2,1.9,2.1,3.4,2.1c2.6,0.1,5,1.5,6.4,3.7c0.7,1.1,2,1.8,3.4,1.8h8.6c0.3,0,0.5,0,0.7-0.1c0.2,0,0.5,0.1,0.7,0.1h6.9
			c1.1,0,2.1-0.4,2.8-1.2c0.8-0.8,1.2-1.8,1.2-2.8l0-8C141.6,108.1,136.1,102.6,129.4,102.6L129.4,102.6z"/>
	</g>
	<g>
		<path class="st2" d="M84.1,122.8c-0.5,0-1-0.2-1.4-0.6c-1.9-2-4.4-3-7.1-3.1c-0.7,0-1.4-0.4-1.7-1c-0.4-0.6-0.3-1.4,0-2
			c0.8-1.4,1.3-3,1.3-4.6c0-1.4-0.3-2.7-0.9-4c-0.3-0.6-0.3-1.4,0.1-1.9c0.4-0.6,1-0.9,1.7-0.9h16c0.7,0,1.3,0.4,1.7,1
			c0.4,0.6,0.4,1.3,0.1,2c-0.7,1.3-1,2.7-1,4.1c0,1.7,0.5,3.3,1.3,4.7c0.4,0.6,0.4,1.4,0,2c-0.3,0.6-1,1-1.7,1c-2.6,0-5,1-6.9,2.8
			C85.1,122.6,84.6,122.8,84.1,122.8C84.1,122.8,84.1,122.8,84.1,122.8z"/>
		<path class="st1" d="M92,106.5L92,106.5 M92,106.5c-0.8,1.5-1.3,3.2-1.3,5.1c0,1.9,0.5,4,1.6,5.8c-3.2,0-6.1,1.3-8.2,3.4
			c-2.2-2.3-5.2-3.6-8.6-3.7c1-1.7,1.6-3.6,1.6-5.7c0-1.8-0.4-3.4-1.2-4.9H92 M92,102.5L92,102.5H76c-1.4,0-2.7,0.7-3.4,1.9
			c-0.7,1.2-0.8,2.7-0.2,3.9c0.5,1,0.7,2,0.7,3.1c0,1.3-0.3,2.5-1,3.6c-0.7,1.2-0.8,2.8-0.1,4c0.7,1.3,2,2,3.5,2
			c2.2,0,4.2,0.9,5.7,2.4c0.7,0.8,1.8,1.2,2.8,1.2c0,0,0,0,0.1,0c1,0,2-0.4,2.8-1.1c1.5-1.4,3.4-2.2,5.5-2.3c1.4,0,2.8-0.8,3.5-2.1
			c0.7-1.3,0.7-2.8-0.1-4c-0.7-1.1-1-2.4-1-3.6c0-1.1,0.2-2.1,0.7-3.1c0.3-0.6,0.5-1.2,0.5-2C96,104.3,94.2,102.5,92,102.5L92,102.5
			z M92,110.5L92,110.5L92,110.5L92,110.5z"/>
	</g>
	<g>
		<path class="st2" d="M37.5,124.8c-0.3,0-0.5-0.1-0.7-0.1c-0.2,0.1-0.5,0.1-0.7,0.1h-6.9c-0.5,0-1-0.2-1.4-0.6
			c-0.4-0.4-0.6-0.9-0.6-1.4l0-8.1c0-5.6,4.6-10.1,10.2-10.1l15.2,0c3.6,0,3.7,0,3.8,0c0.7,0,1.3,0.4,1.6,1c0.3,0.6,0.4,1.3,0.1,1.9
			c-0.6,1.2-0.9,2.6-0.9,4c0,1.7,0.5,3.3,1.3,4.7c0.4,0.6,0.4,1.4,0.1,2c-0.3,0.6-1,1-1.7,1.1c-3.3,0.1-6.2,1.9-8,4.7
			c-0.4,0.6-1,0.9-1.7,0.9H37.5z"/>
		<path class="st1" d="M52.5,106.5c4.1,0,3.7,0,3.8,0c-0.7,1.5-1.1,3.1-1.1,4.9c0,2.1,0.6,4.1,1.6,5.8c-3.9,0.2-7.5,2.3-9.6,5.6
			h-9.7v-8.1c0-0.4-0.3-0.7-0.7-0.7c0,0,0,0,0,0c-0.4,0-0.7,0.3-0.7,0.7l0,8.1h-6.9l0-8.1c0-4.5,3.7-8.2,8.2-8.2
			C45.3,106.5,49.9,106.5,52.5,106.5 M52.5,102.5l-3.8,0l-11.4,0c-6.7,0-12.2,5.4-12.2,12.1l0,8.1c0,1.1,0.4,2.1,1.2,2.8
			c0.8,0.8,1.8,1.2,2.8,1.2h6.9c0.3,0,0.5,0,0.7-0.1c0.2,0,0.5,0.1,0.7,0.1h9.7c1.4,0,2.7-0.7,3.4-1.9c1.4-2.2,3.8-3.6,6.4-3.7
			c1.4-0.1,2.7-0.9,3.4-2.1c0.7-1.3,0.6-2.8-0.1-4c-0.7-1.1-1-2.4-1-3.7c0-1.1,0.2-2.1,0.7-3.1c0.6-1.2,0.6-2.6-0.1-3.8
			c-0.7-1.2-1.9-1.9-3.3-2C56.3,102.5,56.3,102.5,52.5,102.5L52.5,102.5z"/>
	</g>
	<path class="st2" d="M54.9,43.2c-4.8,0-8.8-3.9-8.8-8.8c0-4.8,3.9-8.8,8.8-8.8s8.8,3.9,8.8,8.8C63.6,39.3,59.7,43.2,54.9,43.2z"/>
	<path class="st1" d="M54.9,27.7c3.7,0,6.8,3,6.8,6.8c0,3.7-3,6.8-6.8,6.8c-3.7,0-6.8-3-6.8-6.8C48.1,30.7,51.1,27.7,54.9,27.7
		 M54.9,23.7c-5.9,0-10.8,4.8-10.8,10.8c0,3,1.2,5.7,3.2,7.6c2,2,4.6,2.2,7.6,2.2c2.9,0,5.4-0.1,7.4-1.9c2.1-2,3.4-4.8,3.4-7.9
		C65.6,28.5,60.8,23.7,54.9,23.7L54.9,23.7z"/>
	<g>
		<path class="st2" d="M120.2,105.4c-5.1,0-9.2-4.1-9.2-9.2c0-5.1,4.1-9.2,9.2-9.2c5.1,0,9.2,4.1,9.2,9.2
			C129.3,101.3,125.2,105.4,120.2,105.4z"/>
		<path class="st1" d="M120.2,89c4,0,7.2,3.2,7.2,7.2c0,4-3.2,7.2-7.2,7.2c-4,0-7.2-3.2-7.2-7.2C113,92.3,116.2,89,120.2,89
			 M120.2,85c-6.2,0-11.2,5-11.2,11.2c0,3.8,1.9,7.1,4.7,9.1c1.8,1.3,4.1,1.1,6.5,1.1c2.3,0,4.5,0.3,6.2-0.9c3-2,4.9-5.4,4.9-9.3
			C131.3,90.1,126.3,85,120.2,85L120.2,85z"/>
	</g>
	<g>
		<path class="st2" d="M85.3,105.3c-5.1,0-9.2-4.1-9.2-9.2s4.1-9.2,9.2-9.2c5.1,0,9.2,4.1,9.2,9.2S90.3,105.3,85.3,105.3z"/>
		<path class="st1" d="M85.3,89c4,0,7.2,3.2,7.2,7.2c0,4-3.2,7.2-7.2,7.2c-4,0-7.2-3.2-7.2-7.2C78.1,92.2,81.3,89,85.3,89 M85.3,85
			c-6.2,0-11.2,5-11.2,11.2c0,3.1,1.3,5.9,3.3,7.9c2,2,4.8,2.3,7.9,2.3c1.9,0,3.6,0.5,5.1-0.3c3.6-1.9,6-5.6,6-9.9
			C96.4,90,91.4,85,85.3,85L85.3,85z"/>
	</g>
	<g>
		<path class="st2" d="M46.6,105.3c-5.1,0-9.2-4.1-9.2-9.2s4.1-9.2,9.2-9.2c5.1,0,9.2,4.1,9.2,9.2S51.7,105.3,46.6,105.3z"/>
		<path class="st1" d="M46.6,89c4,0,7.2,3.2,7.2,7.2c0,4-3.2,7.2-7.2,7.2c-4,0-7.2-3.2-7.2-7.2C39.5,92.2,42.7,89,46.6,89 M46.6,85
			c-6.2,0-11.2,5-11.2,11.2c0,3.4,1.6,6.5,4,8.6c1.9,1.6,4.4,1.6,7.2,1.6c2.7,0,5.2,0,7.1-1.6c2.5-2.1,4.1-5.2,4.1-8.6
			C57.8,90,52.8,85,46.6,85L46.6,85z"/>
	</g>
	<g>
		<path class="st2" d="M86.7,56.1c-0.2,0-0.3,0-0.5-0.1c-0.6-0.1-1.1-0.6-1.3-1.1c-0.1-0.2-0.2-0.3-0.3-0.5c-0.4-0.6-0.8-1-1.4-1.4
			c-0.5-0.4-0.9-0.9-0.9-1.6c0-0.6,0.3-1.3,0.8-1.7l8.1-6.4c0.7-0.5,1.5-0.8,2.4-0.8c1.2,0,2.3,0.5,3,1.5c1.3,1.7,1,4.1-0.6,5.4
			l-8,6.3C87.5,56,87.1,56.1,86.7,56.1z"/>
		<path class="st1" d="M93.5,44.6c0.5,0,1.1,0.2,1.4,0.7c0.6,0.8,0.5,1.9-0.3,2.5l-8,6.3c-0.1-0.2-0.2-0.5-0.4-0.7
			c-0.5-0.8-1.2-1.5-2-2l8.1-6.4C92.7,44.7,93.1,44.6,93.5,44.6 M93.5,40.6c-1.3,0-2.6,0.4-3.6,1.2l-8.1,6.4c-1,0.8-1.6,2-1.5,3.3
			c0.1,1.3,0.7,2.5,1.8,3.2c0.3,0.2,0.6,0.5,0.8,0.8c0.1,0.1,0.1,0.2,0.2,0.3c0.5,1.1,1.5,1.9,2.7,2.2c0.3,0.1,0.6,0.1,0.9,0.1
			c0.9,0,1.8-0.3,2.5-0.9l8-6.3c2.5-2,2.9-5.6,1-8.2C97,41.4,95.3,40.6,93.5,40.6L93.5,40.6z"/>
	</g>
	<rect x="24.6" y="122.8" class="st0" width="121" height="6.3"/>
	<g>
		<path class="st2" d="M92.1,139.3c-0.2,0-0.4,0-0.6-0.1c-0.2,0.1-0.4,0.1-0.6,0.1H77c-0.2,0-0.5,0-0.7-0.1
			c-0.2,0.1-0.4,0.1-0.7,0.1H57.3c-0.2,0-0.4,0-0.6-0.1c-0.2,0.1-0.4,0.1-0.6,0.1h-6.9c-0.5,0-1-0.2-1.4-0.6
			c-0.4-0.4-0.6-0.9-0.6-1.4l0-8.3c0-5.5,4.8-10.1,10.4-10.1h18.2c3.4,0,6.5,1.7,8.3,4.3c1.9-2.5,5-4.2,8.3-4.2h18.2
			c5.6,0,10.2,4.6,10.2,10.1l0,8.1c0,0.5-0.2,1-0.6,1.4c-0.4,0.4-0.9,0.6-1.4,0.6h-6.9c-0.2,0-0.5,0-0.7-0.1
			c-0.2,0.1-0.4,0.1-0.7,0.1H92.1z"/>
		<path class="st1" d="M75.7,120.9c4.5,0,8.2,3.7,8.2,8.2l0.1,0.2c0-4.5,3.9-8.2,8.4-8.2h18.2c4.5,0,8.2,3.7,8.2,8.2l0,8.1h-6.9
			l0-8.1c0-0.4-0.3-0.7-0.7-0.7c0,0,0,0,0,0c-0.4,0-0.7,0.3-0.7,0.7v8.1H92.1v-8.1c0-0.3-0.3-0.6-0.6-0.6c0,0,0,0,0,0
			c-0.3,0-0.6,0.3-0.6,0.6v0l0,8.1H77l0-8.3c0-0.4-0.3-0.7-0.7-0.7c0,0,0,0,0,0c-0.4,0-0.7,0.3-0.7,0.7v8.3H57.3v-8.3
			c0-0.3-0.3-0.6-0.6-0.6c0,0,0,0,0,0c-0.3,0-0.6,0.3-0.6,0.6l0,8.3h-6.9l0-8.3c0-4.5,3.9-8.2,8.4-8.2H75.7 M75.7,116.9H57.6
			c-6.8,0-12.4,5.4-12.4,12.1l0,8.3c0,1.1,0.4,2.1,1.2,2.8c0.8,0.8,1.8,1.2,2.8,1.2H56c0.2,0,0.4,0,0.6-0.1c0.2,0,0.4,0.1,0.6,0.1
			h18.3c0.2,0,0.5,0,0.7-0.1c0.2,0,0.5,0.1,0.7,0.1h13.8c0.2,0,0.4,0,0.6-0.1c0.2,0,0.4,0.1,0.6,0.1h18.3c0.2,0,0.5,0,0.7-0.1
			c0.2,0,0.5,0.1,0.7,0.1h6.9c1.1,0,2.1-0.4,2.8-1.2s1.2-1.8,1.2-2.8l0-8.1c0-6.7-5.5-12.1-12.2-12.1H92.4c-3.2,0-6.1,1.2-8.3,3.1
			C81.9,118.1,79,116.9,75.7,116.9L75.7,116.9z"/>
	</g>
	<g>
		<path class="st2" d="M66.4,119.7c-5.1,0-9.3-4.2-9.3-9.3s4.2-9.3,9.3-9.3c5.1,0,9.3,4.2,9.3,9.3S71.5,119.7,66.4,119.7z"/>
		<path class="st1" d="M66.4,103.2c4,0,7.3,3.2,7.3,7.3c0,4-3.3,7.3-7.3,7.3c-4,0-7.3-3.3-7.3-7.3C59.1,106.5,62.4,103.2,66.4,103.2
			 M66.4,99.2c-6.2,0-11.3,5.1-11.3,11.3c0,3.8,1.9,7.2,4.9,9.3c1.8,1.3,4,1,6.4,1c2.8,0,5.3,0,7.3-1.7c2.4-2.1,3.9-5.1,3.9-8.6
			C77.7,104.3,72.6,99.2,66.4,99.2L66.4,99.2z"/>
	</g>
	<g>
		<path class="st2" d="M101.7,119.9c-5.1,0-9.3-4.2-9.3-9.3s4.2-9.3,9.3-9.3s9.3,4.2,9.3,9.3S106.8,119.9,101.7,119.9z"/>
		<path class="st1" d="M101.7,103.4c4,0,7.3,3.3,7.3,7.3c0,4-3.2,7.3-7.3,7.3c-4,0-7.3-3.3-7.3-7.3
			C94.4,106.6,97.7,103.4,101.7,103.4 M101.7,99.4c-6.2,0-11.3,5.1-11.3,11.3c0,3.5,1.6,6.6,4,8.6c2,1.6,4.5,1.6,7.2,1.6
			c2.8,0,5.4,0,7.3-1.7c2.4-2.1,3.9-5.1,3.9-8.5C112.9,104.4,107.9,99.4,101.7,99.4L101.7,99.4z"/>
	</g>
	<rect x="39.5" y="137.3" class="st0" width="86.4" height="7.4"/>
</g>
</svg>
