<?xml version="1.0" encoding="utf-8"?>
<!-- Generator: Adobe Illustrator 21.0.0, SVG Export Plug-In . SVG Version: 6.00 Build 0)  -->
<svg version="1.1" id="Layer_1" xmlns="http://www.w3.org/2000/svg" xmlns:xlink="http://www.w3.org/1999/xlink" x="0px" y="0px"
	 viewBox="0 0 230 230" style="enable-background:new 0 0 230 230;" xml:space="preserve">
<style type="text/css">
	.st0{fill:#FFFFFF;stroke:#7D8051;stroke-width:5;stroke-linecap:round;stroke-linejoin:round;stroke-miterlimit:10;}
	.st1{fill:#FFFFFF;stroke:#7D8051;stroke-width:4;stroke-linecap:round;stroke-linejoin:round;stroke-miterlimit:10;}
	.st2{fill:none;stroke:#7D8051;stroke-width:5;stroke-linecap:round;stroke-linejoin:round;stroke-miterlimit:10;}
</style>
<g>
	<path class="st0" d="M174.5,168.6H57.7c-4,0-7.3-3.2-7.3-7.3V85.7c0-4,3.2-7.3,7.3-7.3h116.9c4,0,7.3,3.2,7.3,7.3v75.7
		C181.8,165.4,178.6,168.6,174.5,168.6z"/>
	<rect x="104.2" y="58.1" class="st0" width="23.7" height="31.3"/>
	<circle class="st0" cx="116.1" cy="70" r="4.6"/>
	<path class="st1" d="M83.2,155.3c-9.8,0-17.5-0.9-20-2.5l-1.1-0.6v-3.8c0-2.7,1.5-5.3,3.9-6.6l9.2-4.5c0.7-0.3,1.1-1,1.1-1.8v-2.8
		h-0.1c-4.2-1.8-7-5.3-8.4-10.4v-0.1h-0.1c-1.9-0.6-3.2-2.4-3.2-4.3v-2.4c0-1.7,0.9-3.2,2.4-4H67v-0.1c0.3-2.5,0.8-4.7,1.6-6.7
		c0.3-0.8,0.6-1.4,0.8-1.9c0.7-1.5,0.8-2,0.7-3.2l-0.5-4.3l3.8,2.2c2,1.2,4.4,1.7,7.1,1.7c0.5,0,0.9,0,1.4-0.1
		c0.4,0,0.8-0.1,1.3-0.1c9.9,0,15.2,4,16.2,12.3v0.1h0.1c1.5,0.8,2.5,2.3,2.5,4v2.4c0,2-1.3,3.7-3.2,4.3h-0.1v0.1
		c-1.4,5.2-4.2,8.7-8.4,10.5h-0.1v2.8c0,0.7,0.4,1.4,1.1,1.7l9.4,4.8l0,0c2.3,1.4,3.7,3.8,3.7,6.5v3.6l-1.1,0.6
		C100.6,154.4,93,155.3,83.2,155.3z"/>
	<line class="st2" x1="119.2" y1="114.3" x2="142.5" y2="114.3"/>
	<line class="st2" x1="119.2" y1="126.6" x2="165.9" y2="126.6"/>
	<line class="st2" x1="119.2" y1="138.8" x2="165.9" y2="138.8"/>
	<line class="st2" x1="119.2" y1="151.1" x2="123.9" y2="151.1"/>
	<line class="st2" x1="130.8" y1="151.1" x2="138.3" y2="151.1"/>
	<line class="st2" x1="147.4" y1="151.1" x2="151.1" y2="151.1"/>
	<line class="st2" x1="159.5" y1="151.1" x2="160.5" y2="151.1"/>
</g>
</svg>
