<?xml version="1.0" encoding="utf-8"?>
<!-- Generator: Adobe Illustrator 21.0.2, SVG Export Plug-In . SVG Version: 6.00 Build 0)  -->
<svg version="1.1" id="Layer_1" xmlns="http://www.w3.org/2000/svg" xmlns:xlink="http://www.w3.org/1999/xlink" x="0px" y="0px"
	 viewBox="0 0 165 165" style="enable-background:new 0 0 165 165;" xml:space="preserve">
<style type="text/css">
	.st0{fill:#FFFFFF;stroke:#7D8051;stroke-width:5;stroke-linejoin:round;stroke-miterlimit:10;}
	.st1{fill:#FFFFFF;stroke:#7D8051;stroke-width:3;stroke-linejoin:round;stroke-miterlimit:10;}
	.st2{fill:#FFFFFF;}
	.st3{fill:#7D8051;}
	.st4{fill:#FFFFFF;stroke:#7D8051;stroke-width:4;stroke-linejoin:round;stroke-miterlimit:10;}
	.st5{fill:none;stroke:#7D8051;stroke-width:3;stroke-linejoin:round;stroke-miterlimit:10;}
</style>
<g>
	<path class="st0" d="M57.7,103.4c0,0-2.7,1-3.4,6.8c-0.7,5.8-0.7,17.9,1.7,20.6c2.4,2.7,9.9,11.9,38.6,14.9c28.7,3,50.1-3,56.8-7.6
		c6.7-4.6,7.1-6.9,7.2-12.3c0.1-5.4,0-10.1,0-12.8c0-2.8,0.1-5.4-3-8.2C152.5,101.9,57.7,103.4,57.7,103.4z"/>
	<path class="st1" d="M61.7,95.8c0,0-3.3,1.3-4.1,8.4c-0.8,7.1,16.1,10.1,20.3,10.7s30.1,6.5,58.6,0c15.9-3.6,18.8-6.6,18.9-8
		c0.1-1.5,1.3-7.4-4-10.5S61.7,95.8,61.7,95.8z"/>
	<path class="st1" d="M61.7,95.8c0,0-0.6,0.4,0.3,2.1c0.9,1.8,8.6,8.8,46.5,8.8c28.5,0,39.2-3.9,42.3-7.2c1-1.1,0.6-2.4,0.5-3.2
		C150.9,93.3,61.7,95.8,61.7,95.8z"/>
	<path class="st1" d="M107.6,104.2c20.7,0.1,43.7-2.3,43.8-7.8c0.1-5.5-24.1-8.7-42.8-8.9C90,87.3,63.7,89,62.1,94.9
		C60.5,100.8,90.5,104.1,107.6,104.2z"/>
	<g>
		<path class="st2" d="M61.6,69.5c0,0-9.1,5.6-24.6,9.8S10.4,88.6,8.5,91.4c-1.1,1.7-0.9,3.9,2.3,4.3s11.8-1.9,28.1-9
			s25.4-9.7,26.2-10S61.6,69.5,61.6,69.5z"/>
		<path class="st3" d="M11.7,97.3c-0.4,0-0.7,0-1-0.1c-2.5-0.3-3.5-1.5-3.9-2.5c-0.6-1.3-0.4-2.8,0.5-4.2c2.6-4,16.7-9.3,29.4-12.8
			C51.7,73.7,62,66.4,62,66.4c0.7-0.4,0.4,1.6,0.9,2.3c4.3,7.1,4,8,3.8,8.6c-0.2,0.5-0.5,0.8-1,1l1.9,0.2c-6.9,2.1-18.3,5.6-28,9.8
			C25.5,94.3,16.2,97.3,11.7,97.3z M61.1,71.5c-3.1,1.7-11.3,5.9-23.6,9.2c-16.9,4.6-26.4,9.5-27.7,11.6c-0.3,0.5-0.4,1-0.3,1.3
			c0.2,0.3,0.8,0.6,1.6,0.7c1.6,0.2,7.4-0.2,27.3-8.9c9.3-4,18.2-7.4,25.1-9.6C63,74.8,62,73.1,61.1,71.5z"/>
	</g>
	<path class="st1" d="M70.2,67.3c0,0-1.9-2.5-5-1.6c-3.1,0.9-5.2,3.8-4.2,8c1,4.2,5.2,5.1,7.4,4.5s4.9-2.4,4-5.7
		S70.2,67.3,70.2,67.3z"/>
	<path class="st1" d="M85.2,53.8c0,0-4.7,4-7.7,7.6c-2.9,3.5-10.9,6.3-10.9,6.3s-2.3,2-1,5.2c1.3,3.2,3.8,2.9,4.5,2.6
		c0.7-0.2,6.2-2.7,9.4-2.6c3.2,0.1,7.5,1.4,9,1.1c1.5-0.3-2.3-10.1-2.3-10.1L85.2,53.8z"/>
	<path class="st4" d="M123.8,27c-4.8-9.4-18.3-8.6-21.6-8.3C99,19.1,85.8,19.9,81.9,31c-2,5.6,3.3,9.7,3.3,9.7l0.6-0.1
		c0.1,0.2,0.2,0.4,0.2,0.4l34.3-1.2c0,0,0.8-0.9,1.1-3.7l0.4,0C122.7,35,126.5,32.3,123.8,27z"/>
	<path class="st4" d="M125.7,44.5c0.3-1,0.8-3-0.7-5.6c-1.7-3.1-7.7-5.7-19.6-5.2c-12,0.5-18.6,5.2-21.8,9.2c-2.5,3.2-0.5,6.7,0.5,8
		L85.2,68l0.6,1.4l42.4-4.9L125.7,44.5z"/>
	<path class="st4" d="M91.4,77.5c0,0-3.7-1.3-5.7-2.7c-2-1.4-1.7-3.2-1.4-4.7c0.2-1.5,1.8-3,3.5-3.9s7.8-3.9,20.8-5.2
		s19.5,1.6,20.3,4c0.8,2.4,0.6,4.4-1.8,6.3c-2.4,1.9-11.3,4.9-11.3,4.9L91.4,77.5z"/>
	<path class="st0" d="M88.5,80c0,0,0.2-2.3,4.3-3.6c4.2-1.3,12.5-3.3,18.2-3.5c5.7-0.2,12.8,0.7,14.1,1.3s1.6,1.7,1.6,1.7l-19.3,3
		L88.5,80z"/>
	<path class="st4" d="M129.2,77.5c-2.6-3.6-14.2-4-21.9-3c-7.6,1-12.4,2.4-16.9,4.4c-4.5,2-5.3,4.5-5.3,6.4s0.8,2.6,1.5,3.4
		c0.7,0.8,1.5,1.4,2.2,1.7l0,0c5.7,3.6,10.3,4.3,19.2,4.2c8.9-0.1,19.2-5.1,21.2-8.2C130.5,84.4,131.8,81.1,129.2,77.5z"/>
	<path class="st5" d="M88.8,88.7c0,0,4.8-3.6,16.4-5.2s23.4,0,22.5,2.7"/>
	<path class="st0" d="M66.2,66.8c0,0,7.4-2.9,11.5-7c4.1-4.2,6.1-7.6,6.1-7.6"/>
	<g>
		<path class="st2" d="M72.6,74.6c0,0,7.3-3.6,11.3-1.7"/>
		<path class="st3" d="M73.1,75.7l-1.6-2.2c0.9-0.4,8.5-5.2,13.4-2.8l-2.2,4.5C80.8,74.2,75.6,74.4,73.1,75.7z"/>
	</g>
</g>
</svg>
