<?xml version="1.0" encoding="utf-8"?>
<!-- Generator: Adobe Illustrator 21.0.0, SVG Export Plug-In . SVG Version: 6.00 Build 0)  -->
<svg version="1.1" id="Layer_1" xmlns="http://www.w3.org/2000/svg" xmlns:xlink="http://www.w3.org/1999/xlink" x="0px" y="0px"
	 viewBox="0 0 230 230" style="enable-background:new 0 0 230 230;" xml:space="preserve">
<style type="text/css">
	.st0{fill:#FFFFFF;stroke:#7D8051;stroke-width:5;stroke-linecap:round;stroke-linejoin:round;stroke-miterlimit:10;}
	.st1{fill:#B6B98E;stroke:#7D8051;stroke-width:2;stroke-linecap:round;stroke-linejoin:round;stroke-miterlimit:10;}
	.st2{fill:#FFFFFF;}
	.st3{fill:#7D8051;}
	.st4{fill:none;stroke:#7D8051;stroke-width:8;stroke-linecap:round;stroke-linejoin:round;stroke-miterlimit:10;}
	.st5{fill:none;stroke:#FFFFFF;stroke-width:3;stroke-linecap:round;stroke-linejoin:round;stroke-miterlimit:10;}
</style>
<g>
	<path class="st0" d="M168.2,161.1H61.8c-3.9,0-7-3.1-7-7V76.5c0-3.9,3.1-7,7-7h106.4c3.9,0,7,3.1,7,7v77.6
		C175.2,158,172.1,161.1,168.2,161.1z"/>
	<path class="st0" d="M127.4,152v5.7h-24.8V152H45.2v11.6c0,3.1,2.6,5.7,5.7,5.7h128.3c3.1,0,5.7-2.6,5.7-5.7V152H127.4z"/>
	<rect x="65.6" y="79.5" class="st1" width="98.8" height="62.5"/>
	<g>
		<g>
			<path class="st2" d="M144.1,135.2c-7.5,0-13.6-6.1-13.6-13.6c0-7.5,6.1-13.6,13.6-13.6s13.6,6.1,13.6,13.6
				C157.7,129.1,151.6,135.2,144.1,135.2z"/>
			<path class="st3" d="M144.1,109.5c6.7,0,12.1,5.4,12.1,12.1c0,6.7-5.4,12.1-12.1,12.1c-6.7,0-12.1-5.4-12.1-12.1
				C132,114.9,137.4,109.5,144.1,109.5 M144.1,106.5c-8.3,0-15.1,6.8-15.1,15.1s6.8,15.1,15.1,15.1s15.1-6.8,15.1-15.1
				S152.4,106.5,144.1,106.5L144.1,106.5z"/>
		</g>
		<g>
			<path class="st3" d="M146.2,118.3c0-0.3,0.1-0.5,0.4-0.8c-0.2-0.5-0.7-0.8-1.4-0.9v3.8l0.2,0.1c0.4,0.1,0.8,0.2,1.2,0.3
				c0.4,0.1,0.7,0.2,0.9,0.3c0.2,0.1,0.4,0.2,0.6,0.4s0.4,0.4,0.6,0.6c0.4,0.6,0.7,1.2,0.7,2c0,0.7-0.2,1.4-0.6,2s-0.9,1.1-1.6,1.4
				c-0.3,0.1-0.5,0.3-0.9,0.4c-0.3,0.1-0.7,0.2-1.1,0.3v1.4c0,0.5-0.3,0.8-0.9,0.8c-0.6,0-0.9-0.3-0.9-0.8v-1.4
				c-1.4-0.1-2.5-0.5-3.3-1.1s-1.2-1.5-1.2-2.5c0-0.6,0.2-1.1,0.5-1.4c0.3-0.4,0.7-0.5,1.2-0.5c0.4,0,0.7,0.1,0.9,0.4
				c0.3,0.2,0.4,0.5,0.4,0.9c0,0.3-0.1,0.6-0.2,0.7c-0.1,0.2-0.4,0.3-0.7,0.4c0.1,0.4,0.4,0.8,0.8,1c0.4,0.3,0.9,0.4,1.6,0.5v-4.3
				c-0.6-0.2-1-0.3-1.4-0.4c-0.4-0.1-0.6-0.2-0.8-0.3c-0.2-0.1-0.5-0.2-0.7-0.4c-0.2-0.2-0.4-0.4-0.5-0.5c-0.3-0.5-0.5-1.1-0.5-1.7
				c0-0.4,0.1-0.7,0.2-1c0.1-0.3,0.3-0.7,0.4-0.9c0.2-0.3,0.4-0.6,0.7-0.8s0.6-0.4,0.9-0.6c0.2-0.1,0.5-0.2,0.8-0.3
				c0.3-0.1,0.6-0.2,0.9-0.2v-1.3c0-0.6,0.3-0.9,0.9-0.9c0.6,0,0.9,0.3,0.9,0.9v1.3c1.1,0.2,2,0.5,2.7,1.1c0.7,0.5,1,1.2,1,2
				c0,0.4-0.1,0.8-0.4,1c-0.3,0.3-0.6,0.4-1,0.4s-0.7-0.1-0.9-0.3C146.3,118.9,146.2,118.6,146.2,118.3z M141.6,118.5
				c0,0.4,0.1,0.8,0.4,1s0.7,0.4,1.4,0.6v-3.4c-0.6,0.1-1,0.3-1.3,0.6C141.7,117.6,141.6,118,141.6,118.5z M143.3,120.1
				C143.4,120.1,143.4,120.1,143.3,120.1c0.1,0,0.2,0,0.2,0.1h0.1l-0.4,0.3L143.3,120.1L143.3,120.1z M145.1,122.5L145.1,122.5
				c-0.1,0-0.2,0-0.4-0.1l0.4-0.3V122.5z M147.1,124.4c0-0.5-0.2-1-0.5-1.2c-0.3-0.3-0.8-0.5-1.6-0.6v4c0.3,0,0.5-0.1,0.7-0.2
				s0.4-0.2,0.6-0.4C146.9,125.5,147.1,125,147.1,124.4z"/>
		</g>
	</g>
	<polyline class="st4" points="73.1,134.6 88.9,105.5 102.5,126.6 109.1,101.9 121.1,112.3 129.5,83.5 138.7,93 151.4,70.6 
		175.1,60.6 	"/>
	<polyline class="st5" points="73.1,134.6 88.9,105.5 102.5,126.6 109.1,101.9 121.1,112.3 129.5,83.5 138.7,93 151.4,70.6 
		175.1,60.6 	"/>
</g>
</svg>
