<?xml version="1.0" encoding="utf-8"?>
<!-- Generator: Adobe Illustrator 21.0.0, SVG Export Plug-In . SVG Version: 6.00 Build 0)  -->
<svg version="1.1" id="Layer_1" xmlns="http://www.w3.org/2000/svg" xmlns:xlink="http://www.w3.org/1999/xlink" x="0px" y="0px"
	 viewBox="0 0 230 230" style="enable-background:new 0 0 230 230;" xml:space="preserve">
<style type="text/css">
	.st0{fill:#FFFFFF;stroke:#7D8051;stroke-width:4;stroke-linejoin:round;stroke-miterlimit:10;}
	.st1{fill:#7D8051;}
	.st2{fill:#FFFFFF;stroke:#7D8051;stroke-width:5;stroke-linejoin:round;stroke-miterlimit:10;}
</style>
<g>
	<path class="st0" d="M107.5,31.4H33.1c-6.7,0-12.1,5.4-12.1,12.1v39.7c0,6.7,5.4,12.1,12.1,12.1H45l14.6,14.6L63,95.3h44.5
		c6.7,0,12.1-5.4,12.1-12.1V43.5C119.6,36.8,114.2,31.4,107.5,31.4z"/>
	<g>
		<path class="st1" d="M72.9,70.9c0,0.7,0,1.3,0,1.7c0,0.4,0,0.7,0,0.9c0.1,0.9,0.2,1.4,0.4,1.4c0,0,0,0,0.2,0
			c0.2,0,0.4-0.1,0.7-0.1l0,0c0.1,0,0.2-0.1,0.4-0.1c0.1,0,0.3,0,0.5,0c1.6,0,2.5,0.7,2.5,2.1c0,0.6-0.3,1.2-0.8,1.6
			c-0.5,0.4-1.2,0.6-2,0.6c-0.3,0-0.6,0-0.9,0c-0.4,0-0.8-0.1-1.3-0.1c-0.5-0.1-0.9-0.1-1.2-0.2c-0.3,0-0.6-0.1-0.9-0.1
			c-0.3,0-0.7,0-1.2,0c-0.4,0-0.9,0.1-1.4,0.1c-0.6,0.1-1.1,0.1-1.4,0.2c-0.4,0-0.7,0.1-1,0.1c-1.7,0-2.6-0.7-2.6-2.2
			c0-1.4,0.8-2.1,2.3-2.1c0.1,0,0.2,0,0.5,0c0.3,0,0.5,0.1,0.7,0.1c0.2,0.1,0.4,0.1,0.5,0.1s0.2,0,0.3,0c0.3,0,0.4-0.8,0.5-2.3V61.2
			c-0.1-1.5-0.3-2.2-0.6-2.2c-0.1,0-0.2,0-0.3,0c-0.2,0-0.3,0.1-0.6,0.1c-0.2,0.1-0.3,0.1-0.5,0.1s-0.4,0-0.5,0
			c-1.6,0-2.4-0.7-2.4-2.1c0-1.4,0.9-2.1,2.8-2.1c0.3,0,0.6,0,0.9,0c0.2,0,0.4,0,0.5,0c0.4,0.1,0.8,0.1,1.1,0.1c0.3,0,0.5,0,0.6,0
			c0.1,0,0.2,0,0.4,0c0.2,0,0.4,0,0.6-0.1l1.2-0.1c1.4,0,2,0.8,2,2.4V58c0,0.1,0,0.2,0,0.3s0,0.1,0,0.2c0,0.1,0,0.5,0,1.3
			c0,0.2,0,0.5,0,0.7s0,0.5,0,0.7c0,0.6,0,1.3,0,1.9c0,0.6,0,1.2,0,1.9V70.9z M69.7,53.9c-0.9,0-1.7-0.3-2.3-0.9
			c-0.6-0.6-0.9-1.3-0.9-2.2s0.3-1.6,0.9-2.2c0.6-0.6,1.4-0.9,2.3-0.9c0.9,0,1.7,0.3,2.4,0.9c0.6,0.6,1,1.3,1,2.2s-0.3,1.6-1,2.2
			C71.4,53.6,70.7,53.9,69.7,53.9z"/>
	</g>
	<path class="st2" d="M193,91.5H98.5c-8.9,0-16.1,7.2-16.1,16.1V160c0,8.9,7.2,16.1,16.1,16.1h25.9l21.4,21.4l21.4-21.4H193
		c8.9,0,16.1-7.2,16.1-16.1v-52.3C209.1,98.8,201.9,91.5,193,91.5z"/>
	<g>
		<path class="st1" d="M133.2,121c0.4-0.4,1-0.8,1.5-1.1c0.6-0.3,1.3-0.5,2-0.5c3.3,0,4.9,1.5,4.9,4.6c0,1.9-0.7,3.4-2.2,4.7
			c-1.5,1.2-3.3,1.9-5.5,1.9c-2.8,0-5.1-0.9-6.8-2.7c-1.7-1.8-2.6-4.1-2.6-6.9c0-4.6,2.1-8.6,6.2-11.9c4-3,9.2-4.6,15.5-4.6
			c6.2,0,11.2,1.5,14.9,4.4c4,3,6,6.9,6,11.8c0,6.1-3,10.8-9.1,13.8c-0.5,0.2-1.1,0.5-1.7,0.7c-0.6,0.3-1.3,0.6-2.1,0.9
			c-2.8,1.2-4.7,2.3-5.8,3.4c-1,1.1-1.5,2.5-1.5,4.3c0,1.5-0.2,2.7-0.6,3.5c-0.3,0.7-0.7,1.1-1.4,1.4c-0.7,0.3-1.4,0.4-2.3,0.4
			c-3.1,0-4.6-1.7-4.6-5.2c0-2.8,0.7-5.2,2.2-7.2c1.7-2.3,4.8-4.6,9.2-7c3.6-2,5.9-3.6,7-4.8c0.9-1,1.4-2.5,1.4-4.4
			c0-2.7-1.1-4.8-3.2-6.3c-2.1-1.5-5-2.3-8.5-2.3c-3.6,0-6.7,0.9-9.3,2.7c-2.3,1.6-3.5,3.6-3.5,5.9L133.2,121L133.2,121z M143.3,163
			c-1.8,0-3.3-0.6-4.5-1.7c-1.2-1.2-1.9-2.6-1.9-4.4c0-1.7,0.6-3.2,1.9-4.4c1.2-1.2,2.7-1.8,4.5-1.8s3.3,0.6,4.5,1.8
			s1.8,2.6,1.8,4.4c0,1.8-0.6,3.2-1.8,4.4C146.5,162.4,145.1,163,143.3,163z"/>
	</g>
</g>
</svg>
