<?xml version="1.0" encoding="utf-8"?>
<!-- Generator: Adobe Illustrator 21.0.0, SVG Export Plug-In . SVG Version: 6.00 Build 0)  -->
<svg version="1.1" id="Layer_1" xmlns="http://www.w3.org/2000/svg" xmlns:xlink="http://www.w3.org/1999/xlink" x="0px" y="0px"
	 viewBox="0 0 165 165" style="enable-background:new 0 0 165 165;" xml:space="preserve">
<style type="text/css">
	.st0{fill:#B6B98E;}
	.st1{fill:#7D8051;}
	.st2{fill:#FFFFFF;stroke:#7D8051;stroke-width:4;stroke-linejoin:round;stroke-miterlimit:10;}
	.st3{fill:#FFFFFF;stroke:#7D8051;stroke-width:5;stroke-linejoin:round;stroke-miterlimit:10;}
</style>
<g>
	<g>
		<path class="st0" d="M82.5,163.6c-1.5,0-3,0-4.7-0.1c-0.1,0-0.8-0.1-0.8-0.1c-0.1,0-0.3,0-0.4,0l-0.3,0c-1.1-0.1-2.2-0.2-3.2-0.3
			l-1.3-0.2c-0.2,0-0.3,0-0.4,0l-0.1,0c-0.1,0-0.1,0-0.2,0l-0.4-0.1c-0.3,0-0.5-0.1-0.8-0.1l-1.8-0.3v-0.1l-0.8-0.2
			c-1.4-0.3-2.8-0.6-4.1-0.9c-0.1,0-0.1,0-0.2,0c-0.1,0-0.2,0-0.2-0.1c-3-0.7-6-1.7-8.9-2.8l-0.9-0.4c-1.1-0.4-2.2-0.9-3.2-1.3
			l-0.6-0.3c-0.2-0.1-0.5-0.2-0.8-0.3c-0.9-0.4-1.8-0.9-2.7-1.3c-0.5-0.2-1-0.5-1.5-0.8c-0.8-0.5-1.6-0.9-2.5-1.4
			c-1.2-0.7-2.3-1.4-3.4-2.1l-0.2-0.1c-0.4-0.2-0.8-0.5-1.2-0.8c-0.7-0.4-1.3-0.9-2-1.4l-0.4-0.3l-1-0.8c-0.8-0.6-1.6-1.2-2.5-1.9
			c-0.2-0.2-0.5-0.4-0.7-0.6c-3.7-3-7.1-6.5-10.3-10.3c-0.2-0.2-0.4-0.5-0.6-0.7c-0.7-0.8-1.3-1.7-2-2.5c-0.2-0.3-0.4-0.6-0.6-0.9
			l-0.2-0.2c-0.5-0.6-0.9-1.2-1.3-1.8l-0.7-1l0-0.1C6,114,1.4,98.5,1.4,82.5c0-44.7,36.4-81.1,81.1-81.1c44.7,0,81.1,36.4,81.1,81.1
			c0,16-4.7,31.4-13.5,44.8l-0.1,0.2l-0.6,0.8c-0.3,0.5-0.7,1-1.1,1.5l-0.5,0.6c-0.2,0.3-0.4,0.6-0.6,0.8c-0.7,0.9-1.4,1.8-2,2.5
			l-0.6,0.7c-3.1,3.7-6.5,7.2-10.3,10.3l-0.7,0.6c-0.7,0.6-1.5,1.2-2.3,1.8l-0.2,0.1l-0.4,0.3c-0.2,0.2-0.4,0.3-0.7,0.5
			c-0.8,0.6-1.6,1.2-2.4,1.7c-0.3,0.2-0.5,0.3-0.8,0.5c-0.2,0.1-0.4,0.2-0.5,0.3c-1.3,0.9-2.4,1.5-3.4,2.1l-0.3,0.2
			c-0.7,0.4-1.4,0.8-2.1,1.2c-0.3,0.1-0.6,0.3-0.9,0.4l-0.6,0.3c-1,0.5-1.8,0.9-2.7,1.3l-0.2,0.1c-0.4,0.2-0.8,0.4-1.2,0.5
			c-1,0.5-2,0.9-3.1,1.3l-1,0.4c-3,1.1-6,2.1-9,2.8l-0.4,0.1c-1.6,0.4-2.8,0.7-4.1,0.9c-0.2,0-0.4,0.1-0.7,0.1l0,0l-0.5,0.1
			l-1.5,0.2c-0.1,0-0.3,0-0.5,0.1c-0.1,0-0.3,0-0.4,0.1l-0.3,0l-0.1,0l-0.3,0c-0.1,0-0.2,0-0.3,0l-1.3,0.2c-0.9,0.1-1.9,0.2-2.8,0.3
			l-0.7,0.1c-0.1,0-0.3,0-0.4,0l-0.8,0.1C85.5,163.6,84,163.6,82.5,163.6z"/>
		<g>
			<path class="st1" d="M82.5,1.9c44.5,0,80.6,36.2,80.6,80.6c0,16.5-5,31.9-13.5,44.7l0,0.1l-0.6,0.8c-0.5,0.7-1,1.4-1.5,2.1
				c-0.2,0.3-0.4,0.6-0.6,0.8c-0.6,0.9-1.3,1.7-2,2.5c-0.2,0.2-0.4,0.5-0.6,0.7c-3.1,3.7-6.5,7.1-10.2,10.2
				c-0.2,0.2-0.4,0.4-0.7,0.6c-0.8,0.7-1.6,1.3-2.4,1.9c-0.3,0.2-0.7,0.5-1,0.7c-0.8,0.6-1.6,1.2-2.4,1.7c-0.4,0.3-0.9,0.6-1.3,0.9
				c-1.1,0.7-2.2,1.4-3.4,2.1c-0.8,0.5-1.6,0.9-2.4,1.4c-0.5,0.3-1,0.5-1.5,0.8c-0.9,0.4-1.7,0.9-2.6,1.3c-0.4,0.2-0.9,0.4-1.4,0.6
				c-1,0.5-2.1,0.9-3.1,1.3c-0.3,0.1-0.6,0.3-1,0.4c-2.9,1.1-5.9,2-8.9,2.8c-0.1,0-0.2,0.1-0.4,0.1c-1.3,0.3-2.7,0.6-4.1,0.9
				c-0.4,0.1-0.7,0.1-1.1,0.2c0,0-0.1,0-0.1,0l0,0.1l-1.5,0.2c-0.3,0.1-0.6,0.1-0.9,0.1l-0.3,0c-0.1,0-0.1,0-0.2,0
				c-0.2,0-0.4,0-0.5,0.1c-0.4,0.1-0.9,0.1-1.3,0.2c-1.1,0.1-2.1,0.2-3.2,0.3c-0.2,0-0.5,0-0.7,0.1c-0.3,0-0.5,0-0.8,0.1
				c-1.5,0.1-3.1,0.1-4.6,0.1s-3.1-0.1-4.6-0.1c-0.3,0-0.5,0-0.8-0.1c-0.2,0-0.5,0-0.7-0.1c-1.1-0.1-2.2-0.2-3.2-0.3
				c-0.4-0.1-0.9-0.1-1.3-0.2c-0.1,0-0.3,0-0.4-0.1c-0.1,0-0.1,0-0.2,0l-0.3,0c-0.3,0-0.7-0.1-1-0.1l-1.4-0.2v-0.1
				c-0.1,0-0.1,0-0.2,0c-0.4-0.1-0.7-0.1-1.1-0.2c-1.4-0.3-2.7-0.6-4.1-0.9c-0.1,0-0.2-0.1-0.4-0.1c-3-0.8-6-1.7-8.9-2.8
				c-0.3-0.1-0.7-0.3-1-0.4c-1-0.4-2.1-0.8-3.1-1.3c-0.4-0.2-0.9-0.4-1.4-0.6c-0.9-0.4-1.8-0.9-2.6-1.3c-0.5-0.2-1-0.5-1.5-0.8
				c-0.8-0.4-1.6-0.9-2.4-1.4c-1.1-0.7-2.3-1.4-3.4-2.1c-0.4-0.3-0.9-0.6-1.3-0.9c-0.8-0.5-1.6-1.1-2.4-1.7c-0.3-0.2-0.7-0.5-1-0.7
				c-0.8-0.6-1.6-1.3-2.4-1.9c-0.2-0.2-0.4-0.4-0.7-0.6c-3.7-3.1-7.1-6.5-10.2-10.2c-0.2-0.2-0.4-0.5-0.6-0.7
				c-0.7-0.8-1.3-1.7-2-2.5c-0.2-0.3-0.4-0.6-0.6-0.8c-0.5-0.7-1-1.4-1.5-2.1l-0.6-0.8l0-0.1C6.9,114.4,1.9,99,1.9,82.5
				C1.9,38,38,1.9,82.5,1.9 M82.5,0.9c-45,0-81.6,36.6-81.6,81.6c0,16,4.7,31.5,13.5,44.9l0,0.1l0.2,0.4l0.6,0.8
				c0.4,0.6,0.9,1.3,1.4,1.9l0.2,0.2c0.2,0.3,0.4,0.6,0.6,0.8c0.6,0.8,1.2,1.6,2,2.5c0.2,0.2,0.4,0.5,0.6,0.7
				c3.1,3.7,6.6,7.2,10.3,10.3c0.2,0.2,0.4,0.4,0.7,0.6c0.9,0.7,1.7,1.3,2.5,1.9l0.5,0.4l0.5,0.4l0.4,0.3c0.6,0.5,1.3,0.9,2,1.4
				c0.4,0.3,0.8,0.5,1.1,0.8l0.2,0.1c1.1,0.7,2.2,1.4,3.4,2.1c0.9,0.5,1.8,1,2.5,1.4c0.5,0.3,1,0.5,1.5,0.8c0.9,0.4,1.8,0.9,2.7,1.3
				c0.3,0.1,0.6,0.2,0.8,0.4c0.2,0.1,0.4,0.2,0.6,0.3c1.1,0.5,2.1,0.9,3.2,1.3l1,0.4c2.9,1.1,6,2.1,9,2.8c0.1,0,0.2,0,0.2,0.1
				c0,0,0.1,0,0.1,0l0,0l0.1,0c1.3,0.3,2.6,0.6,4.1,0.9l0.4,0.1c0,0,0.1,0,0.1,0v0.1l0.9,0.1l1.4,0.2c0.2,0,0.5,0.1,0.8,0.1l0.2,0
				l0.2,0c0,0,0.1,0,0.1,0l0,0l0.1,0c0.1,0,0.2,0,0.3,0l0,0l0,0c0.2,0,0.4,0.1,0.7,0.1c0.2,0,0.4,0.1,0.7,0.1
				c1.2,0.1,2.2,0.2,3.3,0.3c0.1,0,0.2,0,0.3,0c0.1,0,0.3,0,0.4,0c0.1,0,0.2,0,0.3,0c0.1,0,0.3,0,0.4,0c1.7,0.1,3.2,0.1,4.7,0.1
				c1.5,0,3,0,4.7-0.1c0.1,0,0.3,0,0.4,0c0.1,0,0.3,0,0.4,0c0.1,0,0.3,0,0.4,0c0.1,0,0.2,0,0.3,0l0.5,0c0.9-0.1,1.9-0.2,2.8-0.3
				c0.2,0,0.4-0.1,0.7-0.1c0.2,0,0.4-0.1,0.7-0.1c0.1,0,0.2,0,0.3,0l0.2,0l0,0l0,0l0.1,0l0.3,0c0.2,0,0.3,0,0.4-0.1
				c0.2,0,0.3,0,0.5-0.1l1.5-0.2l1.1-0.1l0-0.1c0.1,0,0.1,0,0.2,0c1.2-0.2,2.5-0.5,4.1-0.9l0.2,0l0.2,0c3-0.8,6.1-1.7,9-2.8l0.4-0.2
				l0.5-0.2l0.1,0c1-0.4,2.1-0.8,3.1-1.3c0.4-0.2,0.8-0.4,1.2-0.5l0.2-0.1c0.8-0.4,1.7-0.8,2.7-1.3c0.2-0.1,0.4-0.2,0.6-0.3
				c0.3-0.2,0.6-0.3,0.9-0.5c0.7-0.4,1.4-0.8,2.1-1.2l0.3-0.2c1-0.6,2.1-1.3,3.4-2.1c0.2-0.1,0.4-0.2,0.5-0.3
				c0.3-0.2,0.5-0.3,0.8-0.5c0.8-0.5,1.6-1.1,2.4-1.7c0.2-0.1,0.5-0.3,0.7-0.5l0.3-0.2l0.2-0.2c0.7-0.6,1.5-1.2,2.3-1.8
				c0.1-0.1,0.2-0.2,0.4-0.3c0.1-0.1,0.2-0.2,0.3-0.3c3.7-3.1,7.2-6.6,10.3-10.3l0.3-0.3l0.3-0.4c0.6-0.7,1.3-1.6,2-2.6
				c0.2-0.3,0.4-0.6,0.6-0.9c0.1-0.2,0.3-0.4,0.4-0.6c0.4-0.5,0.7-1,1.1-1.5l0.6-0.8l0.3-0.4l0-0.1c8.8-13.4,13.5-28.9,13.5-44.9
				C164.1,37.5,127.5,0.9,82.5,0.9L82.5,0.9z"/>
		</g>
	</g>
	<path class="st2" d="M79.8,40.5H35.5c-4,0-7.2,3.2-7.2,7.2v23.6c0,4,3.2,7.2,7.2,7.2h7.1l8.7,8.7l2.1-8.7h26.5c4,0,7.2-3.2,7.2-7.2
		V47.7C87,43.8,83.8,40.5,79.8,40.5z"/>
	<g>
		<path class="st1" d="M59.2,64.1c0,0.4,0,0.8,0,1s0,0.4,0,0.5c0.1,0.6,0.1,0.8,0.3,0.8c0,0,0,0,0.1,0c0.1,0,0.3,0,0.4-0.1l0,0
			c0.1,0,0.1,0,0.2-0.1c0.1,0,0.2,0,0.3,0c1,0,1.5,0.4,1.5,1.2c0,0.4-0.2,0.7-0.5,0.9c-0.3,0.2-0.7,0.4-1.2,0.4c-0.2,0-0.3,0-0.6,0
			c-0.2,0-0.5,0-0.8-0.1c-0.3,0-0.5-0.1-0.7-0.1s-0.4,0-0.5,0c-0.2,0-0.4,0-0.7,0c-0.3,0-0.5,0-0.8,0.1c-0.3,0-0.6,0.1-0.9,0.1
			c-0.2,0-0.4,0-0.6,0c-1,0-1.5-0.4-1.5-1.3c0-0.8,0.5-1.2,1.4-1.2c0,0,0.1,0,0.3,0c0.2,0,0.3,0,0.4,0.1c0.1,0,0.2,0.1,0.3,0.1
			c0.1,0,0.1,0,0.2,0c0.2,0,0.3-0.5,0.3-1.4v-6.8C56.2,57.4,56,57,55.9,57c0,0-0.1,0-0.2,0c-0.1,0-0.2,0-0.3,0.1
			c-0.1,0-0.2,0.1-0.3,0.1c-0.1,0-0.2,0-0.3,0c-1,0-1.4-0.4-1.4-1.2c0-0.8,0.5-1.3,1.6-1.3c0.2,0,0.4,0,0.5,0c0.1,0,0.2,0,0.3,0
			c0.3,0,0.5,0.1,0.7,0.1s0.3,0,0.4,0c0,0,0.1,0,0.2,0c0.1,0,0.2,0,0.4,0l0.7-0.1c0.8,0,1.2,0.5,1.2,1.4v0.4c0,0.1,0,0.1,0,0.2
			s0,0.1,0,0.1c0,0.1,0,0.3,0,0.8c0,0.1,0,0.3,0,0.4c0,0.1,0,0.3,0,0.4c0,0.4,0,0.7,0,1.1c0,0.4,0,0.7,0,1.1V64.1z M57.3,54
			c-0.5,0-1-0.2-1.4-0.5c-0.4-0.4-0.6-0.8-0.6-1.3c0-0.5,0.2-1,0.6-1.3c0.4-0.3,0.8-0.5,1.4-0.5c0.5,0,1,0.2,1.4,0.5
			c0.4,0.3,0.6,0.8,0.6,1.3c0,0.5-0.2,1-0.6,1.3C58.3,53.8,57.8,54,57.3,54z"/>
	</g>
	<path class="st3" d="M130.7,76.4H74.4c-5.3,0-9.6,4.3-9.6,9.6v31.2c0,5.3,4.3,9.6,9.6,9.6h15.4l12.7,12.7l12.7-12.7h15.4
		c5.3,0,9.6-4.3,9.6-9.6V86C140.3,80.7,136,76.4,130.7,76.4z"/>
	<g>
		<path class="st1" d="M95,93.9c0.3-0.3,0.6-0.5,0.9-0.7s0.7-0.3,1.2-0.3c1.9,0,2.9,0.9,2.9,2.8c0,1.1-0.4,2-1.3,2.8
			c-0.9,0.7-2,1.1-3.3,1.1c-1.7,0-3-0.5-4.1-1.6c-1-1.1-1.6-2.4-1.6-4.1c0-2.8,1.2-5.1,3.7-7.1c2.4-1.8,5.5-2.7,9.2-2.7
			c3.7,0,6.6,0.9,8.9,2.6c2.4,1.8,3.6,4.1,3.6,7c0,3.7-1.8,6.4-5.4,8.2c-0.3,0.1-0.6,0.3-1,0.4c-0.4,0.2-0.8,0.3-1.3,0.5
			c-1.7,0.7-2.8,1.4-3.4,2c-0.6,0.6-0.9,1.5-0.9,2.5c0,0.9-0.1,1.6-0.3,2.1c-0.2,0.4-0.4,0.7-0.8,0.8c-0.4,0.2-0.9,0.2-1.4,0.2
			c-1.8,0-2.8-1-2.8-3.1c0-1.7,0.4-3.1,1.3-4.3c1-1.3,2.8-2.7,5.5-4.2c2.1-1.2,3.5-2.1,4.1-2.9c0.6-0.6,0.8-1.5,0.8-2.6
			c0-1.6-0.6-2.8-1.9-3.7c-1.3-0.9-3-1.4-5.1-1.4c-2.2,0-4,0.5-5.5,1.6c-1.4,1-2.1,2.1-2.1,3.5V93.9z M101.1,118.9
			c-1.1,0-1.9-0.3-2.7-1c-0.7-0.7-1.1-1.6-1.1-2.6c0-1,0.4-1.9,1.1-2.6c0.7-0.7,1.6-1.1,2.7-1.1s1.9,0.4,2.7,1.1
			c0.7,0.7,1.1,1.6,1.1,2.6c0,1.1-0.4,1.9-1.1,2.6C103,118.6,102.1,118.9,101.1,118.9z"/>
	</g>
</g>
</svg>
