<?xml version="1.0" encoding="utf-8"?>
<!-- Generator: Adobe Illustrator 21.0.0, SVG Export Plug-In . SVG Version: 6.00 Build 0)  -->
<svg version="1.1" id="Layer_1" xmlns="http://www.w3.org/2000/svg" xmlns:xlink="http://www.w3.org/1999/xlink" x="0px" y="0px"
	 viewBox="0 0 165 165" style="enable-background:new 0 0 165 165;" xml:space="preserve">
<style type="text/css">
	.st0{fill:#B6B98E;}
	.st1{fill:#7D8051;}
	.st2{fill:#FFFFFF;stroke:#7D8051;stroke-width:4;stroke-linejoin:round;stroke-miterlimit:10;}
	.st3{fill:#B6B98E;stroke:#7D8051;stroke-width:7;stroke-linejoin:round;stroke-miterlimit:10;}
	.st4{fill:#FFFFFF;stroke:#7D8051;stroke-width:7;stroke-linejoin:round;stroke-miterlimit:10;}
	.st5{fill:#FFFFFF;stroke:#7D8051;stroke-width:12;stroke-linecap:round;stroke-linejoin:round;stroke-miterlimit:10;}
	.st6{clip-path:url(#SVGID_2_);}
	.st7{fill:#FFFFFF;stroke:#7D8051;stroke-linejoin:round;stroke-miterlimit:10;}
</style>
<g>
	<g>
		<path class="st0" d="M82.5,163.6c-1.5,0-3,0-4.7-0.1c-0.1,0-0.8-0.1-0.8-0.1c-0.1,0-0.3,0-0.4,0l-0.3,0c-1.1-0.1-2.2-0.2-3.2-0.3
			l-1.3-0.2c-0.2,0-0.3,0-0.4,0l-0.1,0c-0.1,0-0.1,0-0.2,0l-0.4-0.1c-0.3,0-0.5-0.1-0.8-0.1l-1.8-0.3v-0.1l-0.8-0.2
			c-1.4-0.3-2.8-0.6-4.1-0.9c-0.1,0-0.1,0-0.2,0c-0.1,0-0.2,0-0.2-0.1c-3-0.7-6-1.7-8.9-2.8l-0.9-0.4c-1.1-0.4-2.2-0.9-3.2-1.3
			l-0.6-0.3c-0.2-0.1-0.5-0.2-0.8-0.3c-0.9-0.4-1.8-0.9-2.7-1.3c-0.5-0.2-1-0.5-1.5-0.8c-0.8-0.5-1.6-0.9-2.5-1.4
			c-1.2-0.7-2.3-1.4-3.4-2.1l-0.2-0.1c-0.4-0.2-0.8-0.5-1.2-0.8c-0.7-0.4-1.3-0.9-2-1.4l-0.4-0.3l-1-0.8c-0.8-0.6-1.6-1.2-2.5-1.9
			c-0.2-0.2-0.5-0.4-0.7-0.6c-3.7-3-7.1-6.5-10.3-10.3c-0.2-0.2-0.4-0.5-0.6-0.7c-0.7-0.8-1.3-1.7-2-2.5c-0.2-0.3-0.4-0.6-0.6-0.9
			l-0.2-0.2c-0.5-0.6-0.9-1.2-1.3-1.8l-0.7-1l0-0.1C6,114,1.4,98.5,1.4,82.5c0-44.7,36.4-81.1,81.1-81.1c44.7,0,81.1,36.4,81.1,81.1
			c0,16-4.7,31.4-13.5,44.8l-0.1,0.2l-0.6,0.8c-0.3,0.5-0.7,1-1.1,1.5l-0.5,0.6c-0.2,0.3-0.4,0.6-0.6,0.8c-0.7,0.9-1.4,1.8-2,2.5
			l-0.6,0.7c-3.1,3.7-6.5,7.2-10.3,10.3l-0.7,0.6c-0.7,0.6-1.5,1.2-2.3,1.8l-0.2,0.1l-0.4,0.3c-0.2,0.2-0.4,0.3-0.7,0.5
			c-0.8,0.6-1.6,1.2-2.4,1.7c-0.3,0.2-0.5,0.3-0.8,0.5c-0.2,0.1-0.4,0.2-0.5,0.3c-1.3,0.9-2.4,1.5-3.4,2.1l-0.3,0.2
			c-0.7,0.4-1.4,0.8-2.1,1.2c-0.3,0.1-0.6,0.3-0.9,0.4l-0.6,0.3c-1,0.5-1.8,0.9-2.7,1.3l-0.2,0.1c-0.4,0.2-0.8,0.4-1.2,0.5
			c-1,0.5-2,0.9-3.1,1.3l-1,0.4c-3,1.1-6,2.1-9,2.8l-0.4,0.1c-1.6,0.4-2.8,0.7-4.1,0.9c-0.2,0-0.4,0.1-0.7,0.1l0,0l-0.5,0.1
			l-1.5,0.2c-0.1,0-0.3,0-0.5,0.1c-0.1,0-0.3,0-0.4,0.1l-0.3,0l-0.1,0l-0.3,0c-0.1,0-0.2,0-0.3,0l-1.3,0.2c-0.9,0.1-1.9,0.2-2.8,0.3
			l-0.7,0.1c-0.1,0-0.3,0-0.4,0l-0.8,0.1C85.5,163.6,84,163.6,82.5,163.6z"/>
		<path class="st1" d="M82.5,1.9c44.5,0,80.6,36.2,80.6,80.6c0,16.5-5,31.9-13.5,44.7l0,0.1l-0.6,0.8c-0.5,0.7-1,1.4-1.5,2.1
			c-0.2,0.3-0.4,0.6-0.6,0.8c-0.6,0.9-1.3,1.7-2,2.5c-0.2,0.2-0.4,0.5-0.6,0.7c-3.1,3.7-6.5,7.1-10.2,10.2c-0.2,0.2-0.4,0.4-0.7,0.6
			c-0.8,0.7-1.6,1.3-2.4,1.9c-0.3,0.2-0.7,0.5-1,0.7c-0.8,0.6-1.6,1.2-2.4,1.7c-0.4,0.3-0.9,0.6-1.3,0.9c-1.1,0.7-2.2,1.4-3.4,2.1
			c-0.8,0.5-1.6,0.9-2.4,1.4c-0.5,0.3-1,0.5-1.5,0.8c-0.9,0.4-1.7,0.9-2.6,1.3c-0.4,0.2-0.9,0.4-1.4,0.6c-1,0.5-2.1,0.9-3.1,1.3
			c-0.3,0.1-0.6,0.3-1,0.4c-2.9,1.1-5.9,2-8.9,2.8c-0.1,0-0.2,0.1-0.4,0.1c-1.3,0.3-2.7,0.6-4.1,0.9c-0.4,0.1-0.7,0.1-1.1,0.2
			c0,0-0.1,0-0.1,0l0,0.1l-1.5,0.2c-0.3,0.1-0.6,0.1-0.9,0.1l-0.3,0c-0.1,0-0.1,0-0.2,0c-0.2,0-0.4,0-0.5,0.1
			c-0.4,0.1-0.9,0.1-1.3,0.2c-1.1,0.1-2.1,0.2-3.2,0.3c-0.2,0-0.5,0-0.7,0.1c-0.3,0-0.5,0-0.8,0.1c-1.5,0.1-3.1,0.1-4.6,0.1
			s-3.1-0.1-4.6-0.1c-0.3,0-0.5,0-0.8-0.1c-0.2,0-0.5,0-0.7-0.1c-1.1-0.1-2.2-0.2-3.2-0.3c-0.4-0.1-0.9-0.1-1.3-0.2
			c-0.1,0-0.3,0-0.4-0.1c-0.1,0-0.1,0-0.2,0l-0.3,0c-0.3,0-0.7-0.1-1-0.1l-1.4-0.2v-0.1c-0.1,0-0.1,0-0.2,0
			c-0.4-0.1-0.7-0.1-1.1-0.2c-1.4-0.3-2.7-0.6-4.1-0.9c-0.1,0-0.2-0.1-0.4-0.1c-3-0.8-6-1.7-8.9-2.8c-0.3-0.1-0.7-0.3-1-0.4
			c-1-0.4-2.1-0.8-3.1-1.3c-0.4-0.2-0.9-0.4-1.4-0.6c-0.9-0.4-1.8-0.9-2.6-1.3c-0.5-0.2-1-0.5-1.5-0.8c-0.8-0.4-1.6-0.9-2.4-1.4
			c-1.1-0.7-2.3-1.4-3.4-2.1c-0.4-0.3-0.9-0.6-1.3-0.9c-0.8-0.5-1.6-1.1-2.4-1.7c-0.3-0.2-0.7-0.5-1-0.7c-0.8-0.6-1.6-1.3-2.4-1.9
			c-0.2-0.2-0.4-0.4-0.7-0.6c-3.7-3.1-7.1-6.5-10.2-10.2c-0.2-0.2-0.4-0.5-0.6-0.7c-0.7-0.8-1.3-1.7-2-2.5c-0.2-0.3-0.4-0.6-0.6-0.8
			c-0.5-0.7-1-1.4-1.5-2.1l-0.6-0.8l0-0.1C6.9,114.4,1.9,99,1.9,82.5C1.9,38,38,1.9,82.5,1.9 M82.5,0.9c-45,0-81.6,36.6-81.6,81.6
			c0,16,4.7,31.5,13.5,44.9l0,0.1l0.2,0.4l0.6,0.8c0.4,0.6,0.9,1.3,1.4,1.9l0.2,0.2c0.2,0.3,0.4,0.6,0.6,0.8c0.6,0.8,1.2,1.6,2,2.5
			c0.2,0.2,0.4,0.5,0.6,0.7c3.1,3.7,6.6,7.2,10.3,10.3c0.2,0.2,0.4,0.4,0.7,0.6c0.9,0.7,1.7,1.3,2.5,1.9l0.5,0.4l0.5,0.4l0.4,0.3
			c0.6,0.5,1.3,0.9,2,1.4c0.4,0.3,0.8,0.5,1.1,0.8l0.2,0.1c1.1,0.7,2.2,1.4,3.4,2.1c0.9,0.5,1.8,1,2.5,1.4c0.5,0.3,1,0.5,1.5,0.8
			c0.9,0.4,1.8,0.9,2.7,1.3c0.3,0.1,0.6,0.2,0.8,0.4c0.2,0.1,0.4,0.2,0.6,0.3c1.1,0.5,2.1,0.9,3.2,1.3l1,0.4c2.9,1.1,6,2.1,9,2.8
			c0.1,0,0.2,0,0.2,0.1c0,0,0.1,0,0.1,0l0,0l0.1,0c1.3,0.3,2.6,0.6,4.1,0.9l0.4,0.1c0,0,0.1,0,0.1,0v0.1l0.9,0.1l1.4,0.2
			c0.2,0,0.5,0.1,0.8,0.1l0.2,0l0.2,0c0,0,0.1,0,0.1,0l0,0l0.1,0c0.1,0,0.2,0,0.3,0l0,0l0,0c0.2,0,0.4,0.1,0.7,0.1
			c0.2,0,0.4,0.1,0.7,0.1c1.2,0.1,2.2,0.2,3.3,0.3c0.1,0,0.2,0,0.3,0c0.1,0,0.3,0,0.4,0c0.1,0,0.2,0,0.3,0c0.1,0,0.3,0,0.4,0
			c1.7,0.1,3.2,0.1,4.7,0.1c1.5,0,3,0,4.7-0.1c0.1,0,0.3,0,0.4,0c0.1,0,0.3,0,0.4,0c0.1,0,0.3,0,0.4,0c0.1,0,0.2,0,0.3,0l0.4,0
			c0.9-0.1,1.9-0.2,2.8-0.3c0.2,0,0.4-0.1,0.7-0.1c0.2,0,0.4-0.1,0.7-0.1c0.1,0,0.2,0,0.3,0l0.2,0l0,0l0,0l0.1,0l0.3,0
			c0.2,0,0.3,0,0.4-0.1c0.2,0,0.3,0,0.5-0.1l1.5-0.2l1.1-0.1l0-0.1c0.1,0,0.1,0,0.2,0c1.2-0.2,2.5-0.5,4.1-0.9l0.2,0l0.2,0
			c3-0.8,6.1-1.7,9-2.8l0.4-0.2l0.5-0.2l0.1,0c1-0.4,2.1-0.8,3.1-1.3c0.4-0.2,0.8-0.4,1.2-0.5l0.2-0.1c0.8-0.4,1.7-0.8,2.7-1.3
			c0.2-0.1,0.4-0.2,0.6-0.3c0.3-0.2,0.6-0.3,0.9-0.5c0.7-0.4,1.4-0.8,2.1-1.2l0.3-0.2c1-0.6,2.1-1.3,3.4-2.1
			c0.2-0.1,0.4-0.2,0.5-0.3c0.3-0.2,0.5-0.3,0.8-0.5c0.8-0.5,1.6-1.1,2.4-1.7c0.2-0.1,0.5-0.3,0.7-0.5l0.3-0.2l0.2-0.2
			c0.7-0.6,1.5-1.2,2.3-1.8c0.1-0.1,0.2-0.2,0.4-0.3c0.1-0.1,0.2-0.2,0.3-0.3c3.7-3.1,7.2-6.6,10.3-10.3l0.3-0.3l0.3-0.4
			c0.6-0.7,1.3-1.6,2-2.6c0.2-0.3,0.4-0.6,0.6-0.9c0.1-0.2,0.3-0.4,0.4-0.6c0.4-0.5,0.7-1,1.1-1.5l0.6-0.8l0.3-0.4l0-0.1
			c8.8-13.4,13.5-28.9,13.5-44.9C164.1,37.5,127.5,0.9,82.5,0.9L82.5,0.9z"/>
	</g>
	<g>
		<g>
			<polygon class="st2" points="112.3,18 108.2,23.3 102.4,23.3 103.4,27.7 94.5,46.7 97.9,48.9 73.4,60.2 70,62.9 66.7,59.9 
				58.6,61.3 48.2,61.6 39,67.4 27.1,66.7 16.8,71.2 21.4,78.9 32.4,79 36.4,80.6 33.7,84.7 27.6,85.7 19.2,86.9 13.6,90.6 
				10.5,102.1 17.4,105.2 23,104.9 24.3,101.7 19.3,98.1 24.6,95.7 32.7,93.5 34.7,94.6 40.5,92.2 47.5,90.5 53.3,93.9 43.3,98.4 
				41.4,108.3 65.9,95.7 74.1,95.7 85.7,95.7 100.6,92.7 105.3,95.3 104.8,91.3 110.9,86.8 105.4,84.5 107.5,78.8 119.2,69.9 
				129.6,66.9 138.8,61.3 137.7,51 138.4,48.6 136.9,44 140.5,38 135.9,34.6 126.2,34 116.7,29.8 117.3,22.3 115.2,18.9 			"/>
			<polygon class="st2" points="33.3,108.3 30.8,104.2 36.6,98.4 41.4,108.3 			"/>
		</g>
		<g>
			
				<ellipse transform="matrix(0.3652 -0.9309 0.9309 0.3652 -23.9694 146.7273)" class="st3" cx="95.6" cy="90.9" rx="24.8" ry="24.8"/>
			<line class="st4" x1="86.6" y1="114" x2="81.6" y2="126.6"/>
			<line class="st5" x1="81.4" y1="127.2" x2="71.6" y2="152"/>
		</g>
		<g>
			<defs>
				<circle id="SVGID_1_" cx="95.6" cy="91" r="21.5"/>
			</defs>
			<clipPath id="SVGID_2_">
				<use xlink:href="#SVGID_1_"  style="overflow:visible;"/>
			</clipPath>
			<g class="st6">
				<path class="st7" d="M94.6,62c-0.2-0.1-0.2-1.3-0.2-1.6c0-0.4,0.1-0.5,0.4-0.9c0.3-0.4,0.3-0.4,0.8-0.4
					c-0.2-1.2-0.4-2.3-0.6-3.5c-0.1-0.3-0.1-0.7-0.2-1c-0.1-0.3-0.5-0.4-0.7-0.7c-0.2-0.3-0.1-0.1-0.1-0.4c0-0.9,0.6-2.1,1-2.9
					c0.4-0.9,0.6-1.9,1.3-2.6c0.7-0.7,2.1-1.4,2.2-2.4c0.1-1.1-0.7-2-1.1-3c-1-2.1-2-4.1-3-6.2c-0.1-0.2-0.4-1.1-0.6-1.2
					c-0.2-0.1-0.7,0.2-0.9,0.3c-1.2,0.5-2.4,1.1-3.6,1.6c-0.3-0.8-1.1-1.8-0.9-2.6c0.2-1,0.8-2,1.1-2.9c0.3-0.8,0.5-2.3,1.2-2.7
					c0.3-0.2,1.3-0.7,1.7-0.6c0.3,0.1,0.9,0.8,1.1,1c0-0.9-0.1-1,0.8-1.3c-0.4-0.4-0.9-0.3-1.4-0.6c-0.4-0.2-0.6-0.7-1-1
					c-0.8-0.6-1.8-1.1-2.6-1.7c-2.2-1.4-4.5-2.8-6.7-4.3c-0.3,0.6-0.4,1.2-0.9,1.6c-0.8,0.7-1.6,1.5-2.4,2.2c-0.5,0.5-1,1-1.4,1.6
					c-0.2,0.2-0.6,0.5-0.7,0.8c-0.1,0.3,0.2,0.9,0,1.2C77,28,76.3,28,76.2,28c-0.6,0.1-1.1,0.2-1.7,0.2c-0.8,0.1-1.3,0.3-2.1,0.6
					c-0.3,0.1-0.5,0.3-0.8,0.2c-0.3-0.1-0.7-0.9-1.1-0.9c-0.4,0-1.1,1.4-1.5,1.6c-0.8,0.5-2,0.3-2.8,0.8c-0.4,0.2-0.1,0.5-0.2,1
					c-0.1,0.4-0.4,0.5-0.8,0.8c1,0.6,2.7,1.3,3.1,2.5c0.2,0.6,0.3,1.6,0.1,2.2c-0.3,0.6-0.9,0.9-1.4,1.4c-0.3,0.3-0.5,0.7-0.8,1
					c-0.2,0.2-0.6,0.3-0.9,0.5c-0.4,0.2-1.2,0.5-1.2,1c0,0.3,0.3,0.6,0.4,0.8c0.1,0.3,0.1,0.5,0.2,0.8c0,0.2,0.1,0.3,0.2,0.5
					c0.2,0.3,0.2,0.3,0.5,0.4c0.2,0.1,0.5,0.2,0.6,0.2c0.1,0,0.2-0.2,0.2-0.2c0.4-0.1,0.3,0,0.7,0.2c0.6,0.3,1.4,0.3,1.8,0.8
					c0.2,0.2,0.4,0.4,0.6,0.6c0.2,0.3,0.2,0.2,0.2,0.5c0,0.6,0,1.1-0.3,1.6c-0.7,1-1.7,1.8-2.3,2.8c-0.4,0.6-0.3,1.3,0.3,1.9
					c0.4,0.4,0.9,0.4,1.3,0.7c1.2,0.8,3.4,0.9,3.8,2.5c0.2,1,0.9,1.4,1.7,2.1c0.7,0.6,1,0.6,1.7,0.2c0.5-0.4,0.4-0.1,1,0
					c0.4,0.1,0.9-0.4,1.3-0.1c0.6,0.4,0.1,1.1,0.2,1.5c0.1,0.3,0.4,0.3,0.7,0.5c0.4,0.2,0.4,0.4,0.3,0.8c-0.3,1.6-0.6,3.2-0.9,4.8
					c-0.2,1-0.6,2.1-0.6,3.1c0,1.9,0.1,3.9,0.1,5.8c0,0.5,0,1,0,1.5c0.5,0,1-0.4,1.5-0.5c0.4-0.1,0.8,0.1,1.2,0
					c0.3-0.1,0.5-0.4,0.9-0.2c0.2,0.1,0.3,0.5,0.5,0.7c0.4,0.5,1.6,1.5,2.2,1.1c0.4-0.3,0-0.7,0-1.1c0-0.3,0.2-0.5,0.3-0.7
					c0.6-0.8,1.2-1.4,1.6-2.4c0.3-0.8,0.4-1.4,0.9-2c0.7-0.8,1.7-1.6,2.5-2.4c0.5-0.5,1-0.7,1.5-1.1c0.7-0.5,0.3-1.3-0.4-1.8
					c-0.7-0.5-1.5,0.2-2.3,0.1c0.2-0.2,0.6-0.2,0.8-0.3c0.1,0,0.1-0.2,0.2-0.2c0.1,0,0.3,0.2,0.4,0.2c0.4,0,0.5-0.2,0.8,0
					c0.4,0.2,0.4,0.9,1,0.9c0.7,0,1.2-1,1.9-1c0.6,0,1.2,0,1.8-0.4c0.4-0.2,1.2-0.9,0.8-1.4c0.1,0,0.2-0.1,0.2-0.1
					C95.6,62.4,95.1,62.3,94.6,62z"/>
				<polygon class="st7" points="124.7,64.6 124.7,64.6 124.8,64.6 124.8,64.6 125,64.5 125.1,64.5 125.2,64.4 125.2,64.4 
					125.3,64.4 125.4,64.4 125.5,64.4 125.5,64.5 125.6,64.5 125.7,64.5 125.7,64.6 125.8,64.7 125.9,64.7 126,64.7 126.1,64.8 
					126.1,64.8 126.2,64.8 126.3,64.7 126.4,64.7 126.4,64.7 126.5,64.6 126.6,64.6 126.7,64.5 126.7,64.5 126.8,64.4 126.8,64.4 
					126.9,64.3 127,64.1 127,64 127,64 127.1,63.9 127.1,63.9 127.2,63.8 127.2,63.8 127.3,63.7 127.4,63.7 127.4,63.6 127.5,63.6 
					127.6,63.6 127.8,63.5 128.1,63.4 128.5,63.2 128.6,63.2 128.7,63.1 128.8,63.1 128.9,63.1 129,63.1 129.1,63.1 129.2,63.1 
					129.2,63.1 129.3,63.1 129.4,63.1 129.5,63.2 129.5,63.2 129.6,63.2 129.7,63.3 129.8,63.3 129.9,63.4 129.9,63.4 130,63.4 
					130,63.5 130,63.5 130,63.5 130,63.6 130.1,63.6 130.1,63.7 130.1,63.8 130.2,64 130.2,64.2 130.3,64.4 130.3,64.6 130.3,64.7 
					130.3,64.8 130.3,64.8 130.3,64.9 130.3,65 130.3,65 130.3,65.1 130.3,65.1 130.3,65.2 130.3,65.3 130.3,65.5 130.3,65.6 
					130.2,65.7 130.3,65.7 130.3,65.7 130.4,65.7 130.4,65.8 130.5,65.8 130.6,65.8 130.7,65.8 130.8,65.9 130.8,65.9 130.9,66 
					131,66.1 131.2,66.2 131.3,66.3 131.4,66.4 131.4,66.4 131.5,66.5 131.7,66.5 131.8,66.6 131.9,66.6 132,66.7 132.2,66.8 
					132.3,66.8 132.5,66.8 132.6,66.9 132.8,67 133.4,67.1 133.6,67.2 133.8,67.2 134,67.3 134.2,67.3 134.4,67.4 134.5,67.4 
					134.6,67.4 134.6,67.4 134.7,67.5 134.7,67.5 134.8,67.5 134.8,67.6 134.8,67.6 134.8,67.6 134.8,67.6 134.9,67.7 135,67.7 
					135.1,67.8 135.2,67.9 135.4,67.9 135.5,68 135.6,68.1 135.7,68.2 135.8,68.2 135.8,68.3 135.9,68.4 136,68.4 136.2,68.8 
					136.3,68.8 136.3,68.8 136.4,68.9 136.5,68.9 136.5,69 136.6,69 136.6,69 136.7,69.1 136.7,69.1 136.8,69.1 136.9,69.1 
					137.1,69.1 137.2,69.2 137.2,69.2 137.3,69.2 137.4,69.3 137.4,69.3 137.5,69.3 137.5,69.4 137.6,69.5 137.6,69.5 137.7,69.6 
					137.7,69.7 137.8,69.8 137.8,69.9 137.9,69.9 137.9,70 138,70.1 138,70.2 138,70.3 138,70.4 138,70.4 138,70.5 138,70.6 
					137.9,71 137.9,71.1 137.8,71.2 137.8,71.3 137.8,71.4 137.8,71.5 137.8,71.7 137.8,72 137.7,72.4 137.7,72.7 137.7,72.9 
					137.7,73 137.7,73.1 137.7,73.2 137.7,73.2 137.7,73.3 137.8,73.3 137.8,73.4 137.8,73.5 137.9,73.6 137.9,73.6 138.1,73.9 
					138.1,74 138.2,74.1 138.2,74.2 138.2,74.2 138.2,74.3 138.3,74.4 138.3,74.5 138.3,74.5 138.4,74.6 138.4,74.8 140.6,76.9 
					141.1,77.4 141.4,77.6 141.5,77.6 141.6,77.6 141.9,77.6 142.1,77.5 142.2,77.4 142.3,77.2 142.6,77.1 142.8,77.1 143.2,77.2 
					143.5,77.2 145.1,81.4 146.7,85.6 146.8,85.6 147,85.6 147.2,85.6 147.3,85.7 147.4,85.7 147.5,85.7 147.6,85.9 147.8,86.1 
					147.8,86.1 147.9,86 148,86 148.1,86 148.3,86 148.4,86 148.5,86 148.8,85.8 148.9,85.8 149,85.9 149.1,86 149.4,86.3 
					149.5,86.3 149.6,86.4 149.8,86.4 150,86.4 150.2,86.3 150.4,86.1 150.5,86 150.7,86 150.8,85.9 151,85.8 151,85.9 151.2,86 
					151.3,86 151.4,86 151.5,86 151.7,86.1 151.8,86.2 151.9,86.2 152.1,86.3 152.3,86.3 152.7,86.4 152.8,86.4 153.2,86.3 
					153.5,86.1 153.6,86.1 153.7,86.2 153.8,86.2 154.2,86.1 154.2,86.1 154.5,86 154.6,85.9 154.7,85.8 154.9,85.7 155.3,85.6 
					155.3,85.5 155.4,85.4 155.4,85.3 155.4,85 155.4,84.9 155.4,84.8 155.5,84.7 155.5,84.6 155.8,84.5 155.9,84.5 156,84.1 
					156.1,84.1 156.5,84.2 156.8,84.3 157,84.2 157.2,84.2 157.4,84.1 157.9,83.9 158,83.8 158.2,83.7 158.4,83.7 158.6,83.6 
					159.1,83.5 159.5,83.3 159.8,83.2 159.9,83.2 160,83.1 160.2,83 160.3,83 160.3,82.9 160.3,82.8 160.3,82.7 160.4,82.6 
					160.5,82.6 160.8,82.5 161.2,82.4 161.4,82.3 161.7,82.3 162,82.2 162.4,82.2 162.5,82.3 162.7,82.3 162.8,82.4 162.9,82.4 
					163.1,82.2 163.7,81.9 163.8,81.9 164,81.8 164.3,81.6 164.4,81.5 164.6,81.5 164.8,81.5 164.9,81.4 165,81.4 165.3,81.5 
					165.5,81.5 165.8,81.5 165.9,81.6 165.9,81.8 166,81.9 166.2,82 166.4,82.2 166.5,82.3 166.5,82.3 166.6,82.5 166.7,82.6 
					166.8,82.7 167,82.7 167.2,82.8 167.3,82.8 167.3,82.8 167.5,82.6 167.6,82.6 167.8,82.6 168,82.5 168.3,82.1 168.5,82 
					168.7,81.9 168.8,81.9 169.2,81.9 169.5,81.8 169.8,81.6 169.8,81.5 169.9,81.3 170,81.2 170.1,81.1 170.3,81 170.1,80.8 
					170,80.6 170.1,80.5 170.1,80.4 170,80.3 170,80.2 169.9,80.1 169.7,80.1 169.6,80.1 169.4,79.8 169,79.6 169,79.5 168.6,79.5 
					168.5,79.4 168.2,79.4 167.8,79.2 167.7,79.1 167.6,79.2 167.5,79.1 167.3,79 167.2,78.9 167.1,78.8 167.2,78.7 167.3,78.6 
					167.3,78.5 167.5,78.4 167.5,78.4 167.6,78.2 167.6,78.2 167.6,78.1 167.7,77.9 167.9,77.9 168.1,77.6 168.2,77.4 168.2,77.3 
					168.6,76.7 168.7,76.7 168.8,76.7 168.9,76.6 169,76.6 169.2,76.4 169.4,76.3 169.5,76.1 169.7,75.7 169.5,75.4 169.5,75.4 
					169.1,75.4 169.1,75.3 169.1,75.3 169,75.3 169,75.1 168.8,74.9 168.7,74.8 168.5,74.8 168,74.7 167.8,74.6 167.6,74.5 
					167.6,74.5 167.6,74.5 167.6,74.3 167.5,74.2 167.2,73.9 166.9,73.8 166.7,73.7 166.4,73.6 166.4,73.6 166.4,73.8 166.2,73.9 
					166.1,74 166,74 165.9,73.9 165.7,74 165.6,74 165.5,74.1 165.4,74.1 165.1,74.2 165,74.2 164.7,74.2 164.5,74.3 164.4,74.4 
					164,74.4 163.9,74.4 163.7,74.4 163.6,74.4 163.4,74.4 163.3,74.6 163.1,74.7 163,74.8 162.8,74.7 162.7,74.7 162.6,74.7 
					162.5,74.8 162.3,74.9 161.9,74.8 161.8,74.8 161.7,74.8 161.7,74.7 161.6,74.6 161.5,74.4 161.3,74.4 161.1,74.3 160.6,74.3 
					160.5,74.4 160.3,74.4 160.2,74.3 160,74.2 159.9,74 159.8,74 159.7,73.9 159.5,73.5 159.5,73.4 159.4,73.3 159.8,73.2 
					160.1,73.2 160.1,73.2 160.2,73 160.2,72.9 160.1,72.7 160,72.7 160.2,72.4 160.2,72.2 160.3,72.1 160.4,72.1 160.6,72.1 
					160.8,72.2 160.8,72.1 161,72.1 161.1,72.1 161.3,72.1 161.5,72.1 161.7,71.7 161.9,71.2 162.2,71 162.3,71 162.4,70.9 
					162.5,70.8 162.5,70.1 162.2,70.1 162.1,70.1 161.9,69.9 161.7,69.8 161.6,69.8 161.6,69.7 161.4,69.6 161.2,69.6 161.4,69.4 
					161.6,69.2 161.7,68.9 161.7,68.7 161.7,68.6 161.8,68.3 161.7,68.2 161.6,68 161.6,68 161.7,67.9 161.8,67.8 161.9,67.6 
					161.9,67.6 162,67.4 162,67.4 161.9,67.3 161.8,67.2 161.8,67.1 161.8,66.8 161.8,66.7 161.8,66.8 161.6,66.8 161.6,66.8 
					161.5,66.7 161.3,66.5 161.2,66.5 161,66.6 160.8,66.9 160.6,67 160.6,67 159.8,66.5 159.9,66.4 160.1,66 160,65.9 160,65.8 
					159.7,65.6 159.5,65.3 159.4,65.2 159.3,65 159.3,65 159.2,64.9 159.1,64.9 158.9,64.8 159.9,63.7 160.4,63.8 161,63.8 
					161.2,63.9 161.7,63.9 162.3,63.9 163.1,64 164,64 164.3,64 164.7,64 165,64 165.4,64.1 165.4,63.9 165.3,63.7 165.3,63.4 
					165.3,63.2 165.4,63 165.5,62.5 165.5,62.3 165.5,62.1 165.5,62 165.6,61.9 165.9,61.6 165.9,61.5 165.9,61.4 165.8,60.8 
					165.8,60.7 165.5,60.5 165.4,60.3 165.1,60.2 164.7,59.7 164.7,59.4 164.7,59.3 164.6,59.2 164.5,59.2 164.4,59.2 164.5,59 
					164.6,58.7 164.7,58.7 165.2,58.7 165.5,58.6 165.7,58.5 165.9,58.4 166,58.2 166.3,58.1 166.6,57.9 166.8,57.8 166.9,57.6 
					167,57.6 167.6,56 167.6,55.9 167.6,55.8 167.7,55.6 168.1,55.2 168.2,55.2 167.5,54.3 166.7,53.3 165.3,51.6 165.1,51.3 
					163.4,49.2 162.7,48.4 162,47.5 161.9,47.4 161.1,46.5 161.1,46.5 161,46.5 160.9,46.6 160.9,46.6 160.8,46.6 160.8,46.6 
					160.8,46.7 160.7,46.7 160.5,46.9 160.4,46.9 160.3,47 160.2,47 160.2,47 160.1,47.1 160.1,47.1 160,47.1 160,47.1 159.9,47.1 
					159.9,47.1 159.8,47.1 159.8,47 159.7,47 159.7,47 159.7,47 159.5,46.9 159.4,46.8 159,46.6 159,46.6 156.6,47 155.8,47.2 
					154.3,47 154,46.9 153.8,46.9 153.6,46.8 153.3,46.8 153.2,46.7 153.1,46.7 153,46.7 153,46.7 152.9,46.7 152.9,46.7 
					152.9,46.7 152.8,46.7 152.8,46.8 152.7,46.8 152.6,46.8 152.5,46.9 152.3,47 151.7,47.3 150.5,47.8 150.3,47.8 150.2,47.9 
					150.1,47.9 150,47.9 149.9,48 149.8,48 149.7,48 149.6,48 149.5,48 149.4,48 149.2,48 149,48 148.9,48 148.8,48 148.7,48 
					148.6,48 148.4,48.1 148.2,48.1 148.2,48.1 148,48.2 147.8,48.2 147.7,48.2 147.6,48.2 147.5,48.3 147.5,48.3 147.4,48.3 
					147.2,48.4 147.1,48.5 147,48.5 146.9,48.5 146.7,48.6 146.4,48.8 146.1,49 146.1,49 145.4,49.4 144.6,49.7 144.1,49.9 
					143.3,49.9 142.7,50 142.4,50.1 142.3,50.3 142.3,50.4 142.3,50.7 142.7,50.8 142.8,50.9 142.7,51 142.6,51 142.5,51.1 
					142.3,51.3 142.1,51.4 142,51.4 142,51.5 142.1,51.6 142.3,51.8 142.2,51.8 142.2,52 142.4,52 142.5,52.2 142.4,52.7 
					142.4,52.8 142.4,52.8 142.2,52.9 142.1,53 142,53.1 141.9,53.2 141.9,53.2 141.8,53.3 141.8,53.3 141.7,53.4 141.7,53.4 
					141.7,53.5 141.6,53.6 141.6,53.8 141.5,53.9 141.5,54 141.4,54.1 141.4,54.1 141.3,54.3 141.1,54.5 140.9,54.8 140.8,55 
					140.5,55.3 140.5,55.3 140.5,55.4 140.4,55.5 140.4,55.5 140.4,55.6 140.3,55.7 140.3,55.8 140.2,55.9 140.2,55.9 140.2,56 
					140.2,56.1 140.2,56.1 140.1,56.1 140.1,56.2 139.9,56.3 139.8,56.4 139.5,56.6 139.4,56.8 139.4,56.8 139.3,56.9 139.2,56.9 
					139.1,57 139.1,57 139,57 138.9,57 138.8,57.1 138.8,57.1 138.7,57.1 138.5,57.1 138.2,57.2 138,57.2 137.9,57.2 137.9,57.2 
					137.8,57.2 137.7,57.3 137.7,57.3 137.6,57.3 137.6,57.4 137.6,57.4 137.6,57.5 137.5,57.5 137.5,57.6 137.5,57.7 137.5,57.7 
					137.5,57.8 137.5,57.9 137.5,58 137.6,58.2 137.6,58.5 137.6,58.5 137,58.9 137,59 136.9,59 136.9,59 136.9,59.1 136.8,59.1 
					136.7,59.4 136.6,59.4 136.6,59.5 136.6,59.5 136.5,59.6 136.4,59.7 136.4,59.7 136.4,59.7 136.3,59.7 136.2,59.7 136.1,59.7 
					136.1,59.7 136,59.7 136,59.7 135.9,59.8 135.9,59.8 135.8,59.8 135.6,59.9 135.6,59.9 135.5,59.9 135.5,60 135.5,60 135.4,60 
					135.4,60.1 135.3,60.1 135.3,60.2 135.3,60.2 135.2,60.3 135.1,60.5 135,60.8 135,60.8 135,60.9 134.9,60.9 134.9,61 
					134.9,61.1 134.9,61.1 134.9,61.2 134.9,61.2 134.9,61.3 134.9,61.4 134.9,61.4 134.9,61.5 135,61.5 135,61.6 135,61.6 
					134.9,61.6 134.9,61.7 134.8,61.7 134.8,61.7 134.7,61.7 134.6,61.6 134.6,61.6 134.5,61.6 134.5,61.6 134.4,61.7 134.4,61.7 
					134.3,61.7 134.2,61.7 134.2,61.7 134.1,61.7 134.1,61.8 134,61.8 134,61.8 133.9,61.9 133.9,61.9 133.7,62 133.4,62.4 
					133.3,62.5 133.3,62.6 133.2,62.6 133.2,62.7 133.1,62.8 133.1,62.8 133,62.8 133,62.8 132.9,62.7 132.8,62.7 132.8,62.7 
					132.7,62.6 132.7,62.6 132.6,62.5 132.6,62.5 132.6,62.4 132.5,62.4 132.5,62.3 132.4,62.2 132.4,62.2 132.4,62.1 132.3,62.1 
					132.3,62.1 132.2,62.1 132.2,62.1 132.1,62.1 132,62.1 132,62.1 131.9,62.1 131.8,62.1 131.7,62.1 131.7,62.1 131.1,62.3 
					131,62.3 130.8,62.3 130.7,62.3 130.5,62.4 130.4,62.4 130.3,62.4 130.2,62.3 130.1,62.3 130.1,62.2 130,62.2 129.9,62.1 
					129.8,62 129.8,62 129.7,61.9 129.7,61.9 129.6,61.8 129.6,61.7 129.5,61.4 129.5,61.4 129.4,61.3 129.4,61.2 129.4,61.1 
					129.3,61.1 129.3,61 129.2,60.9 129.2,60.9 129.2,60.8 129.1,60.8 129.1,60.8 129,60.7 128.9,60.7 128.9,60.6 128.8,60.6 
					128.7,60.5 128.6,60.5 128.5,60.5 128.5,60.4 128.4,60.4 128.3,60.4 128.2,60.4 128.1,60.3 128.1,60.3 128,60.3 127.9,60.3 
					127.6,60.3 127.4,60.3 127.1,60.4 127,60.4 126.9,60.5 126.9,60.5 126.9,60.6 126.8,60.7 126.7,60.7 126.7,60.8 126.6,60.8 
					126.6,60.9 126.6,61 126.6,61 126.6,61.1 126.5,61.4 126.5,61.5 126.5,61.6 126.4,61.7 126.4,61.7 126.3,61.8 126.3,61.8 
					126.3,61.9 126.2,61.9 126.1,61.9 126,61.9 126,62 125.9,62 125.8,62 125.7,62 125.5,62 125.3,62 125.2,62 125.1,62 125,62 
					124.9,62 124.7,61.9 124.6,61.9 124.5,61.8 124.4,61.8 124.3,61.7 124.2,62 124.2,62.1 124.1,62.3 124.1,62.4 124.1,62.5 
					124.1,62.6 124.1,62.7 124.1,62.9 124.1,63.1 124.1,63.1 124.1,63.2 124.1,63.3 124.1,63.4 124.1,63.5 124.1,63.6 124.1,63.7 
					124.2,63.9 124.2,64.1 124.3,64.2 124.3,64.2 124.3,64.3 124.4,64.4 124.4,64.4 124.4,64.5 124.5,64.5 124.5,64.6 124.6,64.6 
					124.6,64.6 				"/>
				<path class="st7" d="M113.2,84.2c0.5,0.2,1.1,0.5,1.6,0.6c0.5,0.1,1,0.1,1.5,0.4c0.6,0.3,1.2,0.3,1.8,0.6
					c0.3,0.1,0.4,0.3,0.6,0.4c0.3,0.1,0.6,0,0.9,0c0.3,0,0.5,0.1,0.8,0.2c0.1,0,0.3,0,0.4,0c0.1,0.1,0.2,0.3,0.3,0.3
					c0.3,0.1,0.9-0.1,1.3,0c0.3,0,0.3,0,0.6,0.2c0.2,0.1,0.5,0.4,0.7,0.5c0.2,0,0.5-0.2,0.7-0.1c0.3,0,0.4,0.2,0.6,0.4
					c0.8,0.7,1.7,1.4,2.4,1.9c1.1,0.9,1.8-0.7,2.9-0.4c0.9,0.2,1.1,1.3,1.1,2.1c0,0.5-0.4,1.2-0.2,1.7c0.1,0.3,0.8,1.1,1.1,1
					c0.6-0.2,0.3-1.1,0.6-1.5c0.2-0.3,1-0.6,1.4-0.8c0.4-0.2,1.2-0.6,1.7-0.3c0.1-0.3-0.1-0.8,0-1.1c0.1-0.4,0.2-0.3,0.7-0.4
					c0.9-0.2,1.6-0.4,2.4-0.8c0.2-0.1,0.5-0.1,0.6-0.2c0.2-0.1,0.2-0.3,0.4-0.4c0.3-0.2,0.5-0.1,0.8-0.1c0.7,0,1.4-0.5,2-0.6
					c0.4-0.1,0.5,0.1,0.9,0c0.5-0.1,0.6-0.4,0.9-0.8c0.3-0.4,0.7-0.6,1.1-0.7c0.3-0.1,0.7-0.2,0.8-0.5c0.1-0.3-0.5-1.2-0.6-1.5
					c-0.3-0.7-0.5-1.4-0.8-2c-0.3-0.8-0.6-1.7-1-2.5c-0.2-0.6-0.5-1.3-0.7-1.9c-0.2-0.4-0.3-0.5-0.8-0.5c-0.5,0-0.6,0.4-1,0.5
					c-0.5,0.1-0.8-0.3-1.1-0.6c-0.7-0.7-1.8-1.4-2.3-2.2c-0.2-0.3-0.4-0.8-0.5-1.2c-0.2-0.5-0.2-1-0.1-1.6c0-0.5,0.3-1.2,0.2-1.7
					c0-0.3-0.3-0.8-0.5-1c-0.3-0.3-0.7-0.2-1.1-0.4c-0.4-0.3-0.6-0.7-1.1-1c-0.5-0.3-0.6-0.5-1.1-0.6c-0.7-0.2-1.5-0.3-2.2-0.6
					c-0.5-0.2-0.8-0.6-1.3-0.9c-0.1-0.1-0.3-0.1-0.5-0.1c0.4-1.1,0-2.8-1.3-2.6c-0.6,0.1-1.3,0.3-1.7,0.7c-0.3,0.3-0.5,0.9-1,0.9
					c-0.3,0-0.5-0.3-0.7-0.3c-0.3-0.1-0.6,0.3-0.9,0.1c0.2,0.4,0.3,0.7-0.1,1c-0.3,0.2-0.7,0.3-1.1,0.5c-0.7,0.3-1.2,0.6-1.8,1.1
					c-1.3,0.9-3.3,1-3.3,2.9c0,0.7-0.3,1.1-0.8,1.5c-0.5,0.4-1.1,0.5-1.1,1.2c0,0.5,0.1,1.3,0.5,1.7c0.3,0.3,1.4,0.6,1.8,0.4
					c0.4-0.3-0.6-0.8-0.6-1.3c0-0.8,0.8-0.9,1.4-0.9c-0.5,0.1-1.1,0.2-1.2,0.7c-0.1,0.5,0.2,0.7,0.6,0.9c0.4,0.2,0.6,0.3,0.3,0.6
					c-0.2,0.2-0.5,0.2-0.7,0.4c-0.3,0.2-0.6,0.5-0.8,0.8c-0.3,0.5-0.5,0.9-0.8,1.3c-0.4,0.4-0.9,0.5-1.3,0.8
					c-0.5,0.3-1.1,0.6-1.4,1.1c-0.3,0.5,0.1,0.7,0.2,1.2c0.2,0.5-0.3,1.3-0.5,1.8c-0.3,0.7-0.4,1.4-0.9,2
					C113,84.1,113.1,84.2,113.2,84.2z"/>
				<path class="st7" d="M126.3,103.4c-0.2-0.2-0.6-0.2-0.8-0.4c-0.3-0.4,0-0.7,0.1-1c0-0.1,0.1-0.4,0.1-0.4c0,0-0.1-0.1,0-0.2
					c0.1-0.1,0.5-0.4,0.6-0.5c0.4-0.2,0.6-0.2,0.8-0.6c0.1-0.1,0.2-0.2,0.2-0.3c0,0-0.1-0.2-0.1-0.2c0.1-0.1,0.1,0,0.3-0.1
					c0.2-0.1,0.5-0.1,0.6-0.2c0.1-0.1,0-0.2,0.1-0.3c0.2-0.2,0.4-0.2,0.6-0.4c0.3-0.4,0.2-0.5,0.6-0.6c0.4-0.1,0.7-0.1,0.9-0.5
					c0.2-0.3,0.3-0.6,0.6-0.8c0.2-0.1,0.4-0.3,0.5-0.4c0.1-0.2,0-0.4,0.1-0.5c0.2-0.5,0.8-0.8,1.2-1.2c0.1-0.2,0.1-0.3,0.2-0.5
					c0.3-0.3,0.7-0.5,1-0.7c0.7-0.3,1.7-0.5,2-1.2c0.4-0.8-0.2-1.3-1-1c-0.3,0.1-0.6,0.3-0.9,0.4c-0.3,0.2-0.8,0.3-1.1,0.5
					c-0.5,0.4-0.1,1.5-0.8,1.7c-0.4,0.1-1.1-0.8-1.1-1.1c0-0.4,0.2-0.8,0.2-1.2c0-1.1-0.3-2.8-1.7-2.4c-0.6,0.2-1.2,0.8-1.9,0.6
					c-0.4-0.1-0.5-0.4-0.8-0.6c-0.2-0.2-0.5-0.2-0.8-0.5c-0.5-0.4-1.1-1.3-1.8-1.4c-0.4-0.1-0.6,0.1-0.9,0c-0.4-0.1-0.6-0.5-1-0.6
					c-0.3-0.1-0.7,0-1.1,0.1c-0.1,0-0.2,0.2-0.4,0.1c-0.1-0.1-0.2-0.3-0.3-0.4c-0.2-0.1-0.7-0.1-1-0.2c-0.4-0.1-0.8,0-1.1-0.2
					c-0.3-0.1-0.6-0.4-0.9-0.5c-0.5-0.1-0.9-0.2-1.4-0.4c-0.7-0.3-1.4-0.3-2.1-0.6c-0.3-0.1-0.7-0.4-1.1-0.5c-0.2,0-0.2-0.2-0.3-0.1
					c-0.1,0-0.3,0.4-0.4,0.4c-0.2,0.3-0.5,0.7-0.6,1.1c-0.1,0.4,0,0.8-0.1,1.3c0,0.2-0.2,1.1-0.3,0.5c-0.2-0.6,0.5-2.1-0.8-1.7
					c-0.2,0.1-0.8,0.4-0.8,0.6c0,0.3,0.7,0.4,1,0.5c0.4,0.3,0.6,1.7-0.2,1.3c-0.3-0.1-0.4-0.6-0.6-0.7c-0.3-0.1-0.7-0.2-1-0.1
					c-0.3,0.1-0.5,0.4-0.7,0.7c-0.2,0.6,0.1,0.5,0.5,0.5c0.7,0.1,1.1,0.8,0.9,1.5c-0.1,0.3-0.4,0.6-0.6,0.7c-0.3,0.2-1,0.3-1.1,0.6
					c-0.3,0.5,0.8,1.3,1.3,1.2c0.4-0.1,0.5-0.4,0.8-0.5c0.3-0.1,0.7-0.1,1,0c0.3,0.1,0.6,0.5,0.7,0.7c0.2,0.3,0,0.8,0.3,1
					c0.7,0.4,1.8-0.8,2.2,0.1c0.3,0.7,0,1.8-0.3,2.3c-0.3,0.6-1,1.1-1.7,1c-0.6-0.1-1.2-0.9-1.5-1.4c-0.1-0.3-0.2-0.9-0.7-0.8
					c-0.4,0.1-0.2,0.6-0.2,0.9c0,0.7-0.5,1.4-1.2,1.6c-0.1,0-0.5-0.1-0.4,0.1c0,0.1,0.4,0.1,0.5,0.1c0.6,0.1,1.1-0.1,1.7-0.2
					c1.3-0.1-0.2,1,0.2,1.3c0.3,0.2,0.9-0.1,1,0.4c0.1,0.4-0.3,0.5,0.2,0.8c0.7,0.4,1.4,0,2.1,0c0.8,0,1.7,0.3,2.5,0.3
					c0.6,0.1,1.1,0.1,1.6,0.4c0.8,0.4,1.8,0.4,2.6,0.8c0.5,0.3,1.4,0.9,1.2,1.6c-0.1,0.3-1.5,1.5-0.4,1.5c0.8,0,1-1.1,1.8-1.1
					c0.3,0,0.8,0.1,1,0.3c0.2,0.2,0.2,0.8,0.7,0.7c0.4-0.1,0.2-0.7,0.6-0.8c0.3-0.1,0.8,0.2,1.1,0
					C126.6,103.7,126.4,103.6,126.3,103.4z M119.8,99.2c0,0.9-1.4,0.9-2,0.8c-0.8-0.2-1.5-0.4-2.3-0.5c-0.5,0-1,0.1-1.5,0.2
					c0-0.5,0.5-0.8,0.9-0.9c0.6-0.1,0.7-0.1,1.1-0.6c0.7-1,1.9-1.2,2.9-0.3C119.3,98.2,119.7,98.8,119.8,99.2z M123.8,99.7
					c-0.1,0.3-0.3,0.5-0.4,0.8c-0.1,0.3,0,0.6,0,0.9c-0.1,0.6-0.4,0.8-1,0.8c-1.1-0.1-1.5-1.8-0.8-2.5c0.4-0.4,1.1-0.2,1.7-0.3
					c-0.2,0.2-0.7,0.8-0.2,0.8C123.4,100.4,123.5,99.5,123.8,99.7z"/>
				<path class="st7" d="M101,75.2c0-0.2,0.5-0.3,0.7-0.5c0.4-0.3,0.7-0.7,1-1c0.4-0.5,0.8-0.7,1.4-1c0.4-0.2,0.9-0.5,0.7-1
					c-0.1-0.1-0.3-0.1-0.3-0.3c0-0.2,0.1-0.4,0.2-0.5c-0.6-0.1-1.4-0.6-1.7,0.1c-0.1,0.2,0,0.6-0.1,0.6c-0.5,0.2-0.7-0.8-0.5-1.1
					c-0.8-0.4-0.7,1-1.3,1.1c-0.4,0.1-0.6-0.3-1-0.3c-0.6,0-0.4,0.8-0.4,1.2c0,0.4,0.2,1.2-0.4,1.2c-0.2,0-0.4-0.2-0.6-0.3
					c-0.5-0.3-0.8,0.1-1.3,0.1c-0.6,0-0.9-0.5-1.3-0.8c-0.5-0.5-1-0.8-1.7-1c-0.2,0-0.6-0.2-0.8,0c-0.1,0.1-0.1,0.4-0.1,0.5
					c-0.2,0.5-1,0.6-1.5,0.7c-0.7,0.2-1.5,0.3-2.2,0.6c-0.9,0.5-1.6,1.8-1.9,2.8c-0.4,1.3,0.8,2.3,1.7,3.2c0.5,0.4,0.8,0.7,1.4,0.6
					c0.8-0.1,1.4-0.3,1.9-1c0.7-0.9,1.5-1.6,2.6-1.9c0.3-0.1,0.8-0.1,1.1-0.1c0.2,0,0.3,0.3,0.5,0.4c0.5,0.3,1.4-0.2,2,0
					c0.4,0.1,0.7,0.8,0.9,1.2c0.2,0.3,0.4,0.7,0.6,1c0.2-0.2,0.6-0.6,0.9-0.7c0.3,0,0.4,0.2,0.6,0.3c0.5,0.2,0.7-0.1,0.9-0.6
					c0.2-0.5,0.3-0.8-0.2-1c-0.4-0.2-0.7-0.2-1-0.7c-0.1-0.2-0.1-0.6-0.2-0.9c0-0.3,0-0.7-0.2-0.9C101.3,75.4,101.1,75.4,101,75.2z"
					/>
				<polygon class="st7" points="111.4,68.6 111.5,69.1 111.7,69.3 112,69.4 112.3,69.2 112.7,68.7 112.7,68.5 112.3,67.9 
					112.2,67.3 112.5,66.6 112.6,66.1 112.3,65.9 112,65.9 111.8,66.1 111.7,66.7 111.8,67.5 111.5,68.3 				"/>
				<polygon class="st7" points="102.1,90.9 102.4,90.9 102.5,90.9 102.6,90.8 102.7,90.8 102.8,90.8 102.9,90.8 102.9,90.8 
					103,90.8 103,90.7 103.1,90.7 103.1,90.7 103.1,90.6 103.1,90.6 103.1,90.6 103.1,90.5 103.1,90.5 103,90.4 103,90.4 
					102.9,90.4 102.9,90.3 102.8,90.3 102.8,90.3 102.7,90.3 102.6,90.2 102.5,90.2 102.4,90.2 102.3,90.2 102.3,90.2 102.2,90.2 
					102.2,90.2 102.1,90.2 102.1,90.2 102.1,90.2 102,90.2 102,90.2 102,90.2 102,90.3 102,90.3 102,90.4 102,90.5 102,90.5 
					102,90.6 102,90.6 102,90.7 102,90.7 102.1,90.8 102.1,90.8 102.1,90.9 				"/>
				<polygon class="st7" points="96.3,89.1 96.3,89.4 97,89.5 97.6,89.3 97.6,89.1 97.1,89 				"/>
				<path class="st7" d="M95.2,84.8c0.3-0.3,1.5,0,1.6-0.3c0.2-0.7-2.1-0.2-2.2-0.3c-0.5-0.1-0.9-0.7-1.2-1.1
					c-0.4-0.8-0.2-1.3,0.7-1.4c1-0.2,0,0.5,0.4,0.8c0.2,0.2,0.4,0.1,0.5-0.1c0.1-0.2-0.1-0.5-0.2-0.8c0-0.1-0.1-0.4-0.2-0.5
					c-0.1-0.1-0.2,0-0.2,0c-0.2-0.1-0.3-0.4-0.6-0.4c-0.3,0-0.9,0.3-1.1,0.4c-0.7,0.3-0.9,0.8-0.6,1.5c0.3,0.7,0.5,1.1,0.6,1.8
					c0.1,0.5,0.1,0.3,0.5,0.6c0.3,0.3,0.2,0.5,0.6,0.7c0.5,0.2,1.9,0.9,2.2,0.2C96.3,85.2,95.3,85.3,95.2,84.8z"/>
				<path class="st7" d="M84.1,76.3c-0.7,0.5-2.1-0.9-2.4-1.4c-0.3-0.4-0.3-0.5-0.7-0.3c-0.2,0.1-0.3,0.2-0.6,0.2
					c-0.3,0-0.6-0.1-0.9,0c-0.5,0.1-1.1,0.4-1.7,0.5c-0.8,0.2-1.7,0.3-2.6,0.4c-1.1,0.2-2.4-0.2-3.5,0.1c-0.7,0.2-1.3,0.7-2,1
					c-0.8,0.3-1.6,0.7-2.4,1c-0.6,0.2-1.2,0.4-1.8,0.5c-0.4,0.1-0.7,0.2-1,0.4c-0.4,0.4-0.6,1.1-1,1.5c-0.4,0.5-1,1.1-1.6,1.4
					c-1,0.5-2.1,0.9-3.1,1.4c-0.2,0.1-0.5,0.3-0.8,0.3c-0.5-0.1-1.1-0.8-1.5-1.1c-0.8-0.6-1.8-1.1-2.5-1.8c-0.2-0.2-0.3-0.4-0.4-0.8
					c-0.1-0.3-0.3-1.6-0.6-1.7c-0.4-0.2-2.3,0.4-2.7,0.5c-0.7,0.1-1.4,0.3-2.1,0.4c-2.3,0.5-4.6,1.1-6.9,1.6
					c-0.8,0.2-1.5,0.3-2.2,0.7c-0.3,0.2-1,0.3-1.2,0.6c-0.2,0.3-0.3,1.1-0.3,1.5c-0.1,0.5-0.1,1.4-0.4,1.9c-0.3,0.4-0.5,0-1-0.2
					c-1-0.4-1.9,0.2-2.9,0.5c-0.8,0.3-1.8,0.6-2.6,0.2c-0.5-0.2-0.9-0.7-1.4-0.9c-0.4-0.1-0.9,0-1.3,0.1c-1,0.1-1.7,0.9-2.6,1
					c-0.3,0-0.6-0.1-0.9-0.1c-0.7,0-1.4,0.2-2,0.3c-2.1,0.3-3.9,1.2-5.9,2c-0.3,0.1-0.7,0.4-1,0.4c-0.4,0-1-0.3-1.3-0.5
					c-0.3-0.1-1-0.5-1.3-0.5c-0.3,0.1-0.8,1.1-1,1.3c-0.6,0.7-0.9,1.4-1.7,2c-0.7,0.5-1.7,0.7-2.3,1.3c-0.7,0.6-1.6,1.6-2,2.4
					c-0.1,0.3-0.3,0.8,0,1.1c0.3,0.5,0.9,0,1.4,0.2c0.4,0.1,0.6,0.6,0.8,0.8c0.3,0.3,0.9,0.4,1.2,0.6c0.9,0.5,1.5,1.3,2.6,1.5
					c0.8,0.2,1.5,0.7,2.1,1.2c0.8,0.6,1.9,1.2,2.6,1.9c0.3,0.4,0.3,0.7,0.3,1.2c0,0.5-0.1,0.8,0.5,0.8c0.2,0,0.5-0.3,0.7-0.2
					c0.1,0,0.3,0.3,0.4,0.4c0.4,0.4,0.7,0.9,1.1,1.4c0.7,0.7,1.5,0.7,2.4,0.6c0.8-0.1,2-0.8,2.7-0.3c0.4,0.3,0.6,0.8,0.9,1.2
					c0.3,0.3,0.6,0.4,0.9,0.7c0.3,0.3,0.6,0.6,0.9,0.9c0.3,0.3,0.3,1,0.6,1.1c0.4,0.1,0.7-0.4,1.1-0.2c0.4,0.2,0.5,0.9,1,1.1
					c0.4,0.1,1.1-0.1,1.5-0.1c0.5,0,0.8,0.1,1.1,0.6c0.3,0.4,0.4,0.7,0.7,1c0.4,0.4,0.7,0.5,1.2,0.7c0.4,0.2,0.9,0.3,1.3,0.4
					c0.5,0.2,0.6,0.5,1,1c0.4,0.4,0.6,0.5,1.1,0.5c0.6,0.1,0.7,0.2,1,0.8c0.1,0.4,0.2,0.7,0.5,1c0.2,0.1,0.6,0,0.8,0.2
					c0.2,0.1,0.2,0.5,0.4,0.6c0.7,0.4,0.4-0.6,0.5-0.9c0.2-0.4,0.7-0.5,1-0.2c0.3,0.3,0.2,0.6,0.1,1c-0.2,0.4-0.4,1.2-0.7,1.5
					c-0.3,0.3-0.7,0.4-1,0.7c-0.3,0.4-0.2,1,0.3,1.3c0.5,0.4,2.1,0.9,2.5,0.3c0.3-0.4-0.1-0.9,0-1.4c0.1-0.5,0.7-0.6,1.1-0.8
					c0.8-0.4,1.1-1.4,2-1.5c0.9-0.1,1.9,0,2.8-0.5c0.4-0.3,0.7-0.7,1.1-1c0.4-0.3,0.8-0.5,1.3-0.7c0.7-0.3,1.3-0.4,2-0.6
					c0.6-0.1,1.3-0.5,1.9-0.5c0.6,0,0.4,0.2,0.6,0.6c0.1,0.2,0.4,0.6,0.6,0.3c0.2-0.3-0.3-0.6-0.1-1c0.2-0.3,0.9-0.5,1.3-0.6
					c3.2-1.2,6.6-1.9,10.1-2.4c1.8-0.3,3.7-0.4,5.5-0.4c1.6,0,3.2-0.2,4.7,0.1c1.3,0.2,2.6,0.7,3.8,0.6c0.8,0,1.1-0.5,0.3-1.1
					c-0.8-0.6-2.1-1-3.1-1.4c-0.7-0.3-1.5-0.4-2.3-0.6c-0.4-0.1-2.9,0-2.9-0.6c0-0.2,0.3-0.3,0.4-0.4c0.2-0.3,0-0.4,0.1-0.6
					c0.1-0.3,0.7-0.2,0.5-0.6c-0.3-0.6-2.5-0.7-3-0.7c-0.7,0-2.2,0.2-2.4,0.9c-0.2,0.4,0,0.7-0.5,1.1c-0.4,0.3-0.8,0.1-1.3,0
					c-0.6-0.1-0.9,0-1.4,0c-0.4,0-1.1-0.2-1-0.7c0.1-0.5,0.8-0.4,1-0.7c0,0,0.1-0.4,0.1-0.5c0.2-0.3,0.2-0.4,0.6-0.4
					c0.4,0,0.7,0.5,1.1,0.5c0.5,0,0.6-0.5,1-0.7c0.8-0.5,2.1-0.2,2.9-0.2c0.4,0,0.9,0,1.3,0c0.3,0,0.7-0.1,0.9,0
					c0.2,0.1,0.2,0.2,0.4,0.4c0.3,0.3,0.8,0.3,1.1,0.5c0.4,0.2,0.8,0.5,1.2,0.7c0.5,0.3,1.1,0.5,1.6,0.8c0.4,0.2,0.6,0.5,0.9,0.8
					c0.3,0.3,0.6,0.4,1,0.4c0.6,0,0.8-0.1,1.2,0.4c0.3,0.4,0.4,0.8,0.7,1.1c0.3,0.3,0.9,0.5,1.1,0.9c0.1,0.3-0.1,0.6,0.2,0.8
					c0.1,0,0.6-0.2,0.7-0.2c0.4-0.2,0.3-0.5,0.5-0.9c0.2-0.5,0.9-0.7,1.3-1c1-0.7,2-0.7,3.2-0.9c0.9-0.1,1.7,0.4,2.5,0.1
					c0.4-0.1,1.2-0.5,1.4-0.8c0.2-0.3,0-0.6,0.4-0.8c0.8-0.7,2-0.6,3-0.6c0.6,0,1.3,0,1.9,0.1c0.5,0.1,0.8,0.3,1.2,0.2
					c0.5-0.2,0.4-0.3,0.2-0.7c-0.1-0.3-0.2-0.7-0.1-1c0.2-0.7,0.8-1.3,1.4-1.7c0.5-0.3,1.2-0.8,1.8-0.9c0.5-0.1,0.5,0.3,1,0.3
					c0.4,0,0.5-0.3,0.5-0.7c0-0.5-0.5-0.5-0.6-0.8c-0.3-0.6,1.6-0.5,1.9-0.9c0.3-0.5,0.2-2.1-0.6-1.9c-1,0.2-1.4,1.2-2.1,1.8
					c-0.4,0.3-0.6,0.3-1,0.2c-0.3-0.1-1-0.3-1.1-0.6c-0.1-0.4,0.2-0.6,0.6-0.6c0.5,0,0.6,0.1,1-0.4c0.7-0.8-0.2-0.8-0.1-1.7
					c0.1-0.4,0.3-0.8,0.4-1.3c0-0.5-0.2-0.4-0.4-0.8c-0.1-0.2,0-0.6,0.3-0.7c0.4-0.1,0.8,0.4,1.2,0.3c0.8-0.1,0.7-1.4,0.3-1.9
					c-0.3-0.3-0.7-0.2-1.1-0.2c-0.4-0.1-0.8-0.4-1.1-0.6c-0.3-0.3-0.4-0.6-0.7-0.8c-0.6-0.3-1.4-0.5-2-0.7c-0.5-0.1-0.8,0-1.3,0.3
					c-0.4,0.2-1.1,0.7-1.5,0.5c-0.3-0.2-0.6-1-0.6-1.3c0-0.5,0.5-0.8,0.7-1.2c0.3-0.4,1.2-1.6,0.5-1.8c-0.4-0.2-0.4,0.5-0.9,0.7
					c-0.1,0-0.3,0-0.4,0c-0.1,0-0.1,0.2-0.2,0.2c0,0-0.1,0.1-0.1,0.1c-0.2,0-0.4-0.2-0.6-0.2c-0.4,0-0.3,0.4-0.8,0.1
					c-0.3-0.2-0.4-0.5-0.8-0.3c-0.5,0.2-0.8,0.9-1.1,1.4c-0.2,0.3-0.7,1-1,1c-0.2,0-0.6-0.5-0.7-0.7c-0.1-0.6,0.5-0.3,0.9-0.3
					c0.5,0.1,0.6,0,0.9-0.4c0.7-0.8,0-0.8-0.3-1.5c-0.2-0.4,0.1-0.7,0.2-1.2c0.1-0.5,0-1-0.1-1.5c-0.1-0.6-0.2-1.4-0.5-1.9
					c-0.2-0.3-0.6-0.4-1-0.5c-0.9-0.4-2-1.3-2.6-2.2c-0.4-0.6-0.3-1.9-1-2.3c-0.6-0.4-1.5,0.3-1.7,0.9C85,77.1,84.7,75.3,84.1,76.3z
					 M65.3,109.9c0.8,0,1.6-0.3,2.5-0.3c0.4,0,1,0.3,1.4,0.1c0.4-0.2,0.5-0.5,0.9-0.6c0.7-0.1,1.5-0.1,2.2,0c0.8,0.1,1.4,0,2.2,0
					c-0.4,0.2-0.9,0.7-1.3,0.7c-0.5,0-0.8-0.3-1.3-0.1c-0.7,0.1-1.2,0.4-2,0.4c-1.1,0.1-2.2,0.3-3.4,0.4c-2.1,0.3-4.1,0.8-6.2,1.2
					c-0.6,0.1-0.6-0.3-0.2-0.6c0.6-0.4,1.6-0.5,2.3-0.7c0.5-0.1,0.9,0,1.4,0.1C64.4,110.7,64.8,110.2,65.3,109.9z M95.3,104
					c0-0.4,0.6-1.3,0.2-1.5c0.2-0.5,0.7-0.6,1.2-0.7c0.7,0,0.7,0.3,0.7,0.8c0,0.2,0,0.6,0.2,0.8c0.1,0.2,0.4,0.3,0.5,0.5
					c0.3,0.5-0.5,0.7-1,0.8C96.4,104.7,95.6,104.7,95.3,104z"/>
				<polygon class="st7" points="76.5,67.6 75.7,67.8 74.3,68.1 74.1,68.1 73.9,68.2 69.3,69.3 69.1,69.4 68.2,70.3 67.4,71.2 
					65.3,73.6 68.4,77.3 68.5,77.3 69.3,76.9 69.5,76.9 69.6,76.8 69.8,76.7 69.9,76.7 70,76.7 70.2,76.6 70.7,76.3 70.9,76.2 
					71.1,76.1 71.3,75.9 71.5,75.8 71.7,75.8 71.7,75.7 71.8,75.7 71.9,75.7 72,75.6 72.1,75.6 72.2,75.6 72.2,75.6 72.3,75.6 
					72.4,75.6 72.4,75.6 72.5,75.6 72.6,75.6 72.7,75.6 73.4,75.6 73.7,75.6 73.8,75.6 74,75.6 74.1,75.6 74.3,75.6 74.6,75.6 
					74.9,75.6 75.2,75.6 75.7,75.5 76.2,75.5 76.8,75.4 77.2,75.3 77.5,75.3 77.8,75.2 77.7,67.5 77.8,67.3 76.7,67.6 				"/>
				<polygon class="st7" points="62.7,75.2 62.3,75.9 61.4,76.3 61.3,76.4 59.6,79.2 56.3,81.8 58.1,83.2 62,81.5 62.1,81.5 
					62.8,81 62.9,80.9 63,80.8 63.1,80.7 63.2,80.6 63.4,80.4 63.6,80.2 63.7,80.1 63.7,80 63.8,79.9 63.8,79.9 63.9,79.7 64,79.6 
					64.1,79.4 64.4,78.9 64.5,78.8 64.5,78.7 64.6,78.7 64.6,78.7 64.6,78.6 64.7,78.6 64.7,78.5 64.8,78.5 64.8,78.5 64.8,78.4 
					64.9,78.4 65,78.4 65.1,78.3 65.1,78.3 65.2,78.3 65.3,78.3 65.5,78.2 65.6,78.2 65.7,78.2 65.9,78.2 66,78.1 66.2,78.1 
					66.3,78 66.5,78 66.6,78 66.8,77.9 67.1,77.8 68.4,77.3 65.3,73.6 				"/>
				<polygon class="st7" points="124.5,61.8 124.6,61.9 124.7,61.9 124.9,62 125,62 125.1,62 125.2,62 125.3,62 125.5,62 125.7,62 
					125.8,62 125.9,62 126,62 126,61.9 126.1,61.9 126.2,61.9 126.3,61.9 126.3,61.8 126.3,61.8 126.4,61.7 126.4,61.7 126.5,61.6 
					126.5,61.5 126.5,61.4 126.6,61.1 126.6,61 126.6,61 126.6,60.9 126.6,60.8 126.7,60.8 126.7,60.7 126.8,60.7 126.9,60.6 
					126.9,60.5 126.9,60.5 127,60.4 127.1,60.4 127.4,60.3 127.6,60.3 127.9,60.3 128,60.3 128.1,60.3 128.1,60.3 128.2,60.4 
					128.3,60.4 128.4,60.4 128.5,60.4 128.5,60.5 128.6,60.5 128.7,60.5 128.8,60.6 128.9,60.6 128.9,60.7 129,60.7 129.1,60.8 
					129.1,60.8 129.2,60.8 129.2,60.9 129.2,60.9 129.3,61 129.3,61.1 129.4,61.1 129.4,61.2 129.4,61.3 129.5,61.4 129.5,61.4 
					129.6,61.7 129.6,61.8 129.7,61.9 129.7,61.9 129.8,62 129.8,62 129.9,62.1 130,62.2 130.1,62.2 130.1,62.3 130.2,62.3 
					130.3,62.4 130.4,62.4 130.5,62.4 130.7,62.3 130.8,62.3 131,62.3 131.1,62.3 131.7,62.1 131.7,62.1 131.8,62.1 131.9,62.1 
					132,62.1 132,62.1 132.1,62.1 132.2,62.1 132.2,62.1 132.3,62.1 132.3,62.1 132.4,62.1 132.4,62.2 132.4,62.2 132.5,62.3 
					132.5,62.4 132.6,62.4 132.6,62.5 132.6,62.5 132.7,62.6 132.7,62.6 132.8,62.7 132.8,62.7 132.9,62.7 133,62.8 133,62.8 
					133.1,62.8 133.1,62.8 133.2,62.7 133.2,62.6 133.3,62.6 133.3,62.5 133.4,62.4 133.7,62 133.9,61.9 133.9,61.9 134,61.8 
					134,61.8 134.1,61.8 134.1,61.7 134.2,61.7 134.2,61.7 134.3,61.7 134.4,61.7 134.4,61.7 134.5,61.6 134.5,61.6 134.6,61.6 
					134.6,61.6 134.7,61.7 134.8,61.7 134.8,61.7 134.9,61.7 134.9,61.6 135,61.6 135,61.6 135,61.5 134.9,61.5 134.9,61.4 
					134.9,61.4 134.9,61.3 134.9,61.2 134.9,61.2 134.9,61.1 134.9,61.1 134.9,61 134.9,60.9 135,60.9 135,60.8 135,60.8 
					135.1,60.5 135.2,60.3 135.3,60.2 135.3,60.2 135.3,60.1 135.4,60.1 135.4,60 135.5,60 135.5,60 135.5,59.9 135.6,59.9 
					135.6,59.9 135.8,59.8 135.9,59.8 135.9,59.8 136,59.7 136,59.7 136.1,59.7 136.1,59.7 136.2,59.7 136.3,59.7 136.4,59.7 
					136.4,59.7 136.4,59.7 136.5,59.6 136.6,59.5 136.6,59.5 136.6,59.4 136.7,59.4 136.8,59.1 136.9,59.1 136.9,59 136.9,59 
					137,59 137,58.9 137.6,58.5 137.6,58.5 137.6,58.2 137.5,58 137.5,57.9 137.5,57.8 137.5,57.7 137.5,57.7 137.5,57.6 
					137.5,57.5 137.6,57.5 137.6,57.4 137.6,57.4 137.6,57.3 137.7,57.3 137.7,57.3 137.8,57.2 137.9,57.2 137.9,57.2 138,57.2 
					138.2,57.2 138.5,57.1 138.7,57.1 138.8,57.1 138.8,57.1 138.9,57 139,57 139.1,57 139.1,57 139.2,56.9 139.3,56.9 139.4,56.8 
					139.4,56.8 139.5,56.6 139.8,56.4 139.9,56.3 140.1,56.2 140.1,56.1 140.2,56.1 140.2,56.1 140.2,56 140.2,55.9 140.2,55.9 
					140.3,55.8 140.3,55.7 140.4,55.6 140.4,55.5 140.4,55.5 140.5,55.4 140.5,55.3 140.5,55.3 140.8,55 140.9,54.8 141.1,54.5 
					141.3,54.3 141.4,54.1 141.4,54.1 141.5,54 141.5,53.9 141.6,53.8 141.6,53.6 141.7,53.5 141.7,53.4 141.7,53.4 141.8,53.3 
					141.8,53.3 141.9,53.2 141.9,53.2 142,53.1 142.1,53 142.2,52.9 142.4,52.8 142.4,52.8 142.4,52.7 142.5,52.2 142.4,52 
					142.2,52 142.2,51.8 142.3,51.8 142.1,51.6 142,51.5 142,51.4 142.1,51.4 142.3,51.3 142.5,51.1 142.6,51 142.7,51 142.8,50.9 
					142.7,50.8 142.3,50.7 142.3,50.4 142.3,50.3 142.4,50.1 142.7,50 143.3,49.9 143.7,49.3 144,48.4 144.1,48.2 144.2,48 
					144.2,47.9 144.2,47.7 144.3,47.6 144.3,47.5 144.3,47.4 144.3,47.3 144.3,47.3 144.3,47.2 144.3,47.1 144.3,47 144.3,46.9 
					144.3,46.7 144.2,46.4 144.2,46.1 144.1,45.8 144,45.6 144,45.4 144,45.3 143.9,45.2 143.9,45.1 143.9,45.1 143.8,45 143.8,45 
					143.8,44.9 143.7,44.9 143.7,44.8 143.6,44.7 143.5,44.7 143.5,44.7 143.5,44.6 143.4,44.6 143.3,44.6 143.2,44.5 143.2,44.5 
					143.1,44.4 143,44.3 142.9,44.2 142.9,44.2 142.8,44.1 142.8,44 142.8,44 142.8,43.9 142.8,43.9 142.8,43.8 142.8,43.7 
					142.8,43.6 142.8,43.5 142.8,43.4 142.8,43.1 142.9,42.6 143,41.8 143,41.5 143,41.4 143.1,41.3 143.1,41.2 143.1,41.1 
					143.2,41.1 143.2,41 143.2,40.9 143.3,40.9 143.4,40.8 143.4,40.8 143.5,40.7 143.6,40.7 143.7,40.6 143.8,40.5 144.7,40.1 
					145.3,39.8 145.6,39.6 145.8,39.5 145.8,39.5 145.9,39.4 145.9,39.4 146,39.4 146,39.4 146.1,39.3 146.1,39.2 146.1,39.1 
					146.2,39.1 146.2,39 146.3,38.9 146.3,38.8 146.3,38.7 146.5,38.3 146.6,38.2 146.6,38 146.7,37.9 146.7,37.8 146.8,37.7 
					146.8,37.7 146.9,37.6 146.9,37.5 147,37.5 147,37.5 147.2,37.3 147.3,37.2 147.4,37.2 147.5,37.1 147.9,36.8 148.1,36.7 
					148.2,36.6 148.4,36.4 148.7,36.3 148.8,36.2 148.9,36.1 149,36.1 149.1,36 149.2,36 149.4,36 149.4,35.6 149.5,35.5 
					149.5,35.4 149.4,35.3 149.4,35.3 149.4,35.2 149.4,35.2 149.4,35.1 149.3,35.1 149.3,35 148.7,34.1 148.6,33.9 148.5,33.8 
					148.4,33.6 148.2,33.4 148.1,33.2 148,33.1 147.9,33.1 147.9,33 147.8,32.9 147.8,32.9 147.7,32.8 147.6,32.8 147.5,32.7 
					147.4,32.6 147,32.5 146.9,32.4 146.7,32.3 146.7,32.3 146.6,32.2 146.5,32.2 146.5,32.1 146.4,32.1 146.4,32 146.3,31.9 
					146.3,31.9 146.3,31.8 146.3,31.7 146.2,31.7 146.2,31.6 146.2,31.5 146.2,31.5 146.2,31.4 146.2,31.4 146.2,31.3 146.1,31.2 
					146.1,31.1 146.1,31 146.1,31 146,30.9 146,30.8 145.9,30.7 145.9,30.7 145.7,30.5 145.6,30.4 145.6,30.3 145.6,30.3 
					145.5,30.3 145.5,30.2 145.5,30.1 145.4,30 145.4,29.9 145.4,29.7 145.3,29.4 145.3,29.3 145.3,29.2 145.2,29.1 145.2,29 
					145.2,28.9 145.2,28.8 145.1,28.8 145,28.3 144.9,28.1 144.9,28.1 144.9,28 144.9,27.9 144.9,27.8 144.9,27.7 144.9,27.6 
					144.9,27.6 144.9,27.5 144.9,27.4 144.9,27.3 145,27.2 145,27.1 145,27 145,27 145.1,26.9 145.1,26.9 145.2,26.8 145.3,26.7 
					145.3,26.7 145.6,26.4 145.7,26.3 145.8,26.3 145.8,26.2 145.9,26.1 145.9,26 145.9,26 146,25.9 146,25.8 146,25.8 146,25.7 
					146,25.6 146,25.5 146,25.4 145.9,25.3 145.9,25.2 145.9,25.2 145.8,25.1 145.8,25 145.7,24.9 145.7,24.9 145.6,24.8 
					145.5,24.7 145.4,24.7 145.4,24.7 145.3,24.6 145.2,24.6 145.1,24.5 145,24.5 145,24.5 144.9,24.4 144.8,24.4 144.7,24.4 
					144.7,24.4 144.3,24.3 144.1,24.2 144.1,24.2 144,24.2 143.9,24.1 143.9,24.1 143.8,24 143.7,24 143.6,23.9 143.5,23.9 
					143.5,23.8 143.3,23.7 143.2,23.6 143.2,23.6 143.1,23.5 143,23.5 143,23.4 142.9,23.4 142.8,23.3 142.8,23.2 142.8,23.1 
					142.7,23 142.6,22.8 142.4,22.4 142.3,22.3 142.2,22.2 142.1,22 142.1,21.9 142,21.8 142,21.7 142,21.6 141.7,21.2 141.6,21.1 
					141.4,20.9 141.1,20.5 140.9,20.3 140.8,20.1 140.8,19.9 140.7,19.7 140.6,19.2 140.6,19 140.6,18.8 140.7,18.6 140.8,18.3 
					140.8,17.9 140.9,17.7 141,17.3 141.2,17.1 141.4,17 142,16.8 142.2,16.7 142.1,16.6 141.9,16.6 141.8,16.6 141.7,16.6 
					141.5,16.3 141.5,16.2 141.3,16.3 140.7,16.4 140.4,16.4 140.2,16.4 140.1,16.4 140,16.3 139.9,16 139.8,15.9 139.7,15.8 
					139.6,15.8 139.4,16 139.2,16.1 139.1,16.1 139,16.1 138.8,16.1 138.7,16.1 138.6,16.1 138.3,16.5 138.3,16.6 137.8,17 
					137.7,17.1 137.6,17.1 137.5,17.1 137.2,16.9 137.1,16.8 137.1,16.8 137,16.8 136.9,16.8 136.6,16.9 136.4,17 136,17 135.9,17 
					135.6,17.1 135.6,17.2 135.6,17.3 135.6,17.5 135.6,17.8 135.6,18 135.6,18.2 135.6,18.3 135.4,18.5 135.3,18.5 135.2,18.5 
					135,18.5 134.8,18.5 134.4,18.2 134.3,18.2 134,18.5 133.8,18.6 133.4,18.8 133.4,18.8 133.3,19 133.2,19.2 133.1,19.3 
					132.9,19.3 132.7,19.3 132.6,19.3 132.3,19.4 132.2,19.3 132.2,19.3 132.1,19 131.9,18.8 131.9,18.7 131.6,18.8 131.5,18.7 
					131.5,18.7 131.4,18.6 131.4,18.4 131.4,18.3 131.2,18.2 131,18.1 130.8,18.1 130.7,18.1 130.6,18 130.5,18 130.4,17.9 
					130.3,17.9 129.9,17.9 129.5,17.9 129.4,17.9 129.3,17.9 129.2,17.7 129.1,17.6 128.9,17.6 128.8,17.5 128.7,17.4 128.5,17.5 
					128.4,17.6 128,17.6 127.7,17.7 127.6,17.8 127.4,17.9 127.2,18 126.9,18.1 126.6,18.3 126.3,18.6 126.2,18.6 126,18.7 
					126,18.6 125.9,18.4 125.9,18.3 125.8,18.2 125.7,18.1 125.6,18.1 125.3,18.1 125.2,18.1 125.1,18 125,17.9 124.8,17.9 
					124.7,17.9 124.6,17.7 124.5,17.4 124.5,17.2 124.5,17.1 124.6,16.8 123.4,18 122.3,16.9 122,17.6 121.2,17.7 120,18.9 
					119.6,20.1 120,20.9 119,21.6 119,21.8 119,21.9 119.1,22 119.2,22.1 119.5,22.2 119.6,22.2 119.8,22.4 119.9,22.4 120.1,22.5 
					120.2,22.4 120.4,22.3 120.5,22.3 120.7,22.2 121,22.2 121.3,22.3 121.4,22.4 121.5,22.5 121.6,22.8 121.7,22.9 121.8,22.9 
					122.2,22.9 122.4,22.9 122.5,23 122.7,23.2 122.9,23.2 123,23.3 123.3,23.4 124,24 124.3,24.2 124.3,24.2 124.4,24.4 
					124.5,24.7 124.5,25.2 124.5,25.6 124.4,25.8 124.2,26.3 124.2,26.6 124.2,26.7 124.3,26.7 124.4,26.8 124.8,26.7 125,26.7 
					125.2,26.8 125.3,26.9 125.3,27.1 125.3,27.3 125.1,27.7 125.1,27.9 125.1,28.1 125.1,28.2 125.4,28.5 125.5,28.6 125.7,28.6 
					125.9,28.7 126,28.9 126.2,33.1 126.2,33.9 126.2,34.8 126.3,36.1 126.8,47.3 126.6,47.4 126.5,47.5 126.4,47.9 126.4,48 
					126.2,48.1 125.9,48.5 125.9,48.7 125.6,49.2 125.4,49.6 125.4,49.7 125.5,49.9 125.5,50 125.5,50.3 125.4,51.3 125.4,51.4 
					125.3,51.8 125.3,51.8 125.2,51.9 124.9,51.9 124.7,51.9 124.5,51.9 124.5,52 124.4,52.1 124.4,52.3 124.1,52.9 124.1,53 
					123.8,53.5 123.5,53.8 123.4,54 123.4,54.2 123.3,54.2 123.2,54.3 122.9,54.3 122.6,54.2 122.4,54.2 122.4,54.8 122.4,54.9 
					122.4,55.1 122.3,55.1 122,55.3 121.6,55.8 122,55.7 122,55.8 122.1,55.9 122.1,55.9 122.2,56 122.3,56.1 122.4,56.1 
					122.4,56.2 122.5,56.2 122.5,56.3 122.6,56.3 122.7,56.3 122.8,56.3 122.9,56.3 123,56.4 123,56.4 123.2,56.4 123.4,56.4 
					123.5,56.4 123.7,56.4 123.9,56.4 124,56.4 124.2,56.4 124.3,56.4 124.3,56.4 124.4,56.3 124.5,56.3 124.6,56.3 124.7,56.3 
					124.7,56.3 124.8,56.3 124.9,56.2 125.1,56.2 125.2,56.1 125.7,55.8 126,55.7 126.4,55.5 126.5,55.4 126.9,55.2 127.1,55.1 
					127.1,55.1 127.2,55.1 127.3,55 127.4,55 127.4,55 127.5,55 127.6,55 127.7,55 127.8,55 128.1,55 128.2,55 128.3,55 128.4,55 
					128.4,55.1 128.4,55.2 128.3,55.3 128.2,55.3 128.2,55.4 128.1,55.5 128,55.5 127.9,55.6 127.2,55.9 127.2,55.9 127.1,56 
					127,56 126.9,56.1 126.6,56.2 126.4,56.2 126.4,56.2 126.3,56.3 126.3,56.3 126.2,56.3 126.2,56.3 125.3,56.5 124.6,56.8 
					124.2,56.8 124,56.8 123.8,56.8 123.7,56.8 123.6,56.9 123.5,57 123.5,57.1 123.5,57.1 123.4,57.2 123.4,57.3 123.4,57.4 
					123.4,57.5 123.4,57.5 123.4,57.6 123.5,57.6 123.5,57.7 123.5,57.8 123.6,57.9 123.7,57.9 123.7,58 123.9,58.2 124,58.3 
					124,58.3 124.1,58.4 124.2,58.4 124.2,58.5 124.3,58.5 124.4,58.6 124.4,58.6 124.5,58.6 124.5,58.6 124.6,58.6 124.7,58.6 
					124.7,58.6 124.8,58.6 124.9,58.5 125,58.5 125.1,58.4 125.4,58.3 125.8,58 126,57.9 126.2,57.8 126.3,57.8 126.3,57.7 
					126.5,57.6 126.5,57.6 126.6,57.5 126.7,57.5 126.8,57.5 126.9,57.5 126.9,57.4 127,57.4 127.1,57.4 127.2,57.4 127.2,57.4 
					127.3,57.3 127.4,57.3 127.7,57.3 127.8,57.3 127.9,57.3 127.9,57.2 128,57.2 128.1,57.2 128.1,57.2 128.2,57.1 128.4,57.1 
					128.6,57.1 128.7,57.1 128.9,57.1 129,57.3 129,57.4 129,57.5 129,57.6 128.9,57.7 128.7,57.9 128.6,57.9 128.6,57.9 128.5,58 
					128.4,58 128.3,58 128.3,58 128.2,58 128.1,58 128.1,58 127.7,58 127.6,58 127.5,58 127.5,58 127.4,58 127.3,58 127.2,58.1 
					127.1,58.1 127,58.1 126.9,58.2 126.9,58.2 126.8,58.2 126.8,58.3 126.7,58.3 126.4,58.5 126.4,58.5 126.3,58.6 126.2,58.6 
					126.2,58.6 126.1,58.6 126,58.6 125.9,58.6 125.8,58.7 125.7,58.7 125.5,58.7 125.3,58.7 125.1,58.7 125,58.8 124.9,58.8 
					124.8,58.8 124.7,58.8 124.6,58.8 124.5,58.8 124.5,58.7 124.4,58.7 124.3,58.7 124.2,58.7 124.1,58.7 124.1,58.6 124,58.6 
					124,58.6 123.9,58.6 123.9,58.6 123.8,58.7 123.7,58.7 123.6,58.8 123.6,58.9 123.5,58.9 123.5,59 123.5,59.1 123.5,59.2 
					123.5,59.3 123.4,59.4 123.4,59.5 123.4,59.6 123.4,59.7 123.4,59.7 123.5,59.8 123.5,59.9 123.5,60.1 123.5,60.2 123.5,60.3 
					123.5,60.4 123.5,60.5 123.5,60.6 123.6,60.7 123.6,60.7 123.7,60.8 123.7,60.8 123.8,60.9 123.9,61 124,61.1 124.1,61.3 
					124.2,61.5 124.3,61.7 124.4,61.8 				"/>
				<polygon class="st7" points="122.3,55.1 122.4,55.1 122.4,54.9 122.4,54.8 122.4,54.2 122.6,54.2 122.9,54.3 123.2,54.3 
					123.3,54.2 123.4,54.2 123.4,54 123.5,53.8 123.8,53.5 124.1,53 124.1,52.9 124.4,52.3 124.4,52.1 124.5,52 124.5,51.9 
					124.7,51.9 124.9,51.9 125.2,51.9 125.3,51.8 125.3,51.8 125.4,51.4 125.4,51.3 125.5,50.3 125.5,50 125.5,49.9 125.4,49.7 
					125.4,49.6 125.6,49.2 125.9,48.7 125.9,48.5 126.2,48.1 126.4,48 126.4,47.9 126.5,47.5 126.6,47.4 126.8,47.3 126.3,36.1 
					126.2,34.8 126.2,33.9 126.2,33.1 126,28.9 125.9,28.7 125.7,28.6 125.5,28.6 125.4,28.5 125.1,28.2 125.1,28.1 125.1,27.9 
					125.1,27.7 125.3,27.3 125.3,27.1 125.3,26.9 125.2,26.8 125,26.7 124.8,26.7 124.4,26.8 124.3,26.7 124.2,26.7 124.2,26.6 
					124.2,26.3 124.4,25.8 124.5,25.6 124.5,25.2 124.5,24.7 124.4,24.4 124.3,24.2 124.3,24.2 124,24 123.3,23.4 123,23.3 
					122.9,23.2 122.7,23.2 122.5,23 122.4,22.9 122.2,22.9 121.8,22.9 121.7,22.9 121.6,22.8 121.5,22.5 121.4,22.4 121.3,22.3 
					121,22.2 120.7,22.2 120.5,22.3 120.4,22.3 120.2,22.4 120.1,22.5 119.9,22.4 119.8,22.4 119.6,22.2 119.5,22.2 119.2,22.1 
					119.1,22 119,21.9 119,21.8 119,21.6 118.8,21.8 118.8,21.9 118.6,21.9 118.5,22 118.2,22.1 117.6,22 117.2,22 117,22.2 
					116.8,22.2 116.7,22.2 116.5,22.2 116.4,22.3 116.3,22.4 116.2,22.6 116.2,22.7 116.2,22.8 116.6,22.9 116.7,23 117.1,23.3 
					117.3,23.5 117.5,23.9 117.6,24.1 117.7,24.4 117.7,24.8 117.6,25.1 117.5,25.2 117.1,25.4 116.9,25.5 116.8,25.8 116.7,26 
					116.6,26.2 116.5,26.3 116.2,26.6 115.9,26.8 115.6,27 115.2,27.2 114.9,27.7 114.7,27.9 114.1,28.1 113.7,28.3 113.5,28.5 
					113.3,28.7 113.1,28.9 112.9,29.1 112.7,29.2 112.3,29.7 112.1,29.9 112,30 111.8,30.1 111.7,30.1 111.5,30.1 111.2,30.1 
					110.9,30.1 110.8,30 110.7,29.8 110.6,29.6 110.4,29.5 109.7,29.5 109.4,29.7 109.1,30 108.9,30.1 108.6,30.1 108.3,30.1 
					108,30.3 107.5,30.5 107.2,30.6 107,30.5 106.8,30.5 106.3,30.9 106,31 105.8,31.1 105.6,31.1 105.5,31 103.5,32.3 100.2,33.5 
					98.3,34.9 93.8,35.2 97.4,42.7 98.6,45 98.5,46.1 96,48.4 94.7,51.5 94,53.8 94.9,54.7 95.6,59.2 95.1,59.2 94.3,60.2 
					94.4,60.5 94.5,61.2 94.5,61.6 94.5,61.9 94.5,62 94.6,62 95.4,62.4 96.1,62.6 96.4,62.3 96.7,62.3 96.9,62.3 97,62.3 
					97.1,62.3 97.2,62.3 97.3,62.3 97.4,62.2 97.5,62.2 97.6,62.2 97.8,62.1 97.9,62.1 98,62 98,62 98.1,62 98.4,61.9 98.4,61.8 
					98.5,61.8 98.7,61.7 98.7,61.7 98.8,61.7 98.9,61.6 99,61.6 99,61.6 99.1,61.6 99.2,61.6 99.4,61.5 99.8,61.5 100,61.4 
					100.2,61.4 100.2,61.4 100.3,61.4 100.4,61.3 100.5,61.3 100.6,61.3 100.7,61.2 100.8,61.2 100.9,61.2 100.9,61.1 101.1,61 
					101.3,60.9 101.6,60.8 102.1,60.4 102.4,60.3 102.6,60.2 102.7,60.1 102.9,60 103.1,59.8 103.2,59.7 103.3,59.7 103.4,59.7 
					103.5,59.6 103.6,59.6 103.7,59.5 103.7,59.5 103.9,59.4 104.2,59.3 104.5,59.3 104.7,59.2 104.9,59.1 105.1,59.1 105.2,59.1 
					105.3,59.1 105.4,59 105.5,59 105.6,59 105.7,59 105.8,59 105.9,59 106.1,59 106.3,59.1 106.4,59.1 106.5,59.1 106.6,59.1 
					106.6,59.1 106.7,59.1 106.8,59.2 106.9,59.2 107,59.2 107,59.3 107.2,59.3 107.4,59.4 107.5,59.5 107.5,59.5 107.6,59.5 
					107.7,59.6 107.7,59.7 107.8,59.7 107.8,59.7 107.9,59.8 107.9,59.8 108,59.9 108,60.1 108,60.1 108.1,60.1 108.1,60.2 
					108.2,60.2 108.3,60.2 108.3,60.2 108.4,60.3 108.5,60.3 108.6,60.3 108.7,60.3 108.8,60.3 108.9,60.2 108.9,60.2 109,60.2 
					109,60.2 109.1,60.2 109.2,60.2 109.3,60.1 109.4,60.1 109.4,60.1 109.5,60 109.6,60 109.6,60 109.7,59.9 109.8,59.8 
					109.8,59.8 109.9,59.7 110,59.6 110.1,59.5 110.3,59.3 110.4,59.2 110.5,59.1 110.5,59 110.6,58.9 110.6,58.9 110.7,58.8 
					110.7,58.7 110.7,58.6 110.7,58.6 110.8,58.5 110.8,58.4 110.8,58.4 110.8,58.3 110.8,58.2 110.7,58.1 110.7,58 110.7,57.9 
					110.7,57.8 110.7,57.7 110.7,57.6 110.7,57.5 110.8,57.5 110.8,57.4 110.8,57.3 110.8,57.3 110.9,57.2 110.9,57.1 111,57.1 
					111,57 111.1,57 111.2,56.9 111.3,56.8 111.3,56.8 111.4,56.7 111.4,56.6 111.4,56.6 111.4,56.5 111.4,56.5 111.5,56.5 
					111.7,56.6 111.8,56.6 111.9,56.6 111.9,56.6 112.2,55.8 112.2,55.7 112.2,55.7 112.3,55.7 112.3,55.7 112.4,55.7 112.5,55.7 
					112.6,55.7 112.8,55.6 113,55.6 113.2,55.5 113.5,55.4 113.8,55.4 114.1,55.3 114.2,55.3 114.3,55.2 114.4,55.2 114.5,55.2 
					114.5,55.2 114.6,55.1 114.7,55.1 114.9,55 115,54.9 115.1,54.9 115.1,54.8 115.2,54.8 115.3,54.7 115.3,54.6 115.4,54.6 
					115.4,54.5 115.5,54.5 115.5,54.4 115.5,54.3 115.8,54.2 115.9,54.2 116,54.3 116,54.3 116.1,54.4 116.2,54.4 116.3,54.5 
					116.4,54.5 116.5,54.5 116.5,54.5 116.6,54.6 116.8,54.6 116.9,54.6 117,54.6 117.1,54.7 117.1,54.7 117.2,54.7 117.3,54.8 
					117.4,54.8 117.4,54.8 117.5,54.9 117.7,55 117.9,55.1 118,55.2 118.3,55.4 118.4,55.4 118.4,55.5 118.5,55.5 118.6,55.5 
					118.7,55.5 118.7,55.6 118.8,55.6 118.9,55.6 119,55.6 119,55.5 119.1,55.5 119.3,55.5 119.4,55.5 119.5,55.4 119.8,55.4 
					120.1,55.3 120.2,55.2 120.2,55.2 120.3,55.2 120.4,55.2 120.4,55.3 120.5,55.3 120.6,55.3 120.6,55.4 120.7,55.4 120.7,55.5 
					120.8,55.6 120.9,55.6 120.9,55.6 121,55.7 121.1,55.8 121.1,55.8 121.2,55.8 121.3,55.9 121.3,55.9 121.4,55.9 121.5,55.9 
					121.5,55.9 121.6,55.8 121.6,55.8 122,55.3 				"/>
				<polygon class="st7" points="65.8,70 66.9,70.8 67.1,71 67.4,71.2 68.2,70.3 69.1,69.4 69.3,69.3 73.9,68.2 74.1,68.1 
					74.3,68.1 75.7,67.8 76.5,67.6 76.7,67.6 77.8,67.3 79.2,60 79.3,59.5 79.2,59.5 79.1,59.4 79,59.4 79,59.3 78.9,59.3 
					78.8,59.2 78.8,59.2 78.5,59.1 78.4,59.1 78.4,59 78.3,59 78.3,59 78.3,59 78.3,58.9 78.3,58.9 78.2,58.9 78.2,58.8 78.2,58.8 
					78.2,58.7 78.2,58.7 78.2,58.6 78.2,58.6 78.2,58.6 78.2,58.5 78.3,58.4 78.3,58.3 78.3,58.1 78.3,58 78.3,57.7 78.3,57.6 
					78.2,57.6 78.2,57.5 78.2,57.5 78.2,57.4 78.1,57.4 78.1,57.3 78,57.3 77.9,57.3 77.9,57.2 77.8,57.2 77.8,57.2 77.7,57.2 
					76.7,57.4 76.1,57.1 76.1,57.2 76.1,57.2 76,57.2 75.9,57.3 75.8,57.3 75.8,57.4 75.7,57.4 75.5,57.5 75.5,57.6 75.4,57.6 
					75.4,57.7 75.3,57.7 75.3,57.7 75.3,57.7 75.2,57.7 75.2,57.7 75.1,57.7 75.1,57.7 75,57.7 75,57.7 74.9,57.7 74.8,57.7 
					74.8,57.7 74.7,57.7 74.6,57.6 74.4,57.6 74.3,57.5 73.7,57 73,56.3 72.8,56.2 72.7,56 72.6,55.9 72.6,55.9 72.5,55.8 
					72.4,55.7 72.4,55.7 72.4,55.6 72.2,55.7 71.9,55.9 71.9,56 71.6,56.8 71.6,57 71.5,57.1 71.4,57.2 71,57.3 70.9,57.1 
					70.8,57.1 70.5,57 70.4,56.9 70.2,56.6 70.1,56.6 69.8,56.6 69.8,56.6 69.7,56.5 69.7,56.4 69.8,56.4 69.8,56.3 69.8,56.3 
					69.7,56.3 69.6,56.3 69.5,56.5 69.3,56.7 69.3,56.8 69.1,56.8 69,56.7 68.9,56.5 68.9,56.5 68.8,56.5 68.7,56.6 68.5,56.7 
					68.2,56.8 68,56.8 67.9,56.7 67.7,56.8 67.5,57.1 67.3,57.2 66.5,57.4 66.4,57.4 66.2,57.4 65.9,57.3 65.7,57.3 65.7,57.3 
					65.6,57.4 65.2,57.7 65.2,57.8 65.3,58 65.3,58.1 65.2,58.2 65.1,58.2 64.9,58.2 64.7,58.2 64.5,58.2 64,58.4 63.8,58.4 
					63.7,58.6 63.6,58.7 63.5,58.8 63.3,58.9 63.1,59 63,59 62.6,58.8 62.5,58.8 62.4,58.7 62.1,58.8 62.3,59 62.4,59.4 62.5,59.7 
					62.5,59.8 62.4,59.9 62.3,60 62.3,60.1 62.4,60.4 62.5,61.2 62.3,61.4 62,61.7 62,61.8 61.7,61.9 61.5,62 62.2,63.6 62.2,63.7 
					62.3,63.8 62.3,63.9 62.3,64 62.5,64.4 63.2,66.4 63.4,66.7 63.6,66.8 63.8,67 64.3,67.3 64.5,67.4 64.6,67.6 64.7,67.9 
					64.5,68.4 64.5,68.9 64.5,69.2 64.9,69.4 65.2,69.6 65.2,69.6 65.5,69.8 				"/>
				<polygon class="st7" points="53.9,80.1 56.3,81.8 59.6,79.2 61.3,76.4 61.4,76.3 62.3,75.9 62.7,75.2 65.3,73.6 67.4,71.2 
					67.1,71 66.9,70.8 65.8,70 65.5,69.8 65.2,69.6 65.2,69.6 65.1,69.6 64.9,69.5 64.6,69.7 64.5,69.7 64.1,69.7 64,69.7 
					63.9,69.6 63.8,69.5 63.7,69.2 63.6,69.1 63.5,69 63.4,69 63.3,69.1 62.8,69.4 62.6,69.5 62.5,69.5 62.5,69.5 62.1,69.4 
					61.8,69.4 61.5,69.6 61.5,69.7 60.8,70.2 60.3,70.7 60.2,70.7 60,70.8 59.7,70.8 59.7,70.8 59.6,71 59.5,71.1 59.3,71.2 
					59.1,71.3 58.8,71.3 58.6,71.4 58.5,71.5 58.4,71.5 58.3,71.6 58.2,71.7 58.1,71.8 58,71.8 57.9,71.9 57.9,72 57.6,72 57.5,72 
					57.4,72.1 57.4,72.2 57.2,72.3 57.1,72.4 57.1,72.4 57,72.3 57,72.3 57,72.1 56.9,72.1 56.9,72.1 56.7,72.1 56.4,72.1 
					56.4,72.1 56.3,72.2 56.2,72.2 56.2,72.3 56.2,72.5 56.2,72.5 56.1,72.7 56.1,72.8 56,72.9 56,73 55.9,73 55.8,73.1 55.8,73.1 
					55.7,73.1 55.4,73.1 55.2,73.1 55.2,73.2 55.2,73.3 55,73.6 55,73.7 55.1,73.8 55,73.9 55,73.9 55,74 55,74.1 55,74.2 
					55.1,74.4 55.1,74.5 55.1,74.6 55.1,74.7 55.1,74.8 55,75 54.9,75 54.8,75.1 54.2,75.2 53.9,75.3 53,75.4 52.8,75.5 52.7,75.8 
					52.6,76.3 52.5,76.6 52.4,76.8 52.3,77.2 52.3,77.4 52.4,77.5 52.4,77.8 53.1,77.7 				"/>
				<polygon class="st7" points="185.1,94.3 185.1,94.1 185,93.9 184.9,93.8 184.6,93.3 184.6,93.2 184.6,93 184.6,92.8 184.5,92.7 
					184.5,92.6 184.5,92.5 184.4,92.5 184.3,92.5 184.2,92.5 184.1,92.5 184,92.4 183.7,92.3 183.4,92 183.2,91.9 183.1,91.8 
					182.9,91.6 182.8,91.6 182.3,91.5 182.3,91.5 182.2,91.5 181.9,91.7 181.7,91.7 181.6,91.8 181.5,91.9 181.4,92 181.2,92.1 
					181,92.2 180.9,92.2 180.8,92.2 180.7,92.2 180.6,92.3 180.5,92.4 180.2,92.5 180.1,92.6 179.8,92.6 179.6,92.6 179.4,92.5 
					179.1,92.4 179,92.4 178.9,92.4 178.7,92.5 178.6,92.5 178.5,92.5 178.5,92.4 178.5,92.3 178.5,92.2 178.6,92.1 178.8,91.9 
					178.9,91.8 179.2,91.6 179.2,91.5 179.2,91.4 179.1,91.4 179,91.3 179,91.2 179,91 179,90.7 179.1,90.5 179.1,90.2 179.1,90.1 
					179,89.9 178.8,89.6 178.8,89.4 178.8,89.2 178.9,88.9 178.9,88.7 178.8,88.4 178.7,88.2 178.8,88.1 178.8,87.3 178.8,87.1 
					179,86.7 179.2,86.4 179.3,86.2 179.6,86.1 179.7,86 179.8,85.9 180,85.7 180.1,85.7 180.2,85.6 180.3,85.4 180.4,85.3 
					180.8,84.9 181.2,84.6 181.3,84.4 181.5,84.1 181.5,84.1 181.5,84 181.4,84 181.1,84 181,84 180.8,83.9 180.6,83.8 180.1,83.6 
					179.7,83.5 179.2,83.4 178.3,83.4 177.8,83.4 177.5,83.3 177.2,83.4 176,83.6 175.9,83.6 175.6,83.5 175.6,83.5 175.5,83.4 
					175.4,83.2 175.3,83 175.3,82.9 175.3,82.6 175.2,82.5 175.2,82.4 175.1,82.5 175,82.6 174.8,82.7 174.4,82.9 174.2,82.9 
					173.5,83 173.2,83.1 173.1,83.2 173,83.2 172.8,83.2 172.7,83.1 172.5,83 172.1,82.7 172,82.4 171.9,82.3 171.7,82.3 
					171.5,82.3 171.5,82.2 171.4,82 171.3,81.8 170.7,81.2 170.5,81.1 170.4,81.1 170.3,81 170.1,81.1 170,81.2 169.9,81.3 
					169.8,81.5 169.8,81.6 169.5,81.8 169.2,81.9 168.8,81.9 168.7,81.9 168.5,82 168.3,82.1 168,82.5 167.8,82.6 167.6,82.6 
					167.5,82.6 167.3,82.8 167.3,82.8 167.2,82.8 167,82.7 166.8,82.7 166.7,82.6 166.6,82.5 166.5,82.3 166.5,82.3 166.4,82.2 
					166.2,82 166,81.9 165.9,81.8 165.9,81.6 165.8,81.5 165.5,81.5 165.3,81.5 165,81.4 164.9,81.4 164.8,81.5 164.6,81.5 
					164.4,81.5 164.3,81.6 164,81.8 163.8,81.9 163.7,81.9 163.1,82.2 162.9,82.4 162.8,82.4 162.7,82.3 162.5,82.3 162.4,82.2 
					162,82.2 161.7,82.3 161.4,82.3 161.2,82.4 160.8,82.5 160.5,82.6 160.4,82.6 160.3,82.7 160.3,82.8 160.3,82.9 160.3,83 
					160.2,83 160,83.1 159.9,83.2 159.8,83.2 159.5,83.3 159.1,83.5 158.6,83.6 158.4,83.7 158.2,83.7 158,83.8 157.9,83.9 
					157.4,84.1 157.2,84.2 157,84.2 156.8,84.3 156.5,84.2 156.1,84.1 156,84.1 155.9,84.5 155.8,84.5 155.5,84.6 155.5,84.7 
					155.4,84.8 155.4,84.9 155.4,85 155.4,85.3 155.4,85.4 155.3,85.5 155.3,85.6 154.9,85.7 154.7,85.8 154.6,85.9 154.5,86 
					154.2,86.1 154.2,86.1 153.8,86.2 153.7,86.2 153.6,86.1 153.5,86.1 153.2,86.3 152.8,86.4 152.7,86.4 152.3,86.3 152.1,86.3 
					151.9,86.2 151.8,86.2 151.7,86.1 151.5,86 151.4,86 151.3,86 151.2,86 151,85.9 151,85.8 150.8,85.9 150.7,86 150.5,86 
					150.4,86.1 150.2,86.3 150,86.4 149.8,86.4 149.6,86.4 149.5,86.3 149.4,86.3 149.1,86 149,85.9 148.9,85.8 148.8,85.8 
					148.5,86 148.4,86 148.3,86 148.1,86 148,86 147.9,86 147.8,86.1 147.8,86.1 147.6,85.9 147.5,85.7 147.4,85.7 147.3,85.7 
					147.2,85.6 147,85.6 146.8,85.6 146.7,85.6 146.6,85.7 146.4,85.8 146.3,85.9 146.1,86 145.8,86 145.4,86.1 145.2,86.3 
					144.9,86.5 144.7,86.8 144.5,87.1 144.3,87.3 144.2,87.4 143.7,87.5 143.6,87.5 143.5,87.5 143.3,87.4 143.2,87.3 143.2,87.3 
					143,87.4 142.9,87.5 142.8,87.5 142.6,87.5 142.5,87.6 142.3,87.7 142.2,87.7 141.8,87.9 141.5,88 141.3,88 141.1,88 141,88 
					140.8,88.1 140.7,88.1 140.6,88 140.4,88 140.3,88 140.2,88.1 140.1,88.2 139.9,88.5 139.8,88.6 139.6,88.6 139.3,88.8 
					139,88.9 138.6,89.1 138.4,89.2 138.3,89.3 138.1,89.3 138,89.3 137.2,89.5 136.8,89.6 136.5,89.7 136.3,89.7 136.1,89.7 
					136,89.8 136,89.9 136,90 136,90.2 136,90.8 136.1,90.9 136.1,91.1 136.1,91.2 136.1,91.3 136.2,91.7 136.2,91.8 136.2,92 
					136.2,92.1 136.1,92.3 136,92.5 135.9,92.5 135.4,92.9 134.8,93.1 134.7,93.3 134.2,93.5 133.9,93.6 133.6,93.8 133.2,94 
					133,94.2 132.9,94.3 132.9,94.4 132.8,94.5 132.9,94.6 132.8,94.7 132.8,94.7 132.5,94.9 132.4,94.9 132.2,95.3 132,95.4 
					131.7,95.6 131.6,95.6 131.6,95.7 131.5,95.8 131.6,95.9 131.6,96 131.6,96.2 131.5,96.4 131.5,96.5 131,96.9 130.7,97.1 
					130.5,97.3 130.4,97.6 130.3,97.8 130,98 129.8,98.1 129.7,98.1 129.5,98.2 129.2,98.2 129.1,98.3 129,98.5 128.9,98.7 
					128.9,98.8 128.6,98.9 128.5,99 128.2,99.2 128.2,99.3 128.2,99.4 128.1,99.5 128.1,99.5 127.8,99.5 127.8,99.6 127.7,99.7 
					127.6,99.7 127.2,99.7 127.2,99.8 127.3,100 127.3,100 127.1,100.2 127.1,100.3 127,100.5 126.9,100.6 126.9,100.6 126.7,100.8 
					126.4,100.8 126.2,100.9 126.1,101 126,101.1 125.9,101.2 125.8,101.2 125.8,101.3 125.7,101.4 125.7,101.5 125.7,101.5 
					125.8,101.6 125.8,101.7 125.7,101.9 125.6,102.1 125.4,102.3 125.4,102.5 125.4,102.7 125.4,102.7 125.5,103 125.6,103.1 
					125.7,103.2 125.8,103.2 125.9,103.2 126.1,103.3 126.3,103.4 126.4,103.6 126.8,103.8 126.8,103.8 126.9,103.8 126.9,103.7 
					126.9,103.7 126.9,103.6 127,103.5 127,103.4 127,103.3 127,103.2 127,103.1 127,103 127,103 127.1,103 127.2,103 127.4,103 
					127.5,102.9 127.9,102.9 128.2,102.9 128.8,102.8 129.2,102.8 129.4,102.7 129.6,102.7 129.8,102.7 130.1,102.7 130.4,102.7 
					131,102.7 131.3,102.7 131.5,102.7 131.7,102.7 132.1,102.7 133.6,102.7 133.9,102.7 134.1,102.7 134.4,102.7 135.6,102.8 
					136,102.8 136.1,102.8 136.3,102.9 136.4,102.9 136.7,102.9 137,102.9 139.8,103.4 140.1,103.4 140.3,103.4 140.4,103.5 
					140.5,103.5 140.7,103.5 141,103.5 141.3,103.5 141.4,103.5 141.6,103.5 141.9,103.5 142.1,103.4 142.3,103.4 142.4,103.4 
					142.5,103.4 142.6,103.4 142.7,103.4 142.8,103.4 143,103.3 143.2,103.3 143.4,103.2 143.6,103.1 143.9,103.1 144.5,102.8 
					144.8,102.7 145,102.7 145.2,102.6 145.4,102.6 145.8,102.5 146.1,102.4 146.2,102.4 146.5,102.3 147.2,102.1 147.4,102.1 
					147.5,102.1 147.7,102 147.9,102 148.4,101.9 150,101.7 150.4,101.7 150.7,101.7 151,101.6 151.3,101.6 151.5,101.6 
					151.7,101.6 151.9,101.6 152.9,101.5 153.1,101.5 153.3,101.5 153.5,101.5 153.8,101.5 154.8,101.4 155.2,101.3 155.4,101.3 
					155.6,101.3 156.1,101.3 156.8,101.2 157.2,101.2 157.7,101.2 158,101.2 158.2,101.2 158.7,101.1 159.8,101 160.3,101 
					160.7,101 162.1,100.8 162.6,100.8 163,100.8 164.5,100.7 164.8,100.6 165,100.6 165.2,100.6 165.5,100.6 165.7,100.6 
					165.9,100.6 166.5,100.6 166.6,100.6 166.8,100.6 167,100.6 167.1,100.6 167.2,100.6 167.5,100.5 167.6,100.5 168,100.4 
					168.2,100.4 168.4,100.4 168.6,100.4 168.7,100.4 169,100.3 170.3,100.2 170.7,100.2 170.9,100.2 171.5,100.2 172.2,100.2 
					172.6,100.2 172.7,100.2 173,100.2 173.9,100.2 174.2,100.2 174.3,100.2 174.4,100.2 174.6,100.2 174.8,100.2 175,100.3 
					175.1,100.3 175.2,100.3 175.3,100.3 175.4,100.3 175.5,100.4 175.5,100.4 175.6,100.4 175.7,100.4 175.7,100.4 175.8,100.5 
					175.8,100.5 175.9,100.6 175.9,100.6 176,100.7 176,100.8 176.1,100.9 176.1,100.9 176.2,101 176.2,101 176.3,101.1 
					176.4,101.1 176.5,101.1 176.5,101.1 176.6,101.1 176.7,101.1 176.7,101.1 176.8,101.1 176.8,101.1 176.9,101.1 177,101.1 
					177.1,101 177.1,101 177.2,101 177.3,100.9 177.4,100.9 177.4,100.8 177.5,100.8 177.6,100.7 177.7,100.7 177.7,100.6 
					177.8,100.6 177.8,100.5 177.8,100.5 177.9,100.4 177.9,100.4 177.9,100.3 178,100.2 178,100.1 178,100 178,99.9 178,99.8 
					178,99.8 178,99.7 178,99.4 178,99.3 178,99.3 178,99.2 178.1,99.1 178.1,99 178.1,99 178.1,98.9 178.2,98.8 178.2,98.8 
					178.3,98.7 178.3,98.7 178.4,98.6 178.5,98.6 178.5,98.5 178.6,98.5 178.7,98.4 178.9,98.4 179,98.3 179.1,98.3 179.1,98.2 
					179.3,98.2 179.5,98.1 179.6,98.1 179.8,98.1 179.9,98 180,98 180.2,97.9 181.5,97.6 181.9,97.6 182.1,97.5 182.2,97.5 
					182.3,97.5 182.7,97.4 185.4,97 				"/>
			</g>
		</g>
	</g>
</g>
</svg>
