<?xml version="1.0" encoding="utf-8"?>
<!-- Generator: Adobe Illustrator 21.0.0, SVG Export Plug-In . SVG Version: 6.00 Build 0)  -->
<svg version="1.1" id="Layer_1" xmlns="http://www.w3.org/2000/svg" xmlns:xlink="http://www.w3.org/1999/xlink" x="0px" y="0px"
	 viewBox="0 0 230 230" style="enable-background:new 0 0 230 230;" xml:space="preserve">
<style type="text/css">
	.st0{fill:#FFFFFF;stroke:#7D8051;stroke-width:4;stroke-linejoin:round;stroke-miterlimit:10;}
	.st1{fill:#B6B98E;stroke:#7D8051;stroke-width:7;stroke-linejoin:round;stroke-miterlimit:10;}
	.st2{fill:none;stroke:#7D8051;stroke-width:7;stroke-linejoin:round;stroke-miterlimit:10;}
	.st3{fill:none;stroke:#7D8051;stroke-width:12;stroke-linecap:round;stroke-linejoin:round;stroke-miterlimit:10;}
	.st4{clip-path:url(#SVGID_2_);}
	.st5{fill:#FFFFFF;stroke:#7D8051;stroke-linejoin:round;stroke-miterlimit:10;}
</style>
<g>
	<g>
		<polygon class="st0" points="164.4,25.2 158.8,32.3 151,32.3 152.5,38.2 140.5,63.6 145,66.6 112.3,81.8 107.7,85.3 103.3,81.4 
			92.3,83.3 78.4,83.6 66.1,91.4 50.2,90.4 36.3,96.4 42.6,106.8 57.2,106.9 62.7,109.1 59,114.6 50.8,115.9 39.7,117.5 32.2,122.5 
			27.9,138 37.2,142 44.8,141.6 46.4,137.4 39.8,132.5 46.9,129.4 57.7,126.4 60.4,127.9 68.2,124.6 77.6,122.3 85.3,126.9 
			71.9,132.9 69.4,146.2 102.2,129.4 113.1,129.4 128.7,129.4 148.7,125.4 155,128.8 154.3,123.4 162.5,117.4 155.1,114.3 
			157.9,106.6 173.6,94.7 187.6,90.7 199.8,83.2 198.3,69.4 199.3,66.2 197.3,60.1 202.1,52.1 196,47.5 182.9,46.7 170.3,41 171,31 
			168.2,26.4 		"/>
		<polygon class="st0" points="58.5,146.2 55.1,140.8 62.9,132.9 69.4,146.2 		"/>
	</g>
	<g>
		
			<ellipse transform="matrix(0.3652 -0.9309 0.9309 0.3652 -24.3069 210.1665)" class="st1" cx="142" cy="122.9" rx="33.2" ry="33.2"/>
		<line class="st2" x1="129.9" y1="153.8" x2="123.2" y2="170.7"/>
		<line class="st3" x1="122.9" y1="171.5" x2="109.9" y2="204.8"/>
	</g>
	<g>
		<g>
			<defs>
				<circle id="SVGID_1_" cx="142" cy="122.9" r="28.8"/>
			</defs>
			<clipPath id="SVGID_2_">
				<use xlink:href="#SVGID_1_"  style="overflow:visible;"/>
			</clipPath>
			<g class="st4">
				<path class="st5" d="M140.7,84.2c-0.3-0.1-0.3-1.7-0.3-2.1c0-0.6,0.1-0.7,0.5-1.3c0.4-0.5,0.4-0.5,1.1-0.5
					c-0.3-1.5-0.5-3.1-0.8-4.6c-0.1-0.4-0.1-1-0.3-1.4c-0.2-0.4-0.7-0.6-0.9-0.9c-0.2-0.4-0.2-0.1-0.1-0.6c0-1.2,0.8-2.8,1.3-3.9
					c0.5-1.1,0.8-2.6,1.7-3.5s2.8-1.9,3-3.3c0.1-1.5-0.9-2.7-1.5-4c-1.4-2.8-2.7-5.6-4.1-8.3c-0.1-0.3-0.5-1.5-0.8-1.6
					c-0.2-0.1-0.9,0.3-1.2,0.4c-1.6,0.7-3.2,1.4-4.9,2.1c-0.4-1-1.4-2.4-1.2-3.5c0.3-1.3,1.1-2.7,1.5-3.9c0.4-1,0.7-3,1.7-3.6
					c0.4-0.2,1.8-0.9,2.2-0.8c0.4,0.1,1.2,1.1,1.5,1.4c0.1-1.2-0.1-1.3,1-1.7c-0.6-0.6-1.3-0.4-1.9-0.8c-0.6-0.3-0.8-0.9-1.3-1.3
					c-1-0.9-2.4-1.5-3.5-2.2c-3-1.9-6-3.8-9-5.7c-0.4,0.8-0.6,1.6-1.2,2.2c-1.1,1-2.1,2-3.2,3c-0.7,0.6-1.3,1.4-1.9,2.1
					c-0.3,0.3-0.8,0.7-0.9,1.1c-0.1,0.4,0.2,1.3,0,1.5c-0.1,0.2-1.1,0.2-1.3,0.2c-0.8,0.1-1.5,0.2-2.3,0.3c-1.1,0.2-1.8,0.4-2.8,0.8
					c-0.5,0.2-0.7,0.4-1.1,0.3c-0.4-0.1-1-1.2-1.4-1.2c-0.6,0-1.5,1.8-2,2.2c-1.1,0.7-2.7,0.3-3.8,1c-0.5,0.3-0.1,0.7-0.3,1.3
					c-0.1,0.6-0.5,0.7-1.1,1.1c1.3,0.9,3.7,1.8,4.2,3.4c0.3,0.8,0.4,2.2,0.1,2.9c-0.4,0.8-1.3,1.2-1.9,1.8c-0.4,0.4-0.6,1-1.1,1.3
					c-0.3,0.3-0.8,0.5-1.2,0.7c-0.5,0.3-1.7,0.7-1.7,1.4c0,0.4,0.4,0.7,0.6,1.1c0.2,0.4,0.1,0.7,0.2,1.1c0,0.2,0.1,0.4,0.2,0.6
					c0.2,0.4,0.3,0.4,0.7,0.5c0.2,0.1,0.6,0.3,0.8,0.3c0.1,0,0.2-0.2,0.3-0.2c0.5-0.1,0.4,0,0.9,0.3c0.8,0.5,1.8,0.4,2.4,1.1
					c0.2,0.3,0.6,0.6,0.8,0.8c0.3,0.3,0.2,0.3,0.2,0.7c0,0.8,0.1,1.4-0.4,2.1c-0.9,1.3-2.2,2.4-3,3.8c-0.5,0.9-0.4,1.8,0.4,2.6
					c0.5,0.5,1.2,0.6,1.8,0.9c1.6,1.1,4.5,1.2,5.1,3.4c0.3,1.3,1.3,1.9,2.3,2.9c0.9,0.8,1.4,0.8,2.2,0.2c0.7-0.5,0.6-0.1,1.4,0
					c0.6,0.1,1.2-0.5,1.8-0.2c0.8,0.5,0.1,1.5,0.3,2.1c0.1,0.4,0.5,0.4,0.9,0.6c0.5,0.3,0.5,0.5,0.4,1.1c-0.4,2.1-0.8,4.3-1.2,6.4
					c-0.3,1.3-0.7,2.8-0.7,4.2c0,2.6,0.1,5.2,0.1,7.8c0,0.7,0,1.3,0,2c0.7,0,1.4-0.6,2.1-0.7c0.5-0.1,1.1,0.2,1.6,0.1
					c0.4-0.1,0.7-0.6,1.2-0.3c0.3,0.2,0.4,0.7,0.6,1c0.5,0.6,2.1,2,3,1.5c0.5-0.4,0-0.9,0.1-1.4c0-0.3,0.2-0.6,0.4-0.9
					c0.8-1.1,1.6-1.9,2.1-3.3c0.4-1,0.5-1.8,1.3-2.6c1-1.1,2.3-2.1,3.3-3.2c0.7-0.7,1.3-0.9,2.1-1.4c0.9-0.7,0.4-1.8-0.5-2.4
					s-2.1,0.3-3.1,0.2c0.3-0.2,0.8-0.3,1.1-0.4c0.1,0,0.2-0.3,0.3-0.3c0.1,0,0.4,0.2,0.5,0.3c0.5,0,0.6-0.3,1-0.1
					c0.6,0.3,0.6,1.1,1.3,1.2c1,0,1.7-1.3,2.5-1.3c0.9,0,1.6-0.1,2.4-0.6c0.5-0.3,1.6-1.2,1-1.9c0.1,0,0.2-0.2,0.3-0.2
					C142,84.7,141.3,84.5,140.7,84.2z"/>
				<polygon class="st5" points="180.9,87.7 181,87.7 181.1,87.6 181.2,87.6 181.4,87.5 181.5,87.5 181.6,87.4 181.7,87.4 
					181.8,87.4 181.9,87.4 182,87.4 182.1,87.5 182.2,87.5 182.2,87.6 182.3,87.6 182.5,87.7 182.6,87.7 182.7,87.8 182.8,87.9 
					182.9,87.9 183,87.9 183.1,87.8 183.2,87.8 183.3,87.7 183.4,87.7 183.5,87.6 183.6,87.6 183.7,87.5 183.7,87.4 183.8,87.4 
					183.9,87.2 184,87 184,86.9 184.1,86.8 184.2,86.7 184.2,86.7 184.3,86.6 184.4,86.5 184.4,86.5 184.6,86.4 184.6,86.3 
					184.8,86.3 184.9,86.3 185.1,86.1 185.6,86 186,85.8 186.2,85.8 186.4,85.7 186.5,85.7 186.6,85.7 186.7,85.6 186.8,85.6 
					186.9,85.6 187,85.6 187.1,85.7 187.3,85.7 187.4,85.8 187.4,85.8 187.6,85.8 187.7,85.9 187.8,86 187.9,86 188,86.1 188,86.1 
					188,86.1 188.1,86.1 188.1,86.2 188.1,86.3 188.2,86.3 188.2,86.5 188.2,86.6 188.3,86.8 188.3,87 188.4,87.4 188.4,87.6 
					188.5,87.8 188.5,87.9 188.5,87.9 188.5,88 188.5,88.1 188.5,88.2 188.5,88.3 188.5,88.3 188.5,88.5 188.5,88.6 188.4,88.8 
					188.4,89 188.3,89.2 188.4,89.2 188.5,89.2 188.6,89.2 188.7,89.2 188.8,89.2 188.9,89.3 189,89.3 189.1,89.4 189.2,89.4 
					189.3,89.5 189.4,89.7 189.6,89.8 189.8,89.9 189.9,90 189.9,90.1 190.1,90.1 190.3,90.3 190.5,90.4 190.7,90.4 190.8,90.5 
					191,90.6 191.1,90.6 191.4,90.6 191.6,90.7 191.9,90.8 192.6,91 192.9,91.1 193.2,91.1 193.4,91.2 193.7,91.3 193.9,91.3 
					194.1,91.3 194.2,91.4 194.2,91.4 194.4,91.5 194.4,91.5 194.4,91.5 194.5,91.6 194.5,91.7 194.6,91.7 194.6,91.7 194.6,91.8 
					194.8,91.9 194.9,91.9 195.1,92 195.3,92.1 195.4,92.2 195.6,92.4 195.7,92.4 195.8,92.5 195.8,92.6 195.9,92.7 196,92.8 
					196.4,93.2 196.5,93.3 196.6,93.3 196.6,93.4 196.7,93.5 196.8,93.5 196.9,93.5 196.9,93.6 197,93.7 197.1,93.7 197.2,93.7 
					197.3,93.7 197.6,93.7 197.7,93.8 197.8,93.8 197.9,93.8 198,93.9 198,93.9 198.1,94 198.2,94 198.2,94.2 198.3,94.2 
					198.4,94.4 198.4,94.5 198.5,94.5 198.5,94.7 198.6,94.8 198.7,94.9 198.7,95 198.7,95.1 198.8,95.3 198.8,95.4 198.8,95.4 
					198.8,95.5 198.7,95.6 198.6,96.2 198.6,96.3 198.5,96.5 198.5,96.6 198.5,96.7 198.5,96.9 198.5,97.1 198.5,97.5 198.4,98.1 
					198.4,98.5 198.4,98.7 198.4,98.8 198.4,99 198.4,99.1 198.4,99.2 198.4,99.3 198.5,99.4 198.5,99.5 198.5,99.6 198.6,99.7 
					198.7,99.7 198.9,100.1 198.9,100.2 199,100.3 199.1,100.5 199.1,100.5 199.1,100.6 199.2,100.8 199.2,100.9 199.2,101 
					199.3,101 199.3,101.3 202.3,104.1 203,104.8 203.3,105 203.5,105.1 203.7,105.1 204,105.1 204.3,104.9 204.4,104.8 
					204.6,104.6 204.9,104.4 205.3,104.4 205.7,104.5 206.1,104.6 208.3,110.2 210.5,115.7 210.6,115.7 210.9,115.7 211.1,115.8 
					211.2,115.9 211.4,115.9 211.5,116 211.7,116.2 211.9,116.4 212,116.4 212.1,116.4 212.2,116.3 212.3,116.3 212.6,116.3 
					212.8,116.3 212.9,116.3 213.2,116.1 213.4,116.1 213.5,116.2 213.7,116.3 214.1,116.7 214.2,116.7 214.3,116.8 214.6,116.9 
					214.9,116.8 215.1,116.7 215.4,116.4 215.5,116.3 215.8,116.3 216,116.2 216.2,116.1 216.3,116.2 216.5,116.3 216.6,116.4 
					216.8,116.3 216.9,116.4 217.1,116.5 217.2,116.6 217.4,116.6 217.7,116.7 218,116.7 218.5,116.9 218.6,116.9 219.1,116.7 
					219.5,116.5 219.7,116.5 219.8,116.6 219.9,116.6 220.5,116.5 220.5,116.4 220.9,116.4 221,116.2 221.2,116.1 221.4,116 
					222,115.7 222,115.7 222.1,115.5 222.1,115.4 222.1,115 222.1,114.9 222.2,114.8 222.2,114.6 222.3,114.5 222.7,114.3 
					222.7,114.2 222.9,113.8 223.1,113.7 223.6,113.9 223.9,114 224.3,113.9 224.5,113.9 224.8,113.7 225.4,113.5 225.6,113.3 
					225.8,113.2 226.1,113.2 226.4,113.2 227.1,113 227.6,112.7 228.1,112.6 228.2,112.5 228.2,112.4 228.5,112.3 228.6,112.3 
					228.7,112.1 228.7,112 228.7,111.9 228.8,111.8 228.9,111.7 229.3,111.6 229.9,111.5 230.2,111.4 230.6,111.4 231,111.2 
					231.5,111.2 231.6,111.3 231.8,111.4 232,111.5 232.1,111.5 232.4,111.2 233.3,110.8 233.4,110.8 233.6,110.7 234,110.5 
					234.2,110.3 234.5,110.3 234.7,110.3 234.9,110.2 234.9,110.1 235.4,110.3 235.7,110.3 236.1,110.3 236.1,110.4 236.2,110.7 
					236.3,110.8 236.6,110.9 236.8,111.2 237,111.3 237,111.4 237.2,111.7 237.3,111.8 237.4,111.9 237.7,111.9 237.9,112 238,112 
					238.1,112 238.3,111.8 238.4,111.8 238.8,111.8 239,111.6 239.4,111.1 239.6,111 239.9,110.8 240.1,110.8 240.6,110.8 
					241,110.7 241.3,110.5 241.4,110.3 241.6,110 241.7,109.9 241.8,109.8 242,109.6 241.8,109.4 241.7,109.1 241.8,108.9 
					241.8,108.8 241.7,108.7 241.7,108.5 241.5,108.5 241.3,108.4 241.1,108.3 240.9,108 240.4,107.7 240.3,107.6 239.8,107.6 
					239.6,107.5 239.3,107.4 238.8,107.2 238.6,107.1 238.4,107.2 238.3,107.1 238.1,106.9 237.9,106.7 237.8,106.6 237.9,106.5 
					238,106.4 238.1,106.3 238.3,106.2 238.3,106.1 238.4,105.9 238.4,105.8 238.5,105.7 238.6,105.5 238.8,105.5 239.2,105 
					239.2,104.8 239.2,104.7 239.8,103.9 239.9,103.9 240.1,103.9 240.2,103.7 240.4,103.7 240.6,103.5 240.9,103.3 241,103.1 
					241.2,102.5 241,102.1 241,102.1 240.5,102.1 240.4,102 240.4,101.9 240.4,101.9 240.3,101.7 240.1,101.4 239.9,101.4 
					239.6,101.3 239,101.2 238.7,101.1 238.4,101 238.4,100.9 238.4,100.9 238.4,100.6 238.3,100.5 237.9,100.1 237.5,99.9 
					237.2,99.9 236.8,99.7 236.8,99.7 236.8,99.9 236.6,100.1 236.4,100.3 236.3,100.3 236.1,100.1 235.9,100.2 235.8,100.3 
					235.6,100.3 235.4,100.4 235.1,100.5 234.9,100.5 234.6,100.5 234.3,100.6 234.2,100.7 233.6,100.8 233.4,100.8 233.3,100.7 
					233.1,100.7 232.9,100.8 232.7,101.1 232.5,101.2 232.2,101.4 232,101.2 231.9,101.2 231.8,101.2 231.6,101.4 231.4,101.5 
					230.8,101.3 230.6,101.3 230.5,101.3 230.5,101.2 230.4,101.1 230.2,100.8 230,100.7 229.7,100.6 229.1,100.6 229,100.7 
					228.7,100.7 228.5,100.6 228.2,100.5 228.1,100.3 228,100.2 227.9,100.1 227.5,99.6 227.6,99.5 227.5,99.4 228.1,99.1 
					228.4,99.1 228.4,99.1 228.5,98.8 228.5,98.7 228.4,98.5 228.3,98.5 228.5,98.1 228.6,97.9 228.7,97.7 228.8,97.7 229.1,97.7 
					229.3,97.8 229.4,97.8 229.7,97.6 229.8,97.6 230,97.8 230.2,97.8 230.5,97.2 230.8,96.5 231.2,96.3 231.4,96.2 231.5,96.1 
					231.6,95.9 231.6,95 231.2,95.1 231.1,95 230.8,94.7 230.6,94.6 230.4,94.5 230.4,94.4 230.2,94.4 229.9,94.4 230.1,94.1 
					230.4,93.8 230.5,93.5 230.5,93.1 230.6,92.9 230.6,92.6 230.6,92.4 230.4,92.2 230.4,92.2 230.5,92 230.6,91.9 230.8,91.7 
					230.8,91.7 230.9,91.4 230.9,91.3 230.8,91.2 230.7,91.1 230.6,91 230.7,90.6 230.7,90.5 230.6,90.6 230.4,90.6 230.4,90.6 
					230.2,90.5 230,90.3 229.9,90.1 229.7,90.4 229.3,90.8 229.1,90.9 229,90.9 228,90.3 228.2,90 228.4,89.5 228.3,89.4 
					228.2,89.3 227.9,89 227.5,88.6 227.4,88.4 227.4,88.2 227.4,88.1 227.2,88 227,88 226.8,87.9 228.2,86.5 228.8,86.5 
					229.7,86.6 229.9,86.7 230.5,86.7 231.4,86.7 232.4,86.8 233.6,86.9 234.1,86.8 234.5,86.8 235,86.9 235.5,87 235.5,86.7 
					235.4,86.5 235.4,86.1 235.4,85.8 235.5,85.5 235.6,84.8 235.6,84.6 235.6,84.3 235.6,84.2 235.8,84 236.1,83.6 236.2,83.5 
					236.2,83.3 236,82.6 236,82.4 235.7,82.1 235.4,81.9 235,81.7 234.5,81 234.6,80.7 234.5,80.6 234.4,80.4 234.3,80.4 
					234.2,80.4 234.3,80.2 234.4,79.8 234.6,79.7 235.2,79.7 235.6,79.6 235.9,79.4 236.2,79.3 236.3,79 236.7,78.9 237.2,78.7 
					237.4,78.6 237.5,78.3 237.6,78.3 238.4,76.1 238.5,75.9 238.5,75.8 238.6,75.6 239.2,75.1 239.2,75 238.3,73.8 237.2,72.5 
					235.4,70.2 235.1,69.8 232.8,67 231.9,65.9 230.9,64.7 230.8,64.7 229.8,63.4 229.7,63.4 229.7,63.4 229.5,63.5 229.5,63.5 
					229.4,63.6 229.3,63.6 229.3,63.6 229.1,63.7 228.9,63.9 228.8,63.9 228.6,64 228.6,64.1 228.5,64.1 228.4,64.1 228.4,64.1 
					228.3,64.1 228.2,64.1 228.2,64.1 228.1,64.1 228.1,64.1 228,64.1 227.9,64.1 227.9,64.1 227.8,64 227.6,63.9 227.5,63.8 
					227,63.5 226.9,63.5 223.7,64.1 222.6,64.3 220.6,64 220.2,63.9 220,63.9 219.7,63.8 219.3,63.8 219.1,63.7 219,63.7 
					218.9,63.7 218.9,63.7 218.8,63.7 218.8,63.7 218.7,63.7 218.6,63.7 218.6,63.8 218.5,63.8 218.4,63.8 218.2,63.9 218,64 
					217.1,64.4 215.5,65.1 215.2,65.2 215.1,65.2 215,65.3 214.8,65.3 214.7,65.4 214.6,65.4 214.5,65.4 214.3,65.4 214.2,65.4 
					214.1,65.4 213.7,65.4 213.5,65.4 213.4,65.4 213.2,65.4 213.2,65.4 213,65.4 212.8,65.5 212.5,65.6 212.4,65.6 212.1,65.6 
					212,65.6 211.8,65.7 211.7,65.7 211.6,65.7 211.5,65.8 211.4,65.8 211.1,65.9 210.9,66.1 210.8,66.1 210.7,66.1 210.5,66.3 
					210.1,66.4 209.6,66.8 209.6,66.8 208.7,67.3 207.7,67.7 207,67.9 205.9,68 205.1,68.1 204.6,68.2 204.6,68.4 204.6,68.6 
					204.6,69 205,69.2 205.3,69.3 205.1,69.5 204.9,69.5 204.8,69.6 204.5,69.8 204.3,69.9 204.2,70 204.2,70.1 204.3,70.2 
					204.5,70.5 204.4,70.6 204.4,70.7 204.7,70.7 204.8,71.1 204.7,71.7 204.7,71.8 204.6,71.8 204.4,72 204.3,72.2 204.2,72.2 
					204.1,72.4 204,72.4 203.9,72.5 203.9,72.5 203.8,72.6 203.7,72.7 203.7,72.8 203.7,72.9 203.5,73.2 203.5,73.3 203.4,73.4 
					203.4,73.5 203.3,73.6 203.2,73.8 202.9,74.1 202.7,74.5 202.5,74.8 202.2,75.2 202.1,75.2 202.1,75.4 202,75.4 202,75.5 
					201.9,75.6 201.9,75.7 201.8,75.8 201.8,75.9 201.8,76 201.7,76.1 201.7,76.2 201.7,76.3 201.6,76.3 201.6,76.3 201.4,76.5 
					201.2,76.7 200.9,77 200.7,77.2 200.6,77.2 200.5,77.3 200.4,77.4 200.3,77.4 200.2,77.4 200.1,77.5 200,77.5 199.9,77.5 
					199.8,77.5 199.7,77.5 199.5,77.6 199,77.7 198.8,77.7 198.7,77.7 198.6,77.7 198.5,77.7 198.4,77.8 198.4,77.9 198.3,77.9 
					198.3,77.9 198.2,77.9 198.2,78.1 198.2,78.1 198.2,78.3 198.2,78.4 198.2,78.4 198.2,78.5 198.2,78.6 198.2,78.8 198.2,79 
					198.2,79.4 198.2,79.5 197.5,80.1 197.4,80.1 197.3,80.1 197.3,80.2 197.3,80.2 197.2,80.3 197,80.7 196.9,80.7 196.9,80.8 
					196.9,80.8 196.7,80.9 196.7,81 196.6,81 196.6,81.1 196.5,81.1 196.4,81.1 196.3,81.1 196.2,81.1 196.2,81.1 196.1,81.1 
					196,81.2 195.9,81.2 195.8,81.3 195.6,81.3 195.5,81.4 195.5,81.4 195.5,81.5 195.4,81.5 195.3,81.5 195.3,81.6 195.2,81.7 
					195.2,81.7 195.1,81.8 195.1,81.9 195,82.2 194.8,82.5 194.8,82.6 194.8,82.7 194.7,82.7 194.7,82.9 194.7,82.9 194.6,83 
					194.6,83.1 194.6,83.1 194.6,83.2 194.7,83.3 194.7,83.4 194.7,83.5 194.8,83.5 194.8,83.6 194.8,83.6 194.7,83.6 194.6,83.7 
					194.6,83.7 194.5,83.7 194.4,83.7 194.2,83.6 194.2,83.6 194.1,83.6 194.1,83.6 194,83.7 193.9,83.7 193.9,83.7 193.7,83.7 
					193.7,83.8 193.6,83.8 193.5,83.8 193.5,83.8 193.4,83.9 193.3,84 193.3,84 193.1,84.2 192.6,84.7 192.5,84.9 192.4,84.9 
					192.4,85 192.3,85.1 192.3,85.2 192.2,85.2 192.1,85.2 192.1,85.2 191.9,85.1 191.9,85.1 191.8,85.1 191.7,85 191.7,84.9 
					191.6,84.9 191.6,84.8 191.5,84.7 191.4,84.7 191.4,84.5 191.3,84.5 191.2,84.4 191.2,84.3 191.2,84.3 191.1,84.3 191,84.3 
					191,84.3 190.9,84.3 190.8,84.3 190.7,84.3 190.7,84.3 190.5,84.3 190.4,84.3 190.3,84.3 189.6,84.5 189.4,84.5 189.2,84.6 
					189,84.6 188.8,84.7 188.6,84.7 188.5,84.7 188.3,84.6 188.2,84.5 188.2,84.5 188,84.4 188,84.3 187.8,84.2 187.8,84.2 
					187.7,84 187.6,84 187.6,83.8 187.5,83.7 187.4,83.4 187.4,83.3 187.3,83.2 187.3,83.1 187.3,83 187.2,82.9 187.1,82.8 
					187.1,82.7 187,82.7 186.9,82.6 186.9,82.6 186.8,82.5 186.7,82.4 186.6,82.4 186.5,82.3 186.4,82.2 186.4,82.2 186.2,82.2 
					186.1,82.1 186,82 185.9,82 185.8,82 185.6,82 185.6,81.9 185.5,81.9 185.3,81.9 185.3,81.8 184.9,81.8 184.6,81.8 184.2,82 
					184.1,82 184,82.1 183.9,82.2 183.9,82.3 183.7,82.4 183.7,82.4 183.6,82.6 183.5,82.6 183.5,82.7 183.5,82.8 183.5,82.9 
					183.5,83 183.4,83.3 183.3,83.5 183.3,83.6 183.3,83.7 183.2,83.8 183.1,83.8 183.1,83.9 183.1,84 183,84 182.9,84 182.8,84 
					182.7,84.1 182.6,84.1 182.4,84.1 182.2,84.1 182,84.1 181.7,84.1 181.7,84.1 181.5,84.1 181.4,84.1 181.3,84.1 181,84 
					180.8,84 180.6,83.9 180.5,83.8 180.4,83.8 180.3,84.2 180.3,84.3 180.2,84.6 180.2,84.7 180.2,84.9 180.2,84.9 180.1,85.1 
					180.1,85.3 180.1,85.6 180.1,85.7 180.1,85.8 180.1,86 180.1,86.1 180.2,86.1 180.2,86.3 180.2,86.4 180.3,86.7 180.3,86.9 
					180.4,87 180.4,87.1 180.5,87.2 180.5,87.4 180.5,87.4 180.6,87.5 180.6,87.6 180.7,87.6 180.8,87.6 180.8,87.6 				"/>
				<path class="st5" d="M165.5,113.9c0.7,0.3,1.4,0.7,2.1,0.9c0.7,0.2,1.3,0.2,2,0.5c0.8,0.4,1.6,0.4,2.5,0.8
					c0.4,0.1,0.5,0.3,0.9,0.5s0.7,0,1.2,0.1c0.3,0,0.7,0.2,1,0.3c0.2,0,0.4,0,0.5,0c0.1,0.1,0.2,0.4,0.3,0.4c0.5,0.2,1.2-0.1,1.8,0
					c0.4,0,0.5,0,0.9,0.3c0.3,0.2,0.7,0.6,1,0.6s0.6-0.2,1-0.2s0.6,0.2,0.9,0.5c1.1,0.9,2.2,1.8,3.2,2.6c1.5,1.2,2.4-0.9,3.9-0.6
					c1.2,0.3,1.4,1.8,1.5,2.8c0,0.7-0.5,1.6-0.3,2.3c0.1,0.4,1.1,1.4,1.5,1.3c0.8-0.3,0.5-1.5,0.8-2.1c0.3-0.4,1.3-0.8,1.9-1.1
					c0.6-0.3,1.6-0.8,2.2-0.4c0.1-0.4-0.2-1-0.1-1.5c0.1-0.6,0.3-0.4,0.9-0.6c1.2-0.3,2.1-0.6,3.2-1.1c0.3-0.1,0.6-0.2,0.9-0.3
					c0.2-0.1,0.3-0.4,0.5-0.6c0.3-0.2,0.6-0.1,1-0.1c0.9-0.1,1.8-0.7,2.7-0.8c0.5-0.1,0.7,0.1,1.2,0c0.7-0.1,0.8-0.6,1.2-1
					c0.4-0.6,0.9-0.8,1.5-0.9c0.3-0.1,1-0.2,1.1-0.6c0.1-0.5-0.6-1.6-0.8-2c-0.4-0.9-0.7-1.8-1.1-2.7c-0.4-1.1-0.9-2.2-1.3-3.3
					c-0.3-0.8-0.6-1.7-1-2.6c-0.3-0.5-0.4-0.6-1-0.6c-0.7,0-0.8,0.5-1.4,0.6c-0.6,0.2-1-0.4-1.4-0.8c-0.9-1-2.4-1.8-3.1-3
					c-0.3-0.4-0.5-1.1-0.7-1.6c-0.3-0.7-0.2-1.4-0.1-2.1c0.1-0.7,0.4-1.6,0.3-2.3c0-0.4-0.4-1.1-0.7-1.3c-0.4-0.3-1-0.2-1.4-0.5
					c-0.5-0.4-0.8-1-1.4-1.3c-0.6-0.4-0.8-0.6-1.5-0.8c-1-0.3-2.1-0.4-3-0.8c-0.7-0.3-1.1-0.8-1.7-1.2c-0.2-0.1-0.5-0.1-0.7-0.1
					c0.5-1.5,0-3.7-1.8-3.5c-0.7,0.1-1.8,0.4-2.3,1c-0.4,0.4-0.6,1.2-1.3,1.2c-0.3,0-0.6-0.4-0.9-0.4c-0.4-0.1-0.8,0.3-1.2,0.2
					c0.2,0.6,0.4,0.9-0.1,1.3c-0.4,0.3-1,0.4-1.4,0.6c-0.9,0.4-1.6,0.8-2.4,1.4c-1.7,1.2-4.4,1.4-4.4,3.9c0,0.9-0.4,1.4-1.1,2
					c-0.7,0.5-1.4,0.7-1.5,1.6c-0.1,0.7,0.2,1.7,0.7,2.2c0.4,0.4,1.9,0.8,2.4,0.5c0.6-0.3-0.7-1.1-0.8-1.7c0-1.1,1.1-1.2,1.9-1.2
					c-0.6,0.1-1.5,0.2-1.7,0.9c-0.2,0.6,0.3,1,0.8,1.3s0.8,0.4,0.4,0.8c-0.2,0.2-0.7,0.3-1,0.5c-0.4,0.3-0.8,0.7-1.1,1.1
					c-0.4,0.6-0.6,1.2-1.1,1.7s-1.1,0.7-1.8,1c-0.6,0.3-1.5,0.8-1.9,1.4c-0.4,0.7,0.1,1,0.2,1.6c0.2,0.7-0.3,1.7-0.7,2.4
					c-0.4,1-0.5,1.9-1.2,2.7C165.3,113.7,165.4,113.9,165.5,113.9z"/>
				<path class="st5" d="M183.1,139.7c-0.3-0.3-0.8-0.2-1-0.5c-0.4-0.5,0-0.9,0.2-1.4c0.1-0.2,0.1-0.5,0.1-0.6c0,0-0.1-0.2-0.1-0.3
					c0.1-0.2,0.6-0.5,0.8-0.6c0.5-0.3,0.8-0.2,1.1-0.8c0.1-0.1,0.2-0.3,0.3-0.5c0,0-0.1-0.3-0.2-0.3c0.2-0.2,0.2,0,0.4-0.1
					c0.3-0.1,0.6-0.1,0.8-0.3c0.2-0.1,0-0.3,0.1-0.4c0.2-0.2,0.6-0.3,0.8-0.5c0.4-0.5,0.2-0.6,0.8-0.8c0.5-0.2,0.9-0.2,1.3-0.7
					c0.3-0.4,0.5-0.7,0.9-1.1c0.2-0.2,0.5-0.4,0.7-0.6c0.2-0.3,0-0.5,0.1-0.7c0.2-0.7,1.1-1,1.6-1.6c0.2-0.2,0.1-0.4,0.3-0.7
					c0.3-0.4,0.9-0.7,1.4-0.9c0.9-0.4,2.2-0.7,2.7-1.7c0.6-1.1-0.3-1.7-1.3-1.4c-0.4,0.1-0.8,0.4-1.2,0.6s-1.1,0.4-1.4,0.7
					c-0.7,0.5-0.1,2-1.1,2.3c-0.5,0.2-1.5-1-1.5-1.5c-0.1-0.5,0.3-1.1,0.3-1.6c0-1.5-0.4-3.7-2.3-3.2c-0.8,0.2-1.6,1.1-2.5,0.8
					c-0.5-0.2-0.6-0.6-1-0.8c-0.3-0.2-0.7-0.3-1.1-0.6c-0.6-0.6-1.5-1.8-2.4-1.9c-0.5-0.1-0.8,0.2-1.3,0s-0.8-0.7-1.4-0.8
					c-0.4-0.1-1,0.1-1.4,0.1c-0.2,0-0.3,0.2-0.5,0.2c-0.2-0.1-0.2-0.4-0.4-0.5c-0.3-0.2-1-0.2-1.3-0.2c-0.5-0.1-1,0-1.5-0.2
					c-0.4-0.2-0.8-0.5-1.3-0.6c-0.7-0.2-1.2-0.2-1.9-0.5c-1-0.4-1.9-0.4-2.8-0.8c-0.5-0.2-0.9-0.5-1.4-0.6c-0.2-0.1-0.2-0.2-0.5-0.2
					c-0.1,0-0.4,0.5-0.5,0.6c-0.3,0.4-0.6,1-0.8,1.4c-0.2,0.6,0,1.1-0.1,1.7c0,0.3-0.3,1.4-0.4,0.7c-0.2-0.8,0.7-2.8-1.1-2.3
					c-0.3,0.1-1.1,0.5-1.1,0.9s1,0.5,1.3,0.7c0.6,0.4,0.8,2.3-0.3,1.8c-0.3-0.2-0.5-0.7-0.9-0.9c-0.4-0.2-0.9-0.3-1.3-0.2
					c-0.5,0.1-0.7,0.5-0.9,0.9c-0.3,0.8,0.1,0.6,0.7,0.7c0.9,0.1,1.5,1.1,1.2,2.1c-0.1,0.4-0.6,0.8-0.8,1c-0.4,0.3-1.3,0.4-1.5,0.8
					c-0.3,0.7,1,1.7,1.7,1.6c0.5-0.1,0.6-0.5,1.1-0.7c0.3-0.1,1-0.2,1.4,0c0.4,0.1,0.8,0.6,1,1c0.2,0.5,0,1,0.4,1.3
					c0.9,0.5,2.4-1,3,0.2c0.4,0.9,0,2.4-0.4,3.1c-0.4,0.8-1.3,1.4-2.2,1.3c-0.9-0.2-1.6-1.2-2-1.9c-0.2-0.4-0.3-1.2-0.9-1.1
					c-0.5,0.1-0.2,0.8-0.2,1.3c0,1-0.7,1.8-1.6,2.1c-0.2,0-0.6-0.1-0.6,0.2c0,0.1,0.5,0.2,0.6,0.2c0.8,0.1,1.5-0.2,2.2-0.3
					c1.7-0.2-0.3,1.3,0.3,1.7c0.4,0.3,1.2-0.1,1.3,0.5s-0.5,0.7,0.3,1.1c0.9,0.5,1.9,0,2.9,0c1.1,0.1,2.2,0.3,3.3,0.5
					c0.8,0.1,1.5,0.2,2.2,0.5c1.1,0.6,2.4,0.5,3.5,1.1c0.7,0.4,1.8,1.3,1.6,2.1c-0.1,0.3-2.1,2-0.5,2c1-0.1,1.3-1.5,2.4-1.5
					c0.4,0,1.1,0.2,1.3,0.4c0.3,0.3,0.3,1,1,0.9c0.6-0.1,0.3-0.9,0.8-1.1c0.4-0.2,1,0.2,1.5,0.1C183.5,140,183.2,139.9,183.1,139.7z
					 M174.4,134c0.1,1.2-1.9,1.2-2.6,1.1c-1-0.2-2-0.5-3.1-0.6c-0.7-0.1-1.3,0.1-2,0.3c0-0.7,0.6-1.1,1.2-1.2c0.8-0.1,1-0.1,1.5-0.8
					c1-1.3,2.5-1.5,3.8-0.4C173.7,132.7,174.3,133.4,174.4,134z M179.8,134.7c-0.1,0.4-0.4,0.7-0.5,1.1c-0.1,0.4,0,0.8,0,1.3
					c-0.1,0.7-0.6,1.1-1.3,1c-1.5-0.2-2.1-2.4-1.1-3.4c0.6-0.6,1.5-0.2,2.2-0.4c-0.2,0.3-0.9,1.1-0.3,1.1
					C179.3,135.6,179.4,134.5,179.8,134.7z"/>
				<path class="st5" d="M149.2,101.9c0-0.3,0.6-0.5,0.9-0.7c0.5-0.4,1-0.9,1.4-1.4c0.6-0.7,1.1-0.9,1.9-1.3
					c0.5-0.3,1.2-0.7,0.9-1.3c-0.1-0.2-0.4-0.1-0.4-0.4c0-0.2,0.1-0.5,0.3-0.7c-0.7-0.1-1.9-0.8-2.3,0.1c-0.1,0.3,0,0.8-0.1,0.8
					c-0.7,0.3-1-1-0.7-1.4c-1-0.5-0.9,1.4-1.8,1.5c-0.5,0.1-0.9-0.4-1.3-0.4c-0.8,0.1-0.6,1-0.5,1.6c0.1,0.5,0.2,1.6-0.5,1.7
					c-0.3,0-0.6-0.3-0.8-0.4c-0.7-0.3-1.1,0.1-1.8,0.2s-1.2-0.6-1.7-1.1c-0.7-0.6-1.3-1.1-2.3-1.3c-0.3-0.1-0.9-0.2-1.1,0
					c-0.2,0.2-0.1,0.5-0.2,0.7c-0.3,0.6-1.3,0.8-2,1c-1,0.3-2.1,0.3-3,0.9c-1.2,0.7-2.2,2.5-2.6,3.7c-0.6,1.8,1,3.1,2.3,4.3
					c0.6,0.6,1.1,0.9,1.9,0.8c1-0.2,1.9-0.4,2.6-1.3c0.9-1.2,2-2.2,3.5-2.6c0.3-0.1,1.1-0.2,1.4-0.1c0.2,0.1,0.4,0.4,0.7,0.5
					c0.7,0.3,1.9-0.2,2.7,0.1c0.5,0.2,0.9,1.1,1.2,1.6c0.3,0.4,0.5,0.9,0.8,1.3c0.3-0.2,0.8-0.9,1.2-0.9s0.5,0.3,0.8,0.4
					c0.6,0.2,0.9-0.2,1.2-0.8c0.3-0.6,0.4-1-0.2-1.3c-0.6-0.3-0.9-0.3-1.3-1c-0.2-0.3-0.2-0.8-0.3-1.2c-0.1-0.4,0-1-0.3-1.3
					C149.7,102.1,149.3,102.1,149.2,101.9z"/>
				<polygon class="st5" points="163.1,93 163.3,93.7 163.6,93.9 164,94 164.4,93.8 164.9,93.1 164.9,92.8 164.4,92 164.3,91.2 
					164.7,90.3 164.7,89.7 164.3,89.4 164,89.4 163.6,89.6 163.6,90.4 163.6,91.5 163.3,92.6 				"/>
				<polygon class="st5" points="150.7,122.8 151.1,122.8 151.3,122.8 151.3,122.8 151.5,122.8 151.6,122.8 151.7,122.8 
					151.8,122.7 151.8,122.7 151.9,122.7 152,122.7 152,122.6 152,122.5 152,122.5 152,122.5 152,122.4 152,122.3 151.9,122.3 
					151.8,122.3 151.8,122.2 151.7,122.1 151.6,122.1 151.6,122.1 151.5,122.1 151.4,122 151.3,121.9 151.1,121.9 151,121.9 
					150.9,121.9 150.9,121.9 150.8,121.9 150.7,121.9 150.7,121.9 150.6,121.9 150.6,121.9 150.6,122 150.5,122 150.5,122.1 
					150.5,122.1 150.5,122.2 150.5,122.3 150.5,122.4 150.5,122.5 150.5,122.5 150.6,122.6 150.6,122.7 150.6,122.7 150.7,122.8 
									"/>
				<polygon class="st5" points="142.9,120.4 142.9,120.9 143.9,121 144.7,120.8 144.7,120.5 143.9,120.3 				"/>
				<path class="st5" d="M141.4,114.8c0.4-0.4,2,0,2.1-0.4c0.3-0.9-2.9-0.3-3-0.3c-0.6-0.1-1.2-1-1.6-1.5c-0.6-1-0.3-1.7,0.9-1.9
					c1.3-0.2,0,0.6,0.5,1.1c0.3,0.2,0.5,0.1,0.6-0.2c0.1-0.3-0.2-0.7-0.3-1c-0.1-0.1-0.1-0.5-0.3-0.6c-0.1-0.1-0.3,0-0.3,0
					c-0.2-0.2-0.5-0.5-0.8-0.5c-0.4,0-1.2,0.4-1.5,0.6c-0.9,0.4-1.2,1-0.8,2c0.4,0.9,0.6,1.5,0.8,2.4c0.1,0.7,0.2,0.4,0.7,0.8
					c0.4,0.4,0.3,0.7,0.8,0.9c0.6,0.3,2.6,1.2,3,0.3C142.9,115.3,141.5,115.4,141.4,114.8z"/>
				<path class="st5" d="M126.6,103.3c-0.9,0.7-2.8-1.3-3.3-1.9c-0.4-0.5-0.4-0.6-1-0.4c-0.3,0.1-0.4,0.2-0.8,0.3
					c-0.4,0-0.8-0.1-1.2-0.1c-0.7,0.1-1.5,0.6-2.2,0.7c-1.1,0.2-2.3,0.4-3.5,0.5c-1.5,0.2-3.3-0.3-4.7,0.2c-0.9,0.3-1.7,1-2.6,1.3
					c-1.1,0.5-2.2,0.9-3.3,1.3c-0.8,0.3-1.6,0.5-2.4,0.7c-0.5,0.1-1,0.2-1.3,0.6c-0.5,0.6-0.8,1.4-1.3,2c-0.6,0.7-1.4,1.4-2.2,1.8
					c-1.4,0.7-2.8,1.2-4.2,1.8c-0.3,0.1-0.7,0.4-1,0.4c-0.6-0.1-1.5-1.1-2-1.5c-1.1-0.8-2.4-1.4-3.3-2.4c-0.3-0.3-0.4-0.5-0.6-1
					c-0.1-0.4-0.5-2.1-0.8-2.3c-0.5-0.3-3.1,0.6-3.6,0.7c-0.9,0.2-1.9,0.4-2.8,0.6c-3.1,0.7-6.2,1.4-9.3,2.1c-1.1,0.2-2,0.4-2.9,1
					c-0.4,0.2-1.3,0.5-1.5,0.8c-0.3,0.4-0.3,1.5-0.5,2c-0.2,0.7-0.2,1.9-0.6,2.5c-0.4,0.6-0.7,0-1.3-0.2c-1.4-0.5-2.6,0.3-3.8,0.7
					c-1.1,0.4-2.4,0.7-3.5,0.2c-0.6-0.3-1.2-1-1.9-1.2c-0.5-0.2-1.1,0-1.7,0.1c-1.3,0.2-2.3,1.2-3.5,1.4c-0.4,0.1-0.8-0.1-1.2-0.1
					c-0.9,0.1-1.8,0.3-2.7,0.4c-2.8,0.4-5.2,1.6-7.9,2.7c-0.4,0.1-1,0.6-1.4,0.6c-0.5,0-1.3-0.5-1.8-0.6c-0.3-0.1-1.4-0.7-1.7-0.6
					c-0.4,0.1-1.1,1.4-1.4,1.7c-0.8,1-1.3,1.9-2.3,2.7c-1,0.7-2.2,0.9-3.1,1.7c-0.9,0.8-2.2,2.1-2.7,3.2c-0.2,0.4-0.4,1,0,1.5
					c0.5,0.7,1.2,0,1.8,0.2c0.5,0.2,0.7,0.9,1,1.1c0.4,0.4,1.1,0.5,1.6,0.8c1.2,0.7,2.1,1.7,3.4,2.1c1.1,0.3,2,0.9,2.9,1.5
					c1.1,0.8,2.6,1.6,3.5,2.6c0.4,0.5,0.5,1,0.4,1.6c-0.1,0.6-0.1,1.1,0.6,1.1c0.3,0,0.6-0.4,0.9-0.3c0.2,0.1,0.4,0.4,0.5,0.5
					c0.5,0.6,0.9,1.3,1.5,1.9c0.9,1,2,1,3.2,0.8c1.1-0.2,2.7-1,3.6-0.4c0.5,0.4,0.8,1.1,1.2,1.5c0.3,0.4,0.8,0.6,1.2,0.9
					c0.4,0.3,0.9,0.8,1.2,1.2c0.4,0.5,0.3,1.4,0.8,1.5s1-0.6,1.5-0.3c0.5,0.2,0.7,1.2,1.3,1.4c0.5,0.2,1.5-0.1,2-0.1
					c0.7,0,1,0.2,1.5,0.8c0.3,0.5,0.5,0.9,0.9,1.4c0.5,0.5,1,0.7,1.6,1c0.6,0.2,1.2,0.3,1.7,0.6c0.7,0.3,0.8,0.7,1.3,1.3
					s0.7,0.6,1.5,0.7c0.9,0.1,1,0.3,1.3,1.1c0.2,0.5,0.2,1,0.7,1.3c0.3,0.2,0.8,0,1,0.2c0.2,0.2,0.2,0.7,0.5,0.8
					c0.9,0.5,0.5-0.8,0.7-1.2c0.2-0.6,0.9-0.7,1.3-0.3c0.4,0.4,0.3,0.8,0.1,1.3c-0.2,0.6-0.5,1.6-0.9,2.1c-0.4,0.4-1,0.5-1.3,1
					c-0.4,0.6-0.2,1.3,0.3,1.8c0.6,0.5,2.8,1.2,3.4,0.3c0.4-0.6-0.1-1.2,0-1.8c0.2-0.7,1-0.8,1.5-1.1c1.1-0.5,1.4-1.9,2.7-2.1
					c1.3-0.2,2.6,0.1,3.7-0.7c0.5-0.3,0.9-0.9,1.4-1.3c0.5-0.4,1.1-0.7,1.7-1c0.9-0.4,1.8-0.5,2.7-0.8c0.8-0.2,1.7-0.6,2.5-0.6
					s0.6,0.2,0.8,0.8c0.1,0.3,0.6,0.8,0.9,0.4c0.3-0.4-0.5-0.8-0.1-1.3c0.3-0.5,1.2-0.7,1.7-0.8c4.3-1.6,8.9-2.5,13.5-3.2
					c2.4-0.3,4.9-0.5,7.4-0.6c2.1,0,4.2-0.2,6.3,0.1c1.7,0.2,3.5,0.9,5.1,0.8c1.1,0,1.5-0.7,0.4-1.5s-2.8-1.3-4.1-1.9
					c-1-0.4-2-0.6-3.1-0.7c-0.6-0.1-3.9,0-3.9-0.8c0-0.3,0.4-0.4,0.5-0.6c0.2-0.4,0-0.5,0.1-0.8c0.2-0.3,1-0.2,0.6-0.8
					c-0.4-0.8-3.3-0.9-4.1-0.9c-0.9,0-2.9,0.3-3.3,1.2c-0.2,0.6,0,1-0.6,1.4c-0.5,0.4-1.1,0.1-1.7,0c-0.8-0.2-1.1,0.1-1.9,0.1
					c-0.5,0-1.4-0.2-1.3-1c0.1-0.7,1-0.6,1.3-1c0-0.1,0.1-0.6,0.2-0.7c0.2-0.5,0.3-0.6,0.8-0.6c0.6,0,0.9,0.7,1.4,0.7
					c0.6,0,0.9-0.7,1.3-0.9c1-0.6,2.8-0.3,3.9-0.3c0.6,0,1.1,0,1.7,0c0.3,0,0.9-0.1,1.2,0c0.3,0.1,0.3,0.3,0.6,0.5
					c0.4,0.4,1,0.4,1.5,0.6c0.6,0.3,1.1,0.7,1.6,1c0.7,0.4,1.5,0.7,2.2,1.1c0.5,0.3,0.8,0.7,1.2,1c0.4,0.4,0.8,0.6,1.4,0.6
					c0.8,0.1,1.1-0.2,1.7,0.5c0.4,0.5,0.5,1.1,1,1.5c0.4,0.4,1.2,0.6,1.5,1.2c0.1,0.3-0.1,0.9,0.3,1c0.1,0.1,0.8-0.2,0.9-0.3
					c0.6-0.3,0.4-0.7,0.6-1.2c0.3-0.6,1.2-1,1.8-1.3c1.4-0.9,2.6-1,4.3-1.1c1.2-0.1,2.2,0.5,3.3,0.1c0.5-0.2,1.6-0.7,1.9-1.1
					c0.3-0.4,0-0.7,0.5-1.1c1-0.9,2.7-0.8,4-0.8c0.8,0,1.8,0,2.6,0.1c0.6,0.1,1.1,0.4,1.7,0.2c0.7-0.2,0.5-0.4,0.3-0.9
					c-0.2-0.4-0.3-0.9-0.2-1.4c0.3-0.9,1-1.8,1.9-2.3c0.7-0.4,1.7-1,2.4-1.3c0.6-0.2,0.7,0.4,1.3,0.4c0.5,0,0.7-0.4,0.6-0.9
					c-0.1-0.7-0.6-0.6-0.8-1.1c-0.3-0.8,2.1-0.6,2.5-1.3c0.4-0.6,0.3-2.9-0.7-2.6c-1.3,0.3-1.9,1.7-2.8,2.4
					c-0.5,0.4-0.7,0.4-1.3,0.2c-0.4-0.1-1.3-0.3-1.4-0.8c-0.2-0.6,0.3-0.8,0.8-0.8c0.7,0,0.8,0.1,1.3-0.5c0.9-1-0.3-1.1-0.1-2.2
					c0.1-0.6,0.5-1.1,0.5-1.7c0.1-0.7-0.2-0.5-0.5-1.1c-0.2-0.3,0-0.8,0.4-0.9c0.5-0.2,1.1,0.5,1.6,0.4c1.1-0.1,0.9-1.9,0.4-2.5
					c-0.4-0.5-0.9-0.2-1.5-0.3c-0.5-0.1-1.1-0.5-1.4-0.9c-0.3-0.4-0.5-0.8-1-1.1c-0.7-0.4-1.9-0.7-2.7-0.9c-0.7-0.1-1.1,0.1-1.7,0.3
					c-0.5,0.2-1.5,1-2,0.7c-0.4-0.2-0.8-1.4-0.8-1.8c0-0.6,0.6-1.1,1-1.6c0.4-0.6,1.5-2.1,0.6-2.5c-0.5-0.2-0.6,0.7-1.2,0.9
					c-0.2,0.1-0.4,0-0.6,0c-0.1,0-0.2,0.2-0.3,0.3c-0.1,0-0.1,0.1-0.2,0.1c-0.3,0.1-0.5-0.3-0.8-0.3c-0.5,0-0.5,0.5-1,0.2
					c-0.4-0.2-0.5-0.7-1.1-0.4c-0.6,0.3-1.1,1.3-1.5,1.8c-0.3,0.3-0.9,1.4-1.4,1.3c-0.3,0-0.9-0.6-0.9-0.9c-0.1-0.8,0.7-0.5,1.2-0.4
					c0.6,0.1,0.8,0,1.2-0.5c0.9-1.1,0-1-0.3-2.1c-0.2-0.6,0.1-1,0.2-1.6c0.1-0.7,0-1.3-0.2-2s-0.2-1.9-0.6-2.5
					c-0.3-0.5-0.8-0.5-1.3-0.7c-1.3-0.5-2.7-1.8-3.4-2.9c-0.6-0.8-0.4-2.6-1.3-3.1c-0.8-0.5-2,0.4-2.3,1.2
					C127.8,104.4,127.4,102,126.6,103.3z M101.3,148.4c1.1,0,2.2-0.4,3.3-0.4c0.6,0,1.4,0.4,1.9,0.1c0.5-0.2,0.6-0.7,1.3-0.8
					c0.9-0.2,2-0.2,2.9,0c1,0.1,1.9,0,2.9,0c-0.5,0.3-1.2,0.9-1.8,0.9c-0.6,0-1.1-0.3-1.8-0.2c-0.9,0.2-1.7,0.5-2.6,0.6
					c-1.5,0.1-3,0.3-4.5,0.5c-2.8,0.4-5.5,1.1-8.3,1.7c-0.9,0.2-0.8-0.4-0.2-0.8c0.8-0.5,2.2-0.7,3.1-0.9c0.7-0.1,1.2,0,1.8,0.2
					C100.1,149.3,100.7,148.8,101.3,148.4z M141.6,140.4c0-0.5,0.8-1.8,0.3-2.1c0.3-0.6,1-0.9,1.6-0.9c0.9,0,0.9,0.3,0.9,1.1
					c0,0.3,0,0.7,0.2,1s0.6,0.3,0.7,0.6c0.4,0.7-0.7,0.9-1.3,1C143.1,141.4,142,141.3,141.6,140.4z"/>
				<polygon class="st5" points="116.4,91.7 115.3,92 113.5,92.4 113.2,92.4 112.9,92.5 106.7,93.9 106.5,94.1 105.3,95.3 
					104.2,96.5 101.4,99.7 105.5,104.7 105.6,104.6 106.7,104.2 107,104.1 107.2,104 107.4,103.9 107.5,103.9 107.7,103.8 
					108,103.7 108.7,103.3 108.9,103.1 109.1,103 109.4,102.8 109.7,102.7 109.9,102.6 110,102.6 110.1,102.5 110.3,102.5 
					110.3,102.4 110.5,102.4 110.6,102.4 110.7,102.4 110.7,102.4 110.8,102.4 110.9,102.4 111,102.4 111.2,102.4 111.4,102.4 
					112.3,102.4 112.6,102.4 112.8,102.4 113,102.4 113.2,102.4 113.5,102.4 113.9,102.4 114.2,102.4 114.7,102.4 115.3,102.2 
					116,102.2 116.8,102.1 117.3,102 117.8,101.9 118.2,101.9 118,91.5 118.1,91.2 116.7,91.6 				"/>
				<polygon class="st5" points="97.9,101.8 97.3,102.8 96.2,103.3 96,103.5 93.7,107.2 89.3,110.7 91.8,112.6 96.9,110.3 
					97.1,110.3 98,109.6 98.2,109.4 98.3,109.4 98.5,109.2 98.6,109 98.8,108.8 99,108.6 99.2,108.4 99.3,108.2 99.4,108.2 
					99.4,108.1 99.6,107.9 99.7,107.7 99.8,107.4 100.2,106.7 100.3,106.6 100.3,106.5 100.4,106.5 100.4,106.5 100.4,106.4 
					100.5,106.4 100.6,106.3 100.6,106.2 100.7,106.2 100.8,106.2 100.9,106.1 101,106.1 101.1,106 101.2,106 101.3,106 101.4,106 
					101.7,105.9 101.8,105.9 101.9,105.9 102.1,105.8 102.4,105.8 102.6,105.7 102.8,105.6 103,105.6 103.1,105.6 103.3,105.5 
					103.8,105.3 105.5,104.7 101.4,99.7 				"/>
				<polygon class="st5" points="180.6,83.9 180.8,84 181,84 181.3,84.1 181.4,84.1 181.5,84.1 181.7,84.1 181.7,84.1 182,84.1 
					182.2,84.1 182.4,84.1 182.6,84.1 182.7,84.1 182.8,84 182.9,84 183,84 183.1,84 183.1,83.9 183.1,83.8 183.2,83.8 183.3,83.7 
					183.3,83.6 183.3,83.5 183.4,83.3 183.5,83 183.5,82.9 183.5,82.8 183.5,82.7 183.5,82.6 183.6,82.6 183.7,82.4 183.7,82.4 
					183.9,82.3 183.9,82.2 184,82.1 184.1,82 184.2,82 184.6,81.8 184.9,81.8 185.3,81.8 185.3,81.9 185.5,81.9 185.6,81.9 
					185.6,82 185.8,82 185.9,82 186,82 186.1,82.1 186.2,82.2 186.4,82.2 186.4,82.2 186.5,82.3 186.6,82.4 186.7,82.4 186.8,82.5 
					186.9,82.6 186.9,82.6 187,82.7 187.1,82.7 187.1,82.8 187.2,82.9 187.3,83 187.3,83.1 187.3,83.2 187.4,83.3 187.4,83.4 
					187.5,83.7 187.6,83.8 187.6,84 187.7,84 187.8,84.2 187.8,84.2 188,84.3 188,84.4 188.2,84.5 188.2,84.5 188.3,84.6 
					188.5,84.7 188.6,84.7 188.8,84.7 189,84.6 189.2,84.6 189.4,84.5 189.6,84.5 190.3,84.3 190.4,84.3 190.5,84.3 190.7,84.3 
					190.7,84.3 190.8,84.3 190.9,84.3 191,84.3 191,84.3 191.1,84.3 191.2,84.3 191.2,84.3 191.2,84.4 191.3,84.5 191.4,84.5 
					191.4,84.7 191.5,84.7 191.6,84.8 191.6,84.9 191.7,84.9 191.7,85 191.8,85.1 191.9,85.1 191.9,85.1 192.1,85.2 192.1,85.2 
					192.2,85.2 192.3,85.2 192.3,85.1 192.4,85 192.4,84.9 192.5,84.9 192.6,84.7 193.1,84.2 193.3,84 193.3,84 193.4,83.9 
					193.5,83.8 193.5,83.8 193.6,83.8 193.7,83.8 193.7,83.7 193.9,83.7 193.9,83.7 194,83.7 194.1,83.6 194.1,83.6 194.2,83.6 
					194.2,83.6 194.4,83.7 194.5,83.7 194.6,83.7 194.6,83.7 194.7,83.6 194.8,83.6 194.8,83.6 194.8,83.5 194.7,83.5 194.7,83.4 
					194.7,83.3 194.6,83.2 194.6,83.1 194.6,83.1 194.6,83 194.7,82.9 194.7,82.9 194.7,82.7 194.8,82.7 194.8,82.6 194.8,82.5 
					195,82.2 195.1,81.9 195.1,81.8 195.2,81.7 195.2,81.7 195.3,81.6 195.3,81.5 195.4,81.5 195.5,81.5 195.5,81.4 195.5,81.4 
					195.6,81.3 195.8,81.3 195.9,81.2 196,81.2 196.1,81.1 196.2,81.1 196.2,81.1 196.3,81.1 196.4,81.1 196.5,81.1 196.6,81.1 
					196.6,81 196.7,81 196.7,80.9 196.9,80.8 196.9,80.8 196.9,80.7 197,80.7 197.2,80.3 197.3,80.2 197.3,80.2 197.3,80.1 
					197.4,80.1 197.5,80.1 198.2,79.5 198.2,79.4 198.2,79 198.2,78.8 198.2,78.6 198.2,78.5 198.2,78.4 198.2,78.4 198.2,78.3 
					198.2,78.1 198.2,78.1 198.2,77.9 198.3,77.9 198.3,77.9 198.4,77.9 198.4,77.8 198.5,77.7 198.6,77.7 198.7,77.7 198.8,77.7 
					199,77.7 199.5,77.6 199.7,77.5 199.8,77.5 199.9,77.5 200,77.5 200.1,77.5 200.2,77.4 200.3,77.4 200.4,77.4 200.5,77.3 
					200.6,77.2 200.7,77.2 200.9,77 201.2,76.7 201.4,76.5 201.6,76.3 201.6,76.3 201.7,76.3 201.7,76.2 201.7,76.1 201.8,76 
					201.8,75.9 201.8,75.8 201.9,75.7 201.9,75.6 202,75.5 202,75.4 202.1,75.4 202.1,75.2 202.2,75.2 202.5,74.8 202.7,74.5 
					202.9,74.1 203.2,73.8 203.3,73.6 203.4,73.5 203.4,73.4 203.5,73.3 203.5,73.2 203.7,72.9 203.7,72.8 203.7,72.7 203.8,72.6 
					203.9,72.5 203.9,72.5 204,72.4 204.1,72.4 204.2,72.2 204.3,72.2 204.4,72 204.6,71.8 204.7,71.8 204.7,71.7 204.8,71.1 
					204.7,70.7 204.4,70.7 204.4,70.6 204.5,70.5 204.3,70.2 204.2,70.1 204.2,70 204.3,69.9 204.5,69.8 204.8,69.6 204.9,69.5 
					205.1,69.5 205.3,69.3 205,69.2 204.6,69 204.6,68.6 204.6,68.4 204.6,68.2 205.1,68.1 205.9,68 206.4,67.1 206.8,66 
					206.9,65.6 207.1,65.4 207.1,65.2 207.1,65 207.2,64.8 207.2,64.8 207.3,64.7 207.3,64.5 207.3,64.4 207.3,64.3 207.3,64.1 
					207.3,64 207.3,63.9 207.2,63.7 207.1,63.3 207.1,62.8 206.9,62.5 206.9,62.2 206.8,62 206.8,61.8 206.8,61.7 206.7,61.6 
					206.6,61.5 206.6,61.4 206.6,61.3 206.5,61.3 206.4,61.2 206.4,61.1 206.2,61 206.2,60.9 206.1,60.9 206.1,60.9 206.1,60.9 
					205.9,60.8 205.8,60.7 205.7,60.7 205.6,60.5 205.5,60.5 205.4,60.4 205.3,60.3 205.3,60.2 205.2,60.1 205.2,60 205.2,59.9 
					205.2,59.8 205.2,59.7 205.2,59.6 205.2,59.5 205.2,59.3 205.2,59.2 205.3,58.8 205.4,58.1 205.5,57.1 205.5,56.7 205.5,56.6 
					205.6,56.4 205.6,56.3 205.7,56.2 205.7,56.1 205.8,56 205.8,55.9 205.9,55.9 206,55.8 206.1,55.7 206.2,55.7 206.2,55.6 
					206.4,55.5 206.6,55.4 207.8,54.8 208.6,54.4 208.9,54.2 209.2,54.1 209.3,54 209.3,53.9 209.4,53.9 209.5,53.9 209.5,53.8 
					209.6,53.7 209.6,53.6 209.7,53.5 209.8,53.4 209.8,53.3 209.9,53.2 209.9,53.1 210,53 210.2,52.5 210.3,52.3 210.3,52 
					210.4,51.9 210.5,51.8 210.5,51.6 210.6,51.6 210.7,51.4 210.7,51.4 210.8,51.4 210.8,51.3 211.1,51.1 211.2,51 211.4,50.9 
					211.6,50.8 212.1,50.4 212.3,50.3 212.5,50.2 212.8,49.9 213.2,49.7 213.3,49.6 213.4,49.5 213.5,49.4 213.7,49.4 213.8,49.3 
					214.1,49.3 214.1,48.8 214.1,48.7 214.1,48.6 214.1,48.4 214.1,48.4 214.1,48.3 214,48.2 214,48.2 213.9,48.1 213.9,48 
					213.1,46.8 213,46.6 212.9,46.4 212.7,46.1 212.4,45.8 212.3,45.6 212.1,45.5 212.1,45.4 212,45.3 211.9,45.2 211.9,45.1 
					211.8,45.1 211.7,45.1 211.5,45 211.4,44.8 210.9,44.6 210.7,44.4 210.5,44.3 210.4,44.3 210.3,44.3 210.2,44.2 210.2,44.1 
					210.1,44.1 210,43.9 210,43.9 209.9,43.8 209.9,43.7 209.9,43.6 209.8,43.5 209.8,43.4 209.8,43.4 209.8,43.2 209.8,43.2 
					209.8,43.1 209.8,43 209.7,42.8 209.7,42.8 209.6,42.6 209.6,42.6 209.5,42.5 209.5,42.4 209.4,42.3 209.3,42.2 209.1,41.9 
					209,41.9 208.9,41.7 208.9,41.7 208.9,41.6 208.8,41.5 208.8,41.4 208.7,41.3 208.7,41.2 208.7,40.9 208.6,40.5 208.6,40.3 
					208.6,40.2 208.5,40.1 208.5,40 208.4,39.8 208.4,39.7 208.4,39.6 208.2,39.1 208,38.8 208,38.7 208,38.6 208,38.5 208,38.3 
					208,38.2 208,38.1 208,38 208,37.9 208,37.8 208,37.6 208.1,37.6 208.2,37.5 208.2,37.3 208.2,37.3 208.3,37.1 208.4,37.1 
					208.5,36.9 208.6,36.9 208.6,36.8 209,36.4 209.1,36.4 209.2,36.3 209.3,36.2 209.3,36.1 209.4,36 209.4,35.9 209.5,35.8 
					209.5,35.7 209.5,35.6 209.5,35.5 209.5,35.3 209.5,35.2 209.5,35.1 209.4,35 209.4,34.9 209.3,34.8 209.3,34.7 209.2,34.6 
					209.1,34.5 209.1,34.4 208.9,34.4 208.9,34.2 208.7,34.2 208.7,34.1 208.6,34.1 208.5,34 208.4,33.9 208.2,33.9 208.2,33.9 
					208,33.8 207.9,33.8 207.8,33.7 207.7,33.7 207.2,33.6 207,33.5 206.9,33.5 206.8,33.5 206.7,33.4 206.6,33.3 206.5,33.3 
					206.4,33.2 206.3,33.2 206.2,33.1 206.1,33 205.9,32.9 205.8,32.8 205.7,32.7 205.6,32.6 205.5,32.5 205.5,32.4 205.3,32.4 
					205.3,32.3 205.2,32.1 205.2,32.1 205,31.9 204.9,31.6 204.6,31.2 204.6,31 204.4,30.8 204.3,30.5 204.3,30.4 204.2,30.3 
					204.2,30.2 204.1,30.1 203.8,29.5 203.7,29.3 203.4,29 203,28.5 202.7,28.3 202.5,28 202.5,27.7 202.5,27.5 202.3,26.8 
					202.3,26.5 202.3,26.2 202.4,26 202.5,25.6 202.6,25.1 202.7,24.7 202.8,24.3 203.1,24 203.3,23.8 204.1,23.6 204.4,23.4 
					204.3,23.3 204,23.3 203.9,23.3 203.7,23.3 203.5,22.9 203.4,22.8 203.2,23 202.5,23 201.9,23.1 201.7,23.1 201.6,23 
					201.4,22.9 201.3,22.6 201.2,22.4 201,22.3 200.9,22.3 200.7,22.5 200.4,22.6 200.2,22.7 200.1,22.7 199.8,22.6 199.7,22.6 
					199.6,22.7 199.2,23.2 199.2,23.3 198.5,23.9 198.4,24 198.2,24 198.2,24 197.8,23.8 197.6,23.7 197.5,23.7 197.5,23.6 
					197.3,23.6 196.9,23.8 196.7,23.8 196.2,23.9 195.9,23.9 195.6,24 195.5,24.1 195.5,24.3 195.6,24.5 195.6,24.9 195.6,25.3 
					195.6,25.5 195.5,25.6 195.3,25.8 195.2,25.8 195,25.8 194.8,25.8 194.6,25.8 194,25.5 193.9,25.5 193.4,25.8 193.2,26 
					192.6,26.2 192.6,26.3 192.5,26.5 192.3,26.8 192.3,26.9 192,27 191.7,26.9 191.6,27 191.2,27.1 191,27 191,26.9 190.8,26.5 
					190.7,26.2 190.6,26.2 190.2,26.2 190.1,26.2 190,26.1 189.9,26 189.9,25.8 189.9,25.6 189.6,25.5 189.4,25.3 189.1,25.4 
					189,25.3 188.9,25.2 188.7,25.2 188.6,25.1 188.4,25.1 188,25.1 187.4,25.1 187.3,25.1 187.1,25 186.9,24.7 186.8,24.7 
					186.6,24.6 186.4,24.5 186.3,24.4 186.1,24.6 186,24.6 185.4,24.7 185,24.7 184.8,24.9 184.6,25.1 184.4,25.3 184,25.3 
					183.5,25.6 183.1,26 183,26 182.8,26.1 182.7,26 182.6,25.8 182.6,25.6 182.4,25.5 182.3,25.4 182.2,25.4 181.8,25.4 
					181.7,25.4 181.5,25.2 181.4,25.1 181.2,25.1 181,25 180.8,24.8 180.7,24.4 180.7,24.2 180.7,24 180.8,23.7 179.2,25.2 
					177.7,23.8 177.4,24.7 176.2,24.8 174.7,26.4 174.1,28 174.6,29.1 173.3,30.1 173.3,30.3 173.4,30.4 173.5,30.6 173.6,30.7 
					174,30.8 174.1,30.8 174.4,31 174.5,31.2 174.7,31.2 174.9,31.2 175.2,31 175.3,30.9 175.6,30.8 176,30.8 176.4,31 176.5,31.1 
					176.7,31.3 176.9,31.7 176.9,31.7 177.1,31.7 177.6,31.7 177.8,31.8 178,31.9 178.3,32.1 178.6,32.2 178.7,32.3 179,32.4 
					180,33.3 180.4,33.5 180.5,33.5 180.6,33.7 180.6,34.1 180.6,34.8 180.6,35.4 180.6,35.6 180.3,36.4 180.3,36.7 180.3,36.8 
					180.4,36.9 180.6,36.9 181.2,36.9 181.4,36.9 181.7,37 181.7,37.2 181.8,37.4 181.7,37.6 181.5,38.2 181.5,38.4 181.5,38.7 
					181.5,38.9 181.9,39.3 182.1,39.4 182.3,39.4 182.6,39.5 182.7,39.8 183,45.4 183,46.5 183,47.7 183.1,49.4 183.7,64.4 
					183.5,64.7 183.4,64.8 183.3,65.2 183.2,65.4 183,65.6 182.6,66.1 182.6,66.3 182.2,67 181.9,67.5 181.9,67.7 182,67.9 
					182,68.1 182,68.4 181.9,69.8 181.9,70 181.8,70.5 181.7,70.6 181.7,70.6 181.2,70.7 180.9,70.7 180.7,70.7 180.6,70.7 
					180.6,70.9 180.5,71.2 180.2,72 180.1,72.2 179.7,72.7 179.4,73.1 179.2,73.4 179.2,73.7 179,73.8 178.9,73.8 178.5,73.8 
					178.1,73.8 178,73.7 178,74.5 177.9,74.6 177.8,74.9 177.7,74.9 177.4,75.2 176.9,75.9 177.4,75.8 177.4,75.9 177.4,75.9 
					177.5,76 177.6,76.1 177.7,76.2 177.8,76.3 177.9,76.3 178,76.4 178.1,76.5 178.2,76.5 178.3,76.5 178.4,76.6 178.5,76.6 
					178.7,76.7 178.7,76.7 179,76.7 179.2,76.7 179.4,76.7 179.6,76.7 179.9,76.7 180,76.7 180.3,76.7 180.4,76.7 180.5,76.7 
					180.6,76.6 180.7,76.6 180.8,76.6 180.9,76.5 181,76.5 181.2,76.5 181.3,76.4 181.5,76.3 181.7,76.2 182.3,75.9 182.7,75.7 
					183.2,75.4 183.4,75.3 184,75 184.2,74.9 184.2,74.9 184.4,74.9 184.4,74.8 184.6,74.8 184.6,74.7 184.8,74.7 184.8,74.7 
					184.9,74.7 185.1,74.7 185.5,74.7 185.6,74.7 185.8,74.7 185.9,74.7 186,74.9 186,75.1 185.8,75.2 185.7,75.2 185.6,75.3 
					185.5,75.4 185.4,75.5 185.2,75.6 184.4,75.9 184.3,76 184.2,76.1 184.1,76.1 183.9,76.2 183.5,76.3 183.3,76.4 183.2,76.4 
					183.1,76.5 183.1,76.5 183,76.5 183,76.5 181.7,76.8 180.8,77.2 180.3,77.2 180,77.2 179.7,77.2 179.6,77.2 179.6,77.3 
					179.4,77.4 179.4,77.5 179.3,77.6 179.2,77.7 179.2,77.8 179.2,77.9 179.2,78.1 179.2,78.1 179.2,78.3 179.3,78.3 179.4,78.4 
					179.4,78.5 179.6,78.6 179.6,78.7 179.7,78.8 179.9,79 180,79.2 180.1,79.2 180.2,79.3 180.3,79.3 180.3,79.4 180.5,79.5 
					180.5,79.5 180.6,79.5 180.6,79.5 180.7,79.6 180.8,79.6 180.9,79.5 181,79.5 181.1,79.5 181.2,79.5 181.4,79.4 181.5,79.3 
					181.9,79.2 182.4,78.8 182.8,78.7 183,78.6 183.1,78.5 183.1,78.4 183.3,78.3 183.4,78.3 183.5,78.2 183.6,78.2 183.7,78.1 
					183.9,78.1 183.9,78 184,78 184.2,77.9 184.3,77.9 184.4,77.9 184.5,77.9 184.6,77.9 184.9,77.8 185.1,77.8 185.2,77.8 
					185.3,77.7 185.4,77.7 185.5,77.7 185.6,77.7 185.7,77.6 185.9,77.5 186.2,77.5 186.4,77.5 186.6,77.6 186.7,77.8 186.7,77.9 
					186.7,78.1 186.7,78.3 186.5,78.4 186.4,78.6 186.2,78.6 186.2,78.7 186,78.8 186,78.8 185.8,78.8 185.8,78.8 185.7,78.8 
					185.6,78.8 185.5,78.8 185,78.8 184.9,78.8 184.8,78.8 184.7,78.8 184.6,78.8 184.4,78.8 184.4,78.9 184.2,78.9 184.1,79 
					184,79 183.9,79 183.8,79.1 183.7,79.2 183.6,79.2 183.3,79.4 183.2,79.5 183.1,79.5 183,79.6 183,79.6 182.8,79.7 182.7,79.7 
					182.6,79.7 182.4,79.7 182.2,79.7 182,79.8 181.7,79.8 181.5,79.8 181.4,79.9 181.2,79.9 181.1,79.9 181,79.9 180.8,79.9 
					180.7,79.9 180.6,79.8 180.5,79.8 180.4,79.8 180.3,79.7 180.2,79.7 180.1,79.7 180.1,79.7 180,79.7 179.9,79.7 179.9,79.7 
					179.7,79.7 179.7,79.8 179.6,79.9 179.5,80 179.4,80.1 179.4,80.2 179.3,80.3 179.3,80.4 179.3,80.5 179.2,80.6 179.2,80.8 
					179.2,80.9 179.2,81 179.2,81.1 179.3,81.3 179.3,81.4 179.3,81.7 179.4,81.8 179.4,81.9 179.4,82 179.4,82.1 179.4,82.2 
					179.5,82.4 179.6,82.4 179.6,82.6 179.7,82.6 179.7,82.7 179.9,82.8 180,83 180.1,83.2 180.3,83.5 180.4,83.8 180.5,83.8 				
					"/>
				<polygon class="st5" points="177.7,74.9 177.8,74.9 177.9,74.6 178,74.5 178,73.7 178.1,73.8 178.5,73.8 178.9,73.8 179,73.8 
					179.2,73.7 179.2,73.4 179.4,73.1 179.7,72.7 180.1,72.2 180.2,72 180.5,71.2 180.6,70.9 180.6,70.7 180.7,70.7 180.9,70.7 
					181.2,70.7 181.7,70.6 181.7,70.6 181.8,70.5 181.9,70 181.9,69.8 182,68.4 182,68.1 182,67.9 181.9,67.7 181.9,67.5 182.2,67 
					182.6,66.3 182.6,66.1 183,65.6 183.2,65.4 183.3,65.2 183.4,64.8 183.5,64.7 183.7,64.4 183.1,49.4 183,47.7 183,46.5 
					183,45.4 182.7,39.8 182.6,39.5 182.3,39.4 182.1,39.4 181.9,39.3 181.5,38.9 181.5,38.7 181.5,38.4 181.5,38.2 181.7,37.6 
					181.8,37.4 181.7,37.2 181.7,37 181.4,36.9 181.2,36.9 180.6,36.9 180.4,36.9 180.3,36.8 180.3,36.7 180.3,36.4 180.6,35.6 
					180.6,35.4 180.6,34.8 180.6,34.1 180.6,33.7 180.5,33.5 180.4,33.5 180,33.3 179,32.4 178.7,32.3 178.6,32.2 178.3,32.1 
					178,31.9 177.8,31.8 177.6,31.7 177.1,31.7 176.9,31.7 176.9,31.7 176.7,31.3 176.5,31.1 176.4,31 176,30.8 175.6,30.8 
					175.3,30.9 175.2,31 174.9,31.2 174.7,31.2 174.5,31.2 174.4,31 174.1,30.8 174,30.8 173.6,30.7 173.5,30.6 173.4,30.4 
					173.3,30.3 173.3,30.1 173.1,30.3 173,30.4 172.8,30.5 172.6,30.5 172.3,30.7 171.5,30.5 171,30.6 170.6,30.8 170.4,30.8 
					170.3,30.8 170,30.8 169.9,30.9 169.7,31.1 169.5,31.4 169.5,31.5 169.6,31.6 170.1,31.8 170.3,31.9 170.8,32.3 171,32.6 
					171.3,33.2 171.5,33.4 171.5,33.8 171.5,34.3 171.4,34.8 171.3,34.8 170.8,35.1 170.6,35.2 170.3,35.6 170.2,36 170.1,36.2 
					170,36.4 169.6,36.7 169.2,36.9 168.8,37.3 168.2,37.6 167.9,38.2 167.6,38.4 166.7,38.7 166.2,39 166,39.2 165.7,39.6 
					165.4,39.8 165.1,40 164.9,40.2 164.4,40.9 164,41.2 163.9,41.2 163.7,41.4 163.5,41.4 163.3,41.4 162.9,41.4 162.5,41.4 
					162.4,41.3 162.2,41 162,40.8 161.8,40.6 160.8,40.7 160.5,40.9 160.1,41.3 159.7,41.4 159.4,41.4 159,41.4 158.6,41.6 
					157.9,41.9 157.5,42.1 157.3,41.9 157,42 156.3,42.5 155.9,42.6 155.6,42.7 155.4,42.7 155.2,42.6 152.6,44.3 148.2,46 
					145.6,47.8 139.5,48.2 144.4,58.2 146,61.4 145.9,62.9 142.5,65.9 140.8,70 139.8,73.2 141,74.4 142,80.4 141.3,80.4 
					140.3,81.7 140.4,82.2 140.5,83.1 140.5,83.6 140.5,84 140.5,84.2 140.7,84.2 141.7,84.7 142.7,84.9 143,84.6 143.5,84.6 
					143.8,84.6 143.9,84.6 144,84.5 144.1,84.5 144.2,84.5 144.3,84.5 144.5,84.5 144.7,84.4 144.9,84.3 145,84.3 145.2,84.2 
					145.2,84.2 145.3,84.2 145.7,84 145.7,83.9 145.9,83.9 146.1,83.8 146.2,83.8 146.3,83.7 146.4,83.6 146.5,83.6 146.6,83.6 
					146.7,83.6 146.8,83.6 147.1,83.5 147.7,83.5 147.9,83.4 148.1,83.4 148.2,83.3 148.3,83.3 148.4,83.3 148.5,83.3 148.6,83.2 
					148.8,83.1 148.9,83.1 149,83.1 149.1,83 149.3,82.9 149.6,82.7 150,82.5 150.7,82 151.1,81.8 151.3,81.7 151.5,81.6 
					151.8,81.5 152,81.2 152.2,81.1 152.4,81 152.5,81 152.5,80.9 152.7,80.9 152.8,80.8 152.9,80.8 153.1,80.7 153.4,80.6 
					153.9,80.5 154.2,80.4 154.4,80.3 154.7,80.2 154.8,80.2 155,80.2 155.1,80.2 155.2,80.2 155.4,80.2 155.5,80.2 155.6,80.2 
					155.8,80.2 156.1,80.2 156.3,80.2 156.4,80.2 156.5,80.2 156.7,80.2 156.8,80.3 156.9,80.3 157,80.4 157.1,80.4 157.2,80.4 
					157.3,80.5 157.5,80.6 157.7,80.7 157.9,80.8 157.9,80.8 158.1,80.8 158.1,80.9 158.3,81 158.3,81.1 158.4,81.1 158.4,81.2 
					158.5,81.3 158.6,81.3 158.6,81.6 158.6,81.7 158.7,81.7 158.8,81.7 158.8,81.8 159,81.8 159,81.8 159.2,81.8 159.2,81.8 
					159.3,81.8 159.5,81.8 159.6,81.8 159.7,81.8 159.8,81.8 159.9,81.8 160,81.8 160.1,81.7 160.2,81.7 160.3,81.7 160.4,81.7 
					160.5,81.6 160.6,81.5 160.7,81.5 160.8,81.5 160.8,81.3 160.9,81.3 161,81.2 161.1,81.1 161.3,80.9 161.5,80.8 161.7,80.6 
					161.8,80.4 161.9,80.2 162,80.2 162,80.1 162.1,80 162.2,79.9 162.2,79.8 162.2,79.7 162.2,79.5 162.3,79.5 162.3,79.3 
					162.3,79.3 162.3,79.2 162.3,79.1 162.2,78.9 162.2,78.8 162.2,78.7 162.2,78.6 162.2,78.4 162.2,78.3 162.2,78.2 162.3,78.1 
					162.3,78 162.4,77.9 162.4,77.8 162.4,77.7 162.5,77.6 162.6,77.5 162.6,77.5 162.7,77.4 162.9,77.3 163,77.2 163.1,77.2 
					163.1,77 163.2,77 163.2,76.9 163.2,76.8 163.2,76.8 163.3,76.8 163.5,76.9 163.6,77 163.8,77 163.8,77 164.2,75.8 164.2,75.8 
					164.3,75.7 164.3,75.7 164.4,75.7 164.5,75.7 164.6,75.7 164.7,75.7 165,75.6 165.2,75.6 165.5,75.5 166,75.4 166.3,75.3 
					166.7,75.2 166.9,75.2 167,75.1 167.1,75 167.2,75 167.3,75 167.4,74.9 167.6,74.9 167.9,74.7 167.9,74.7 168.1,74.6 
					168.1,74.5 168.3,74.5 168.3,74.4 168.4,74.3 168.5,74.2 168.5,74.1 168.6,74.1 168.6,74 168.6,73.9 169.1,73.7 169.2,73.8 
					169.3,73.8 169.4,73.9 169.5,74 169.6,74 169.7,74.1 169.8,74.1 169.9,74.1 170,74.1 170.1,74.2 170.4,74.3 170.6,74.3 
					170.7,74.3 170.8,74.3 170.8,74.3 171,74.4 171,74.5 171.1,74.5 171.2,74.5 171.3,74.6 171.5,74.7 171.9,74.9 172,75 
					172.4,75.3 172.5,75.4 172.6,75.4 172.7,75.4 172.8,75.5 172.9,75.5 172.9,75.6 173.1,75.6 173.1,75.6 173.3,75.6 173.4,75.5 
					173.5,75.5 173.7,75.5 173.8,75.4 174,75.4 174.4,75.3 174.7,75.2 174.9,75.1 175,75.1 175.1,75.1 175.2,75.1 175.3,75.2 
					175.4,75.2 175.4,75.2 175.5,75.3 175.6,75.4 175.6,75.4 175.8,75.6 175.8,75.6 175.9,75.6 176,75.7 176.1,75.8 176.2,75.8 
					176.3,75.8 176.4,75.9 176.5,75.9 176.5,75.9 176.7,75.9 176.7,75.9 176.8,75.9 176.9,75.9 177.4,75.2 				"/>
				<polygon class="st5" points="102,94.9 103.5,96 103.8,96.2 104.2,96.5 105.3,95.3 106.5,94.1 106.7,93.9 112.9,92.5 113.2,92.4 
					113.5,92.4 115.3,92 116.4,91.7 116.7,91.6 118.1,91.2 120,81.5 120.1,80.8 120,80.8 119.9,80.7 119.8,80.6 119.7,80.6 
					119.6,80.5 119.5,80.4 119.4,80.4 119.1,80.2 119,80.2 118.9,80.2 118.9,80.2 118.9,80.1 118.8,80.1 118.7,80.1 118.7,80 
					118.7,80 118.7,79.9 118.7,79.9 118.6,79.8 118.6,79.7 118.7,79.7 118.7,79.6 118.7,79.5 118.7,79.5 118.7,79.3 118.7,79.2 
					118.9,78.9 118.9,78.8 118.8,78.4 118.7,78.3 118.7,78.3 118.7,78.1 118.6,78.1 118.6,78 118.5,77.9 118.5,77.9 118.4,77.8 
					118.3,77.8 118.2,77.7 118.2,77.7 118.1,77.7 118,77.7 116.7,78 115.8,77.6 115.8,77.7 115.8,77.7 115.7,77.7 115.6,77.8 
					115.5,77.9 115.4,77.9 115.3,78 115.1,78.2 115,78.3 114.9,78.3 114.9,78.4 114.8,78.4 114.8,78.4 114.8,78.4 114.7,78.4 
					114.6,78.4 114.6,78.4 114.5,78.4 114.4,78.4 114.3,78.4 114.2,78.4 114.1,78.4 114.1,78.4 113.9,78.4 113.8,78.3 113.6,78.3 
					113.4,78.1 112.6,77.4 111.7,76.6 111.4,76.3 111.2,76.1 111.2,76 111.1,75.9 111,75.9 110.9,75.8 110.9,75.7 110.8,75.6 
					110.7,75.8 110.3,76 110.2,76.1 109.9,77.2 109.8,77.5 109.7,77.6 109.5,77.7 109,77.8 108.9,77.6 108.8,77.5 108.4,77.5 
					108.2,77.4 108,77 107.8,76.9 107.4,77 107.4,76.9 107.3,76.8 107.3,76.7 107.4,76.7 107.4,76.6 107.4,76.5 107.3,76.5 
					107.1,76.6 107,76.8 106.8,77.1 106.7,77.2 106.5,77.2 106.4,77.1 106.2,76.8 106.2,76.8 106,76.8 105.9,77 105.7,77.1 
					105.2,77.2 104.9,77.2 104.8,77.1 104.6,77.2 104.4,77.5 104.1,77.7 103,78 102.8,78 102.6,77.9 102.2,77.8 101.9,77.8 
					101.9,77.9 101.7,77.9 101.3,78.4 101.3,78.6 101.3,78.8 101.3,78.9 101.3,79.1 101.1,79.1 100.8,79 100.6,79 100.3,79.1 
					99.6,79.3 99.4,79.3 99.2,79.5 99,79.8 98.9,79.9 98.7,80.1 98.5,80.1 98.3,80.1 97.8,79.9 97.6,79.9 97.4,79.8 97.1,79.9 
					97.3,80.2 97.5,80.7 97.6,81.1 97.6,81.3 97.4,81.3 97.4,81.5 97.3,81.6 97.4,82 97.6,83.1 97.3,83.4 96.9,83.8 96.9,83.8 
					96.6,84 96.3,84.2 97.2,86.3 97.2,86.4 97.3,86.6 97.3,86.7 97.3,86.8 97.6,87.4 98.6,90.1 98.8,90.4 99,90.6 99.4,90.8 
					100.1,91.2 100.3,91.4 100.4,91.7 100.5,92 100.3,92.8 100.3,93.5 100.3,93.8 100.9,94 101.2,94.3 101.3,94.4 101.7,94.6 				
					"/>
				<polygon class="st5" points="86.1,108.5 89.3,110.7 93.7,107.2 96,103.5 96.2,103.3 97.3,102.8 97.9,101.8 101.4,99.7 
					104.2,96.5 103.8,96.2 103.5,96 102,94.9 101.7,94.6 101.3,94.4 101.2,94.4 101.1,94.3 100.9,94.2 100.4,94.4 100.3,94.4 
					99.7,94.4 99.6,94.4 99.6,94.4 99.4,94.2 99.2,93.8 99,93.7 99,93.6 98.8,93.6 98.7,93.7 98,94.1 97.8,94.2 97.7,94.2 
					97.6,94.2 97.1,94 96.7,94 96.3,94.4 96.3,94.5 95.4,95.2 94.6,95.8 94.5,95.8 94.2,95.9 93.9,95.9 93.8,96 93.8,96.2 
					93.6,96.3 93.3,96.5 93.1,96.6 92.6,96.7 92.4,96.8 92.2,96.9 92.1,96.9 92,97 91.9,97.1 91.8,97.2 91.6,97.3 91.5,97.4 
					91.4,97.5 91.1,97.5 90.9,97.5 90.8,97.6 90.8,97.9 90.6,98 90.4,98.1 90.4,98.1 90.3,98 90.2,98 90.2,97.8 90.2,97.6 
					90.1,97.6 89.9,97.7 89.5,97.7 89.4,97.8 89.3,97.8 89.2,97.9 89.2,98 89.2,98.2 89.2,98.3 89.1,98.5 89,98.6 89,98.7 
					88.9,98.8 88.8,98.9 88.6,99 88.6,99 88.5,99 88.1,99 87.9,99 87.9,99.1 87.8,99.2 87.6,99.7 87.6,99.9 87.7,100 87.6,100.1 
					87.6,100.1 87.6,100.2 87.6,100.4 87.6,100.5 87.7,100.8 87.7,101 87.7,101.1 87.7,101.2 87.7,101.4 87.6,101.6 87.5,101.6 
					87.4,101.7 86.5,101.8 86.1,102 84.9,102.1 84.6,102.2 84.5,102.7 84.3,103.3 84.3,103.7 84.2,104 83.9,104.5 83.9,104.8 
					84.1,104.9 84.1,105.4 85,105.2 				"/>
				<polygon class="st5" points="261.9,127.5 261.9,127.2 261.7,126.9 261.7,126.8 261.2,126.1 261.2,126 261.2,125.7 261.2,125.5 
					261,125.3 261,125.2 261,125 260.9,125 260.8,125 260.6,125 260.5,125 260.4,124.8 260.1,124.7 259.6,124.3 259.4,124.2 
					259.2,124.1 259,123.9 258.8,123.8 258.2,123.7 258.1,123.7 258,123.7 257.6,123.9 257.4,124 257.2,124.1 257.1,124.3 
					257,124.3 256.6,124.4 256.4,124.6 256.3,124.6 256.2,124.6 256,124.6 255.8,124.7 255.7,124.9 255.4,125.1 255.2,125.2 
					254.7,125.2 254.5,125.2 254.3,125.1 253.9,124.9 253.8,124.8 253.7,124.8 253.3,125 253.1,125 253.1,125 253,124.9 253,124.8 
					253.1,124.6 253.2,124.4 253.4,124.2 253.6,124.1 254,123.8 254,123.7 254,123.6 253.8,123.5 253.8,123.4 253.7,123.3 
					253.8,123 253.8,122.6 253.8,122.3 253.8,121.9 253.8,121.8 253.7,121.5 253.5,121.1 253.4,120.9 253.5,120.6 253.6,120.1 
					253.6,119.9 253.4,119.6 253.3,119.3 253.4,119.1 253.4,118 253.4,117.8 253.8,117.2 254,116.8 254.2,116.6 254.5,116.4 
					254.7,116.3 254.8,116.2 255,115.9 255.2,115.8 255.3,115.7 255.5,115.5 255.6,115.3 256.2,114.9 256.7,114.4 256.9,114.1 
					257.1,113.8 257.1,113.7 257.1,113.6 257,113.6 256.5,113.6 256.3,113.6 256.2,113.5 255.8,113.3 255.2,113.2 254.6,113 
					254,112.8 252.8,112.8 252.1,112.8 251.7,112.7 251.3,112.8 249.7,113.2 249.6,113.2 249.2,113 249.2,113 249.1,112.9 
					248.8,112.6 248.7,112.3 248.7,112.1 248.7,111.8 248.6,111.6 248.6,111.6 248.5,111.6 248.3,111.8 248.1,111.9 247.6,112.1 
					247.2,112.2 246.4,112.3 246,112.4 245.8,112.5 245.6,112.5 245.4,112.5 245.3,112.4 245,112.3 244.5,111.9 244.3,111.5 
					244.2,111.4 244,111.4 243.7,111.3 243.6,111.2 243.6,110.9 243.5,110.7 242.6,109.9 242.4,109.8 242.2,109.7 242,109.6 
					241.8,109.8 241.7,109.9 241.6,110 241.4,110.3 241.3,110.5 241,110.7 240.6,110.8 240.1,110.8 239.9,110.8 239.6,111 
					239.4,111.1 239,111.6 238.8,111.8 238.4,111.8 238.3,111.8 238.1,112 238,112 237.9,112 237.7,111.9 237.4,111.9 237.3,111.8 
					237.2,111.7 237,111.4 237,111.3 236.8,111.2 236.6,110.9 236.3,110.8 236.2,110.7 236.1,110.4 236.1,110.3 235.7,110.3 
					235.4,110.3 234.9,110.1 234.9,110.2 234.7,110.3 234.5,110.3 234.2,110.3 234,110.5 233.6,110.7 233.4,110.8 233.3,110.8 
					232.4,111.2 232.1,111.5 232,111.5 231.8,111.4 231.6,111.3 231.5,111.2 231,111.2 230.6,111.4 230.2,111.4 229.9,111.5 
					229.3,111.6 228.9,111.7 228.8,111.8 228.7,111.9 228.7,112 228.7,112.1 228.6,112.3 228.5,112.3 228.2,112.4 228.2,112.5 
					228.1,112.6 227.6,112.7 227.1,113 226.4,113.2 226.1,113.2 225.8,113.2 225.6,113.3 225.4,113.5 224.8,113.7 224.5,113.9 
					224.3,113.9 223.9,114 223.6,113.9 223.1,113.7 222.9,113.8 222.7,114.2 222.7,114.3 222.3,114.5 222.2,114.6 222.2,114.8 
					222.1,114.9 222.1,115 222.1,115.4 222.1,115.5 222,115.7 222,115.7 221.4,116 221.2,116.1 221,116.2 220.9,116.4 220.5,116.4 
					220.5,116.5 219.9,116.6 219.8,116.6 219.7,116.5 219.5,116.5 219.1,116.7 218.6,116.9 218.5,116.9 218,116.7 217.7,116.7 
					217.4,116.6 217.2,116.6 217.1,116.5 216.9,116.4 216.8,116.3 216.6,116.4 216.5,116.3 216.3,116.2 216.2,116.1 216,116.2 
					215.8,116.3 215.5,116.3 215.4,116.4 215.1,116.7 214.9,116.8 214.6,116.9 214.3,116.8 214.2,116.7 214.1,116.7 213.7,116.3 
					213.5,116.2 213.4,116.1 213.2,116.1 212.9,116.3 212.8,116.3 212.6,116.3 212.3,116.3 212.2,116.3 212.1,116.4 212,116.4 
					211.9,116.4 211.7,116.2 211.5,116 211.4,115.9 211.2,115.9 211.1,115.8 210.9,115.7 210.6,115.7 210.5,115.7 210.3,115.9 
					210.1,116 210,116.2 209.6,116.3 209.2,116.3 208.7,116.4 208.4,116.7 208,117 207.8,117.3 207.5,117.8 207.3,118 207.1,118.2 
					206.4,118.4 206.2,118.4 206.2,118.4 205.9,118.2 205.8,118.1 205.7,118.1 205.5,118.2 205.3,118.3 205.2,118.3 205,118.3 
					204.8,118.5 204.5,118.5 204.4,118.5 203.9,118.9 203.5,118.9 203.2,119 203,118.9 202.8,119.1 202.6,119.1 202.5,119.1 
					202.3,119.1 202,119.1 201.9,119.1 201.8,119.2 201.6,119.3 201.4,119.6 201.2,119.8 201,119.8 200.5,120 200.1,120.1 
					199.6,120.5 199.4,120.6 199.2,120.7 198.9,120.8 198.8,120.8 197.8,121 197.2,121.2 196.7,121.3 196.6,121.3 196.3,121.3 
					196.2,121.4 196.2,121.6 196.2,121.7 196.2,122 196.2,122.7 196.2,122.9 196.3,123.2 196.2,123.3 196.2,123.4 196.4,124 
					196.4,124.1 196.4,124.3 196.4,124.4 196.2,124.8 196.1,125 196,125.1 195.3,125.5 194.6,125.9 194.3,126.1 193.7,126.3 
					193.3,126.4 192.8,126.8 192.4,127 192.1,127.3 191.9,127.4 191.9,127.5 191.9,127.7 191.9,127.8 191.9,127.9 191.8,128 
					191.4,128.2 191.3,128.3 191,128.8 190.8,128.9 190.4,129.1 190.3,129.2 190.2,129.3 190.1,129.5 190.2,129.6 190.3,129.8 
					190.3,130 190.1,130.2 190.1,130.3 189.4,130.9 189,131.2 188.8,131.5 188.6,131.9 188.5,132.1 188.1,132.4 187.8,132.6 
					187.7,132.6 187.4,132.7 186.9,132.7 186.8,132.8 186.7,133 186.6,133.4 186.5,133.4 186.2,133.6 186,133.7 185.7,134 
					185.7,134.1 185.7,134.3 185.6,134.4 185.5,134.5 185.1,134.4 185.1,134.5 184.9,134.6 184.9,134.6 184.4,134.6 184.3,134.8 
					184.5,135 184.4,135.1 184.2,135.4 184.2,135.4 184.1,135.8 184,135.9 183.9,135.9 183.7,136.1 183.3,136.2 183,136.3 
					182.9,136.4 182.8,136.6 182.6,136.6 182.5,136.6 182.4,136.8 182.2,136.9 182.2,137 182.2,137.1 182.4,137.2 182.4,137.3 
					182.3,137.7 182.1,137.9 181.9,138.1 181.9,138.4 181.9,138.6 181.9,138.7 182.1,139.1 182.1,139.2 182.2,139.3 182.4,139.3 
					182.6,139.4 182.8,139.5 183.1,139.7 183.2,139.8 183.7,140.2 183.8,140.2 183.9,140.1 183.9,140 184,140 184,139.8 184,139.7 
					184,139.6 184,139.5 184.1,139.3 184.1,139.3 184.1,139.1 184.1,139.1 184.2,139.1 184.3,139.1 184.6,139.1 184.8,139 
					185.2,139 185.7,138.9 186.4,138.9 186.9,138.8 187.3,138.8 187.5,138.8 187.8,138.7 188.2,138.7 188.6,138.7 189.4,138.6 
					189.8,138.6 190.1,138.6 190.3,138.6 190.8,138.6 192.8,138.7 193.3,138.7 193.6,138.7 193.9,138.8 195.6,138.8 196,138.9 
					196.3,138.9 196.6,138.9 196.7,138.9 197,139 197.4,139 201.2,139.6 201.6,139.7 201.8,139.7 201.9,139.7 202.2,139.7 
					202.4,139.7 202.8,139.7 203.2,139.7 203.4,139.7 203.6,139.7 204,139.7 204.3,139.7 204.6,139.7 204.7,139.7 204.8,139.7 
					204.9,139.7 205,139.6 205.3,139.6 205.5,139.5 205.7,139.5 206.1,139.3 206.2,139.3 206.6,139.2 207.5,138.9 207.8,138.8 
					208.1,138.7 208.4,138.6 208.7,138.5 209.2,138.4 209.6,138.3 209.8,138.2 210.2,138.1 211.1,137.9 211.4,137.9 211.6,137.9 
					211.8,137.8 212.1,137.7 212.7,137.7 214.9,137.4 215.4,137.3 215.7,137.3 216.2,137.3 216.6,137.2 216.9,137.2 217.1,137.2 
					217.4,137.2 218.8,137.1 219.1,137.1 219.3,137.1 219.6,137.1 219.9,137 221.3,136.9 221.8,136.8 222.2,136.8 222.4,136.8 
					223,136.8 223.9,136.7 224.5,136.6 225.2,136.6 225.6,136.6 225.9,136.6 226.6,136.6 228.1,136.4 228.6,136.4 229.2,136.4 
					231.1,136.2 231.7,136.1 232.3,136.1 234.3,136 234.7,135.9 234.9,135.9 235.2,135.9 235.7,135.9 235.9,135.9 236.1,135.9 
					237,135.9 237.2,135.9 237.4,135.9 237.6,135.9 237.7,135.9 237.9,135.9 238.3,135.8 238.5,135.8 239,135.7 239.3,135.6 
					239.5,135.6 239.7,135.5 240,135.5 240.3,135.5 242.1,135.4 242.6,135.4 242.9,135.4 243.7,135.3 244.7,135.3 245.1,135.3 
					245.3,135.3 245.7,135.3 246.9,135.3 247.2,135.3 247.4,135.3 247.6,135.4 247.8,135.4 248.1,135.4 248.3,135.4 248.5,135.4 
					248.6,135.5 248.8,135.5 248.9,135.5 249,135.5 249.1,135.5 249.2,135.6 249.3,135.7 249.4,135.7 249.4,135.7 249.5,135.8 
					249.5,135.9 249.6,135.9 249.7,136.1 249.7,136.1 249.8,136.3 249.9,136.3 249.9,136.4 250,136.4 250.1,136.5 250.2,136.6 
					250.3,136.6 250.4,136.6 250.5,136.6 250.6,136.6 250.7,136.6 250.8,136.6 250.8,136.6 251,136.5 251,136.5 251.2,136.4 
					251.2,136.4 251.3,136.4 251.4,136.3 251.5,136.3 251.6,136.2 251.7,136.1 251.8,136.1 251.9,136 252,135.9 252.1,135.9 
					252.1,135.8 252.2,135.7 252.2,135.7 252.2,135.5 252.3,135.4 252.4,135.4 252.4,135.2 252.4,135.1 252.4,135 252.4,134.8 
					252.4,134.8 252.4,134.6 252.4,134.3 252.4,134.1 252.4,134.1 252.4,133.9 252.5,133.9 252.5,133.7 252.6,133.7 252.6,133.6 
					252.6,133.5 252.7,133.4 252.8,133.4 252.8,133.3 252.9,133.2 253,133.2 253.1,133.1 253.2,133 253.3,133 253.5,132.9 
					253.7,132.8 253.8,132.8 253.9,132.7 254.2,132.7 254.4,132.6 254.6,132.5 254.8,132.5 254.9,132.4 255.1,132.3 255.4,132.3 
					257.1,131.9 257.6,131.8 257.8,131.8 258,131.7 258.1,131.7 258.7,131.6 262.3,131.1 				"/>
			</g>
		</g>
	</g>
</g>
</svg>
