<?xml version="1.0" encoding="utf-8"?>
<!-- Generator: Adobe Illustrator 21.0.0, SVG Export Plug-In . SVG Version: 6.00 Build 0)  -->
<svg version="1.1" id="Layer_1" xmlns="http://www.w3.org/2000/svg" xmlns:xlink="http://www.w3.org/1999/xlink" x="0px" y="0px"
	 viewBox="0 0 230 230" style="enable-background:new 0 0 230 230;" xml:space="preserve">
<style type="text/css">
	.st0{fill:#FFFFFF;stroke:#7D8051;stroke-width:5;stroke-linejoin:round;stroke-miterlimit:10;}
	.st1{fill:none;stroke:#7D8051;stroke-width:5;stroke-linejoin:round;stroke-miterlimit:10;}
	.st2{fill:none;stroke:#7D8051;stroke-width:5;stroke-linecap:round;stroke-linejoin:round;stroke-miterlimit:10;}
	.st3{fill:#7D8051;}
</style>
<g>
	<path class="st0" d="M173.7,145.2H87.9c-6,0-10.9-4.9-10.9-10.9V77c0-6,4.9-10.9,10.9-10.9h85.8c6,0,10.9,4.9,10.9,10.9v57.4
		C184.6,140.4,179.7,145.2,173.7,145.2z"/>
	<path class="st0" d="M98.6,145.2c0,0-0.1-79.2,0-79.2"/>
	<line class="st1" x1="163.4" y1="145.2" x2="163.4" y2="66"/>
	<path class="st0" d="M145,66h-28.4v-9.2c0-2.4,1.9-4.3,4.3-4.3h19.7c2.4,0,4.3,1.9,4.3,4.3L145,66L145,66z"/>
	<path class="st2" d="M46.7,73.4h6.7c5,0,9,4,9,9v65.4c0,6.4,5.2,11.7,11.7,11.7h110.6"/>
	<circle class="st3" cx="87.7" cy="170.2" r="7.4"/>
	<circle class="st3" cx="166.8" cy="170.2" r="7.4"/>
</g>
</svg>
